<svg width="76" height="102" viewBox="0 0 76 102" fill="none" xmlns="http://www.w3.org/2000/svg">
<path d="M5.40184 101.555C2.0064 101.555 0.205785 100.011 0 96.9245C0 95.8956 2.57231 84.989 7.71692 64.2048C12.8615 43.4205 15.6396 32.7197 16.0512 32.1024C17.6975 26.4433 20.527 20.9386 24.5398 15.5882C31.7423 6.73944 39.9222 1.59483 49.0796 0.154335C49.2854 0.154335 49.697 0.154335 50.3143 0.154335C50.9317 0.154335 51.4461 0.10289 51.8577 0C59.3689 0 65.1308 2.46941 69.1436 7.40824C73.1564 12.3471 75.1628 18.4177 75.1628 25.6202C75.1628 31.485 73.9281 37.1956 71.4587 42.7517C68.9893 48.3079 65.8511 52.9895 62.0441 56.7965C58.237 60.6036 54.1213 63.7418 49.697 66.2112C45.2726 68.6806 41.2084 69.8639 37.5042 69.761H35.8065H34.7261C29.4786 69.761 25.2086 67.4459 21.9161 62.8157L21.1444 61.8897L16.9772 79.1756C14.4049 89.1562 12.913 94.8152 12.5014 96.1528C12.0898 97.4904 11.4725 98.5708 10.6494 99.3939C9.00308 100.834 7.25391 101.555 5.40184 101.555ZM61.8897 18.5206C61.8897 14.7136 61.0151 11.6268 59.266 9.26031C57.5168 6.89378 54.9445 5.71052 51.549 5.71052C47.9478 5.71052 44.3466 7.20246 40.7453 10.1863C37.1441 13.1702 34.2631 17.0801 32.1024 21.9161C30.6619 25.1057 28.7069 31.7937 26.2375 41.9801L23.6138 52.4751C25.3629 60.2949 29.6844 64.2048 36.5782 64.2048C40.4881 64.2048 44.2951 62.3527 47.9993 58.6486C51.3947 55.5618 54.2242 50.623 56.4879 43.8321C58.7515 37.0412 60.2434 31.485 60.9637 27.1636C61.6839 22.8421 61.9926 19.9611 61.8897 18.5206Z" fill="white"/>
</svg>
