<svg width="143" height="119" viewBox="0 0 143 119" fill="none" xmlns="http://www.w3.org/2000/svg">
<path d="M16.5788 36.5916C19.8156 36.5916 22.3814 37.5389 24.2761 39.4336C26.1708 41.3283 27.1182 43.6573 27.1182 46.4204C27.1182 47.9993 25.855 52.1835 23.3287 58.9729C20.8024 65.7623 19.5788 70.6965 19.6577 73.7754C19.8945 77.0912 20.9603 79.6964 22.855 81.5911C24.5129 83.0122 26.2103 83.9595 27.9471 84.4332C29.3681 85.0648 30.5918 85.3806 31.6181 85.3806H31.7365L41.447 46.1836C48.0785 20.0522 51.4337 6.9471 51.5127 6.86815C51.7495 6.71026 52.3811 6.63131 53.4074 6.63131C54.9863 6.63131 55.7758 6.90762 55.7758 7.46025C55.7758 8.17077 52.5784 21.2364 46.1838 46.6572C39.7102 72.5517 36.4733 85.5385 36.4733 85.6174C36.4733 85.6963 36.7102 85.7358 37.1839 85.7358C43.9733 85.7358 50.4074 82.2622 56.4863 75.3149C62.5652 68.3676 65.6441 61.8939 65.7231 55.894C65.7231 53.9993 65.4073 52.3809 64.7757 51.0388C64.1441 49.6967 63.4336 48.7493 62.6441 48.1967C61.8547 47.6441 61.1442 46.9336 60.5126 46.0651C59.881 45.1967 59.5652 44.2888 59.5652 43.3415C59.5652 41.6836 60.2363 40.1047 61.5784 38.6047C62.9205 37.1047 64.5783 36.3547 66.552 36.3547C68.052 36.3547 69.4336 37.0652 70.6967 38.4863C71.9598 39.9073 72.5914 42.2362 72.5914 45.473C72.5914 47.7625 72.1572 50.8414 71.2888 54.7098C70.4204 58.5782 69.7099 61.2624 69.1572 62.7624C66.631 70.2623 62.1705 76.6964 55.7758 82.0648C49.3811 87.4332 42.947 90.1174 36.4733 90.1174H35.2891L32.5655 101.13C30.6708 108.551 29.7234 112.301 29.7234 112.38C29.5655 112.854 28.776 113.091 27.355 113.091H25.8155C25.3419 112.617 25.105 112.301 25.105 112.143C25.105 111.749 26.0129 107.999 27.8287 100.894C29.6445 93.7884 30.5523 90.1174 30.5523 89.8805C29.9997 89.8016 29.4471 89.7621 28.8945 89.7621C16.3419 88.0253 10.0657 82.2227 10.0657 72.3544C10.0657 69.5912 11.3683 64.6571 13.9736 57.5519C16.5788 50.4467 17.9209 45.9072 17.9998 43.9336C17.9998 43.8546 17.9998 43.7757 17.9998 43.6967C17.9998 42.9862 17.9998 42.5125 17.9998 42.2757C17.9998 42.0389 17.8419 41.7626 17.5261 41.4468C17.2104 41.131 16.7762 40.9731 16.2235 40.9731H15.7499C13.9341 40.9731 12.2762 41.7231 10.7762 43.2231C9.27623 44.7231 8.09203 46.3415 7.22362 48.0783C6.3552 49.8151 5.68416 51.473 5.21048 53.0519C4.7368 54.6309 4.42101 55.4993 4.26312 55.6572C4.10522 55.8151 3.47365 55.894 2.3684 55.894H0.71052C0.23684 55.4203 0 55.0651 0 54.8282C0 53.8809 0.513153 52.0651 1.53946 49.3809C2.56577 46.6967 4.46048 43.8941 7.22362 40.9731C9.98675 38.0521 13.1051 36.5916 16.5788 36.5916Z" fill="white"/>
<path d="M90.0096 56.3443C90.0096 55.0048 90.5399 53.8327 91.6004 52.828C92.6608 51.8233 93.8888 51.2931 95.2842 51.2372C96.2888 51.2372 97.1261 51.5721 97.7959 52.2419C98.4656 52.9117 98.8284 53.7489 98.8843 54.7536C98.8843 56.0374 98.3261 57.2095 97.2098 58.27C96.0935 59.3305 94.8656 59.8886 93.526 59.9444C92.6888 59.9444 91.9073 59.6654 91.1817 59.1072C90.4561 58.549 90.0654 57.6281 90.0096 56.3443ZM76.3628 82.5496C76.3628 82.1031 76.614 81.2379 77.1163 79.9542C77.6186 78.6704 78.2884 77.2472 79.1256 75.6843C79.9629 74.1215 81.1908 72.6982 82.8095 71.4145C84.4281 70.1307 86.1026 69.5167 87.8328 69.5726C90.0096 69.5726 91.8236 70.2144 93.2748 71.4982C94.726 72.7819 95.4795 74.5122 95.5353 76.689C95.5353 77.6379 95.1446 79.2007 94.3632 81.3775C93.5818 83.5543 92.4655 86.4846 91.0143 90.1684C89.5631 93.8522 88.391 97.0058 87.4979 99.6291C87.2189 100.857 87.0793 101.75 87.0793 102.308C87.0793 103.704 87.5538 104.401 88.5026 104.401C89.0049 104.401 89.5352 104.318 90.0933 104.15C90.6515 103.983 91.2934 103.592 92.019 102.978C92.7446 102.364 93.4981 101.387 94.2795 100.048C95.0609 98.7081 95.7586 97.0616 96.3726 95.108C96.54 94.4383 96.6795 94.0475 96.7912 93.9359C96.9028 93.8243 97.3772 93.7685 98.2145 93.7685C99.3308 93.7685 99.8889 94.0475 99.8889 94.6057C99.8889 95.0522 99.6378 95.9174 99.1354 97.2011C98.6331 98.4849 97.9354 99.9081 97.0423 101.471C96.1493 103.034 94.8935 104.429 93.2748 105.657C91.6562 106.885 89.9259 107.499 88.084 107.499C86.2979 107.499 84.6514 106.913 83.1443 105.741C81.6373 104.569 80.8559 102.783 80.8001 100.383C80.8001 99.4337 80.9396 98.5407 81.2187 97.7034C81.4978 96.8662 82.6978 93.6847 84.8188 88.159C86.9398 82.5217 88.1677 79.1449 88.5026 78.0286C88.8375 76.9123 89.0329 75.8239 89.0887 74.7634C89.0887 73.4238 88.6142 72.754 87.6654 72.754H87.4979C85.8235 72.754 84.2886 73.675 82.8932 75.5169C81.4978 77.3588 80.4373 79.703 79.7117 82.5496C79.6559 82.6054 79.6001 82.6891 79.5443 82.8008C79.4884 82.9124 79.4605 82.9961 79.4605 83.0519C79.4605 83.1078 79.4047 83.1636 79.2931 83.2194C79.1815 83.2752 79.0977 83.3031 79.0419 83.3031C78.9861 83.3031 78.8745 83.3031 78.707 83.3031C78.5396 83.3031 78.3163 83.3031 78.0373 83.3031H76.8651C76.5302 82.9682 76.3628 82.7171 76.3628 82.5496Z" fill="white"/>
<path d="M115.935 2.13156C116.014 1.57893 116.25 1.10526 116.645 0.710518C117.04 0.315788 117.592 0.078949 118.303 0C119.092 0 119.763 0.39473 120.316 1.1842C120.553 1.73682 124.263 11.4473 131.448 30.3155C138.632 49.1837 142.263 58.8152 142.342 59.21C142.421 59.6047 138.829 69.2362 131.566 88.1044C124.303 106.973 120.553 116.683 120.316 117.236C119.763 118.025 119.092 118.42 118.303 118.42C117.671 118.42 117.158 118.223 116.764 117.828C116.369 117.433 116.092 116.92 115.935 116.288C115.935 115.894 119.487 106.302 126.592 87.5123C133.777 68.802 137.369 59.3679 137.369 59.21C137.369 59.0521 133.777 49.618 126.592 30.9076C119.487 12.1183 115.935 2.52629 115.935 2.13156Z" fill="white"/>
</svg>
