<svg width="108" height="87" viewBox="0 0 108 87" fill="none" xmlns="http://www.w3.org/2000/svg">
<path d="M25.5823 5.79689C25.3302 5.79689 24.9942 5.79689 24.5741 5.79689C22.4737 5.79689 21.2135 5.75488 20.7935 5.67087C20.3734 5.58685 20.1634 5.12478 20.1634 4.28464C20.1634 2.01626 20.6254 0.630028 21.5496 0.125946C21.7176 0.0419312 25.7923 -7.62939e-05 33.7736 -7.62939e-05C40.2427 -7.62939e-05 43.9393 -7.62939e-05 44.8635 -7.62939e-05C45.7876 -7.62939e-05 46.3757 0.251968 46.6278 0.75605C64.3547 42.427 73.3862 63.8086 73.7223 64.9007L80.5274 38.0583C84.9802 20.3313 87.2065 10.8797 87.2065 9.70354C87.2065 7.43517 84.5181 6.13295 79.1412 5.79689C77.1248 5.79689 76.1167 5.33482 76.1167 4.41066C76.1167 4.24263 76.2007 3.73855 76.3687 2.89841C76.7048 1.55418 76.9568 0.75605 77.1248 0.504005C77.2929 0.251968 77.713 0.0839386 78.3851 -7.62939e-05C78.6371 -7.62939e-05 79.9393 0.0419312 82.2917 0.125946C84.6441 0.209961 88.1307 0.293976 92.7515 0.377991C96.9522 0.377991 100.145 0.335983 102.329 0.251968C104.513 0.167953 105.774 0.125946 106.11 0.125946C107.37 0.125946 108 0.546013 108 1.38615C108 3.23447 107.664 4.49467 106.992 5.16679C106.824 5.58685 105.9 5.79689 104.219 5.79689C98.2544 6.13295 94.5157 7.81322 93.0035 10.8377L74.2264 85.1901C74.0583 85.7782 73.1762 86.0723 71.5799 86.0723C70.4037 86.0723 69.6896 85.9883 69.4376 85.8202C69.1855 85.5682 63.7666 72.8401 53.1809 47.6359L37.1762 9.95558L28.9848 42.721C23.5239 64.2286 20.7935 75.3605 20.7935 76.1166C21.2135 78.8891 24.238 80.2753 29.867 80.2753H31.1272C31.6313 80.6954 31.8833 81.0314 31.8833 81.2835C31.8833 81.5355 31.7993 82.3336 31.6313 83.6779C31.2952 84.77 30.8751 85.5682 30.3711 86.0723H28.7328C26.1284 85.9042 21.5916 85.8202 15.1225 85.8202C12.7701 85.8202 10.6278 85.8202 8.69545 85.8202C6.76313 85.8202 5.20887 85.8202 4.03267 85.8202C2.85648 85.8202 2.14236 85.8622 1.89031 85.9462C0.630105 85.9462 0 85.5682 0 84.8121C0 84.476 0.126021 83.8039 0.378063 82.7957C0.630105 81.7876 0.84014 81.1995 1.00817 81.0314C1.1762 80.5273 2.14236 80.2753 3.90665 80.2753C9.6196 80.0233 13.3162 78.385 14.9965 75.3605C15.3326 74.8564 18.3151 63.2205 23.944 40.4527L32.5134 6.17495C32.3454 6.09094 30.035 5.96492 25.5823 5.79689Z" fill="white"/>
</svg>
