<svg width="726" height="247" viewBox="0 0 726 247" fill="none" xmlns="http://www.w3.org/2000/svg">
<path d="M3.16131 166.997C1.1742 166.997 0.120431 166.094 0 164.287C0 163.685 1.50539 157.302 4.51616 145.139C7.52693 132.975 9.15275 126.713 9.39361 126.352C10.3571 123.04 12.013 119.818 14.3614 116.687C18.5765 111.509 23.3636 108.498 28.7228 107.655C28.8432 107.655 29.0841 107.655 29.4454 107.655C29.8067 107.655 30.1077 107.625 30.3486 107.564C34.7443 107.564 38.1164 109.01 40.4648 111.9C42.8132 114.79 43.9874 118.343 43.9874 122.558C43.9874 125.99 43.2648 129.332 41.8196 132.584C40.3745 135.836 38.5379 138.575 36.3099 140.803C34.082 143.031 31.6733 144.868 29.0841 146.313C26.4948 147.758 24.1163 148.451 21.9485 148.39H20.955H20.3227C17.2517 148.39 14.7528 147.036 12.8259 144.326L12.3743 143.784L9.93555 153.9C8.43017 159.741 7.55704 163.053 7.31618 163.836C7.07532 164.619 6.71402 165.251 6.2323 165.733C5.26885 166.576 4.24519 166.997 3.16131 166.997ZM36.2196 118.403C36.2196 116.175 35.7078 114.369 34.6841 112.984C33.6604 111.599 32.1551 110.906 30.1679 110.906C28.0604 110.906 25.9529 111.779 23.8453 113.526C21.7378 115.272 20.0518 117.56 18.7872 120.39C17.9442 122.257 16.8001 126.171 15.3549 132.132L13.8195 138.274C14.8431 142.851 17.3722 145.139 21.4066 145.139C23.6948 145.139 25.9228 144.055 28.0905 141.887C30.0776 140.081 31.7336 137.19 33.0583 133.216C34.383 129.242 35.2562 125.99 35.6777 123.461C36.0992 120.932 36.2798 119.246 36.2196 118.403Z" fill="white"/>
<path d="M74.7695 116.145C74.7695 115.363 75.191 114.76 76.0341 114.339H133.57C134.473 114.821 134.925 115.423 134.925 116.145C134.925 116.808 134.503 117.38 133.66 117.862L104.937 117.952H76.2147C75.2513 117.651 74.7695 117.049 74.7695 116.145ZM74.7695 133.668C74.7695 132.765 75.2513 132.163 76.2147 131.862H133.66C134.503 132.464 134.925 133.066 134.925 133.668C134.925 134.451 134.473 135.053 133.57 135.475H76.0341C75.191 135.053 74.7695 134.451 74.7695 133.668Z" fill="white"/>
<path d="M221.708 34.2209L220.534 34.6725C219.691 34.9736 218.486 35.2747 216.921 35.5758C215.355 35.8769 213.609 36.0876 211.682 36.208H209.966V32.0532H211.682C214.512 31.9327 217.131 31.4811 219.54 30.6983C221.949 29.9155 223.635 29.1929 224.598 28.5306C225.562 27.8682 226.405 27.2058 227.127 26.5434C227.248 26.3628 227.609 26.2725 228.211 26.2725C228.753 26.2725 229.265 26.4531 229.747 26.8144V53.8211L229.837 80.918C230.258 81.3395 230.62 81.6105 230.921 81.7309C231.222 81.8514 231.944 81.9718 233.089 82.0922C234.233 82.2127 236.099 82.2729 238.689 82.2729H241.037V86.4277H240.043C238.779 86.2471 233.992 86.1568 225.682 86.1568C217.493 86.1568 212.766 86.2471 211.501 86.4277H210.417V82.2729H212.766C214.091 82.2729 215.235 82.2729 216.198 82.2729C217.162 82.2729 217.914 82.2428 218.456 82.1825C218.998 82.1223 219.48 82.032 219.901 81.9116C220.323 81.7911 220.564 81.7309 220.624 81.7309C220.684 81.7309 220.865 81.5804 221.166 81.2793C221.467 80.9782 221.648 80.8578 221.708 80.918V34.2209Z" fill="white"/>
<path d="M206.081 151.912C205.901 151.912 205.66 151.912 205.359 151.912C203.853 151.912 202.95 151.882 202.649 151.822C202.348 151.762 202.197 151.431 202.197 150.828C202.197 149.203 202.529 148.209 203.191 147.848C203.311 147.788 206.232 147.757 211.952 147.757C216.589 147.757 219.238 147.757 219.901 147.757C220.563 147.757 220.985 147.938 221.165 148.299C233.871 178.166 240.344 193.491 240.585 194.274L245.462 175.035C248.654 162.33 250.249 155.555 250.249 154.712C250.249 153.087 248.322 152.153 244.469 151.912C243.023 151.912 242.301 151.581 242.301 150.919C242.301 150.798 242.361 150.437 242.481 149.835C242.722 148.871 242.903 148.299 243.023 148.119C243.144 147.938 243.445 147.818 243.927 147.757C244.107 147.757 245.041 147.788 246.727 147.848C248.413 147.908 250.912 147.968 254.223 148.028C257.234 148.028 259.522 147.998 261.088 147.938C262.654 147.878 263.557 147.848 263.798 147.848C264.701 147.848 265.153 148.149 265.153 148.751C265.153 150.076 264.912 150.979 264.43 151.461C264.31 151.762 263.647 151.912 262.443 151.912C258.168 152.153 255.488 153.358 254.404 155.525L240.946 208.816C240.826 209.237 240.193 209.448 239.049 209.448C238.206 209.448 237.694 209.388 237.514 209.268C237.333 209.087 233.449 199.964 225.862 181.9L214.391 154.893L208.52 178.377C204.606 193.792 202.649 201.771 202.649 202.313C202.95 204.3 205.118 205.293 209.152 205.293H210.055C210.417 205.594 210.597 205.835 210.597 206.016C210.597 206.197 210.537 206.769 210.417 207.732C210.176 208.515 209.875 209.087 209.513 209.448H208.339C206.473 209.328 203.221 209.268 198.584 209.268C196.898 209.268 195.363 209.268 193.978 209.268C192.593 209.268 191.479 209.268 190.636 209.268C189.793 209.268 189.281 209.298 189.1 209.358C188.197 209.358 187.746 209.087 187.746 208.545C187.746 208.304 187.836 207.822 188.017 207.1C188.197 206.377 188.348 205.956 188.468 205.835C188.589 205.474 189.281 205.293 190.546 205.293C194.64 205.113 197.29 203.939 198.494 201.771C198.735 201.409 200.873 193.07 204.907 176.751L211.049 152.183C210.929 152.123 209.273 152.033 206.081 151.912Z" fill="white"/>
<path d="M274.185 127.616H175.914V122.197H274.185V127.616Z" fill="white"/>
<path d="M305.491 61.86C305.672 61.7396 323.887 61.6794 360.137 61.6794H414.511L419.75 73.873C423.303 82.1827 425.2 86.5785 425.44 87.0602H421.827L421.195 85.7957C419.931 83.3268 418.245 80.9784 416.137 78.7505C413.126 75.8601 409.784 73.5418 406.111 71.7956C402.438 70.0493 398.193 68.7547 393.376 67.9117C388.558 67.0686 384.012 66.5568 379.737 66.3762C375.462 66.1955 369.952 66.0751 363.208 66.0149H351.917H349.117H322.743L323.465 67.0084C351.345 105.125 365.345 124.364 365.466 124.725C365.526 124.845 365.526 125.026 365.466 125.267C365.285 125.448 357.337 134.54 341.62 152.544L317.775 179.641C317.775 179.702 324.128 179.732 336.833 179.732C339.965 179.732 344.21 179.732 349.569 179.732C354.928 179.732 358.782 179.762 361.13 179.822C369.32 179.822 375.943 179.672 381.001 179.37C386.059 179.069 391.087 178.437 396.085 177.474C401.083 176.51 405.328 175.035 408.821 173.048C412.313 171.061 415.414 168.441 418.124 165.19C419.389 163.624 420.623 161.456 421.827 158.686H425.44C425.44 158.747 425.23 159.379 424.808 160.583C424.387 161.788 423.634 163.745 422.55 166.454C421.466 169.164 420.533 171.693 419.75 174.041L414.511 188.042L360.227 188.132C323.977 188.132 305.762 188.072 305.581 187.951C305.22 187.831 305.04 187.56 305.04 187.138C305.04 187.018 305.1 186.837 305.22 186.596L353.362 131.499C353.362 131.439 352.369 130.084 350.382 127.435C348.395 124.785 345.233 120.45 340.898 114.428C336.562 108.407 332.648 103.047 329.156 98.3506L305.13 65.3826L305.04 64.0278C305.04 62.7632 305.19 62.0407 305.491 61.86Z" fill="white"/>
<path d="M325.207 207.435C325.207 206.413 325.612 205.519 326.421 204.753C327.229 203.986 328.166 203.582 329.23 203.539C329.997 203.539 330.635 203.795 331.146 204.306C331.657 204.816 331.934 205.455 331.976 206.221C331.976 207.2 331.551 208.094 330.699 208.903C329.848 209.712 328.911 210.138 327.889 210.181C327.251 210.181 326.655 209.968 326.101 209.542C325.548 209.116 325.25 208.414 325.207 207.435ZM314.798 227.422C314.798 227.082 314.99 226.422 315.373 225.443C315.756 224.464 316.267 223.378 316.906 222.186C317.544 220.994 318.481 219.908 319.715 218.929C320.95 217.95 322.227 217.482 323.547 217.524C325.207 217.524 326.591 218.014 327.698 218.993C328.805 219.972 329.379 221.292 329.422 222.952C329.422 223.676 329.124 224.868 328.528 226.528C327.932 228.189 327.08 230.424 325.974 233.233C324.867 236.043 323.973 238.449 323.292 240.449C323.079 241.386 322.972 242.067 322.972 242.493C322.972 243.557 323.334 244.089 324.058 244.089C324.441 244.089 324.845 244.026 325.271 243.898C325.697 243.77 326.186 243.472 326.74 243.004C327.293 242.535 327.868 241.79 328.464 240.769C329.06 239.747 329.592 238.491 330.061 237.001C330.188 236.49 330.295 236.192 330.38 236.107C330.465 236.022 330.827 235.979 331.465 235.979C332.317 235.979 332.743 236.192 332.743 236.618C332.743 236.959 332.551 237.618 332.168 238.598C331.785 239.577 331.253 240.662 330.571 241.854C329.89 243.046 328.932 244.111 327.698 245.047C326.463 245.984 325.143 246.452 323.739 246.452C322.376 246.452 321.12 246.005 319.971 245.111C318.821 244.217 318.225 242.855 318.183 241.024C318.183 240.3 318.289 239.619 318.502 238.981C318.715 238.342 319.63 235.915 321.248 231.701C322.866 227.401 323.802 224.825 324.058 223.974C324.313 223.123 324.462 222.292 324.505 221.483C324.505 220.462 324.143 219.951 323.419 219.951H323.292C322.014 219.951 320.844 220.653 319.779 222.058C318.715 223.463 317.906 225.251 317.353 227.422C317.31 227.465 317.268 227.529 317.225 227.614C317.182 227.699 317.161 227.763 317.161 227.805C317.161 227.848 317.119 227.891 317.033 227.933C316.948 227.976 316.884 227.997 316.842 227.997C316.799 227.997 316.714 227.997 316.586 227.997C316.459 227.997 316.288 227.997 316.076 227.997H315.181C314.926 227.742 314.798 227.55 314.798 227.422Z" fill="white"/>
<path d="M339.065 223.59C339.065 223.037 339.363 222.611 339.959 222.313H380.637C381.275 222.654 381.595 223.079 381.595 223.59C381.595 224.058 381.297 224.463 380.701 224.803L360.394 224.867H340.087C339.406 224.654 339.065 224.229 339.065 223.59ZM339.065 235.979C339.065 235.34 339.406 234.914 340.087 234.702H380.701C381.297 235.127 381.595 235.553 381.595 235.979C381.595 236.532 381.275 236.958 380.637 237.256H339.959C339.363 236.958 339.065 236.532 339.065 235.979Z" fill="white"/>
<path d="M398.773 208.839L397.943 209.158C397.347 209.371 396.495 209.584 395.388 209.797C394.281 210.01 393.047 210.159 391.685 210.244H390.471V207.306H391.685C393.685 207.221 395.537 206.902 397.24 206.348C398.943 205.795 400.135 205.284 400.816 204.816C401.497 204.347 402.093 203.879 402.604 203.411C402.689 203.283 402.945 203.219 403.371 203.219C403.754 203.219 404.116 203.347 404.456 203.602V222.696L404.52 241.854C404.818 242.152 405.074 242.343 405.286 242.428C405.499 242.514 406.01 242.599 406.819 242.684C407.628 242.769 408.948 242.812 410.778 242.812H412.439V245.749H411.736C410.842 245.621 407.458 245.557 401.583 245.557C395.793 245.557 392.451 245.621 391.557 245.749H390.79V242.812H392.451C393.387 242.812 394.196 242.812 394.877 242.812C395.559 242.812 396.091 242.79 396.474 242.748C396.857 242.705 397.198 242.641 397.496 242.556C397.794 242.471 397.964 242.428 398.006 242.428C398.049 242.428 398.177 242.322 398.39 242.109C398.603 241.896 398.73 241.811 398.773 241.854V208.839Z" fill="white"/>
<path d="M351.866 2.93737C351.738 2.93737 351.568 2.93737 351.355 2.93737C350.291 2.93737 349.652 2.91608 349.439 2.87351C349.227 2.83094 349.12 2.59679 349.12 2.17107C349.12 1.02161 349.354 0.319172 349.823 0.063736C349.908 0.0211639 351.973 -0.00012207 356.017 -0.00012207C359.295 -0.00012207 361.168 -0.00012207 361.636 -0.00012207C362.105 -0.00012207 362.403 0.127594 362.53 0.38303C371.513 21.4989 376.09 32.3336 376.26 32.887L379.708 19.2851C381.965 10.3024 383.093 5.513 383.093 4.91698C383.093 3.76753 381.731 3.10766 379.006 2.93737C377.984 2.93737 377.473 2.70322 377.473 2.23492C377.473 2.14978 377.516 1.89435 377.601 1.46862C377.771 0.787464 377.899 0.38303 377.984 0.25531C378.069 0.127594 378.282 0.04245 378.623 -0.00012207C378.751 -0.00012207 379.41 0.0211639 380.602 0.063736C381.794 0.106308 383.561 0.14888 385.903 0.191452C388.031 0.191452 389.649 0.170166 390.756 0.127594C391.863 0.085022 392.501 0.063736 392.672 0.063736C393.31 0.063736 393.63 0.276596 393.63 0.70232C393.63 1.63891 393.459 2.2775 393.119 2.61808C393.034 2.83094 392.565 2.93737 391.714 2.93737C388.691 3.10766 386.797 3.95911 386.03 5.49171L376.515 43.1682C376.43 43.4662 375.983 43.6152 375.174 43.6152C374.578 43.6152 374.217 43.5727 374.089 43.4875C373.961 43.3598 371.215 36.9101 365.851 24.1384L357.741 5.0447L353.59 21.6479C350.823 32.5464 349.439 38.1873 349.439 38.5704C349.652 39.9753 351.185 40.6777 354.037 40.6777H354.676C354.931 40.8906 355.059 41.0609 355.059 41.1886C355.059 41.3163 355.016 41.7208 354.931 42.4019C354.761 42.9554 354.548 43.3598 354.293 43.6152H353.463C352.143 43.5301 349.844 43.4875 346.566 43.4875C345.374 43.4875 344.288 43.4875 343.309 43.4875C342.33 43.4875 341.542 43.4875 340.946 43.4875C340.35 43.4875 339.988 43.5088 339.861 43.5514C339.222 43.5514 338.903 43.3598 338.903 42.9766C338.903 42.8064 338.967 42.4658 339.094 41.9549C339.222 41.444 339.329 41.146 339.414 41.0609C339.499 40.8055 339.988 40.6777 340.882 40.6777C343.777 40.55 345.651 39.7199 346.502 38.1873C346.672 37.9318 348.184 32.0356 351.036 20.4985L355.378 3.12894C355.293 3.08637 354.122 3.02251 351.866 2.93737Z" fill="white"/>
<path d="M458.111 169.979H457.93C457.207 169.979 456.665 169.557 456.304 168.714V124.817L456.395 80.9198C456.997 80.137 457.569 79.7456 458.111 79.7456C458.893 79.7456 459.496 80.1973 459.917 81.1005V168.714C459.435 169.557 458.893 169.979 458.291 169.979H458.111Z" fill="white"/>
<path d="M485.208 107.654C487.677 107.654 489.634 108.377 491.079 109.822C492.524 111.267 493.247 113.043 493.247 115.151C493.247 116.355 492.283 119.547 490.356 124.725C488.429 129.904 487.496 133.667 487.556 136.016C487.737 138.545 488.55 140.532 489.995 141.977C491.259 143.061 492.554 143.783 493.879 144.145C494.963 144.626 495.896 144.867 496.679 144.867H496.769L504.176 114.97C509.234 95.039 511.793 85.0432 511.853 84.983C512.034 84.8626 512.515 84.8024 513.298 84.8024C514.503 84.8024 515.105 85.0131 515.105 85.4346C515.105 85.9766 512.666 95.9422 507.789 115.332C502.851 135.082 500.382 144.988 500.382 145.048C500.382 145.108 500.563 145.138 500.924 145.138C506.103 145.138 511.01 142.489 515.647 137.19C520.283 131.891 522.632 126.953 522.692 122.377C522.692 120.932 522.451 119.697 521.969 118.674C521.488 117.65 520.946 116.927 520.343 116.506C519.741 116.084 519.199 115.542 518.718 114.88C518.236 114.218 517.995 113.525 517.995 112.803C517.995 111.538 518.507 110.334 519.531 109.19C520.554 108.046 521.819 107.473 523.324 107.473C524.468 107.473 525.522 108.015 526.485 109.099C527.449 110.183 527.931 111.96 527.931 114.428C527.931 116.175 527.599 118.523 526.937 121.474C526.275 124.424 525.733 126.471 525.311 127.616C523.384 133.336 519.982 138.244 515.105 142.338C510.227 146.433 505.32 148.48 500.382 148.48H499.479L497.401 156.88C495.956 162.541 495.234 165.401 495.234 165.461C495.113 165.822 494.511 166.003 493.427 166.003H492.253C491.892 165.642 491.711 165.401 491.711 165.28C491.711 164.979 492.403 162.119 493.788 156.7C495.173 151.28 495.866 148.48 495.866 148.3C495.444 148.239 495.023 148.209 494.601 148.209C485.027 146.885 480.24 142.459 480.24 134.932C480.24 132.824 481.234 129.061 483.221 123.641C485.208 118.222 486.231 114.76 486.292 113.254C486.292 113.194 486.292 113.134 486.292 113.074C486.292 112.532 486.292 112.17 486.292 111.99C486.292 111.809 486.171 111.598 485.93 111.357C485.689 111.117 485.358 110.996 484.937 110.996H484.575C483.191 110.996 481.926 111.568 480.782 112.712C479.638 113.856 478.735 115.091 478.072 116.415C477.41 117.74 476.898 119.005 476.537 120.209C476.175 121.413 475.935 122.076 475.814 122.196C475.694 122.317 475.212 122.377 474.369 122.377H473.104C472.743 122.016 472.562 121.745 472.562 121.564C472.562 120.841 472.954 119.456 473.737 117.409C474.52 115.362 475.965 113.224 478.072 110.996C480.18 108.768 482.558 107.654 485.208 107.654Z" fill="white"/>
<path d="M541.216 122.721C541.216 121.699 541.621 120.805 542.429 120.039C543.238 119.272 544.175 118.868 545.239 118.825C546.005 118.825 546.644 119.081 547.155 119.592C547.666 120.103 547.942 120.741 547.985 121.507C547.985 122.487 547.559 123.381 546.708 124.189C545.856 124.998 544.92 125.424 543.898 125.467C543.26 125.467 542.664 125.254 542.11 124.828C541.557 124.402 541.259 123.7 541.216 122.721ZM530.807 142.708C530.807 142.368 530.999 141.708 531.382 140.729C531.765 139.75 532.276 138.664 532.914 137.472C533.553 136.28 534.49 135.194 535.724 134.215C536.959 133.236 538.236 132.768 539.556 132.81C541.216 132.81 542.6 133.3 543.707 134.279C544.813 135.258 545.388 136.578 545.431 138.238C545.431 138.962 545.133 140.154 544.537 141.814C543.941 143.475 543.089 145.71 541.982 148.52C540.875 151.329 539.981 153.735 539.3 155.736C539.087 156.672 538.981 157.353 538.981 157.779C538.981 158.843 539.343 159.376 540.067 159.376C540.45 159.376 540.854 159.312 541.28 159.184C541.706 159.056 542.195 158.758 542.749 158.29C543.302 157.822 543.877 157.077 544.473 156.055C545.069 155.033 545.601 153.777 546.069 152.287C546.197 151.776 546.303 151.478 546.389 151.393C546.474 151.308 546.836 151.265 547.474 151.265C548.326 151.265 548.751 151.478 548.751 151.904C548.751 152.245 548.56 152.905 548.177 153.884C547.793 154.863 547.261 155.948 546.58 157.14C545.899 158.332 544.941 159.397 543.707 160.333C542.472 161.27 541.152 161.738 539.747 161.738C538.385 161.738 537.129 161.291 535.98 160.397C534.83 159.503 534.234 158.141 534.192 156.31C534.192 155.587 534.298 154.905 534.511 154.267C534.724 153.628 535.639 151.202 537.257 146.987C538.875 142.687 539.811 140.112 540.067 139.26C540.322 138.409 540.471 137.578 540.514 136.77C540.514 135.748 540.152 135.237 539.428 135.237H539.3C538.023 135.237 536.852 135.939 535.788 137.344C534.724 138.749 533.915 140.537 533.361 142.708C533.319 142.751 533.276 142.815 533.234 142.9C533.191 142.985 533.17 143.049 533.17 143.092C533.17 143.134 533.127 143.177 533.042 143.219C532.957 143.262 532.893 143.283 532.851 143.283C532.808 143.283 532.723 143.283 532.595 143.283C532.467 143.283 532.297 143.283 532.084 143.283H531.19C530.935 143.028 530.807 142.836 530.807 142.708Z" fill="white"/>
<path d="M560.979 81.371C561.039 80.9495 561.22 80.5882 561.521 80.2871C561.822 79.986 562.244 79.8054 562.785 79.7452C563.388 79.7452 563.899 80.0462 564.321 80.6484C564.502 81.0699 567.332 88.4764 572.811 102.868C578.291 117.259 581.061 124.606 581.121 124.907C581.181 125.208 578.441 132.554 572.902 146.946C567.362 161.337 564.502 168.744 564.321 169.165C563.899 169.767 563.388 170.068 562.785 170.068C562.304 170.068 561.912 169.918 561.611 169.617C561.31 169.316 561.099 168.924 560.979 168.443C560.979 168.141 563.689 160.825 569.108 146.494C574.588 132.223 577.328 125.027 577.328 124.907C577.328 124.786 574.588 117.591 569.108 103.32C563.689 88.9882 560.979 81.6721 560.979 81.371Z" fill="white"/>
<path d="M621.225 168.443C621.165 168.864 620.984 169.225 620.683 169.526C620.382 169.827 619.961 170.008 619.419 170.068C618.816 170.068 618.305 169.767 617.883 169.165C617.702 168.744 614.872 161.337 609.393 146.946C603.913 132.554 601.143 125.208 601.083 124.907C601.023 124.606 603.763 117.259 609.302 102.868C614.842 88.4764 617.702 81.0699 617.883 80.6484C618.064 80.3473 618.365 80.0763 618.786 79.8355L619.057 79.7452C619.238 79.7452 619.358 79.7452 619.419 79.7452C620.502 79.7452 621.105 80.2871 621.225 81.371C621.225 81.6721 618.515 88.9882 613.096 103.32C607.616 117.591 604.877 124.786 604.877 124.907C604.877 125.027 607.616 132.223 613.096 146.494C618.515 160.825 621.225 168.141 621.225 168.443Z" fill="white"/>
<path d="M640.825 107.654C643.294 107.654 645.251 108.377 646.696 109.822C648.141 111.267 648.864 113.043 648.864 115.151C648.864 116.355 647.9 119.547 645.973 124.725C644.046 129.904 643.113 133.667 643.173 136.016C643.354 138.545 644.167 140.532 645.612 141.977C646.877 143.061 648.171 143.783 649.496 144.145C650.58 144.626 651.513 144.867 652.296 144.867H652.386L659.793 114.97C664.851 95.039 667.41 85.0432 667.47 84.983C667.651 84.8626 668.133 84.8024 668.915 84.8024C670.12 84.8024 670.722 85.0131 670.722 85.4346C670.722 85.9766 668.283 95.9422 663.406 115.332C658.468 135.082 655.999 144.988 655.999 145.048C655.999 145.108 656.18 145.138 656.541 145.138C661.72 145.138 666.627 142.489 671.264 137.19C675.9 131.891 678.249 126.953 678.309 122.377C678.309 120.932 678.068 119.697 677.586 118.674C677.105 117.65 676.563 116.927 675.961 116.506C675.359 116.084 674.817 115.542 674.335 114.88C673.853 114.218 673.612 113.525 673.612 112.803C673.612 111.538 674.124 110.334 675.148 109.19C676.171 108.046 677.436 107.473 678.941 107.473C680.085 107.473 681.139 108.015 682.103 109.099C683.066 110.183 683.548 111.96 683.548 114.428C683.548 116.175 683.217 118.523 682.554 121.474C681.892 124.424 681.35 126.471 680.928 127.616C679.002 133.336 675.599 138.244 670.722 142.338C665.844 146.433 660.937 148.48 655.999 148.48H655.096L653.019 156.88C651.573 162.541 650.851 165.401 650.851 165.461C650.73 165.822 650.128 166.003 649.044 166.003H647.87C647.509 165.642 647.328 165.401 647.328 165.28C647.328 164.979 648.021 162.119 649.406 156.7C650.791 151.28 651.483 148.48 651.483 148.3C651.062 148.239 650.64 148.209 650.219 148.209C640.644 146.885 635.857 142.459 635.857 134.932C635.857 132.824 636.851 129.061 638.838 123.641C640.825 118.222 641.849 114.76 641.909 113.254C641.909 113.194 641.909 113.134 641.909 113.074C641.909 112.532 641.909 112.17 641.909 111.99C641.909 111.809 641.788 111.598 641.548 111.357C641.307 111.117 640.975 110.996 640.554 110.996H640.193C638.808 110.996 637.543 111.568 636.399 112.712C635.255 113.856 634.352 115.091 633.689 116.415C633.027 117.74 632.515 119.005 632.154 120.209C631.793 121.413 631.552 122.076 631.431 122.196C631.311 122.317 630.829 122.377 629.986 122.377H628.722C628.36 122.016 628.18 121.745 628.18 121.564C628.18 120.841 628.571 119.456 629.354 117.409C630.137 115.362 631.582 113.224 633.689 110.996C635.797 108.768 638.175 107.654 640.825 107.654Z" fill="white"/>
<path d="M696.833 122.721C696.833 121.699 697.238 120.805 698.047 120.039C698.855 119.272 699.792 118.868 700.856 118.825C701.623 118.825 702.261 119.081 702.772 119.592C703.283 120.103 703.56 120.741 703.602 121.507C703.602 122.487 703.177 123.381 702.325 124.189C701.474 124.998 700.537 125.424 699.515 125.467C698.877 125.467 698.281 125.254 697.727 124.828C697.174 124.402 696.876 123.7 696.833 122.721ZM686.424 142.708C686.424 142.368 686.616 141.708 686.999 140.729C687.382 139.75 687.893 138.664 688.532 137.472C689.17 136.28 690.107 135.194 691.341 134.215C692.576 133.236 693.853 132.768 695.173 132.81C696.833 132.81 698.217 133.3 699.324 134.279C700.431 135.258 701.005 136.578 701.048 138.238C701.048 138.962 700.75 140.154 700.154 141.814C699.558 143.475 698.706 145.71 697.6 148.52C696.493 151.329 695.599 153.735 694.917 155.736C694.705 156.672 694.598 157.353 694.598 157.779C694.598 158.843 694.96 159.376 695.684 159.376C696.067 159.376 696.471 159.312 696.897 159.184C697.323 159.056 697.812 158.758 698.366 158.29C698.919 157.822 699.494 157.077 700.09 156.055C700.686 155.033 701.218 153.777 701.686 152.287C701.814 151.776 701.921 151.478 702.006 151.393C702.091 151.308 702.453 151.265 703.091 151.265C703.943 151.265 704.369 151.478 704.369 151.904C704.369 152.245 704.177 152.905 703.794 153.884C703.411 154.863 702.879 155.948 702.197 157.14C701.516 158.332 700.558 159.397 699.324 160.333C698.089 161.27 696.769 161.738 695.365 161.738C694.002 161.738 692.746 161.291 691.597 160.397C690.447 159.503 689.851 158.141 689.809 156.31C689.809 155.587 689.915 154.905 690.128 154.267C690.341 153.628 691.256 151.202 692.874 146.987C694.492 142.687 695.428 140.112 695.684 139.26C695.939 138.409 696.088 137.578 696.131 136.77C696.131 135.748 695.769 135.237 695.045 135.237H694.917C693.64 135.237 692.47 135.939 691.405 137.344C690.341 138.749 689.532 140.537 688.979 142.708C688.936 142.751 688.894 142.815 688.851 142.9C688.808 142.985 688.787 143.049 688.787 143.092C688.787 143.134 688.745 143.177 688.659 143.219C688.574 143.262 688.51 143.283 688.468 143.283C688.425 143.283 688.34 143.283 688.212 143.283C688.085 143.283 687.914 143.283 687.701 143.283H686.807C686.552 143.028 686.424 142.836 686.424 142.708Z" fill="white"/>
<path d="M724.194 169.979H724.013C723.29 169.979 722.748 169.557 722.387 168.714V124.817L722.478 80.9198C723.08 80.137 723.652 79.7456 724.194 79.7456C724.976 79.7456 725.579 80.1973 726 81.1005V168.714C725.518 169.557 724.976 169.979 724.374 169.979H724.194Z" fill="white"/>
</svg>
