<svg width="1003" height="113" viewBox="0 0 1003 113" fill="none" xmlns="http://www.w3.org/2000/svg">
<path d="M0.739407 71.6118C0.246469 71.6118 0 71.4668 0 71.1768C0 71.1188 0.0434945 70.9159 0.130484 70.5679C0.246469 70.104 0.362454 69.843 0.47844 69.785C0.594425 69.727 0.927883 69.6835 1.47881 69.6545C2.26172 69.6545 3.13161 69.611 4.08849 69.524C4.49443 69.4371 4.7699 69.2631 4.91488 69.0021C4.97287 68.8571 6.00224 64.7831 8.00299 56.7801C10.0037 48.7772 11.0186 44.7177 11.0476 44.6017C11.0476 44.3987 10.9896 44.2972 10.8736 44.2972C10.6417 44.2102 9.87326 44.1377 8.56842 44.0797H7.22009C7.04611 43.9058 6.95912 43.7898 6.95912 43.7318C6.95912 43.6738 6.98812 43.4273 7.04611 42.9924C7.1621 42.4994 7.30708 42.195 7.48106 42.079H30.9246C31.1276 42.195 31.2291 42.3545 31.2291 42.5574C31.2291 42.7024 31.0406 44.3262 30.6636 47.4288C30.2867 50.5314 30.0837 52.1262 30.0547 52.2132C29.9967 52.4162 29.7068 52.5177 29.1848 52.5177H28.6629C28.4599 52.3727 28.3584 52.1842 28.3584 51.9523C28.3584 51.9233 28.4019 51.5753 28.4889 50.9084C28.5759 50.2415 28.6194 49.4731 28.6194 48.6032C28.6194 47.7333 28.5179 47.0229 28.3149 46.4719C28.112 45.921 27.8365 45.4716 27.4885 45.1236C27.1406 44.7757 26.6042 44.5437 25.8792 44.4277C25.1543 44.3117 24.4149 44.2102 23.661 44.1232C22.9071 44.0362 21.8632 44.0218 20.5294 44.0797H19.529C17.1513 44.1087 15.89 44.1522 15.745 44.2102C15.6 44.2682 15.4985 44.3842 15.4406 44.5582C15.4116 44.5872 14.9186 46.4864 13.9617 50.256L12.5699 55.8668H14.9621C15.0491 55.8668 15.3826 55.8668 15.9625 55.8668C16.5424 55.8668 16.9484 55.8523 17.1803 55.8233C17.4123 55.7943 17.7313 55.7508 18.1372 55.6928C18.5432 55.6348 18.8911 55.5333 19.1811 55.3883C19.4711 55.2433 19.7175 55.0694 19.9205 54.8664C20.2974 54.5184 20.6164 54.04 20.8774 53.4311C21.1383 52.8221 21.3268 52.2712 21.4428 51.7783C21.5588 51.2853 21.6313 51.0244 21.6603 50.9954C21.7473 50.8504 22.0227 50.7779 22.4867 50.7779H23.0086C23.2116 50.9229 23.3131 51.0679 23.3131 51.2128C23.3131 51.2998 22.8636 53.1991 21.9647 56.9106C21.0658 60.6222 20.5729 62.5359 20.4859 62.6519C20.4279 62.8549 20.138 62.9564 19.616 62.9564H19.0941C18.8911 62.7824 18.7896 62.6084 18.7896 62.4344C18.7896 62.3474 18.8621 62.0285 19.0071 61.4776C19.1521 60.9266 19.2246 60.3467 19.2246 59.7378C19.2246 58.8969 18.9346 58.3749 18.3547 58.172C17.7748 57.969 16.4844 57.8675 14.4837 57.8675H12.0915L10.6997 63.3913C9.77177 66.9869 9.30783 68.8716 9.30783 69.0456C9.30783 69.4516 10.5982 69.6545 13.1788 69.6545H14.2662C14.4402 69.8285 14.5272 69.93 14.5272 69.959C14.5272 69.988 14.4982 70.2779 14.4402 70.8289C14.3242 71.2058 14.1792 71.4813 14.0052 71.6553H13.2658C12.077 71.5973 9.88776 71.5683 6.69816 71.5683C4.81339 71.5683 3.37807 71.5683 2.3922 71.5683C1.40632 71.5683 0.855392 71.5828 0.739407 71.6118Z" fill="white"/>
<path d="M35.3174 60.782C35.3174 58.7813 35.4624 56.882 35.7523 55.0842C36.0423 53.2865 36.3757 51.7352 36.7527 50.4303C37.1297 49.1255 37.6661 47.8497 38.362 46.6028C39.0579 45.356 39.6088 44.3846 40.0148 43.6887C40.4207 42.9928 41.0297 42.2389 41.8416 41.427C42.6535 40.6151 43.1319 40.1221 43.2769 39.9482C43.4219 39.7742 43.7843 39.4697 44.3642 39.0348H44.9297H45.1037C45.5096 39.0348 45.7126 39.1652 45.7126 39.4262C45.7126 39.5132 45.4661 39.8177 44.9732 40.3396C44.4802 40.8615 43.8858 41.6299 43.1899 42.6448C42.494 43.6597 41.7836 44.9065 41.0587 46.3853C40.3338 47.8642 39.7248 49.8649 39.2319 52.3876C38.739 54.9103 38.4925 57.7084 38.4925 60.782C38.4925 63.8556 38.739 66.6393 39.2319 69.133C39.7248 71.6267 40.3193 73.6419 41.0152 75.1787C41.7111 76.7155 42.4215 77.9624 43.1464 78.9193C43.8713 79.8761 44.4802 80.6445 44.9732 81.2245C45.4661 81.8044 45.7126 82.1088 45.7126 82.1378C45.7126 82.3988 45.4951 82.5293 45.0602 82.5293H44.9297H44.3642L43.1464 81.4854C40.4207 79.0207 38.4345 75.9471 37.1876 72.2646C35.9408 68.5821 35.3174 64.7545 35.3174 60.782Z" fill="white"/>
<path d="M50.6712 81.0508C49.7144 81.0508 49.2069 80.6158 49.1489 79.7459C49.1489 79.456 49.8738 76.3824 51.3237 70.5251C52.7735 64.6678 53.5564 61.6522 53.6724 61.4782C54.1363 59.8834 54.9337 58.3321 56.0646 56.8243C58.0943 54.3306 60.3995 52.8808 62.9802 52.4749C63.0382 52.4749 63.1542 52.4749 63.3281 52.4749C63.5021 52.4749 63.6471 52.4604 63.7631 52.4314C65.8798 52.4314 67.5036 53.1273 68.6345 54.5191C69.7653 55.9109 70.3308 57.6217 70.3308 59.6515C70.3308 61.3043 69.9828 62.9136 69.2869 64.4794C68.591 66.0452 67.7066 67.3645 66.6337 68.4374C65.5609 69.5102 64.401 70.3946 63.1542 71.0905C61.9073 71.7864 60.762 72.1199 59.7181 72.0909H59.2397H58.9352C57.4564 72.0909 56.253 71.4385 55.3251 70.1337L55.1077 69.8727L53.9333 74.7441C53.2084 77.5567 52.788 79.1515 52.672 79.5285C52.556 79.9054 52.382 80.2099 52.15 80.4419C51.6861 80.8478 51.1932 81.0508 50.6712 81.0508ZM66.5902 57.6507C66.5902 56.5779 66.3438 55.708 65.8508 55.0411C65.3579 54.3741 64.633 54.0407 63.6761 54.0407C62.6612 54.0407 61.6464 54.4611 60.6315 55.302C59.6166 56.1429 58.8047 57.2448 58.1958 58.6076C57.7898 59.5065 57.2389 61.3913 56.543 64.2619L55.8036 67.2195C56.2965 69.4232 57.5144 70.5251 59.4571 70.5251C60.559 70.5251 61.6319 70.0032 62.6757 68.9593C63.6326 68.0894 64.43 66.6976 65.0679 64.7838C65.7058 62.8701 66.1263 61.3043 66.3293 60.0864C66.5322 58.8686 66.6192 58.0567 66.5902 57.6507Z" fill="white"/>
<path d="M71.4647 65.2021C72.5513 65.1201 73.3918 64.546 73.9863 63.48C74.5808 62.414 74.9088 61.1635 74.9703 59.7284V59.2672H76.2003V64.9253H80.3517V66.3398H76.2003V70.7679C76.2208 73.3305 76.2311 74.7758 76.2311 75.1038C76.2311 75.4318 76.3028 75.7598 76.4463 76.0878C76.7334 76.8873 77.2356 77.2871 77.9531 77.2871C78.8551 77.2871 79.4087 76.5593 79.6137 75.1038C79.6342 74.9398 79.6444 74.4682 79.6444 73.6892V72.613H80.8744V73.6892V74.0582C80.8744 75.6368 80.4439 76.836 79.5829 77.6561C79.0294 78.2096 78.3119 78.4863 77.4304 78.4863C76.7334 78.4863 76.1286 78.3633 75.6161 78.1173C75.1036 77.8713 74.7141 77.5536 74.4476 77.1641C74.181 76.7745 73.9863 76.4158 73.8633 76.0878C73.7403 75.7598 73.6685 75.4318 73.648 75.1038C73.6275 74.9603 73.6173 73.4432 73.6173 70.5527V66.3398H71.188V65.2021H71.4647Z" fill="white"/>
<path d="M86.8094 68.7994C86.8094 68.7994 86.5839 68.7994 86.1329 68.7994C85.6819 68.7994 85.3026 68.6456 84.9951 68.3381C84.6876 68.0306 84.5339 67.6309 84.5339 67.1389C84.5339 66.4214 84.8824 65.7858 85.5794 65.2323C86.2764 64.6788 87.5167 64.4021 89.3002 64.4021C90.7967 64.4021 92.0063 64.7301 92.9288 65.3861C93.8513 66.0421 94.4663 66.8211 94.7738 67.7231C94.8763 68.0101 94.9276 68.3279 94.9276 68.6764C94.9276 69.0249 94.9378 70.2037 94.9583 72.2127V74.3653C94.9583 75.3493 95.0096 76.0258 95.1121 76.3948C95.2146 76.7638 95.4298 76.9483 95.7578 76.9483C96.0653 76.9483 96.2703 76.7843 96.3729 76.4563C96.4754 76.1283 96.5266 75.585 96.5266 74.8265V73.7195H97.7566V74.9188C97.7361 75.7388 97.7054 76.2206 97.6644 76.3641C97.4799 76.9791 97.1211 77.4608 96.5881 77.8093C96.0551 78.1578 95.4913 78.3423 94.8968 78.3628C94.3023 78.3833 93.8205 78.1988 93.4515 77.8093C93.0825 77.4198 92.8365 76.9893 92.7135 76.5178V76.3948L92.652 76.4871C92.611 76.5486 92.5598 76.6101 92.4983 76.6716C92.4368 76.7331 92.3548 76.8253 92.2523 76.9483C92.1498 77.0713 92.0268 77.1841 91.8833 77.2866C91.7398 77.3891 91.586 77.5121 91.422 77.6556C91.258 77.7991 91.0735 77.9118 90.8685 77.9938C90.6635 78.0758 90.438 78.1578 90.192 78.2398C89.946 78.3218 89.6795 78.3833 89.3925 78.4243C89.1055 78.4654 88.7877 78.4961 88.4392 78.5166C87.2092 78.5166 86.1021 78.1988 85.1181 77.5633C84.1341 76.9278 83.6421 76.0361 83.6421 74.888C83.6421 74.4575 83.7138 74.0475 83.8573 73.658C84.0008 73.2685 84.2776 72.8482 84.6876 72.3972C85.0976 71.9462 85.5896 71.567 86.1636 71.2595C86.7377 70.9519 87.5372 70.6649 88.5622 70.3984C89.5872 70.1319 90.7147 69.9782 91.9448 69.9372H92.3753V69.2607C92.3753 68.5636 92.3138 68.0511 92.1908 67.7231C91.7398 66.2676 90.7455 65.5398 89.208 65.5398C88.8389 65.5398 88.4904 65.5501 88.1624 65.5706C87.8344 65.5911 87.5782 65.6321 87.3937 65.6936C87.2092 65.7551 87.1272 65.7858 87.1477 65.7858C87.5987 66.0933 87.8242 66.5444 87.8242 67.1389C87.8242 67.6514 87.6602 68.0511 87.3322 68.3381L86.8094 68.7994ZM86.4711 74.9188C86.4711 75.5543 86.7172 76.1181 87.2092 76.6101C87.7012 77.1021 88.3059 77.3583 89.0235 77.3788C89.8025 77.3788 90.4892 77.1431 91.0837 76.6716C91.6783 76.2001 92.078 75.585 92.283 74.8265C92.324 74.683 92.3548 74.0065 92.3753 72.797C92.3753 71.608 92.365 71.0134 92.3445 71.0134C92.1805 71.0134 91.9653 71.0237 91.6988 71.0442C91.4323 71.0647 90.971 71.1569 90.315 71.321C89.659 71.485 89.0645 71.69 88.5314 71.936C87.9984 72.182 87.5269 72.5612 87.1169 73.0737C86.7069 73.5863 86.4916 74.2013 86.4711 74.9188Z" fill="white"/>
<path d="M99.0789 76.7652H99.5094C100.309 76.7652 100.791 76.6217 100.955 76.3346V76.0886C100.955 75.9041 100.955 75.6684 100.955 75.3814C100.955 75.0944 100.965 74.7766 100.985 74.4281C101.006 74.0796 101.006 73.6798 100.985 73.2288C100.965 72.7778 100.965 72.3473 100.985 71.9373C100.985 71.3018 100.985 70.6253 100.985 69.9078C100.985 69.1903 100.985 68.5855 100.985 68.0935L100.955 67.3862C100.893 66.9967 100.75 66.7405 100.524 66.6174C100.299 66.4944 99.8374 66.4022 99.1404 66.3407H98.5869V65.6334C98.5869 65.1619 98.6074 64.9262 98.6484 64.9262L98.9559 64.8954C99.1609 64.8749 99.4479 64.8544 99.8169 64.8339C100.186 64.8134 100.555 64.7929 100.924 64.7724C101.252 64.7519 101.611 64.7314 102 64.7109C102.39 64.6904 102.687 64.6597 102.892 64.6187C103.097 64.5777 103.21 64.5674 103.23 64.5879H103.323V66.7097C104.122 65.3157 105.116 64.6187 106.305 64.6187H106.49C107.412 64.6187 108.089 64.8442 108.519 65.2952C108.95 65.7462 109.165 66.2177 109.165 66.7097C109.165 67.1402 109.032 67.5092 108.765 67.8167C108.499 68.1242 108.109 68.278 107.597 68.278C107.084 68.278 106.705 68.114 106.459 67.786C106.213 67.458 106.08 67.1095 106.059 66.7405C106.059 66.5559 106.08 66.3919 106.121 66.2484C106.162 66.1049 106.213 65.9819 106.275 65.8794C106.336 65.7769 106.367 65.7257 106.367 65.7257C106.326 65.6847 106.09 65.7257 105.66 65.8487C105.332 66.0127 105.086 66.1664 104.922 66.3099C103.958 67.2325 103.476 69.0673 103.476 71.8143V73.4441C103.476 73.7106 103.476 73.9874 103.476 74.2744C103.476 74.5614 103.476 74.8279 103.476 75.0739C103.476 75.3199 103.487 75.5249 103.507 75.6889C103.528 75.8529 103.528 76.0066 103.507 76.1501V76.3039C103.528 76.3449 103.558 76.3859 103.599 76.4269C103.64 76.4679 103.692 76.4987 103.753 76.5192C103.815 76.5397 103.866 76.5704 103.907 76.6114C103.948 76.6524 104.02 76.6729 104.122 76.6729C104.225 76.6729 104.296 76.6832 104.337 76.7037C104.378 76.7242 104.471 76.7344 104.614 76.7344C104.758 76.7344 104.85 76.7344 104.891 76.7344C104.932 76.7344 105.034 76.7447 105.198 76.7652C105.362 76.7857 105.465 76.7857 105.506 76.7652H106.459V78.1797H106.182C105.813 78.1182 104.512 78.0874 102.277 78.0874C100.165 78.0874 99.0174 78.1182 98.8329 78.1797H98.5869V76.7652H99.0789Z" fill="white"/>
<path d="M120.143 65.602C121.045 64.7 122.07 64.249 123.218 64.249C123.833 64.249 124.274 64.4438 124.54 64.8333C124.807 65.2228 124.94 65.6123 124.94 66.0018C124.94 66.2888 124.848 66.5451 124.664 66.7706C124.479 66.9961 124.202 67.1088 123.833 67.1088C123.157 67.1088 122.777 66.8013 122.695 66.1863C122.654 65.8993 122.685 65.684 122.788 65.5405C122.788 65.52 122.798 65.4893 122.818 65.4483V65.4175C122.244 65.479 121.701 65.7045 121.189 66.094C121.025 66.1965 120.943 66.2683 120.943 66.3093C120.943 66.3298 120.984 66.3811 121.066 66.4631C121.148 66.5451 121.24 66.6681 121.342 66.8321C121.445 66.9961 121.558 67.1806 121.681 67.3856C121.804 67.5906 121.896 67.8571 121.957 68.1851C122.019 68.5131 122.06 68.8514 122.08 69.1999C122.08 70.4709 121.578 71.5472 120.574 72.4287C119.569 73.3102 118.329 73.7612 116.853 73.7817C115.828 73.7817 114.813 73.4947 113.809 72.9207C113.583 73.2897 113.47 73.6792 113.47 74.0892C113.47 74.8067 113.737 75.3397 114.27 75.6882C114.454 75.8112 114.629 75.8727 114.793 75.8727C114.957 75.8727 115.695 75.8932 117.007 75.9342C118.729 75.9547 119.836 76.0162 120.328 76.1188C121.578 76.3033 122.562 76.7235 123.28 77.3795C124.079 78.179 124.479 79.1836 124.479 80.3931C124.479 81.7666 123.679 82.8224 122.08 83.5604C120.85 84.1959 119.395 84.5137 117.714 84.5137C116.012 84.5137 114.547 84.1959 113.317 83.5604C111.717 82.8429 110.918 81.8179 110.918 80.4853C110.918 79.7473 111.133 79.1323 111.564 78.6403C111.994 78.1483 112.425 77.81 112.855 77.6255L113.194 77.441C112.456 76.8055 112.086 75.9445 112.086 74.858C112.086 73.8945 112.384 73.0232 112.978 72.2442C112.076 71.3422 111.625 70.3274 111.625 69.1999C111.625 67.9083 112.138 66.8218 113.163 65.9403C114.188 65.0588 115.428 64.6078 116.884 64.5873C117.929 64.5873 118.903 64.8538 119.805 65.3868L120.143 65.602ZM119.221 67.6316C119.118 67.0576 118.852 66.6066 118.421 66.2785C117.991 65.9505 117.458 65.7763 116.822 65.7558C116.228 65.7558 115.715 65.9198 115.285 66.2478C114.854 66.5758 114.588 67.0371 114.485 67.6316C114.424 67.9801 114.393 68.5028 114.393 69.1999C114.393 70.1019 114.465 70.7681 114.608 71.1986C114.752 71.6292 115.059 71.9879 115.531 72.2749C115.879 72.4799 116.32 72.5824 116.853 72.5824C117.304 72.5824 117.693 72.5107 118.021 72.3672C118.349 72.2237 118.585 72.0392 118.729 71.8137C118.872 71.5882 118.985 71.3832 119.067 71.1986C119.149 71.0141 119.2 70.8604 119.221 70.7374C119.282 70.4094 119.313 69.8969 119.313 69.1999C119.313 68.5028 119.282 67.9801 119.221 67.6316ZM122.419 80.4853C122.419 79.9728 122.275 79.5526 121.988 79.2246C121.701 78.8966 121.281 78.6608 120.727 78.5173C120.174 78.3738 119.672 78.2815 119.221 78.2405C118.77 78.1995 118.216 78.179 117.56 78.179H116.73C115.356 78.179 114.536 78.2405 114.27 78.3635C113.86 78.548 113.542 78.8351 113.317 79.2246C113.091 79.6141 112.968 80.0241 112.948 80.4546C112.948 80.6596 113.009 80.8953 113.132 81.1619C113.255 81.4284 113.47 81.7359 113.778 82.0844C114.085 82.4329 114.577 82.7199 115.254 82.9454C115.93 83.1709 116.75 83.2939 117.714 83.3144C119.128 83.3144 120.266 83.0274 121.127 82.4534C121.988 81.8794 122.419 81.2234 122.419 80.4853Z" fill="white"/>
<path d="M126.262 71.4747C126.262 70.3472 126.467 69.3222 126.877 68.3996C127.287 67.4771 127.8 66.7289 128.415 66.1548C129.03 65.5808 129.696 65.1503 130.414 64.8633C131.131 64.5763 131.808 64.4226 132.443 64.4021C133.53 64.4021 134.462 64.5866 135.241 64.9556C136.02 65.3246 136.615 65.8371 137.025 66.4931C137.435 67.1491 137.722 67.8051 137.886 68.4611C138.05 69.1172 138.142 69.8449 138.163 70.6444C138.163 70.7879 138.091 70.9314 137.947 71.0749H129.276V71.5362C129.276 74.5703 130.301 76.4153 132.351 77.0713C132.761 77.1943 133.212 77.2558 133.704 77.2558C134.565 77.2558 135.303 76.9278 135.918 76.2718C136.266 75.9233 136.543 75.4928 136.748 74.9803L137.056 74.2423C137.117 74.1808 137.281 74.15 137.548 74.15H137.64C137.988 74.15 138.163 74.2525 138.163 74.4575C138.163 74.5395 138.132 74.6728 138.07 74.8573C137.681 75.9848 137.035 76.8766 136.133 77.5326C135.231 78.1886 134.216 78.5166 133.089 78.5166C131.141 78.5166 129.522 77.8093 128.23 76.3948C126.939 74.9803 126.283 73.3402 126.262 71.4747ZM135.641 69.7219C135.416 67.0979 134.442 65.7038 132.72 65.5398H132.658C132.494 65.5398 132.33 65.5501 132.166 65.5706C132.002 65.5911 131.746 65.6731 131.398 65.8166C131.049 65.9601 130.752 66.1753 130.506 66.4624C130.26 66.7494 130.024 67.1696 129.799 67.7231C129.573 68.2766 129.409 68.9532 129.307 69.7527V69.9679H135.641V69.7219Z" fill="white"/>
<path d="M139.885 65.2021C140.971 65.1201 141.812 64.546 142.406 63.48C143.001 62.414 143.329 61.1635 143.39 59.7284V59.2672H144.62V64.9253H148.772V66.3398H144.62V70.7679C144.641 73.3305 144.651 74.7758 144.651 75.1038C144.651 75.4318 144.723 75.7598 144.866 76.0878C145.153 76.8873 145.656 77.2871 146.373 77.2871C147.275 77.2871 147.829 76.5593 148.034 75.1038C148.054 74.9398 148.064 74.4682 148.064 73.6892V72.613H149.294V73.6892V74.0582C149.294 75.6368 148.864 76.836 148.003 77.6561C147.449 78.2096 146.732 78.4863 145.85 78.4863C145.153 78.4863 144.549 78.3633 144.036 78.1173C143.523 77.8713 143.134 77.5536 142.867 77.1641C142.601 76.7745 142.406 76.4158 142.283 76.0878C142.16 75.7598 142.088 75.4318 142.068 75.1038C142.047 74.9603 142.037 73.4432 142.037 70.5527V66.3398H139.608V65.2021H139.885Z" fill="white"/>
<path d="M156.598 70.1325C156.598 70.1325 156.598 69.77 156.598 69.0451C156.598 68.3202 156.83 67.6968 157.294 67.1749C157.758 66.6529 158.381 66.3919 159.164 66.3919C159.976 66.3919 160.701 66.7544 161.339 67.4793C161.977 68.2042 162.31 69.4801 162.339 71.3068C162.339 72.3217 162.209 73.3076 161.948 74.2645C161.687 75.2213 161.383 76.0477 161.035 76.7436C160.687 77.4396 160.31 78.034 159.904 78.5269C159.498 79.0199 159.15 79.4113 158.86 79.7013C158.57 79.9912 158.381 80.1217 158.294 80.0927C158.178 80.0927 157.99 79.9622 157.729 79.7013C157.468 79.4403 157.338 79.2518 157.338 79.1358C157.338 79.0199 157.497 78.7879 157.816 78.4399C158.135 78.092 158.497 77.657 158.903 77.1351C159.309 76.6132 159.686 75.8883 160.034 74.9604C160.382 74.0325 160.614 72.9741 160.73 71.7853V71.2633L160.687 71.3068C160.629 71.3358 160.556 71.3648 160.469 71.3938C160.382 71.4228 160.295 71.4663 160.208 71.5243C160.121 71.5823 159.991 71.6113 159.817 71.6113C159.643 71.6113 159.469 71.6258 159.295 71.6548C158.512 71.6548 157.874 71.4083 157.381 70.9154L156.598 70.1325Z" fill="white"/>
<path d="M175.066 81.0508C174.109 81.0508 173.601 80.6158 173.543 79.7459C173.543 79.456 174.268 76.3824 175.718 70.5251C177.168 64.6678 177.951 61.6522 178.067 61.4782C178.531 59.8834 179.328 58.3321 180.459 56.8243C182.489 54.3306 184.794 52.8808 187.375 52.4749C187.433 52.4749 187.549 52.4749 187.723 52.4749C187.897 52.4749 188.042 52.4604 188.158 52.4314C190.274 52.4314 191.898 53.1273 193.029 54.5191C194.16 55.9109 194.725 57.6217 194.725 59.6515C194.725 61.3043 194.377 62.9136 193.681 64.4794C192.986 66.0452 192.101 67.3645 191.028 68.4374C189.955 69.5102 188.796 70.3946 187.549 71.0905C186.302 71.7864 185.156 72.1199 184.113 72.0909H183.634H183.33C181.851 72.0909 180.648 71.4385 179.72 70.1337L179.502 69.8727L178.328 74.7441C177.603 77.5567 177.182 79.1515 177.067 79.5285C176.951 79.9054 176.777 80.2099 176.545 80.4419C176.081 80.8478 175.588 81.0508 175.066 81.0508ZM190.985 57.6507C190.985 56.5779 190.738 55.708 190.245 55.0411C189.752 54.3741 189.028 54.0407 188.071 54.0407C187.056 54.0407 186.041 54.4611 185.026 55.302C184.011 56.1429 183.199 57.2448 182.59 58.6076C182.184 59.5065 181.633 61.3913 180.938 64.2619L180.198 67.2195C180.691 69.4232 181.909 70.5251 183.852 70.5251C184.954 70.5251 186.026 70.0032 187.07 68.9593C188.027 68.0894 188.825 66.6976 189.462 64.7838C190.1 62.8701 190.521 61.3043 190.724 60.0864C190.927 58.8686 191.014 58.0567 190.985 57.6507Z" fill="white"/>
<path d="M196.29 76.7661H196.721C197.52 76.7661 198.002 76.6226 198.166 76.3356V76.0896C198.166 75.9051 198.166 75.6694 198.166 75.3824C198.166 75.0954 198.166 74.7776 198.166 74.4291C198.166 74.0806 198.176 73.6808 198.197 73.2298C198.217 72.7788 198.217 72.3483 198.197 71.9383C198.197 71.3028 198.197 70.6263 198.197 69.9087C198.197 69.1912 198.187 68.5865 198.166 68.0945V67.3872C198.105 66.9977 197.961 66.7414 197.736 66.6184C197.51 66.4954 197.049 66.4032 196.352 66.3417H195.798V65.6344C195.798 65.1629 195.819 64.9271 195.86 64.9271L196.167 64.8964C196.372 64.8759 196.659 64.8554 197.028 64.8349C197.397 64.8144 197.777 64.7939 198.166 64.7734C198.515 64.7529 198.884 64.7324 199.273 64.7119C199.663 64.6914 199.96 64.6606 200.165 64.6196C200.37 64.5786 200.483 64.5684 200.503 64.5889H200.595V65.8189C200.595 66.5979 200.606 66.9874 200.626 66.9874C200.647 66.9874 200.698 66.9362 200.78 66.8337C200.862 66.7312 200.985 66.5774 201.149 66.3724C201.313 66.1674 201.508 65.9829 201.733 65.8189C201.959 65.6549 202.256 65.4602 202.625 65.2346C202.994 65.0091 203.383 64.8451 203.794 64.7426C204.204 64.6401 204.726 64.5889 205.362 64.5889C205.669 64.5889 205.956 64.6094 206.223 64.6504C206.489 64.6914 206.725 64.7529 206.93 64.8349C207.135 64.9169 207.33 64.9989 207.514 65.0809C207.699 65.1629 207.853 65.2551 207.976 65.3577C208.099 65.4602 208.211 65.5729 208.314 65.6959C208.416 65.8189 208.509 65.9317 208.591 66.0342C208.673 66.1367 208.744 66.2494 208.806 66.3724C208.867 66.4954 208.908 66.5979 208.929 66.6799C208.949 66.7619 208.98 66.8439 209.021 66.9259L209.083 67.0797L209.175 66.9567C209.236 66.8747 209.298 66.7927 209.359 66.7107C209.421 66.6287 209.513 66.5159 209.636 66.3724C209.759 66.2289 209.892 66.0957 210.036 65.9727C210.179 65.8497 210.333 65.7164 210.497 65.5729C210.661 65.4294 210.866 65.3064 211.112 65.2039C211.358 65.1014 211.594 64.9989 211.819 64.8964C212.045 64.7939 212.311 64.7221 212.619 64.6811C212.926 64.6401 213.244 64.6094 213.572 64.5889C216.155 64.5889 217.56 65.7472 217.785 68.0637C217.806 68.2072 217.816 69.632 217.816 72.338V74.9826C217.816 75.7616 217.836 76.2229 217.877 76.3664C217.918 76.5099 218.031 76.6124 218.216 76.6739C218.646 76.7354 219.148 76.7661 219.722 76.7661H220.214V78.1807H219.968L219.261 78.1499C218.769 78.1294 218.246 78.1192 217.693 78.1192C217.139 78.1192 216.75 78.1089 216.524 78.0884C214.413 78.0884 213.265 78.1192 213.08 78.1807H212.834V76.7661H213.326C214.577 76.7661 215.202 76.6021 215.202 76.2741C215.222 76.2331 215.233 74.8186 215.233 72.0305C215.212 69.263 215.192 67.7972 215.171 67.6332C215.048 67.0592 214.843 66.6287 214.556 66.3417C214.269 66.0547 214.023 65.8804 213.818 65.8189C213.613 65.7574 213.347 65.7369 213.019 65.7574C212.096 65.7574 211.286 66.1059 210.589 66.8029C210.036 67.3564 209.687 67.9202 209.544 68.4942C209.4 69.0682 209.318 69.919 209.298 71.0465V73.0146V74.8596C209.298 75.4746 209.308 75.8846 209.329 76.0896C209.349 76.2946 209.38 76.4279 209.421 76.4894C209.462 76.5509 209.554 76.6124 209.698 76.6739C210.128 76.7354 210.63 76.7661 211.204 76.7661H211.696V78.1807H211.45L210.712 78.1499C210.241 78.1294 209.728 78.1192 209.175 78.1192C208.621 78.1192 208.232 78.1089 208.006 78.0884C205.895 78.0884 204.747 78.1192 204.562 78.1807H204.316V76.7661H204.808C206.059 76.7661 206.684 76.6021 206.684 76.2741C206.705 76.2331 206.715 74.8186 206.715 72.0305C206.694 69.263 206.674 67.7972 206.653 67.6332C206.53 67.0592 206.325 66.6287 206.038 66.3417C205.751 66.0547 205.505 65.8804 205.3 65.8189C205.095 65.7574 204.829 65.7369 204.501 65.7574C203.578 65.7574 202.768 66.1059 202.071 66.8029C201.518 67.3564 201.169 67.9202 201.026 68.4942C200.882 69.0682 200.8 69.919 200.78 71.0465V73.0146V74.8596C200.78 75.4746 200.79 75.8846 200.811 76.0896C200.831 76.2946 200.862 76.4279 200.903 76.4894C200.944 76.5509 201.036 76.6124 201.18 76.6739C201.61 76.7354 202.112 76.7661 202.686 76.7661H203.178V78.1807H202.932L202.225 78.1499C201.733 78.1294 201.21 78.1192 200.657 78.1192C200.103 78.1192 199.714 78.1089 199.488 78.0884C197.377 78.0884 196.229 78.1192 196.044 78.1807H195.798V76.7661H196.29Z" fill="white"/>
<path d="M221.506 71.4767C221.506 70.3491 221.711 69.3241 222.121 68.4016C222.531 67.4791 223.043 66.7308 223.658 66.1568C224.273 65.5828 224.94 65.1523 225.657 64.8653C226.375 64.5783 227.051 64.4245 227.687 64.404C228.773 64.404 229.706 64.5885 230.485 64.9575C231.264 65.3265 231.859 65.839 232.269 66.4951C232.679 67.1511 232.966 67.8071 233.13 68.4631C233.294 69.1191 233.386 69.8469 233.406 70.6464C233.406 70.7899 233.335 70.9334 233.191 71.0769H224.519V71.5382C224.519 74.5722 225.544 76.4173 227.594 77.0733C228.004 77.1963 228.456 77.2578 228.948 77.2578C229.809 77.2578 230.547 76.9298 231.162 76.2738C231.51 75.9253 231.787 75.4947 231.992 74.9822L232.299 74.2442C232.361 74.1827 232.525 74.152 232.791 74.152H232.884C233.232 74.152 233.406 74.2545 233.406 74.4595C233.406 74.5415 233.376 74.6747 233.314 74.8592C232.925 75.9868 232.279 76.8785 231.377 77.5345C230.475 78.1905 229.46 78.5186 228.332 78.5186C226.385 78.5186 224.765 77.8113 223.474 76.3968C222.182 74.9822 221.526 73.3422 221.506 71.4767ZM230.885 69.7239C230.659 67.0998 229.686 65.7058 227.963 65.5418H227.902C227.738 65.5418 227.574 65.552 227.41 65.5725C227.246 65.593 226.99 65.675 226.641 65.8185C226.293 65.962 225.995 66.1773 225.749 66.4643C225.503 66.7513 225.268 67.1716 225.042 67.7251C224.817 68.2786 224.653 68.9551 224.55 69.7546V69.9699H230.885V69.7239Z" fill="white"/>
<path d="M238.511 68.8014C238.511 68.8014 238.285 68.8014 237.834 68.8014C237.383 68.8014 237.004 68.6476 236.696 68.3401C236.389 68.0326 236.235 67.6328 236.235 67.1408C236.235 66.4233 236.584 65.7878 237.281 65.2343C237.978 64.6808 239.218 64.404 241.001 64.404C242.498 64.404 243.707 64.732 244.63 65.388C245.552 66.044 246.167 66.8231 246.475 67.7251C246.577 68.0121 246.629 68.3298 246.629 68.6784C246.629 69.0269 246.639 70.2056 246.659 72.2147V74.3672C246.659 75.3512 246.711 76.0278 246.813 76.3968C246.916 76.7658 247.131 76.9503 247.459 76.9503C247.767 76.9503 247.972 76.7863 248.074 76.4583C248.177 76.1303 248.228 75.587 248.228 74.8285V73.7215H249.458V74.9207C249.437 75.7407 249.407 76.2225 249.366 76.366C249.181 76.981 248.822 77.4628 248.289 77.8113C247.756 78.1598 247.193 78.3443 246.598 78.3648C246.003 78.3853 245.522 78.2008 245.153 77.8113C244.784 77.4218 244.538 76.9913 244.415 76.5198V76.3968L244.353 76.489C244.312 76.5505 244.261 76.612 244.199 76.6735C244.138 76.735 244.056 76.8273 243.953 76.9503C243.851 77.0733 243.728 77.186 243.584 77.2885C243.441 77.391 243.287 77.514 243.123 77.6575C242.959 77.801 242.775 77.9138 242.57 77.9958C242.365 78.0778 242.139 78.1598 241.893 78.2418C241.647 78.3238 241.381 78.3853 241.094 78.4263C240.807 78.4673 240.489 78.4981 240.14 78.5186C238.91 78.5186 237.803 78.2008 236.819 77.5653C235.835 76.9298 235.343 76.038 235.343 74.89C235.343 74.4595 235.415 74.0495 235.559 73.66C235.702 73.2704 235.979 72.8502 236.389 72.3992C236.799 71.9482 237.291 71.5689 237.865 71.2614C238.439 70.9539 239.238 70.6669 240.263 70.4004C241.288 70.1339 242.416 69.9801 243.646 69.9391H244.076V69.2626C244.076 68.5656 244.015 68.0531 243.892 67.7251C243.441 66.2696 242.447 65.5418 240.909 65.5418C240.54 65.5418 240.192 65.552 239.864 65.5725C239.536 65.593 239.279 65.634 239.095 65.6955C238.91 65.757 238.828 65.7878 238.849 65.7878C239.3 66.0953 239.525 66.5463 239.525 67.1408C239.525 67.6533 239.361 68.0531 239.033 68.3401L238.511 68.8014ZM238.172 74.9207C238.172 75.5562 238.418 76.12 238.91 76.612C239.402 77.104 240.007 77.3603 240.725 77.3808C241.504 77.3808 242.19 77.145 242.785 76.6735C243.379 76.202 243.779 75.587 243.984 74.8285C244.025 74.685 244.056 74.0085 244.076 72.7989C244.076 71.6099 244.066 71.0154 244.046 71.0154C243.882 71.0154 243.666 71.0257 243.4 71.0462C243.133 71.0667 242.672 71.1589 242.016 71.3229C241.36 71.4869 240.766 71.6919 240.233 71.9379C239.7 72.1839 239.228 72.5632 238.818 73.0757C238.408 73.5882 238.193 74.2032 238.172 74.9207Z" fill="white"/>
<path d="M258.745 68.4631C258.745 67.6431 258.468 66.9358 257.915 66.3413C257.361 65.7468 256.562 65.4495 255.516 65.4495C254.778 65.4495 254.143 65.5828 253.61 65.8493C252.995 66.2388 252.687 66.7718 252.687 67.4483C252.667 67.5508 252.667 67.6841 252.687 67.8481C252.708 68.0121 252.872 68.2581 253.179 68.5861C253.487 68.9141 253.928 69.1704 254.502 69.3549C254.871 69.4574 255.322 69.5496 255.855 69.6316C256.388 69.7136 256.839 69.8059 257.208 69.9084C257.577 70.0109 257.905 70.1441 258.192 70.3081C258.54 70.4721 258.878 70.6771 259.206 70.9231C259.534 71.1692 259.862 71.5894 260.19 72.1839C260.518 72.7784 260.693 73.4139 260.713 74.0905C260.713 75.3615 260.324 76.407 259.545 77.227C258.766 78.047 257.505 78.4673 255.762 78.4878H255.516C254.45 78.4878 253.466 78.1188 252.564 77.3808L252.318 77.596L252.042 77.8728C251.919 77.9958 251.795 78.1085 251.672 78.211L251.334 78.5186H251.088H250.965C250.904 78.5186 250.811 78.4571 250.688 78.3341V75.9048V74.1212C250.688 73.6907 250.709 73.4345 250.75 73.3524C250.791 73.2704 250.893 73.2192 251.057 73.1987H251.334C251.58 73.1987 251.744 73.2397 251.826 73.3217C251.908 73.4037 251.96 73.5267 251.98 73.6907C252.001 73.8547 252.072 74.1315 252.195 74.521C252.318 74.9105 252.513 75.341 252.78 75.8125C253.497 76.858 254.491 77.3808 255.762 77.3808C257.751 77.3808 258.745 76.5813 258.745 74.9822C258.745 74.3877 258.561 73.906 258.192 73.537C257.782 73.0449 256.931 72.6759 255.639 72.4299C254.348 72.1839 253.497 71.9482 253.087 71.7227C252.349 71.3742 251.765 70.9026 251.334 70.3081C250.904 69.7136 250.688 69.0781 250.688 68.4016C250.688 67.6021 250.863 66.9256 251.211 66.3721C251.56 65.8185 252.001 65.4085 252.534 65.142C253.067 64.8755 253.579 64.691 254.071 64.5885C254.563 64.486 255.014 64.4348 255.424 64.4348H255.762C256.582 64.4348 257.3 64.5885 257.915 64.896L258.376 65.142L258.653 64.9268C258.858 64.7423 259.083 64.568 259.329 64.404H259.575H259.698C259.76 64.404 259.852 64.4655 259.975 64.5885V68.6476L259.791 68.8321H258.93C258.807 68.7091 258.745 68.5861 258.745 68.4631Z" fill="white"/>
<path d="M273.566 76.3968C272.418 77.7908 271.117 78.4878 269.661 78.4878H269.446C266.883 78.4878 265.407 77.473 265.018 75.4435C264.997 75.3 264.977 73.8957 264.956 71.2307C264.936 68.9961 264.925 67.7456 264.925 67.4791C264.925 67.2126 264.864 66.9973 264.741 66.8333C264.536 66.5053 263.921 66.3413 262.896 66.3413H262.558V65.634C262.558 65.1625 262.578 64.9268 262.619 64.9268L262.957 64.896C263.162 64.8755 263.46 64.855 263.849 64.8345C264.239 64.814 264.628 64.7935 265.018 64.773C265.366 64.7525 265.745 64.732 266.155 64.7115C266.565 64.691 266.873 64.6603 267.078 64.6193C267.283 64.5783 267.406 64.568 267.447 64.5885H267.539V70.1544C267.56 73.9265 267.59 75.9458 267.631 76.2123C267.693 76.5198 267.836 76.7658 268.062 76.9503C268.472 77.2373 269.087 77.3808 269.907 77.3808C270.44 77.3808 270.922 77.2885 271.352 77.104C271.783 76.9195 272.111 76.6838 272.336 76.3968C272.562 76.1098 272.767 75.7817 272.951 75.4127C273.136 75.0437 273.259 74.7362 273.32 74.4902C273.382 74.2442 273.423 73.9982 273.443 73.7522C273.443 73.7317 273.443 73.5575 273.443 73.2294C273.443 72.9014 273.454 72.4914 273.474 71.9994C273.495 71.5074 273.495 71.0257 273.474 70.5541V68.4938C273.474 67.5508 273.372 66.9666 273.167 66.7411C272.962 66.5156 272.449 66.3823 271.629 66.3413H271.076V64.9268C271.117 64.9268 271.896 64.8755 273.413 64.773C274.93 64.6705 275.739 64.609 275.842 64.5885H276.057V70.0621C276.057 73.7522 276.067 75.628 276.088 75.6895C276.149 76.0995 276.293 76.366 276.518 76.489C276.744 76.612 277.205 76.7043 277.902 76.7658H278.456V78.1803C278.415 78.1803 277.646 78.2315 276.149 78.3341C274.653 78.4366 273.864 78.4981 273.782 78.5186H273.566V76.3968Z" fill="white"/>
<path d="M279.993 76.7661H280.424C281.224 76.7661 281.705 76.6226 281.869 76.3356V76.0896C281.869 75.9051 281.869 75.6694 281.869 75.3824C281.869 75.0954 281.88 74.7776 281.9 74.4291C281.921 74.0806 281.921 73.6808 281.9 73.2298C281.88 72.7788 281.88 72.3483 281.9 71.9383C281.9 71.3028 281.9 70.6263 281.9 69.9087C281.9 69.1912 281.9 68.5865 281.9 68.0945L281.869 67.3872C281.808 66.9977 281.664 66.7414 281.439 66.6184C281.213 66.4954 280.752 66.4032 280.055 66.3417H279.501V65.6344C279.501 65.1629 279.522 64.9271 279.563 64.9271L279.87 64.8964C280.075 64.8759 280.362 64.8554 280.731 64.8349C281.1 64.8144 281.47 64.7939 281.839 64.7734C282.167 64.7529 282.525 64.7324 282.915 64.7119C283.304 64.6914 283.602 64.6606 283.807 64.6196C284.012 64.5786 284.124 64.5684 284.145 64.5889H284.237V66.7107C285.037 65.3166 286.031 64.6196 287.22 64.6196H287.404C288.327 64.6196 289.003 64.8451 289.434 65.2961C289.864 65.7472 290.08 66.2187 290.08 66.7107C290.08 67.1412 289.946 67.5102 289.68 67.8177C289.413 68.1252 289.024 68.279 288.511 68.279C287.999 68.279 287.62 68.115 287.374 67.787C287.128 67.4589 286.994 67.1104 286.974 66.7414C286.974 66.5569 286.994 66.3929 287.035 66.2494C287.076 66.1059 287.128 65.9829 287.189 65.8804C287.251 65.7779 287.281 65.7267 287.281 65.7267C287.24 65.6857 287.005 65.7267 286.574 65.8497C286.246 66.0137 286 66.1674 285.836 66.3109C284.873 67.2334 284.391 69.0682 284.391 71.8153V73.4451C284.391 73.7116 284.391 73.9883 284.391 74.2753C284.391 74.5623 284.391 74.8288 284.391 75.0749C284.391 75.3209 284.401 75.5259 284.422 75.6899C284.442 75.8539 284.442 76.0076 284.422 76.1511V76.3049C284.442 76.3459 284.473 76.3869 284.514 76.4279C284.555 76.4689 284.606 76.4996 284.668 76.5201C284.729 76.5406 284.78 76.5714 284.821 76.6124C284.862 76.6534 284.934 76.6739 285.037 76.6739C285.139 76.6739 285.211 76.6841 285.252 76.7046C285.293 76.7251 285.385 76.7354 285.529 76.7354C285.672 76.7354 285.764 76.7354 285.805 76.7354C285.846 76.7354 285.949 76.7456 286.113 76.7661C286.277 76.7866 286.379 76.7866 286.42 76.7661H287.374V78.1807H287.097C286.728 78.1192 285.426 78.0884 283.192 78.0884C281.08 78.0884 279.932 78.1192 279.747 78.1807H279.501V76.7661H279.993Z" fill="white"/>
<path d="M291.802 71.4767C291.802 70.3491 292.007 69.3241 292.417 68.4016C292.827 67.4791 293.339 66.7308 293.954 66.1568C294.569 65.5828 295.236 65.1523 295.953 64.8653C296.671 64.5783 297.347 64.4245 297.983 64.404C299.069 64.404 300.002 64.5885 300.781 64.9575C301.56 65.3265 302.154 65.839 302.564 66.4951C302.974 67.1511 303.261 67.8071 303.425 68.4631C303.59 69.1191 303.682 69.8469 303.702 70.6464C303.702 70.7899 303.631 70.9334 303.487 71.0769H294.815V71.5382C294.815 74.5722 295.84 76.4173 297.89 77.0733C298.3 77.1963 298.751 77.2578 299.243 77.2578C300.104 77.2578 300.842 76.9298 301.457 76.2738C301.806 75.9253 302.083 75.4947 302.288 74.9822L302.595 74.2442C302.657 74.1827 302.821 74.152 303.087 74.152H303.179C303.528 74.152 303.702 74.2545 303.702 74.4595C303.702 74.5415 303.672 74.6747 303.61 74.8592C303.22 75.9868 302.575 76.8785 301.673 77.5345C300.771 78.1905 299.756 78.5186 298.628 78.5186C296.681 78.5186 295.061 77.8113 293.77 76.3968C292.478 74.9822 291.822 73.3422 291.802 71.4767ZM301.181 69.7239C300.955 67.0998 299.981 65.7058 298.259 65.5418H298.198C298.034 65.5418 297.87 65.552 297.706 65.5725C297.542 65.593 297.286 65.675 296.937 65.8185C296.589 65.962 296.291 66.1773 296.045 66.4643C295.799 66.7513 295.564 67.1716 295.338 67.7251C295.113 68.2786 294.949 68.9551 294.846 69.7546V69.9699H301.181V69.7239Z" fill="white"/>
<path d="M316.156 62.9587C316.156 62.6307 316.156 62.2207 316.156 61.7287C316.156 61.2367 316.167 60.8984 316.187 60.7139C316.187 59.7914 316.085 59.2174 315.88 58.9919C315.675 58.7664 315.152 58.6332 314.311 58.5921H313.758V57.8849C313.758 57.4134 313.778 57.1776 313.819 57.1776L314.127 57.1469C314.332 57.1264 314.629 57.1059 315.019 57.0854C315.408 57.0649 315.787 57.0444 316.156 57.0239C316.505 57.0034 316.884 56.9829 317.294 56.9624C317.704 56.9419 318.012 56.9111 318.217 56.8701C318.422 56.8291 318.534 56.8189 318.555 56.8394H318.647V66.1876C318.647 72.4607 318.657 75.628 318.678 75.6895C318.739 76.0995 318.883 76.366 319.108 76.489C319.334 76.612 319.795 76.7043 320.492 76.7658H321.046V78.1803C321.005 78.1803 320.226 78.2315 318.709 78.3341C317.192 78.4366 316.382 78.4981 316.279 78.5186H316.064V76.8273L315.818 77.0425C314.629 78.0265 313.297 78.5186 311.821 78.5186C310.242 78.5186 308.817 77.8933 307.546 76.6428C306.275 75.3922 305.64 73.701 305.64 71.5689C305.64 69.5189 306.285 67.8481 307.577 66.5566C308.868 65.265 310.375 64.609 312.097 64.5885C313.635 64.5885 314.988 65.0908 316.156 66.0953V62.9587ZM316.064 67.6636C315.142 66.3721 313.983 65.7263 312.589 65.7263C311.585 65.7263 310.693 66.0953 309.914 66.8333C309.36 67.4073 309.012 68.0633 308.868 68.8014C308.725 69.5394 308.643 70.5029 308.622 71.6919C308.622 72.8399 308.694 73.7727 308.838 74.4902C308.981 75.2077 309.34 75.833 309.914 76.366C310.529 77.0425 311.329 77.3808 312.313 77.3808C313.768 77.3808 315.019 76.5915 316.064 75.013V67.6636Z" fill="white"/>
<path d="M326.496 39.0783L326.67 39.0348C326.815 39.0348 326.96 39.0348 327.105 39.0348H327.627L328.844 40.0786C331.57 42.5433 333.556 45.6169 334.803 49.2995C336.05 52.982 336.674 56.8095 336.674 60.782C336.674 62.7538 336.529 64.653 336.239 66.4798C335.949 68.3066 335.615 69.8579 335.238 71.1337C334.861 72.4096 334.325 73.6854 333.629 74.9612C332.933 76.2371 332.382 77.2085 331.976 77.8754C331.57 78.5423 330.976 79.2817 330.193 80.0936C329.41 80.9055 328.946 81.3839 328.801 81.5289C328.656 81.6739 328.323 81.9494 327.801 82.3553C327.714 82.4423 327.656 82.5003 327.627 82.5293H327.105C326.873 82.5293 326.713 82.5293 326.626 82.5293C326.539 82.5293 326.467 82.4858 326.409 82.3988C326.351 82.3118 326.307 82.1813 326.278 82.0074C326.307 81.9784 326.467 81.7899 326.757 81.4419C331.251 76.7735 333.498 69.8869 333.498 60.782C333.498 51.6772 331.251 44.7905 326.757 40.1221C326.467 39.7742 326.307 39.5857 326.278 39.5567C326.278 39.3247 326.351 39.1652 326.496 39.0783Z" fill="white"/>
<path d="M355.324 56.5623C355.324 56.1853 355.527 55.8954 355.933 55.6924H383.639C384.074 55.9244 384.291 56.2143 384.291 56.5623C384.291 56.8812 384.088 57.1567 383.682 57.3887L369.851 57.4322H356.02C355.556 57.2872 355.324 56.9972 355.324 56.5623ZM355.324 65.0002C355.324 64.5653 355.556 64.2753 356.02 64.1303H383.682C384.088 64.4203 384.291 64.7103 384.291 65.0002C384.291 65.3772 384.074 65.6671 383.639 65.8701H355.933C355.527 65.6671 355.324 65.3772 355.324 65.0002Z" fill="white"/>
<path d="M400.375 52.3872C400.404 52.2422 400.549 50.5749 400.81 47.3853C401.071 44.1957 401.201 42.5574 401.201 42.4704V42.2095H427.777V42.4704C427.806 42.6154 427.951 44.2827 428.211 47.4723C428.472 50.6619 428.603 52.3002 428.603 52.3872V52.6482H426.863V52.3872C426.863 52.3292 426.82 51.8218 426.733 50.8649C426.646 49.908 426.486 48.9511 426.254 47.9943C426.022 47.0374 425.718 46.327 425.341 45.863C424.848 45.2541 424.051 44.7902 422.949 44.4712C422.34 44.3262 421.223 44.2537 419.6 44.2537H418.425H418.077C417.323 44.2537 416.903 44.4277 416.816 44.7757C416.787 44.8336 416.772 48.8786 416.772 56.9106V68.9151C416.975 69.2051 417.352 69.3936 417.903 69.4805C418.454 69.5675 419.745 69.6255 421.774 69.6545H423.079V71.6553H422.514L414.511 71.5248C409.436 71.5828 406.769 71.6263 406.508 71.6553H405.942V69.6545H407.247C409.277 69.6545 410.567 69.611 411.118 69.524C411.669 69.4371 412.046 69.2341 412.249 68.9151V56.9106V47.7333C412.249 45.7035 412.177 44.6162 412.032 44.4712C411.887 44.3262 411.408 44.2537 410.596 44.2537H409.422H408.552C406.522 44.2537 405 44.6742 403.985 45.5151C403.463 45.979 403.086 46.6604 402.854 47.5593C402.622 48.4582 402.448 49.4441 402.332 50.5169C402.216 51.5898 402.144 52.2132 402.115 52.3872V52.6482H400.375V52.3872Z" fill="white"/>
<path d="M431.778 69.6545H432.387C433.518 69.6545 434.2 69.4516 434.432 69.0456V68.6976C434.432 68.4367 434.432 68.1032 434.432 67.6973C434.432 67.2913 434.446 66.8419 434.475 66.3489C434.504 65.856 434.504 65.2906 434.475 64.6527C434.446 64.0147 434.446 63.4058 434.475 62.8259C434.475 61.927 434.475 60.9701 434.475 59.9552C434.475 58.9404 434.475 58.085 434.475 57.3891L434.432 56.3887C434.345 55.8378 434.142 55.4753 433.823 55.3013C433.504 55.1273 432.851 54.9969 431.865 54.9099H431.083V53.9095C431.083 53.2426 431.112 52.9091 431.17 52.9091L431.604 52.8656C431.894 52.8366 432.3 52.8076 432.822 52.7786C433.344 52.7496 433.866 52.7207 434.388 52.6917C434.852 52.6627 435.359 52.6337 435.91 52.6047C436.461 52.5757 436.882 52.5322 437.172 52.4742C437.462 52.4162 437.621 52.4017 437.65 52.4307H437.781V55.4318C438.912 53.4601 440.318 52.4742 442 52.4742H442.261C443.565 52.4742 444.522 52.7931 445.131 53.4311C445.74 54.069 446.045 54.7359 446.045 55.4318C446.045 56.0407 445.856 56.5627 445.479 56.9976C445.102 57.4326 444.551 57.65 443.826 57.65C443.102 57.65 442.565 57.4181 442.217 56.9541C441.869 56.4902 441.681 55.9972 441.652 55.4753C441.652 55.2143 441.681 54.9824 441.739 54.7794C441.797 54.5764 441.869 54.4024 441.956 54.2575C442.043 54.1125 442.087 54.04 442.087 54.04C442.029 53.982 441.695 54.04 441.086 54.214C440.622 54.4459 440.274 54.6634 440.042 54.8664C438.68 56.1712 437.998 58.7664 437.998 62.6519V64.9571C437.998 65.3341 437.998 65.7255 437.998 66.1315C437.998 66.5374 437.998 66.9144 437.998 67.2623C437.998 67.6103 438.013 67.9002 438.042 68.1322C438.071 68.3642 438.071 68.5817 438.042 68.7846V69.0021C438.071 69.0601 438.114 69.1181 438.172 69.1761C438.23 69.2341 438.303 69.2776 438.39 69.3066C438.477 69.3356 438.549 69.3791 438.607 69.4371C438.665 69.495 438.767 69.524 438.912 69.524C439.057 69.524 439.158 69.5385 439.216 69.5675C439.274 69.5965 439.404 69.611 439.607 69.611C439.81 69.611 439.941 69.611 439.999 69.611C440.057 69.611 440.202 69.6255 440.434 69.6545C440.666 69.6835 440.811 69.6835 440.869 69.6545H442.217V71.6553H441.826C441.304 71.5683 439.462 71.5248 436.302 71.5248C433.315 71.5248 431.691 71.5683 431.43 71.6553H431.083V69.6545H431.778Z" fill="white"/>
<path d="M477.752 112.54C477.752 112.627 477.665 112.758 477.491 112.932H476.142C476.084 112.874 475.678 112.482 474.924 111.757C474.17 111.032 473.518 110.409 472.967 109.887C472.416 109.365 471.633 108.481 470.618 107.234C469.604 105.987 468.705 104.813 467.922 103.711C467.139 102.609 466.225 101.145 465.182 99.3179C464.138 97.4911 463.239 95.6788 462.485 93.881C461.731 92.0833 460.934 89.923 460.093 87.4003C459.252 84.8777 458.599 82.326 458.136 79.7453C457.672 77.1646 457.251 74.2215 456.874 70.9159C456.497 67.6103 456.323 64.2178 456.352 60.7382C456.352 40.1218 461.63 24.0288 472.184 12.4593C472.851 11.7344 473.475 11.0964 474.055 10.5455C474.634 9.99457 475.113 9.53062 475.49 9.15367C475.867 8.77672 476.084 8.58824 476.142 8.58824H477.491C477.665 8.76222 477.752 8.89271 477.752 8.9797C477.752 9.12468 477.462 9.50163 476.882 10.1106C476.302 10.7195 475.548 11.5749 474.62 12.6767C473.692 13.7786 472.648 15.1559 471.488 16.8087C470.328 18.4615 469.154 20.5347 467.965 23.0284C466.776 25.5221 465.675 28.2913 464.66 31.3359C463.645 34.3805 462.775 38.034 462.05 42.2965C461.325 46.559 460.861 51.1404 460.658 56.0408C460.6 57.1426 460.571 58.7229 460.571 60.7817C460.571 72.0613 461.934 81.92 464.66 90.358C467.385 98.7959 471.59 105.958 477.273 111.844C477.592 112.192 477.752 112.424 477.752 112.54Z" fill="white"/>
<path d="M561.524 81.0498C560.567 81.0498 560.059 80.6149 560.001 79.745C560.001 79.455 560.726 76.3814 562.176 70.5241C563.626 64.6669 564.409 61.6512 564.525 61.4773C564.989 59.8825 565.786 58.3312 566.917 56.8234C568.947 54.3297 571.252 52.8799 573.833 52.4739C573.891 52.4739 574.007 52.4739 574.181 52.4739C574.355 52.4739 574.5 52.4594 574.616 52.4304C576.732 52.4304 578.356 53.1263 579.487 54.5181C580.618 55.91 581.183 57.6208 581.183 59.6505C581.183 61.3033 580.835 62.9126 580.139 64.4784C579.444 66.0442 578.559 67.3635 577.486 68.4364C576.413 69.5093 575.254 70.3936 574.007 71.0896C572.76 71.7855 571.615 72.1189 570.571 72.0899H570.092H569.788C568.309 72.0899 567.106 71.4375 566.178 70.1327L565.96 69.8717L564.786 74.7431C564.061 77.5557 563.641 79.1505 563.525 79.5275C563.409 79.9044 563.235 80.2089 563.003 80.4409C562.539 80.8468 562.046 81.0498 561.524 81.0498ZM577.443 57.6498C577.443 56.5769 577.196 55.707 576.703 55.0401C576.21 54.3732 575.486 54.0397 574.529 54.0397C573.514 54.0397 572.499 54.4602 571.484 55.3011C570.469 56.1419 569.657 57.2438 569.048 58.6066C568.642 59.5055 568.091 61.3903 567.396 64.2609L566.656 67.2185C567.149 69.4223 568.367 70.5241 570.31 70.5241C571.412 70.5241 572.484 70.0022 573.528 68.9583C574.485 68.0884 575.283 66.6966 575.92 64.7829C576.558 62.8691 576.979 61.3033 577.182 60.0854C577.385 58.8676 577.472 58.0557 577.443 57.6498Z" fill="white"/>
<path d="M582.318 65.203C583.405 65.121 584.245 64.547 584.84 63.481C585.434 62.415 585.762 61.1644 585.824 59.7294V59.2682H587.054V64.9263H591.205V66.3408H587.054V70.7689C587.074 73.3314 587.085 74.7767 587.085 75.1047C587.085 75.4327 587.156 75.7607 587.3 76.0888C587.587 76.8883 588.089 77.288 588.807 77.288C589.709 77.288 590.262 76.5603 590.467 75.1047C590.488 74.9407 590.498 74.4692 590.498 73.6902V72.6139H591.728V73.6902V74.0592C591.728 75.6377 591.297 76.837 590.436 77.657C589.883 78.2105 589.165 78.4873 588.284 78.4873C587.587 78.4873 586.982 78.3643 586.47 78.1183C585.957 77.8723 585.568 77.5545 585.301 77.165C585.035 76.7755 584.84 76.4168 584.717 76.0888C584.594 75.7607 584.522 75.4327 584.502 75.1047C584.481 74.9612 584.471 73.4442 584.471 70.5536V66.3408H582.042V65.203H582.318Z" fill="white"/>
<path d="M597.663 68.8004C597.663 68.8004 597.437 68.8004 596.986 68.8004C596.535 68.8004 596.156 68.6466 595.849 68.3391C595.541 68.0316 595.387 67.6319 595.387 67.1398C595.387 66.4223 595.736 65.7868 596.433 65.2333C597.13 64.6798 598.37 64.403 600.154 64.403C601.65 64.403 602.86 64.731 603.782 65.3871C604.705 66.0431 605.32 66.8221 605.627 67.7241C605.73 68.0111 605.781 68.3289 605.781 68.6774C605.781 69.0259 605.791 70.2047 605.812 72.2137V74.3662C605.812 75.3503 605.863 76.0268 605.966 76.3958C606.068 76.7648 606.283 76.9493 606.611 76.9493C606.919 76.9493 607.124 76.7853 607.226 76.4573C607.329 76.1293 607.38 75.586 607.38 74.8275V73.7205H608.61V74.9198C608.59 75.7398 608.559 76.2215 608.518 76.365C608.333 76.98 607.975 77.4618 607.442 77.8103C606.909 78.1588 606.345 78.3433 605.75 78.3638C605.156 78.3843 604.674 78.1998 604.305 77.8103C603.936 77.4208 603.69 76.9903 603.567 76.5188V76.3958L603.506 76.488C603.465 76.5495 603.413 76.611 603.352 76.6725C603.29 76.734 603.208 76.8263 603.106 76.9493C603.003 77.0723 602.88 77.1851 602.737 77.2876C602.593 77.3901 602.44 77.5131 602.276 77.6566C602.112 77.8001 601.927 77.9128 601.722 77.9948C601.517 78.0768 601.291 78.1588 601.045 78.2408C600.799 78.3228 600.533 78.3843 600.246 78.4253C599.959 78.4663 599.641 78.4971 599.293 78.5176C598.063 78.5176 596.956 78.1998 595.972 77.5643C594.988 76.9288 594.496 76.037 594.496 74.889C594.496 74.4585 594.567 74.0485 594.711 73.659C594.854 73.2695 595.131 72.8492 595.541 72.3982C595.951 71.9472 596.443 71.5679 597.017 71.2604C597.591 70.9529 598.391 70.6659 599.416 70.3994C600.441 70.1329 601.568 69.9792 602.798 69.9382H603.229V69.2616C603.229 68.5646 603.167 68.0521 603.044 67.7241C602.593 66.2686 601.599 65.5408 600.061 65.5408C599.692 65.5408 599.344 65.5511 599.016 65.5716C598.688 65.5921 598.432 65.6331 598.247 65.6946C598.063 65.7561 597.981 65.7868 598.001 65.7868C598.452 66.0943 598.678 66.5453 598.678 67.1398C598.678 67.6524 598.514 68.0521 598.186 68.3391L597.663 68.8004ZM597.325 74.9198C597.325 75.5553 597.571 76.119 598.063 76.611C598.555 77.103 599.159 77.3593 599.877 77.3798C600.656 77.3798 601.343 77.144 601.937 76.6725C602.532 76.201 602.932 75.586 603.137 74.8275C603.178 74.684 603.208 74.0075 603.229 72.798C603.229 71.6089 603.219 71.0144 603.198 71.0144C603.034 71.0144 602.819 71.0247 602.552 71.0452C602.286 71.0657 601.825 71.1579 601.168 71.3219C600.512 71.4859 599.918 71.6909 599.385 71.9369C598.852 72.1829 598.38 72.5622 597.97 73.0747C597.56 73.5872 597.345 74.2022 597.325 74.9198Z" fill="white"/>
<path d="M609.932 76.7642H610.363C611.162 76.7642 611.644 76.6207 611.808 76.3337V76.0877C611.808 75.9032 611.808 75.6674 611.808 75.3804C611.808 75.0934 611.818 74.7756 611.839 74.4271C611.859 74.0786 611.859 73.6789 611.839 73.2279C611.818 72.7768 611.818 72.3463 611.839 71.9363C611.839 71.3008 611.839 70.6243 611.839 69.9068C611.839 69.1893 611.839 68.5845 611.839 68.0925L611.808 67.3852C611.747 66.9957 611.603 66.7395 611.378 66.6165C611.152 66.4935 610.691 66.4012 609.994 66.3397H609.44V65.6325C609.44 65.1609 609.461 64.9252 609.502 64.9252L609.809 64.8944C610.014 64.8739 610.301 64.8534 610.67 64.8329C611.039 64.8124 611.408 64.7919 611.777 64.7714C612.105 64.7509 612.464 64.7304 612.854 64.7099C613.243 64.6894 613.541 64.6587 613.746 64.6177C613.951 64.5767 614.063 64.5664 614.084 64.5869H614.176V66.7087C614.976 65.3147 615.97 64.6177 617.159 64.6177H617.343C618.266 64.6177 618.942 64.8432 619.373 65.2942C619.803 65.7452 620.019 66.2167 620.019 66.7087C620.019 67.1392 619.885 67.5082 619.619 67.8157C619.352 68.1233 618.963 68.277 618.45 68.277C617.938 68.277 617.559 68.113 617.313 67.785C617.067 67.457 616.933 67.1085 616.913 66.7395C616.913 66.555 616.933 66.391 616.974 66.2475C617.015 66.104 617.067 65.981 617.128 65.8785C617.19 65.776 617.22 65.7247 617.22 65.7247C617.179 65.6837 616.944 65.7247 616.513 65.8477C616.185 66.0117 615.939 66.1655 615.775 66.309C614.812 67.2315 614.33 69.0663 614.33 71.8133V73.4431C614.33 73.7096 614.33 73.9864 614.33 74.2734C614.33 74.5604 614.33 74.8269 614.33 75.0729C614.33 75.3189 614.34 75.5239 614.361 75.6879C614.381 75.8519 614.381 76.0057 614.361 76.1492V76.3029C614.381 76.3439 614.412 76.3849 614.453 76.4259C614.494 76.4669 614.545 76.4977 614.607 76.5182C614.668 76.5387 614.719 76.5694 614.76 76.6104C614.801 76.6514 614.873 76.6719 614.976 76.6719C615.078 76.6719 615.15 76.6822 615.191 76.7027C615.232 76.7232 615.324 76.7334 615.468 76.7334C615.611 76.7334 615.703 76.7334 615.744 76.7334C615.785 76.7334 615.888 76.7437 616.052 76.7642C616.216 76.7847 616.318 76.7847 616.359 76.7642H617.313V78.1787H617.036C616.667 78.1172 615.365 78.0865 613.131 78.0865C611.019 78.0865 609.871 78.1172 609.686 78.1787H609.44V76.7642H609.932Z" fill="white"/>
<path d="M630.997 65.602C631.899 64.7 632.924 64.249 634.072 64.249C634.687 64.249 635.128 64.4438 635.394 64.8333C635.661 65.2228 635.794 65.6123 635.794 66.0018C635.794 66.2888 635.702 66.5451 635.517 66.7706C635.333 66.9961 635.056 67.1088 634.687 67.1088C634.01 67.1088 633.631 66.8013 633.549 66.1863C633.508 65.8993 633.539 65.684 633.641 65.5405C633.641 65.52 633.651 65.4893 633.672 65.4483V65.4175C633.098 65.479 632.555 65.7045 632.042 66.094C631.878 66.1965 631.796 66.2683 631.796 66.3093C631.796 66.3298 631.837 66.3811 631.919 66.4631C632.001 66.5451 632.093 66.6681 632.196 66.8321C632.298 66.9961 632.411 67.1806 632.534 67.3856C632.657 67.5906 632.749 67.8571 632.811 68.1851C632.872 68.5131 632.913 68.8514 632.934 69.1999C632.934 70.4709 632.432 71.5472 631.427 72.4287C630.423 73.3102 629.182 73.7612 627.706 73.7817C626.681 73.7817 625.667 73.4947 624.662 72.9207C624.437 73.2897 624.324 73.6792 624.324 74.0892C624.324 74.8067 624.59 75.3397 625.123 75.6882C625.308 75.8112 625.482 75.8727 625.646 75.8727C625.81 75.8727 626.548 75.8932 627.86 75.9342C629.582 75.9547 630.689 76.0162 631.181 76.1188C632.432 76.3033 633.416 76.7235 634.133 77.3795C634.933 78.179 635.333 79.1836 635.333 80.3931C635.333 81.7666 634.533 82.8224 632.934 83.5604C631.704 84.1959 630.248 84.5137 628.567 84.5137C626.866 84.5137 625.4 84.1959 624.17 83.5604C622.571 82.8429 621.771 81.8179 621.771 80.4853C621.771 79.7473 621.987 79.1323 622.417 78.6403C622.848 78.1483 623.278 77.81 623.709 77.6255L624.047 77.441C623.309 76.8055 622.94 75.9445 622.94 74.858C622.94 73.8945 623.237 73.0232 623.832 72.2442C622.93 71.3422 622.479 70.3274 622.479 69.1999C622.479 67.9083 622.991 66.8218 624.016 65.9403C625.041 65.0588 626.282 64.6078 627.737 64.5873C628.783 64.5873 629.756 64.8538 630.658 65.3868L630.997 65.602ZM630.074 67.6316C629.972 67.0576 629.705 66.6066 629.275 66.2785C628.844 65.9505 628.311 65.7763 627.676 65.7558C627.081 65.7558 626.569 65.9198 626.138 66.2478C625.708 66.5758 625.441 67.0371 625.339 67.6316C625.277 67.9801 625.246 68.5028 625.246 69.1999C625.246 70.1019 625.318 70.7681 625.462 71.1986C625.605 71.6292 625.913 71.9879 626.384 72.2749C626.733 72.4799 627.173 72.5824 627.706 72.5824C628.157 72.5824 628.547 72.5107 628.875 72.3672C629.203 72.2237 629.439 72.0392 629.582 71.8137C629.726 71.5882 629.838 71.3832 629.92 71.1986C630.002 71.0141 630.054 70.8604 630.074 70.7374C630.136 70.4094 630.166 69.8969 630.166 69.1999C630.166 68.5028 630.136 67.9801 630.074 67.6316ZM633.272 80.4853C633.272 79.9728 633.129 79.5526 632.842 79.2246C632.555 78.8966 632.134 78.6608 631.581 78.5173C631.027 78.3738 630.525 78.2815 630.074 78.2405C629.623 78.1995 629.07 78.179 628.414 78.179H627.583C626.21 78.179 625.39 78.2405 625.123 78.3635C624.713 78.548 624.396 78.8351 624.17 79.2246C623.945 79.6141 623.822 80.0241 623.801 80.4546C623.801 80.6596 623.863 80.8953 623.986 81.1619C624.109 81.4284 624.324 81.7359 624.631 82.0844C624.939 82.4329 625.431 82.7199 626.107 82.9454C626.784 83.1709 627.604 83.2939 628.567 83.3144C629.982 83.3144 631.12 83.0274 631.981 82.4534C632.842 81.8794 633.272 81.2234 633.272 80.4853Z" fill="white"/>
<path d="M637.116 71.4757C637.116 70.3482 637.321 69.3231 637.731 68.4006C638.141 67.4781 638.654 66.7298 639.269 66.1558C639.884 65.5818 640.55 65.1513 641.268 64.8643C641.985 64.5773 642.662 64.4235 643.297 64.403C644.384 64.403 645.316 64.5875 646.095 64.9565C646.874 65.3256 647.469 65.8381 647.879 66.4941C648.289 67.1501 648.576 67.8061 648.74 68.4621C648.904 69.1181 648.996 69.8459 649.017 70.6454C649.017 70.7889 648.945 70.9324 648.801 71.0759H640.13V71.5372C640.13 74.5712 641.155 76.4163 643.205 77.0723C643.615 77.1953 644.066 77.2568 644.558 77.2568C645.419 77.2568 646.157 76.9288 646.772 76.2728C647.12 75.9243 647.397 75.4938 647.602 74.9813L647.91 74.2432C647.971 74.1817 648.135 74.151 648.402 74.151H648.494C648.842 74.151 649.017 74.2535 649.017 74.4585C649.017 74.5405 648.986 74.6737 648.924 74.8583C648.535 75.9858 647.889 76.8775 646.987 77.5336C646.085 78.1896 645.07 78.5176 643.943 78.5176C641.995 78.5176 640.376 77.8103 639.084 76.3958C637.793 74.9813 637.137 73.3412 637.116 71.4757ZM646.495 69.7229C646.27 67.0988 645.296 65.7048 643.574 65.5408H643.512C643.348 65.5408 643.184 65.5511 643.02 65.5716C642.856 65.5921 642.6 65.6741 642.252 65.8176C641.903 65.9611 641.606 66.1763 641.36 66.4633C641.114 66.7503 640.878 67.1706 640.653 67.7241C640.427 68.2776 640.263 68.9541 640.161 69.7536V69.9689H646.495V69.7229Z" fill="white"/>
<path d="M650.738 65.203C651.825 65.121 652.665 64.547 653.26 63.481C653.854 62.415 654.182 61.1644 654.244 59.7294V59.2682H655.474V64.9263H659.625V66.3408H655.474V70.7689C655.494 73.3314 655.505 74.7767 655.505 75.1047C655.505 75.4327 655.576 75.7607 655.72 76.0888C656.007 76.8883 656.509 77.288 657.227 77.288C658.129 77.288 658.682 76.5603 658.887 75.1047C658.908 74.9407 658.918 74.4692 658.918 73.6902V72.6139H660.148V73.6902V74.0592C660.148 75.6377 659.717 76.837 658.856 77.657C658.303 78.2105 657.585 78.4873 656.704 78.4873C656.007 78.4873 655.402 78.3643 654.89 78.1183C654.377 77.8723 653.987 77.5545 653.721 77.165C653.454 76.7755 653.26 76.4168 653.137 76.0888C653.014 75.7607 652.942 75.4327 652.921 75.1047C652.901 74.9612 652.891 73.4442 652.891 70.5536V66.3408H650.461V65.203H650.738Z" fill="white"/>
<path d="M526.901 74.8764C526.727 74.8764 526.524 74.7605 526.292 74.5285C526.06 74.2965 525.93 74.0935 525.901 73.9196C525.872 73.7456 526.321 73.3106 527.249 72.6147C528.177 71.9188 529.134 71.1939 530.12 70.44C531.106 69.6861 531.657 69.2657 531.772 69.1787C531.83 69.1207 531.903 69.0917 531.99 69.0917H532.033C532.207 69.0917 532.41 69.3381 532.642 69.8311C532.874 70.324 533.657 72.0203 534.991 74.9199C535.542 76.1668 535.991 77.1672 536.339 77.9211L540.036 85.9676C540.065 85.9676 541.573 82.8794 544.56 76.7032C547.547 70.527 550.533 64.3073 553.52 58.0441C556.506 51.7809 558.058 48.5768 558.174 48.4318C558.348 48.0258 558.638 47.8229 559.044 47.8229C559.247 47.8229 559.421 47.9098 559.565 48.0838C559.71 48.2578 559.812 48.4318 559.87 48.6058V48.8667L549.736 69.8746L539.515 91.0129C539.399 91.2159 539.123 91.3174 538.688 91.3174C538.427 91.3174 538.253 91.2739 538.166 91.1869C538.108 91.1289 536.687 88.0553 533.904 81.9661L529.728 72.8322L529.032 73.3106C528.597 73.6586 528.148 74.0066 527.684 74.3545C527.22 74.7025 526.959 74.8764 526.901 74.8764Z" fill="white"/>
<path d="M664.057 50.4326H559V47.8229H664.057V50.4326Z" fill="white"/>
<path d="M666.579 81.0498C665.623 81.0498 665.115 80.6149 665.057 79.745C665.057 79.455 665.782 76.3814 667.232 70.5241C668.682 64.6669 669.465 61.6512 669.581 61.4773C670.045 59.8825 670.842 58.3312 671.973 56.8234C674.003 54.3297 676.308 52.8799 678.888 52.4739C678.946 52.4739 679.062 52.4739 679.236 52.4739C679.41 52.4739 679.555 52.4594 679.671 52.4304C681.788 52.4304 683.412 53.1263 684.543 54.5181C685.674 55.91 686.239 57.6208 686.239 59.6505C686.239 61.3033 685.891 62.9126 685.195 64.4784C684.499 66.0442 683.615 67.3635 682.542 68.4364C681.469 69.5093 680.309 70.3936 679.062 71.0896C677.816 71.7855 676.67 72.1189 675.626 72.0899H675.148H674.843C673.365 72.0899 672.161 71.4375 671.233 70.1327L671.016 69.8717L669.842 74.7431C669.117 77.5557 668.696 79.1505 668.58 79.5275C668.464 79.9044 668.29 80.2089 668.058 80.4409C667.594 80.8468 667.101 81.0498 666.579 81.0498ZM682.498 57.6498C682.498 56.5769 682.252 55.707 681.759 55.0401C681.266 54.3732 680.541 54.0397 679.584 54.0397C678.569 54.0397 677.555 54.4602 676.54 55.3011C675.525 56.1419 674.713 57.2438 674.104 58.6066C673.698 59.5055 673.147 61.3903 672.451 64.2609L671.712 67.2185C672.205 69.4223 673.423 70.5241 675.365 70.5241C676.467 70.5241 677.54 70.0022 678.584 68.9583C679.541 68.0884 680.338 66.6966 680.976 64.7829C681.614 62.8691 682.034 61.3033 682.237 60.0854C682.44 58.8676 682.527 58.0557 682.498 57.6498Z" fill="white"/>
<path d="M687.805 76.7652H688.236C689.035 76.7652 689.517 76.6217 689.681 76.3346V76.0886C689.681 75.9041 689.681 75.6684 689.681 75.3814C689.681 75.0944 689.681 74.7766 689.681 74.4281C689.681 74.0796 689.691 73.6798 689.712 73.2288C689.732 72.7778 689.732 72.3473 689.712 71.9373C689.712 71.3018 689.712 70.6253 689.712 69.9078C689.712 69.1903 689.701 68.5855 689.681 68.0935V67.3862C689.619 66.9967 689.476 66.7405 689.25 66.6174C689.025 66.4944 688.564 66.4022 687.866 66.3407H687.313V65.6334C687.313 65.1619 687.333 64.9262 687.374 64.9262L687.682 64.8954C687.887 64.8749 688.174 64.8544 688.543 64.8339C688.912 64.8134 689.291 64.7929 689.681 64.7724C690.029 64.7519 690.398 64.7314 690.788 64.7109C691.177 64.6904 691.475 64.6597 691.68 64.6187C691.885 64.5777 691.997 64.5674 692.018 64.5879H692.11V65.8179C692.11 66.5969 692.12 66.9865 692.141 66.9865C692.161 66.9865 692.213 66.9352 692.295 66.8327C692.377 66.7302 692.5 66.5764 692.664 66.3714C692.828 66.1664 693.022 65.9819 693.248 65.8179C693.473 65.6539 693.771 65.4592 694.14 65.2337C694.509 65.0082 694.898 64.8442 695.308 64.7417C695.718 64.6392 696.241 64.5879 696.876 64.5879C697.184 64.5879 697.471 64.6084 697.737 64.6494C698.004 64.6904 698.24 64.7519 698.445 64.8339C698.65 64.9159 698.844 64.9979 699.029 65.0799C699.213 65.1619 699.367 65.2542 699.49 65.3567C699.613 65.4592 699.726 65.5719 699.828 65.6949C699.931 65.8179 700.023 65.9307 700.105 66.0332C700.187 66.1357 700.259 66.2484 700.321 66.3714C700.382 66.4944 700.423 66.5969 700.444 66.679C700.464 66.761 700.495 66.843 700.536 66.925L700.597 67.0787L700.69 66.9557C700.751 66.8737 700.813 66.7917 700.874 66.7097C700.936 66.6277 701.028 66.5149 701.151 66.3714C701.274 66.2279 701.407 66.0947 701.551 65.9717C701.694 65.8487 701.848 65.7154 702.012 65.5719C702.176 65.4284 702.381 65.3054 702.627 65.2029C702.873 65.1004 703.109 64.9979 703.334 64.8954C703.56 64.7929 703.826 64.7212 704.134 64.6802C704.441 64.6392 704.759 64.6084 705.087 64.5879C707.67 64.5879 709.074 65.7462 709.3 68.0627C709.32 68.2062 709.33 69.631 709.33 72.3371V74.9816C709.33 75.7606 709.351 76.2219 709.392 76.3654C709.433 76.5089 709.546 76.6114 709.73 76.6729C710.161 76.7344 710.663 76.7652 711.237 76.7652H711.729V78.1797H711.483L710.776 78.1489C710.284 78.1284 709.761 78.1182 709.207 78.1182C708.654 78.1182 708.264 78.1079 708.039 78.0874C705.927 78.0874 704.779 78.1182 704.595 78.1797H704.349V76.7652H704.841C706.091 76.7652 706.717 76.6012 706.717 76.2731C706.737 76.2321 706.747 74.8176 706.747 72.0296C706.727 69.262 706.706 67.7962 706.686 67.6322C706.563 67.0582 706.358 66.6277 706.071 66.3407C705.784 66.0537 705.538 65.8794 705.333 65.8179C705.128 65.7564 704.861 65.7359 704.533 65.7564C703.611 65.7564 702.801 66.1049 702.104 66.802C701.551 67.3555 701.202 67.9192 701.059 68.4932C700.915 69.0673 700.833 69.918 700.813 71.0455V73.0136V74.8586C700.813 75.4736 700.823 75.8836 700.843 76.0886C700.864 76.2936 700.895 76.4269 700.936 76.4884C700.977 76.5499 701.069 76.6114 701.212 76.6729C701.643 76.7344 702.145 76.7652 702.719 76.7652H703.211V78.1797H702.965L702.227 78.1489C701.756 78.1284 701.243 78.1182 700.69 78.1182C700.136 78.1182 699.746 78.1079 699.521 78.0874C697.409 78.0874 696.261 78.1182 696.077 78.1797H695.831V76.7652H696.323C697.573 76.7652 698.199 76.6012 698.199 76.2731C698.219 76.2321 698.229 74.8176 698.229 72.0296C698.209 69.262 698.188 67.7962 698.168 67.6322C698.045 67.0582 697.84 66.6277 697.553 66.3407C697.266 66.0537 697.02 65.8794 696.815 65.8179C696.61 65.7564 696.343 65.7359 696.015 65.7564C695.093 65.7564 694.283 66.1049 693.586 66.802C693.033 67.3555 692.684 67.9192 692.541 68.4932C692.397 69.0673 692.315 69.918 692.295 71.0455V73.0136V74.8586C692.295 75.4736 692.305 75.8836 692.325 76.0886C692.346 76.2936 692.377 76.4269 692.418 76.4884C692.459 76.5499 692.551 76.6114 692.694 76.6729C693.125 76.7344 693.627 76.7652 694.201 76.7652H694.693V78.1797H694.447L693.74 78.1489C693.248 78.1284 692.725 78.1182 692.172 78.1182C691.618 78.1182 691.229 78.1079 691.003 78.0874C688.892 78.0874 687.743 78.1182 687.559 78.1797H687.313V76.7652H687.805Z" fill="white"/>
<path d="M713.021 71.4757C713.021 70.3482 713.226 69.3231 713.636 68.4006C714.046 67.4781 714.558 66.7298 715.173 66.1558C715.788 65.5818 716.454 65.1513 717.172 64.8643C717.889 64.5773 718.566 64.4235 719.201 64.403C720.288 64.403 721.221 64.5875 722 64.9565C722.779 65.3256 723.373 65.8381 723.783 66.4941C724.193 67.1501 724.48 67.8061 724.644 68.4621C724.808 69.1181 724.901 69.8459 724.921 70.6454C724.921 70.7889 724.849 70.9324 724.706 71.0759H716.034V71.5372C716.034 74.5712 717.059 76.4163 719.109 77.0723C719.519 77.1953 719.97 77.2568 720.462 77.2568C721.323 77.2568 722.061 76.9288 722.676 76.2728C723.025 75.9243 723.301 75.4938 723.506 74.9813L723.814 74.2432C723.875 74.1817 724.039 74.151 724.306 74.151H724.398C724.747 74.151 724.921 74.2535 724.921 74.4585C724.921 74.5405 724.89 74.6737 724.829 74.8583C724.439 75.9858 723.793 76.8775 722.891 77.5336C721.989 78.1896 720.975 78.5176 719.847 78.5176C717.9 78.5176 716.28 77.8103 714.989 76.3958C713.697 74.9813 713.041 73.3412 713.021 71.4757ZM722.399 69.7229C722.174 67.0988 721.2 65.7048 719.478 65.5408H719.417C719.253 65.5408 719.089 65.5511 718.925 65.5716C718.761 65.5921 718.504 65.6741 718.156 65.8176C717.807 65.9611 717.51 66.1763 717.264 66.4633C717.018 66.7503 716.782 67.1706 716.557 67.7241C716.331 68.2776 716.167 68.9541 716.065 69.7536V69.9689H722.399V69.7229Z" fill="white"/>
<path d="M730.026 68.8004C730.026 68.8004 729.8 68.8004 729.349 68.8004C728.898 68.8004 728.519 68.6466 728.211 68.3391C727.904 68.0316 727.75 67.6319 727.75 67.1398C727.75 66.4223 728.099 65.7868 728.796 65.2333C729.493 64.6798 730.733 64.403 732.517 64.403C734.013 64.403 735.223 64.731 736.145 65.3871C737.068 66.0431 737.683 66.8221 737.99 67.7241C738.093 68.0111 738.144 68.3289 738.144 68.6774C738.144 69.0259 738.154 70.2047 738.175 72.2137V74.3662C738.175 75.3503 738.226 76.0268 738.328 76.3958C738.431 76.7648 738.646 76.9493 738.974 76.9493C739.282 76.9493 739.487 76.7853 739.589 76.4573C739.692 76.1293 739.743 75.586 739.743 74.8275V73.7205H740.973V74.9198C740.952 75.7398 740.922 76.2215 740.881 76.365C740.696 76.98 740.337 77.4618 739.804 77.8103C739.271 78.1588 738.708 78.3433 738.113 78.3638C737.519 78.3843 737.037 78.1998 736.668 77.8103C736.299 77.4208 736.053 76.9903 735.93 76.5188V76.3958L735.868 76.488C735.827 76.5495 735.776 76.611 735.715 76.6725C735.653 76.734 735.571 76.8263 735.469 76.9493C735.366 77.0723 735.243 77.1851 735.1 77.2876C734.956 77.3901 734.802 77.5131 734.638 77.6566C734.474 77.8001 734.29 77.9128 734.085 77.9948C733.88 78.0768 733.654 78.1588 733.408 78.2408C733.162 78.3228 732.896 78.3843 732.609 78.4253C732.322 78.4663 732.004 78.4971 731.655 78.5176C730.425 78.5176 729.318 78.1998 728.334 77.5643C727.35 76.9288 726.858 76.037 726.858 74.889C726.858 74.4585 726.93 74.0485 727.074 73.659C727.217 73.2695 727.494 72.8492 727.904 72.3982C728.314 71.9472 728.806 71.5679 729.38 71.2604C729.954 70.9529 730.753 70.6659 731.778 70.3994C732.804 70.1329 733.931 69.9792 735.161 69.9382H735.592V69.2616C735.592 68.5646 735.53 68.0521 735.407 67.7241C734.956 66.2686 733.962 65.5408 732.424 65.5408C732.055 65.5408 731.707 65.5511 731.379 65.5716C731.051 65.5921 730.794 65.6331 730.61 65.6946C730.425 65.7561 730.343 65.7868 730.364 65.7868C730.815 66.0943 731.04 66.5453 731.04 67.1398C731.04 67.6524 730.876 68.0521 730.548 68.3391L730.026 68.8004ZM729.687 74.9198C729.687 75.5553 729.933 76.119 730.425 76.611C730.917 77.103 731.522 77.3593 732.24 77.3798C733.019 77.3798 733.706 77.144 734.3 76.6725C734.895 76.201 735.294 75.586 735.499 74.8275C735.54 74.684 735.571 74.0075 735.592 72.798C735.592 71.6089 735.581 71.0144 735.561 71.0144C735.397 71.0144 735.182 71.0247 734.915 71.0452C734.649 71.0657 734.187 71.1579 733.531 71.3219C732.875 71.4859 732.281 71.6909 731.748 71.9369C731.215 72.1829 730.743 72.5622 730.333 73.0747C729.923 73.5872 729.708 74.2022 729.687 74.9198Z" fill="white"/>
<path d="M750.259 68.4621C750.259 67.6421 749.983 66.9348 749.429 66.3403C748.876 65.7458 748.076 65.4486 747.03 65.4486C746.292 65.4486 745.657 65.5818 745.124 65.8483C744.509 66.2378 744.201 66.7708 744.201 67.4474C744.181 67.5499 744.181 67.6831 744.201 67.8471C744.222 68.0111 744.386 68.2571 744.693 68.5851C745.001 68.9131 745.442 69.1694 746.016 69.3539C746.385 69.4564 746.836 69.5486 747.369 69.6306C747.902 69.7126 748.353 69.8049 748.722 69.9074C749.091 70.0099 749.419 70.1432 749.706 70.3072C750.054 70.4712 750.393 70.6762 750.721 70.9222C751.049 71.1682 751.377 71.5884 751.705 72.1829C752.033 72.7775 752.207 73.413 752.227 74.0895C752.227 75.3605 751.838 76.406 751.059 77.2261C750.28 78.0461 749.019 78.4663 747.276 78.4868H747.03C745.964 78.4868 744.98 78.1178 744.078 77.3798L743.832 77.5951L743.556 77.8718C743.433 77.9948 743.31 78.1076 743.187 78.2101L742.848 78.5176H742.602H742.479C742.418 78.5176 742.326 78.4561 742.203 78.3331V75.9038V74.1202C742.203 73.6897 742.223 73.4335 742.264 73.3515C742.305 73.2695 742.408 73.2182 742.572 73.1977H742.848C743.094 73.1977 743.258 73.2387 743.34 73.3207C743.422 73.4027 743.474 73.5257 743.494 73.6897C743.515 73.8537 743.586 74.1305 743.709 74.52C743.832 74.9095 744.027 75.34 744.294 75.8115C745.011 76.857 746.005 77.3798 747.276 77.3798C749.265 77.3798 750.259 76.5803 750.259 74.9813C750.259 74.3867 750.075 73.905 749.706 73.536C749.296 73.044 748.445 72.675 747.153 72.429C745.862 72.1829 745.011 71.9472 744.601 71.7217C743.863 71.3732 743.279 70.9017 742.848 70.3072C742.418 69.7126 742.203 69.0771 742.203 68.4006C742.203 67.6011 742.377 66.9246 742.725 66.3711C743.074 65.8176 743.515 65.4076 744.048 65.1411C744.581 64.8745 745.093 64.69 745.585 64.5875C746.077 64.485 746.528 64.4338 746.938 64.4338H747.276C748.097 64.4338 748.814 64.5875 749.429 64.895L749.89 65.1411L750.167 64.9258C750.372 64.7413 750.598 64.567 750.844 64.403H751.09H751.213C751.274 64.403 751.366 64.4645 751.489 64.5875V68.6466L751.305 68.8311H750.444C750.321 68.7081 750.259 68.5851 750.259 68.4621Z" fill="white"/>
<path d="M765.081 76.3958C763.933 77.7898 762.631 78.4868 761.176 78.4868H760.96C758.398 78.4868 756.922 77.4721 756.532 75.4425C756.512 75.299 756.491 73.8947 756.471 71.2297C756.45 68.9951 756.44 67.7446 756.44 67.4781C756.44 67.2116 756.379 66.9963 756.256 66.8323C756.051 66.5043 755.436 66.3403 754.411 66.3403H754.072V65.6331C754.072 65.1616 754.093 64.9258 754.134 64.9258L754.472 64.895C754.677 64.8745 754.974 64.854 755.364 64.8335C755.753 64.813 756.143 64.7925 756.532 64.772C756.881 64.7515 757.26 64.731 757.67 64.7105C758.08 64.69 758.388 64.6593 758.593 64.6183C758.798 64.5773 758.921 64.567 758.962 64.5875H759.054V70.1534C759.074 73.9255 759.105 75.9448 759.146 76.2113C759.208 76.5188 759.351 76.7648 759.577 76.9493C759.987 77.2363 760.602 77.3798 761.422 77.3798C761.955 77.3798 762.436 77.2876 762.867 77.103C763.297 76.9185 763.625 76.6828 763.851 76.3958C764.076 76.1088 764.281 75.7808 764.466 75.4118C764.65 75.0428 764.773 74.7353 764.835 74.4892C764.896 74.2432 764.937 73.9972 764.958 73.7512C764.958 73.7307 764.958 73.5565 764.958 73.2285C764.958 72.9005 764.968 72.4905 764.989 71.9984C765.009 71.5064 765.009 71.0247 764.989 70.5532V68.4929C764.989 67.5499 764.886 66.9656 764.681 66.7401C764.476 66.5146 763.964 66.3813 763.144 66.3403H762.59V64.9258C762.631 64.9258 763.41 64.8745 764.927 64.772C766.444 64.6695 767.254 64.608 767.357 64.5875H767.572V70.0612C767.572 73.7512 767.582 75.627 767.603 75.6885C767.664 76.0985 767.808 76.365 768.033 76.488C768.259 76.611 768.72 76.7033 769.417 76.7648H769.97V78.1793C769.929 78.1793 769.161 78.2306 767.664 78.3331C766.168 78.4356 765.378 78.4971 765.296 78.5176H765.081V76.3958Z" fill="white"/>
<path d="M771.508 76.7652H771.939C772.738 76.7652 773.22 76.6217 773.384 76.3346V76.0886C773.384 75.9041 773.384 75.6684 773.384 75.3814C773.384 75.0944 773.394 74.7766 773.415 74.4281C773.435 74.0796 773.435 73.6798 773.415 73.2288C773.394 72.7778 773.394 72.3473 773.415 71.9373C773.415 71.3018 773.415 70.6253 773.415 69.9078C773.415 69.1903 773.415 68.5855 773.415 68.0935L773.384 67.3862C773.322 66.9967 773.179 66.7405 772.953 66.6174C772.728 66.4944 772.267 66.4022 771.57 66.3407H771.016V65.6334C771.016 65.1619 771.037 64.9262 771.078 64.9262L771.385 64.8954C771.59 64.8749 771.877 64.8544 772.246 64.8339C772.615 64.8134 772.984 64.7929 773.353 64.7724C773.681 64.7519 774.04 64.7314 774.429 64.7109C774.819 64.6904 775.116 64.6597 775.321 64.6187C775.526 64.5777 775.639 64.5674 775.659 64.5879H775.752V66.7097C776.551 65.3157 777.545 64.6187 778.735 64.6187H778.919C779.842 64.6187 780.518 64.8442 780.949 65.2952C781.379 65.7462 781.594 66.2177 781.594 66.7097C781.594 67.1402 781.461 67.5092 781.195 67.8167C780.928 68.1242 780.539 68.278 780.026 68.278C779.514 68.278 779.134 68.114 778.888 67.786C778.642 67.458 778.509 67.1095 778.489 66.7405C778.489 66.5559 778.509 66.3919 778.55 66.2484C778.591 66.1049 778.642 65.9819 778.704 65.8794C778.765 65.7769 778.796 65.7257 778.796 65.7257C778.755 65.6847 778.519 65.7257 778.089 65.8487C777.761 66.0127 777.515 66.1664 777.351 66.3099C776.387 67.2325 775.905 69.0673 775.905 71.8143V73.4441C775.905 73.7106 775.905 73.9874 775.905 74.2744C775.905 74.5614 775.905 74.8279 775.905 75.0739C775.905 75.3199 775.916 75.5249 775.936 75.6889C775.957 75.8529 775.957 76.0066 775.936 76.1501V76.3039C775.957 76.3449 775.987 76.3859 776.028 76.4269C776.069 76.4679 776.121 76.4987 776.182 76.5192C776.244 76.5397 776.295 76.5704 776.336 76.6114C776.377 76.6524 776.449 76.6729 776.551 76.6729C776.654 76.6729 776.725 76.6832 776.766 76.7037C776.807 76.7242 776.9 76.7344 777.043 76.7344C777.187 76.7344 777.279 76.7344 777.32 76.7344C777.361 76.7344 777.463 76.7447 777.627 76.7652C777.792 76.7857 777.894 76.7857 777.935 76.7652H778.888V78.1797H778.612C778.243 78.1182 776.941 78.0874 774.706 78.0874C772.595 78.0874 771.447 78.1182 771.262 78.1797H771.016V76.7652H771.508Z" fill="white"/>
<path d="M783.316 71.4757C783.316 70.3482 783.521 69.3231 783.931 68.4006C784.341 67.4781 784.854 66.7298 785.469 66.1558C786.084 65.5818 786.75 65.1513 787.468 64.8643C788.185 64.5773 788.862 64.4235 789.497 64.403C790.584 64.403 791.517 64.5875 792.296 64.9565C793.075 65.3256 793.669 65.8381 794.079 66.4941C794.489 67.1501 794.776 67.8061 794.94 68.4621C795.104 69.1181 795.196 69.8459 795.217 70.6454C795.217 70.7889 795.145 70.9324 795.002 71.0759H786.33V71.5372C786.33 74.5712 787.355 76.4163 789.405 77.0723C789.815 77.1953 790.266 77.2568 790.758 77.2568C791.619 77.2568 792.357 76.9288 792.972 76.2728C793.321 75.9243 793.597 75.4938 793.802 74.9813L794.11 74.2432C794.171 74.1817 794.335 74.151 794.602 74.151H794.694C795.043 74.151 795.217 74.2535 795.217 74.4585C795.217 74.5405 795.186 74.6737 795.125 74.8583C794.735 75.9858 794.089 76.8775 793.187 77.5336C792.285 78.1896 791.271 78.5176 790.143 78.5176C788.196 78.5176 786.576 77.8103 785.284 76.3958C783.993 74.9813 783.337 73.3412 783.316 71.4757ZM792.695 69.7229C792.47 67.0988 791.496 65.7048 789.774 65.5408H789.713C789.549 65.5408 789.385 65.5511 789.221 65.5716C789.057 65.5921 788.8 65.6741 788.452 65.8176C788.103 65.9611 787.806 66.1763 787.56 66.4633C787.314 66.7503 787.078 67.1706 786.853 67.7241C786.627 68.2776 786.463 68.9541 786.361 69.7536V69.9689H792.695V69.7229Z" fill="white"/>
<path d="M807.671 62.9578C807.671 62.6298 807.671 62.2197 807.671 61.7277C807.671 61.2357 807.681 60.8975 807.702 60.713C807.702 59.7904 807.599 59.2164 807.394 58.9909C807.189 58.7654 806.666 58.6322 805.826 58.5912H805.272V57.8839C805.272 57.4124 805.293 57.1766 805.334 57.1766L805.641 57.1459C805.846 57.1254 806.144 57.1049 806.533 57.0844C806.923 57.0639 807.302 57.0434 807.671 57.0229C808.02 57.0024 808.399 56.9819 808.809 56.9614C809.219 56.9409 809.526 56.9101 809.731 56.8691C809.936 56.8281 810.049 56.8179 810.07 56.8384H810.162V66.1866C810.162 72.4597 810.172 75.627 810.193 75.6885C810.254 76.0985 810.398 76.365 810.623 76.488C810.849 76.611 811.31 76.7033 812.007 76.7648H812.56V78.1793C812.519 78.1793 811.74 78.2306 810.223 78.3331C808.706 78.4356 807.897 78.4971 807.794 78.5176H807.579V76.8263L807.333 77.0415C806.144 78.0256 804.811 78.5176 803.335 78.5176C801.757 78.5176 800.332 77.8923 799.061 76.6418C797.79 75.3913 797.154 73.7 797.154 71.5679C797.154 69.5179 797.8 67.8471 799.092 66.5556C800.383 65.2641 801.89 64.608 803.612 64.5875C805.149 64.5875 806.502 65.0898 807.671 66.0943V62.9578ZM807.579 67.6626C806.656 66.3711 805.498 65.7253 804.104 65.7253C803.099 65.7253 802.208 66.0943 801.429 66.8323C800.875 67.4064 800.527 68.0624 800.383 68.8004C800.24 69.5384 800.158 70.5019 800.137 71.6909C800.137 72.839 800.209 73.7717 800.352 74.4892C800.496 75.2068 800.855 75.832 801.429 76.365C802.044 77.0415 802.843 77.3798 803.827 77.3798C805.283 77.3798 806.533 76.5905 807.579 75.012V67.6626Z" fill="white"/>
<path d="M854.149 81.0498C853.192 81.0498 852.685 80.6149 852.627 79.745C852.627 79.455 853.352 76.3814 854.802 70.5241C856.251 64.6669 857.034 61.6512 857.15 61.4773C857.614 59.8825 858.412 58.3312 859.543 56.8234C861.572 54.3297 863.878 52.8799 866.458 52.4739C866.516 52.4739 866.632 52.4739 866.806 52.4739C866.98 52.4739 867.125 52.4594 867.241 52.4304C869.358 52.4304 870.982 53.1263 872.113 54.5181C873.243 55.91 873.809 57.6208 873.809 59.6505C873.809 61.3033 873.461 62.9126 872.765 64.4784C872.069 66.0442 871.185 67.3635 870.112 68.4364C869.039 69.5093 867.879 70.3936 866.632 71.0896C865.385 71.7855 864.24 72.1189 863.196 72.0899H862.718H862.413C860.934 72.0899 859.731 71.4375 858.803 70.1327L858.586 69.8717L857.411 74.7431C856.686 77.5557 856.266 79.1505 856.15 79.5275C856.034 79.9044 855.86 80.2089 855.628 80.4409C855.164 80.8468 854.671 81.0498 854.149 81.0498ZM870.068 57.6498C870.068 56.5769 869.822 55.707 869.329 55.0401C868.836 54.3732 868.111 54.0397 867.154 54.0397C866.139 54.0397 865.124 54.4602 864.11 55.3011C863.095 56.1419 862.283 57.2438 861.674 58.6066C861.268 59.5055 860.717 61.3903 860.021 64.2609L859.282 67.2185C859.775 69.4223 860.992 70.5241 862.935 70.5241C864.037 70.5241 865.11 70.0022 866.154 68.9583C867.111 68.0884 867.908 66.6966 868.546 64.7829C869.184 62.8691 869.604 61.3033 869.807 60.0854C870.01 58.8676 870.097 58.0557 870.068 57.6498Z" fill="white"/>
<path d="M874.944 65.203C876.031 65.121 876.871 64.547 877.466 63.481C878.06 62.415 878.388 61.1644 878.45 59.7294V59.2682H879.68V64.9263H883.831V66.3408H879.68V70.7689C879.7 73.3314 879.711 74.7767 879.711 75.1047C879.711 75.4327 879.782 75.7607 879.926 76.0888C880.213 76.8883 880.715 77.288 881.433 77.288C882.335 77.288 882.888 76.5603 883.093 75.1047C883.114 74.9407 883.124 74.4692 883.124 73.6902V72.6139H884.354V73.6902V74.0592C884.354 75.6377 883.923 76.837 883.062 77.657C882.509 78.2105 881.791 78.4873 880.91 78.4873C880.213 78.4873 879.608 78.3643 879.096 78.1183C878.583 77.8723 878.194 77.5545 877.927 77.165C877.661 76.7755 877.466 76.4168 877.343 76.0888C877.22 75.7607 877.148 75.4327 877.128 75.1047C877.107 74.9612 877.097 73.4442 877.097 70.5536V66.3408H874.667V65.203H874.944Z" fill="white"/>
<path d="M890.289 68.8004C890.289 68.8004 890.064 68.8004 889.613 68.8004C889.162 68.8004 888.783 68.6466 888.475 68.3391C888.168 68.0316 888.014 67.6319 888.014 67.1398C888.014 66.4223 888.362 65.7868 889.059 65.2333C889.756 64.6798 890.997 64.403 892.78 64.403C894.277 64.403 895.486 64.731 896.409 65.3871C897.331 66.0431 897.946 66.8221 898.254 67.7241C898.356 68.0111 898.408 68.3289 898.408 68.6774C898.408 69.0259 898.418 70.2047 898.438 72.2137V74.3662C898.438 75.3503 898.49 76.0268 898.592 76.3958C898.695 76.7648 898.91 76.9493 899.238 76.9493C899.545 76.9493 899.75 76.7853 899.853 76.4573C899.955 76.1293 900.007 75.586 900.007 74.8275V73.7205H901.237V74.9198C901.216 75.7398 901.185 76.2215 901.144 76.365C900.96 76.98 900.601 77.4618 900.068 77.8103C899.535 78.1588 898.971 78.3433 898.377 78.3638C897.782 78.3843 897.301 78.1998 896.932 77.8103C896.563 77.4208 896.317 76.9903 896.194 76.5188V76.3958L896.132 76.488C896.091 76.5495 896.04 76.611 895.978 76.6725C895.917 76.734 895.835 76.8263 895.732 76.9493C895.63 77.0723 895.507 77.1851 895.363 77.2876C895.22 77.3901 895.066 77.5131 894.902 77.6566C894.738 77.8001 894.553 77.9128 894.348 77.9948C894.143 78.0768 893.918 78.1588 893.672 78.2408C893.426 78.3228 893.159 78.3843 892.872 78.4253C892.585 78.4663 892.268 78.4971 891.919 78.5176C890.689 78.5176 889.582 78.1998 888.598 77.5643C887.614 76.9288 887.122 76.037 887.122 74.889C887.122 74.4585 887.194 74.0485 887.337 73.659C887.481 73.2695 887.758 72.8492 888.168 72.3982C888.578 71.9472 889.07 71.5679 889.644 71.2604C890.218 70.9529 891.017 70.6659 892.042 70.3994C893.067 70.1329 894.195 69.9792 895.425 69.9382H895.855V69.2616C895.855 68.5646 895.794 68.0521 895.671 67.7241C895.22 66.2686 894.225 65.5408 892.688 65.5408C892.319 65.5408 891.97 65.5511 891.642 65.5716C891.314 65.5921 891.058 65.6331 890.874 65.6946C890.689 65.7561 890.607 65.7868 890.628 65.7868C891.079 66.0943 891.304 66.5453 891.304 67.1398C891.304 67.6524 891.14 68.0521 890.812 68.3391L890.289 68.8004ZM889.951 74.9198C889.951 75.5553 890.197 76.119 890.689 76.611C891.181 77.103 891.786 77.3593 892.503 77.3798C893.282 77.3798 893.969 77.144 894.564 76.6725C895.158 76.201 895.558 75.586 895.763 74.8275C895.804 74.684 895.835 74.0075 895.855 72.798C895.855 71.6089 895.845 71.0144 895.824 71.0144C895.66 71.0144 895.445 71.0247 895.179 71.0452C894.912 71.0657 894.451 71.1579 893.795 71.3219C893.139 71.4859 892.544 71.6909 892.011 71.9369C891.478 72.1829 891.007 72.5622 890.597 73.0747C890.187 73.5872 889.972 74.2022 889.951 74.9198Z" fill="white"/>
<path d="M902.558 76.7642H902.988C903.788 76.7642 904.27 76.6207 904.434 76.3337V76.0877C904.434 75.9032 904.434 75.6674 904.434 75.3804C904.434 75.0934 904.444 74.7756 904.464 74.4271C904.485 74.0786 904.485 73.6789 904.464 73.2279C904.444 72.7768 904.444 72.3463 904.464 71.9363C904.464 71.3008 904.464 70.6243 904.464 69.9068C904.464 69.1893 904.464 68.5845 904.464 68.0925L904.434 67.3852C904.372 66.9957 904.229 66.7395 904.003 66.6165C903.778 66.4935 903.316 66.4012 902.619 66.3397H902.066V65.6325C902.066 65.1609 902.086 64.9252 902.127 64.9252L902.435 64.8944C902.64 64.8739 902.927 64.8534 903.296 64.8329C903.665 64.8124 904.034 64.7919 904.403 64.7714C904.731 64.7509 905.09 64.7304 905.479 64.7099C905.869 64.6894 906.166 64.6587 906.371 64.6177C906.576 64.5767 906.689 64.5664 906.709 64.5869H906.802V66.7087C907.601 65.3147 908.595 64.6177 909.784 64.6177H909.969C910.891 64.6177 911.568 64.8432 911.998 65.2942C912.429 65.7452 912.644 66.2167 912.644 66.7087C912.644 67.1392 912.511 67.5082 912.244 67.8157C911.978 68.1233 911.588 68.277 911.076 68.277C910.563 68.277 910.184 68.113 909.938 67.785C909.692 67.457 909.559 67.1085 909.538 66.7395C909.538 66.555 909.559 66.391 909.6 66.2475C909.641 66.104 909.692 65.981 909.754 65.8785C909.815 65.776 909.846 65.7247 909.846 65.7247C909.805 65.6837 909.569 65.7247 909.139 65.8477C908.811 66.0117 908.565 66.1655 908.401 66.309C907.437 67.2315 906.955 69.0663 906.955 71.8133V73.4431C906.955 73.7096 906.955 73.9864 906.955 74.2734C906.955 74.5604 906.955 74.8269 906.955 75.0729C906.955 75.3189 906.966 75.5239 906.986 75.6879C907.007 75.8519 907.007 76.0057 906.986 76.1492V76.3029C907.007 76.3439 907.037 76.3849 907.078 76.4259C907.119 76.4669 907.171 76.4977 907.232 76.5182C907.294 76.5387 907.345 76.5694 907.386 76.6104C907.427 76.6514 907.499 76.6719 907.601 76.6719C907.704 76.6719 907.775 76.6822 907.816 76.7027C907.857 76.7232 907.95 76.7334 908.093 76.7334C908.237 76.7334 908.329 76.7334 908.37 76.7334C908.411 76.7334 908.513 76.7437 908.677 76.7642C908.841 76.7847 908.944 76.7847 908.985 76.7642H909.938V78.1787H909.661C909.292 78.1172 907.991 78.0865 905.756 78.0865C903.644 78.0865 902.496 78.1172 902.312 78.1787H902.066V76.7642H902.558Z" fill="white"/>
<path d="M923.623 65.602C924.525 64.7 925.55 64.249 926.698 64.249C927.313 64.249 927.753 64.4438 928.02 64.8333C928.286 65.2228 928.42 65.6123 928.42 66.0018C928.42 66.2888 928.327 66.5451 928.143 66.7706C927.958 66.9961 927.682 67.1088 927.313 67.1088C926.636 67.1088 926.257 66.8013 926.175 66.1863C926.134 65.8993 926.165 65.684 926.267 65.5405C926.267 65.52 926.277 65.4893 926.298 65.4483V65.4175C925.724 65.479 925.181 65.7045 924.668 66.094C924.504 66.1965 924.422 66.2683 924.422 66.3093C924.422 66.3298 924.463 66.3811 924.545 66.4631C924.627 66.5451 924.719 66.6681 924.822 66.8321C924.924 66.9961 925.037 67.1806 925.16 67.3856C925.283 67.5906 925.375 67.8571 925.437 68.1851C925.498 68.5131 925.539 68.8514 925.56 69.1999C925.56 70.4709 925.058 71.5472 924.053 72.4287C923.049 73.3102 921.808 73.7612 920.332 73.7817C919.307 73.7817 918.293 73.4947 917.288 72.9207C917.063 73.2897 916.95 73.6792 916.95 74.0892C916.95 74.8067 917.216 75.3397 917.749 75.6882C917.934 75.8112 918.108 75.8727 918.272 75.8727C918.436 75.8727 919.174 75.8932 920.486 75.9342C922.208 75.9547 923.315 76.0162 923.807 76.1188C925.058 76.3033 926.042 76.7235 926.759 77.3795C927.559 78.179 927.958 79.1836 927.958 80.3931C927.958 81.7666 927.159 82.8224 925.56 83.5604C924.33 84.1959 922.874 84.5137 921.193 84.5137C919.492 84.5137 918.026 84.1959 916.796 83.5604C915.197 82.8429 914.397 81.8179 914.397 80.4853C914.397 79.7473 914.613 79.1323 915.043 78.6403C915.474 78.1483 915.904 77.81 916.335 77.6255L916.673 77.441C915.935 76.8055 915.566 75.9445 915.566 74.858C915.566 73.8945 915.863 73.0232 916.458 72.2442C915.556 71.3422 915.105 70.3274 915.105 69.1999C915.105 67.9083 915.617 66.8218 916.642 65.9403C917.667 65.0588 918.908 64.6078 920.363 64.5873C921.409 64.5873 922.382 64.8538 923.284 65.3868L923.623 65.602ZM922.7 67.6316C922.598 67.0576 922.331 66.6066 921.901 66.2785C921.47 65.9505 920.937 65.7763 920.302 65.7558C919.707 65.7558 919.195 65.9198 918.764 66.2478C918.334 66.5758 918.067 67.0371 917.965 67.6316C917.903 67.9801 917.872 68.5028 917.872 69.1999C917.872 70.1019 917.944 70.7681 918.088 71.1986C918.231 71.6292 918.539 71.9879 919.01 72.2749C919.359 72.4799 919.799 72.5824 920.332 72.5824C920.783 72.5824 921.173 72.5107 921.501 72.3672C921.829 72.2237 922.065 72.0392 922.208 71.8137C922.352 71.5882 922.464 71.3832 922.546 71.1986C922.628 71.0141 922.68 70.8604 922.7 70.7374C922.762 70.4094 922.792 69.8969 922.792 69.1999C922.792 68.5028 922.762 67.9801 922.7 67.6316ZM925.898 80.4853C925.898 79.9728 925.755 79.5526 925.468 79.2246C925.181 78.8966 924.76 78.6608 924.207 78.5173C923.653 78.3738 923.151 78.2815 922.7 78.2405C922.249 78.1995 921.696 78.179 921.04 78.179H920.209C918.836 78.179 918.016 78.2405 917.749 78.3635C917.339 78.548 917.022 78.8351 916.796 79.2246C916.571 79.6141 916.448 80.0241 916.427 80.4546C916.427 80.6596 916.489 80.8953 916.612 81.1619C916.735 81.4284 916.95 81.7359 917.257 82.0844C917.565 82.4329 918.057 82.7199 918.733 82.9454C919.41 83.1709 920.23 83.2939 921.193 83.3144C922.608 83.3144 923.746 83.0274 924.607 82.4534C925.468 81.8794 925.898 81.2234 925.898 80.4853Z" fill="white"/>
<path d="M929.742 71.4757C929.742 70.3482 929.947 69.3231 930.357 68.4006C930.767 67.4781 931.28 66.7298 931.895 66.1558C932.51 65.5818 933.176 65.1513 933.894 64.8643C934.611 64.5773 935.288 64.4235 935.923 64.403C937.01 64.403 937.942 64.5875 938.721 64.9565C939.5 65.3256 940.095 65.8381 940.505 66.4941C940.915 67.1501 941.202 67.8061 941.366 68.4621C941.53 69.1181 941.622 69.8459 941.643 70.6454C941.643 70.7889 941.571 70.9324 941.427 71.0759H932.756V71.5372C932.756 74.5712 933.781 76.4163 935.831 77.0723C936.241 77.1953 936.692 77.2568 937.184 77.2568C938.045 77.2568 938.783 76.9288 939.398 76.2728C939.746 75.9243 940.023 75.4938 940.228 74.9813L940.536 74.2432C940.597 74.1817 940.761 74.151 941.028 74.151H941.12C941.468 74.151 941.643 74.2535 941.643 74.4585C941.643 74.5405 941.612 74.6737 941.55 74.8583C941.161 75.9858 940.515 76.8775 939.613 77.5336C938.711 78.1896 937.696 78.5176 936.569 78.5176C934.621 78.5176 933.002 77.8103 931.71 76.3958C930.419 74.9813 929.763 73.3412 929.742 71.4757ZM939.121 69.7229C938.896 67.0988 937.922 65.7048 936.2 65.5408H936.138C935.974 65.5408 935.81 65.5511 935.646 65.5716C935.482 65.5921 935.226 65.6741 934.878 65.8176C934.529 65.9611 934.232 66.1763 933.986 66.4633C933.74 66.7503 933.504 67.1706 933.279 67.7241C933.053 68.2776 932.889 68.9541 932.787 69.7536V69.9689H939.121V69.7229Z" fill="white"/>
<path d="M943.364 65.203C944.451 65.121 945.291 64.547 945.886 63.481C946.48 62.415 946.808 61.1644 946.87 59.7294V59.2682H948.1V64.9263H952.251V66.3408H948.1V70.7689C948.12 73.3314 948.131 74.7767 948.131 75.1047C948.131 75.4327 948.202 75.7607 948.346 76.0888C948.633 76.8883 949.135 77.288 949.853 77.288C950.755 77.288 951.308 76.5603 951.513 75.1047C951.534 74.9407 951.544 74.4692 951.544 73.6902V72.6139H952.774V73.6902V74.0592C952.774 75.6377 952.343 76.837 951.482 77.657C950.929 78.2105 950.211 78.4873 949.33 78.4873C948.633 78.4873 948.028 78.3643 947.515 78.1183C947.003 77.8723 946.613 77.5545 946.347 77.165C946.08 76.7755 945.886 76.4168 945.763 76.0888C945.64 75.7607 945.568 75.4327 945.547 75.1047C945.527 74.9612 945.517 73.4442 945.517 70.5536V66.3408H943.087V65.203H943.364Z" fill="white"/>
<path d="M819.529 74.8764C819.355 74.8764 819.152 74.7605 818.92 74.5285C818.688 74.2965 818.557 74.0935 818.528 73.9196C818.499 73.7456 818.949 73.3106 819.877 72.6147C820.804 71.9188 821.761 71.1939 822.747 70.44C823.733 69.6861 824.284 69.2657 824.4 69.1787C824.458 69.1207 824.53 69.0917 824.617 69.0917H824.661C824.835 69.0917 825.038 69.3381 825.27 69.8311C825.502 70.324 826.285 72.0203 827.619 74.9199C828.169 76.1668 828.619 77.1672 828.967 77.9211L832.664 85.9676C832.693 85.9676 834.201 82.8794 837.187 76.7032C840.174 70.527 843.161 64.3073 846.147 58.0441C849.134 51.7809 850.685 48.5768 850.801 48.4318C850.975 48.0258 851.265 47.8229 851.671 47.8229C851.874 47.8229 852.048 47.9098 852.193 48.0838C852.338 48.2578 852.439 48.4318 852.497 48.6058V48.8667L842.363 69.8746L832.142 91.0129C832.026 91.2159 831.751 91.3174 831.316 91.3174C831.055 91.3174 830.881 91.2739 830.794 91.1869C830.736 91.1289 829.315 88.0553 826.531 81.9661L822.356 72.8322L821.66 73.3106C821.225 73.6586 820.775 74.0066 820.311 74.3545C819.848 74.7025 819.587 74.8764 819.529 74.8764Z" fill="white"/>
<path d="M956.684 50.4326H851.627V47.8229H956.684V50.4326Z" fill="white"/>
<path d="M522.813 30.2177C523.277 30.2177 523.552 30.4786 523.639 31.0006C523.639 31.1455 519.594 44.0199 511.504 69.6237L499.282 108.203C499.079 108.406 498.731 108.508 498.238 108.508H497.716C497.687 108.421 497.673 108.348 497.673 108.29C497.673 108.232 497.644 108.16 497.586 108.073C497.528 107.986 497.499 107.855 497.499 107.681C497.499 107.507 497.441 107.304 497.325 107.072C497.209 106.841 497.107 106.507 497.02 106.072C496.933 105.637 496.803 105.144 496.629 104.593C496.455 104.042 496.252 103.346 496.02 102.506C495.788 101.665 495.527 100.737 495.237 99.7219C494.947 98.707 494.599 97.4892 494.193 96.0684C493.787 94.6476 493.338 93.1252 492.845 91.5014L488.104 75.0605L485.277 78.4531L484.103 77.3222L488.495 72.0594L490.757 69.4497L499.804 100.853L522.03 30.6526C522.175 30.3626 522.436 30.2177 522.813 30.2177Z" fill="white"/>
<path d="M956.684 32.8281H522.769V30.2185H956.684V32.8281Z" fill="white"/>
<path d="M958.162 9.11018C958.162 8.87821 958.206 8.73323 958.293 8.67523C958.38 8.61724 958.568 8.58824 958.858 8.58824H959.119H959.771C959.829 8.64624 960.235 9.03769 960.989 9.7626C961.743 10.4875 962.396 11.1109 962.947 11.6329C963.497 12.1548 964.28 13.0392 965.295 14.286C966.31 15.5329 967.209 16.7072 967.992 17.8091C968.775 18.9109 969.688 20.3753 970.732 22.202C971.776 24.0288 972.675 25.8266 973.429 27.5954C974.183 29.3641 974.98 31.5244 975.821 34.076C976.662 36.6277 977.314 39.1794 977.778 41.7311C978.242 44.2828 978.663 47.2259 979.039 50.5605C979.416 53.8951 979.59 57.2876 979.561 60.7382C979.561 64.1308 979.46 67.0014 979.257 69.3501C977.894 85.936 972.718 99.1729 963.729 109.061C963.062 109.786 962.439 110.423 961.859 110.974C961.279 111.525 960.801 111.989 960.424 112.366C960.047 112.743 959.829 112.932 959.771 112.932H959.119C958.742 112.932 958.496 112.903 958.38 112.845C958.264 112.787 958.191 112.642 958.162 112.41C959.728 110.844 961.265 109.046 962.773 107.016C971.123 95.9108 975.299 80.4847 975.299 60.7382C975.299 54.8809 974.922 49.4151 974.168 44.3408C973.414 39.2664 972.486 35.0039 971.384 31.5534C970.283 28.1028 968.934 24.8552 967.339 21.8106C965.745 18.766 964.295 16.4028 962.99 14.721C961.685 13.0392 960.25 11.3574 958.684 9.67561C958.626 9.61761 958.568 9.55962 958.51 9.50163C958.452 9.44363 958.409 9.38564 958.38 9.32765C958.351 9.26966 958.307 9.22617 958.249 9.19717L958.162 9.11018Z" fill="white"/>
<path d="M992.047 7.28747C991.494 7.28747 991.053 7.10297 990.725 6.73396C990.397 6.36495 990.233 5.91394 990.233 5.38093C990.233 3.9254 990.776 2.66463 991.863 1.5986C992.949 0.532583 994.302 -0.000427246 995.922 -0.000427246C997.787 -0.000427246 999.345 0.573584 1000.6 1.72161C1001.85 2.86963 1002.48 4.35591 1002.5 6.18045C1002.5 7.06197 1002.3 7.90248 1001.89 8.702C1001.48 9.50152 1000.99 10.1985 1000.41 10.793C999.837 11.3876 999.017 12.1461 997.951 13.0686C997.213 13.7041 996.188 14.6471 994.876 15.8976L993.062 17.6197L995.399 17.6504C998.618 17.6504 1000.33 17.5992 1000.53 17.4967C1000.68 17.4557 1000.92 16.5434 1001.27 14.7599V14.6676H1002.5V14.7599C1002.48 14.8214 1002.35 15.7541 1002.1 17.5582C1001.86 19.3622 1001.7 20.3052 1001.64 20.3872V20.4795H990.233V19.8952V19.5262C990.233 19.3827 990.294 19.229 990.417 19.065C990.54 18.901 990.848 18.5422 991.34 17.9887C991.934 17.3327 992.447 16.7587 992.877 16.2667C993.062 16.0617 993.41 15.6824 993.923 15.1289C994.435 14.5754 994.784 14.1961 994.969 13.9911C995.153 13.7861 995.45 13.4478 995.86 12.9763C996.27 12.5048 996.557 12.1563 996.721 11.9308C996.885 11.7053 997.121 11.3978 997.429 11.0083C997.736 10.6188 997.951 10.2908 998.074 10.0243C998.197 9.75777 998.351 9.46052 998.536 9.13251C998.72 8.8045 998.853 8.4765 998.935 8.14849C999.017 7.82048 999.089 7.51298 999.151 7.22597C999.212 6.93896 999.243 6.60071 999.243 6.2112C999.243 4.91967 998.894 3.8024 998.197 2.85938C997.5 1.91636 996.506 1.44485 995.215 1.44485C994.538 1.44485 993.943 1.61911 993.431 1.96761C992.918 2.31612 992.56 2.65438 992.355 2.98238C992.15 3.31039 992.047 3.50514 992.047 3.56664C992.047 3.58715 992.098 3.5974 992.201 3.5974C992.57 3.5974 992.949 3.7409 993.339 4.0279C993.728 4.31491 993.923 4.78642 993.923 5.44243C993.923 5.95494 993.759 6.38545 993.431 6.73396C993.103 7.08247 992.642 7.26697 992.047 7.28747Z" fill="white"/>
</svg>
