<svg width="255" height="91" viewBox="0 0 255 91" fill="none" xmlns="http://www.w3.org/2000/svg">
<path d="M0 66.98C0 66.0774 0.180531 65.265 0.541594 64.5429C0.541594 64.4827 8.51506 55.4862 24.462 37.5534C40.4089 19.6207 48.4426 10.564 48.5629 10.3835L47.6603 10.2029C46.9983 10.2029 44.7718 10.2029 40.9806 10.2029H39.8974H37.731C35.685 10.2029 34.0001 10.2631 32.6762 10.3835C31.3523 10.5038 29.6974 10.8348 27.7116 11.3764C25.7257 11.918 24.1009 12.7003 22.8372 13.7233C21.5735 14.7463 20.2195 16.2507 18.7753 18.2366C17.331 20.2224 16.1876 22.5994 15.3452 25.3676C15.285 25.5481 15.2248 25.7286 15.1646 25.9092C15.1045 26.0897 15.0443 26.2401 14.9841 26.3605C14.9239 26.4808 14.8938 26.6313 14.8938 26.8118C14.8938 26.9923 14.8637 27.0826 14.8036 27.0826L14.7133 27.2631C14.5328 27.564 13.9611 27.7145 12.9983 27.7145C11.9752 27.7145 11.3735 27.4136 11.1929 26.8118L14.0814 17.0631C14.9239 14.3552 15.7363 11.6472 16.5186 8.93922C17 7.25426 17.3611 6.35161 17.6018 6.23125C17.7823 6.1109 24.8231 6.05072 38.724 6.05072H59.5753C59.8762 6.35161 60.0266 6.59232 60.0266 6.77285C60.0266 6.8932 59.8461 7.6755 59.4851 9.11975C27.7116 44.9251 11.7947 62.888 11.7345 63.0083L11.4637 63.2791H19.4974C25.2142 63.219 28.3133 63.1588 28.7947 63.0986C33.308 62.557 37.0089 61.0827 39.8974 58.6756C42.7859 56.2685 45.1629 51.8455 47.0284 45.4065C47.5098 43.9021 47.8408 42.9995 48.0213 42.6986C48.2019 42.3977 48.593 42.2472 49.1948 42.2472H49.5558C50.8196 42.2472 51.4514 42.5782 51.4514 43.2402C46.5771 59.2473 43.9594 67.3411 43.5983 67.5216C43.4178 67.642 36.1664 67.7021 21.8443 67.7021H5.95753C1.98584 67.7021 0 67.4614 0 66.98Z" fill="white"/>
<path d="M64.9019 45.1328C64.9019 40.9806 65.2027 37.039 65.8045 33.308C66.4063 29.577 67.0983 26.3576 67.8806 23.6496C68.6629 20.9416 69.7762 18.2938 71.2204 15.7062C72.6647 13.1186 73.8081 11.1027 74.6505 9.65842C75.493 8.21417 76.7567 6.64957 78.4417 4.96461C80.1267 3.27966 81.1196 2.25664 81.4205 1.89558C81.7214 1.53452 82.4736 0.902657 83.6771 0H84.8506H85.2116C86.0541 0 86.4753 0.270798 86.4753 0.812393C86.4753 0.99292 85.9638 1.62478 84.9408 2.70797C83.9178 3.79116 82.6842 5.38585 81.2399 7.49205C79.7957 9.59824 78.3213 12.1859 76.8169 15.2549C75.3125 18.3239 74.0488 22.4761 73.0258 27.7115C72.0028 32.947 71.4912 38.754 71.4912 45.1328C71.4912 51.5116 72.0028 57.2886 73.0258 62.4638C74.0488 67.639 75.2824 71.8214 76.7267 75.0107C78.1709 78.2001 79.6452 80.7877 81.1497 82.7736C82.6541 84.7594 83.9178 86.3541 84.9408 87.5577C85.9638 88.7612 86.4753 89.3931 86.4753 89.4532C86.4753 89.9948 86.024 90.2656 85.1214 90.2656H84.8506H83.6771L81.1497 88.0993C75.493 82.9842 71.3709 76.6054 68.7833 68.9629C66.1957 61.3204 64.9019 53.3771 64.9019 45.1328Z" fill="white"/>
<path d="M96.224 41.6156C96.6452 39.0882 98.27 36.1696 101.098 32.8599C103.927 29.5501 107.417 27.8652 111.569 27.805C113.675 27.805 115.601 28.3466 117.346 29.4298C119.091 30.5129 120.385 31.8669 121.228 33.4917C123.755 29.7006 126.794 27.805 130.344 27.805C132.571 27.805 134.497 28.4669 136.121 29.7908C137.746 31.1147 138.589 32.8899 138.649 35.1165C138.649 36.8616 138.228 38.2758 137.385 39.359C136.543 40.4422 135.73 41.1041 134.948 41.3448C134.166 41.5855 133.474 41.7059 132.872 41.7059C131.728 41.7059 130.796 41.3749 130.074 40.713C129.351 40.051 128.99 39.1784 128.99 38.0953C128.99 35.3271 130.495 33.4315 133.504 32.4085C132.842 31.6262 131.638 31.2351 129.893 31.2351C129.111 31.2351 128.539 31.2952 128.178 31.4156C125.891 32.3784 124.206 34.3643 123.123 37.3731C119.513 50.6723 117.707 58.4351 117.707 60.6617C117.707 62.3466 118.189 63.5502 119.151 64.2723C120.114 64.9944 121.167 65.3555 122.311 65.3555C124.537 65.3555 126.734 64.3626 128.9 62.3767C131.067 60.3909 132.541 57.9537 133.323 55.0652C133.504 54.4634 133.684 54.1325 133.865 54.0723C134.045 54.0121 134.527 53.9519 135.309 53.8917H135.67C136.573 53.8917 137.024 54.1325 137.024 54.6139C137.024 54.6741 136.964 55.005 136.844 55.6068C135.881 59.0369 134.015 62.0758 131.247 64.7236C128.479 67.3714 125.259 68.6953 121.589 68.6953C117.376 68.6953 114.187 66.7997 112.02 63.0086C109.553 66.7396 106.725 68.605 103.535 68.605H102.994C100.045 68.605 97.939 67.8227 96.6753 66.2581C95.4116 64.6935 94.7496 63.0387 94.6895 61.2935C94.6895 59.3679 95.2611 57.8033 96.4045 56.5997C97.5479 55.3962 98.9018 54.7944 100.466 54.7944C103.054 54.7944 104.348 56.0581 104.348 58.5856C104.348 59.7891 103.987 60.8422 103.265 61.7449C102.543 62.6475 101.851 63.2493 101.189 63.5502C100.527 63.8511 100.135 64.0015 100.015 64.0015L99.7443 64.0918C99.7443 64.1519 99.9249 64.2723 100.286 64.4528C100.647 64.6334 101.128 64.844 101.73 65.0847C102.332 65.3254 102.904 65.4157 103.445 65.3555C105.612 65.3555 107.477 64.0015 109.042 61.2935C109.583 60.3307 110.275 58.2847 111.118 55.1555C111.96 52.0263 112.803 48.7767 113.645 45.4068C114.488 42.0369 114.969 40.051 115.089 39.4492C115.39 37.8245 115.541 36.651 115.541 35.9289C115.541 34.2439 115.089 33.0404 114.187 32.3183C113.284 31.5961 112.261 31.2351 111.118 31.2351C108.711 31.2351 106.454 32.1979 104.348 34.1236C102.242 36.0492 100.767 38.5165 99.9249 41.5254C99.8045 42.0669 99.6541 42.3678 99.4735 42.428C99.293 42.4882 98.8116 42.5484 98.0293 42.6085H96.7656C96.4045 42.2475 96.224 41.9165 96.224 41.6156Z" fill="white"/>
<path d="M150.203 64.5426C150.203 64.5426 150.203 63.7904 150.203 62.286C150.203 60.7816 150.684 59.4878 151.647 58.4046C152.61 57.3214 153.904 56.7798 155.528 56.7798C157.213 56.7798 158.718 57.532 160.042 59.0364C161.365 60.5409 162.058 63.1887 162.118 66.9798C162.118 69.086 161.847 71.132 161.305 73.1179C160.764 75.1037 160.132 76.8188 159.41 78.263C158.688 79.7073 157.905 80.9409 157.063 81.9639C156.22 82.9869 155.498 83.7993 154.896 84.4011C154.295 85.0029 153.904 85.2737 153.723 85.2135C153.482 85.2135 153.091 84.9427 152.55 84.4011C152.008 83.8595 151.737 83.4683 151.737 83.2276C151.737 82.9869 152.068 82.5055 152.73 81.7834C153.392 81.0613 154.144 80.1586 154.987 79.0754C155.829 77.9922 156.611 76.4878 157.334 74.5621C158.056 72.6365 158.537 70.44 158.778 67.9727V66.8896L158.688 66.9798C158.567 67.04 158.417 67.1002 158.236 67.1603C158.056 67.2205 157.875 67.3108 157.695 67.4311C157.514 67.5515 157.243 67.6117 156.882 67.6117C156.521 67.6117 156.16 67.6418 155.799 67.7019C154.174 67.7019 152.85 67.1904 151.827 66.1674L150.203 64.5426Z" fill="white"/>
<path d="M185.198 41.7915C185.198 40.949 185.65 39.5047 186.552 37.4587C187.455 35.4127 188.899 33.2764 190.885 31.0498C192.871 28.8233 195.097 27.7401 197.565 27.8003C200.032 27.8003 202.018 28.4923 203.522 29.8764C205.027 31.2605 205.809 33.1861 205.869 35.6534C205.749 36.7968 205.658 37.4286 205.598 37.549C205.598 37.7295 205.117 39.1136 204.154 41.7012C203.191 44.2888 202.198 47.2074 201.175 50.457C200.152 53.7065 199.671 56.2941 199.731 58.2198C199.731 60.8074 200.152 62.6127 200.995 63.6357C201.837 64.6588 203.101 65.2003 204.786 65.2605C206.17 65.2605 207.464 64.9295 208.667 64.2676C209.871 63.6057 210.804 62.9136 211.466 62.1915C212.127 61.4694 212.94 60.4764 213.903 59.2127C213.903 59.1525 214.053 58.5508 214.354 57.4074C214.655 56.264 215.076 54.4888 215.618 52.0817C216.159 49.6747 216.731 47.4481 217.333 45.4021C219.62 36.3755 220.883 31.6516 221.124 31.2304C221.906 29.6056 223.2 28.7932 225.005 28.7932C225.788 28.7932 226.42 29.0038 226.901 29.4251C227.382 29.8463 227.713 30.2074 227.894 30.5083C228.074 30.8091 228.135 31.0799 228.074 31.3206C228.074 32.1029 226.6 38.4215 223.651 50.2764C220.703 62.1313 219.018 68.6304 218.597 69.7738C216.912 74.7685 213.993 78.7402 209.841 81.6889C205.689 84.6375 201.536 86.142 197.384 86.2021C194.676 86.2021 192.299 85.5402 190.253 84.2163C188.207 82.8924 187.184 80.9066 187.184 78.2588C187.184 76.9349 187.395 75.8216 187.816 74.9189C188.237 74.0163 188.809 73.3543 189.531 72.9331C190.253 72.5119 190.855 72.211 191.336 72.0304C191.818 71.8499 192.329 71.7596 192.871 71.7596C195.519 71.7596 196.843 73.0234 196.843 75.5508C196.843 76.7543 196.481 77.8074 195.759 78.7101C195.037 79.6128 194.345 80.2145 193.683 80.5154C193.021 80.8163 192.63 80.9667 192.51 80.9667L192.239 81.057C192.359 81.3579 192.931 81.719 193.954 82.1402C194.977 82.5614 196 82.7721 197.023 82.7721H197.745C198.768 82.7721 199.55 82.7119 200.092 82.5915C202.078 82.0499 203.913 80.9066 205.598 79.1614C207.283 77.4163 208.577 75.5508 209.48 73.565C210.382 71.5791 211.074 69.8942 211.556 68.5101C212.037 67.126 212.278 66.2234 212.278 65.8021L211.736 66.1632C211.375 66.4039 210.804 66.7349 210.021 67.1561C209.239 67.5773 208.457 67.9384 207.674 68.2393C206.471 68.5402 205.297 68.6906 204.154 68.6906C201.386 68.6906 198.949 68.0287 196.843 66.7048C194.736 65.3809 193.352 63.2446 192.69 60.2959C192.63 59.8747 192.6 58.9419 192.6 57.4977C192.6 54.0676 193.653 49.5844 195.759 44.0481C197.866 38.5118 198.919 34.9914 198.919 33.487C198.919 33.4268 198.919 33.3667 198.919 33.3065C198.919 32.7649 198.919 32.4038 198.919 32.2233C198.919 32.0428 198.798 31.8321 198.558 31.5914C198.317 31.3507 197.986 31.2304 197.565 31.2304H197.204C195.819 31.2304 194.556 31.8021 193.412 32.9454C192.269 34.0888 191.366 35.3224 190.704 36.6463C190.042 37.9702 189.531 39.2339 189.17 40.4375C188.809 41.641 188.568 42.303 188.448 42.4233C188.327 42.5437 187.846 42.6038 187.004 42.6038H185.74C185.379 42.2428 185.198 41.972 185.198 41.7915Z" fill="white"/>
<path d="M232.947 0.0902634L233.308 0C233.609 0 233.91 0 234.211 0H235.294L237.821 2.16637C243.478 7.28143 247.6 13.6602 250.188 21.3027C252.775 28.9452 254.069 36.8886 254.069 45.1328C254.069 49.2249 253.768 53.1665 253.166 56.9576C252.565 60.7488 251.873 63.9682 251.09 66.616C250.308 69.2638 249.195 71.9116 247.75 74.5594C246.306 77.2072 245.163 79.2231 244.32 80.6072C243.478 81.9913 242.244 83.5258 240.62 85.2108C238.995 86.8957 238.032 87.8886 237.731 88.1895C237.43 88.4904 236.738 89.0621 235.655 89.9046C235.474 90.0851 235.354 90.2054 235.294 90.2656H234.211C233.729 90.2656 233.398 90.2656 233.218 90.2656C233.037 90.2656 232.887 90.1754 232.766 89.9948C232.646 89.8143 232.556 89.5435 232.496 89.1824C232.556 89.1223 232.887 88.7311 233.489 88.009C242.816 78.3205 247.48 64.0284 247.48 45.1328C247.48 26.2372 242.816 11.9452 233.489 2.25664C232.887 1.53452 232.556 1.14336 232.496 1.08319C232.496 0.601768 232.646 0.270798 232.947 0.0902634Z" fill="white"/>
</svg>
