<svg width="83" height="75" viewBox="0 0 83 75" fill="none" xmlns="http://www.w3.org/2000/svg">
<path d="M0 59.8413C0 58.9678 0.174696 58.1816 0.524089 57.4829C0.524089 57.4246 8.23984 48.7189 23.6713 31.3658C39.1028 14.0126 46.8768 5.24867 46.9933 5.07397L46.1198 4.89928C45.4793 4.89928 43.3247 4.89928 39.656 4.89928H38.6079H36.5115C34.5316 4.89928 32.9011 4.95751 31.62 5.07397C30.3389 5.19044 28.7375 5.51072 26.8159 6.03481C24.8942 6.55889 23.3219 7.31591 22.0991 8.30585C20.8762 9.2958 19.566 10.7516 18.1684 12.6733C16.7708 14.5949 15.6644 16.8951 14.8492 19.5738C14.7909 19.7485 14.7327 19.9232 14.6745 20.0979C14.6163 20.2725 14.558 20.4181 14.4998 20.5346C14.4416 20.6511 14.4124 20.7966 14.4124 20.9713C14.4124 21.146 14.3833 21.2334 14.3251 21.2334L14.2377 21.4081C14.063 21.6992 13.5098 21.8448 12.5781 21.8448C11.5882 21.8448 11.0059 21.5537 10.8312 20.9713L13.6263 11.5377C14.4416 8.91729 15.2277 6.29685 15.9847 3.6764C16.4506 2.04591 16.8 1.17242 17.0329 1.05596C17.2076 0.939495 24.0207 0.881264 37.4723 0.881264H57.6498C57.9409 1.17242 58.0865 1.40535 58.0865 1.58005C58.0865 1.69651 57.9118 2.45353 57.5624 3.8511C26.8159 38.4992 11.4135 55.8815 11.3553 55.9979L11.0932 56.26H18.8672C24.3992 56.2017 27.3982 56.1435 27.8641 56.0853C32.2315 55.5612 35.8127 54.1345 38.6079 51.8052C41.403 49.4759 43.7032 45.1959 45.5084 38.965C45.9742 37.5092 46.2945 36.6358 46.4692 36.3446C46.6439 36.0534 47.0224 35.9079 47.6047 35.9079H47.9541C49.177 35.9079 49.7884 36.2281 49.7884 36.8687C45.0716 52.3584 42.5385 60.1906 42.1891 60.3653C42.0145 60.4818 34.9975 60.54 21.1382 60.54H5.76498C1.92166 60.54 0 60.3071 0 59.8413Z" fill="white"/>
<path d="M60.5205 37.5146C62.8261 34.1799 65.9756 32.5125 69.9691 32.5125C71.9452 32.5125 73.9214 33.0477 75.8976 34.1181C77.8737 35.1885 79.4794 37.0823 80.7145 39.7996C82.2378 43.2167 82.9994 47.9101 82.9994 53.8797C82.9994 60.2611 82.1142 65.1398 80.3439 68.5157C79.5205 70.2449 78.3883 71.6241 76.9474 72.6533C75.5064 73.6826 74.2508 74.3207 73.1803 74.5677C72.1099 74.8147 71.0601 74.9588 70.0308 75C68.9604 75 67.89 74.8765 66.8196 74.6295C65.7491 74.3824 64.4934 73.7237 63.0525 72.6533C61.6115 71.5829 60.4794 70.2037 59.656 68.5157C57.8856 65.1398 57.0005 60.2611 57.0005 53.8797C57.0005 46.7162 58.1738 41.2611 60.5205 37.5146ZM74.4154 36.7736C73.1803 35.4561 71.7188 34.7974 70.0308 34.7974C68.3017 34.7974 66.8196 35.4561 65.5845 36.7736C64.5552 37.844 63.8759 39.3261 63.5465 41.2199C63.2172 43.1138 63.0525 47.0661 63.0525 53.0769C63.0525 59.5818 63.2172 63.8635 63.5465 65.922C63.8759 67.9805 64.617 69.6067 65.7697 70.8007C66.9225 72.0358 68.3428 72.6533 70.0308 72.6533C71.6776 72.6533 73.0774 72.0358 74.2302 70.8007C75.4241 69.5655 76.1652 67.8364 76.4534 65.6132C76.7415 63.39 76.9062 59.2113 76.9474 53.0769C76.9474 47.1073 76.7827 43.1755 76.4534 41.2817C76.124 39.3879 75.4447 37.8852 74.4154 36.7736Z" fill="white"/>
</svg>
