<svg width="93" height="61" viewBox="0 0 93 61" fill="none" xmlns="http://www.w3.org/2000/svg">
<path d="M0 28.9324C0 22.0728 2.58081 15.5529 7.74242 9.37255C12.904 3.19219 18.7109 0.0680542 25.1629 0.000137329C28.6266 0.000137329 31.6828 1.66408 34.3315 4.99196C35.4182 2.95448 36.9803 1.93575 39.0177 1.93575C39.9007 1.93575 40.6817 2.20741 41.3608 2.75074C42.04 3.29406 42.3796 3.97322 42.3796 4.78822C42.3796 5.67112 41.1231 11.1044 38.6102 21.0881C36.0974 31.0717 34.8069 36.7087 34.739 37.9991C34.739 39.697 34.9767 40.8177 35.4522 41.361C35.9276 41.9043 36.6407 42.2099 37.5915 42.2778C38.2028 42.2099 38.8819 41.9043 39.629 41.361C41.0552 40.0027 42.4475 36.7427 43.8058 31.5811C44.2133 30.2228 44.5529 29.5096 44.8246 29.4417C44.9604 29.3738 45.3 29.3398 45.8433 29.3398H46.2508C47.5412 29.3398 48.1864 29.6455 48.1864 30.2567C48.1864 30.6642 48.0166 31.5811 47.677 33.0073C47.3375 34.4335 46.6583 36.2673 45.6396 38.5085C44.6208 40.7497 43.5342 42.4476 42.3796 43.6022C41.4967 44.4851 40.41 45.1982 39.1196 45.7416C38.5763 45.8774 37.7613 45.9453 36.6746 45.9453C34.3655 45.9453 32.4299 45.4359 30.8678 44.4172C29.3058 43.3985 28.287 42.3458 27.8116 41.2591L27.2004 39.731C27.1324 39.6631 26.9966 39.697 26.7929 39.8329C26.657 39.9687 26.5212 40.1045 26.3854 40.2404C22.3783 44.0437 18.3034 45.9453 14.1605 45.9453C10.4251 45.9453 7.13118 44.587 4.27871 41.8704C1.42624 39.1537 0 34.841 0 28.9324ZM32.3959 11.5119C32.3959 11.1044 32.2261 10.3573 31.8866 9.27067C31.547 8.18402 30.7659 6.99549 29.5435 5.70508C28.321 4.41468 26.7589 3.73552 24.8573 3.6676C22.4802 3.6676 20.205 4.7203 18.0317 6.8257C15.8584 8.93109 14.1605 11.6817 12.938 15.0775C10.9684 20.4429 9.57616 26.012 8.76116 31.7848C8.76116 31.9886 8.76116 32.3621 8.76116 32.9054C8.76116 33.4488 8.72721 33.8563 8.65929 34.1279C8.65929 37.1841 9.27053 39.2895 10.493 40.4441C11.7155 41.5987 13.1757 42.2099 14.8736 42.2778C17.4544 42.2778 20.0013 41.1572 22.5142 38.916C25.027 36.6748 26.5212 34.9429 26.9966 33.7204C27.1324 33.4488 28.0493 29.8153 29.7472 22.8199C31.4451 15.8246 32.328 12.0552 32.3959 11.5119Z" fill="white"/>
<path d="M52.0425 39.5366C52.0905 39.2485 52.1625 38.8643 52.2586 38.3842C52.3546 37.904 52.6427 36.9917 53.1229 35.6472C53.603 34.3028 54.0832 33.1744 54.5634 32.2621C55.0435 31.3497 55.8358 30.4614 56.9402 29.5971C58.0446 28.7328 59.1489 28.3247 60.2533 28.3727C61.9819 28.3727 63.4224 28.8049 64.5748 29.6692C65.7272 30.5335 66.4475 31.3497 66.7356 32.118C67.0237 32.8863 67.1677 33.3904 67.1677 33.6305C67.1677 33.7266 67.1917 33.7746 67.2397 33.7746L68.032 32.9823C70.961 29.9092 74.2982 28.3727 78.0435 28.3727C80.6364 28.3727 82.7251 29.0209 84.3096 30.3174C85.8942 31.6138 86.7105 33.5105 86.7585 36.0074C86.8065 38.5042 85.8942 42.2735 84.0215 47.3153C82.1489 52.357 81.2366 55.4061 81.2846 56.4624C81.2846 57.7109 81.6927 58.3351 82.509 58.3351C82.7971 58.3351 83.0132 58.3111 83.1572 58.2631C84.5497 58.023 85.7982 57.1107 86.9025 55.5261C88.0069 53.9416 88.8472 52.0209 89.4234 49.7641C89.5195 49.38 89.9996 49.1879 90.8639 49.1879C91.8242 49.1879 92.3044 49.38 92.3044 49.7641C92.3044 49.8121 92.2084 50.1723 92.0163 50.8445C91.6322 52.237 91.104 53.6054 90.4318 54.9499C89.7595 56.2944 88.6552 57.6388 87.1186 58.9833C85.5821 60.3278 83.9255 60.976 82.1489 60.928C79.8921 60.928 78.2596 60.2798 77.2512 58.9833C76.2429 57.6869 75.7387 56.3424 75.7387 54.9499C75.7387 54.0376 76.603 51.1566 78.3316 46.3069C80.0602 41.4572 80.9485 37.808 80.9965 35.3591C80.9965 32.5261 79.9401 31.1097 77.8274 31.1097H77.4673C73.3379 31.1097 69.8566 33.5345 67.0237 38.3842L66.5195 39.2485L64.1427 48.8998C62.5581 55.19 61.6458 58.5752 61.4057 59.0553C60.7815 60.3518 59.7491 61 58.3086 61C57.6844 61 57.1803 60.856 56.7961 60.5679C56.412 60.2798 56.1479 59.9917 56.0039 59.7036C55.8598 59.4155 55.8118 59.1754 55.8598 58.9833C55.8598 58.3591 56.7721 54.4457 58.5967 47.2432C60.4214 40.0407 61.3817 36.1274 61.4777 35.5032C61.5258 35.2631 61.5498 34.7109 61.5498 33.8466C61.5498 31.974 60.9736 31.0376 59.8212 31.0376C57.9965 31.0376 56.484 33.4385 55.2836 38.2401C54.9955 39.2005 54.8515 39.7046 54.8515 39.7526C54.7554 40.0407 54.2993 40.1848 53.483 40.1848H52.4746C52.1865 39.8967 52.0425 39.6806 52.0425 39.5366Z" fill="white"/>
</svg>
