<svg width="263" height="78" viewBox="0 0 263 78" fill="none" xmlns="http://www.w3.org/2000/svg">
<path d="M15.2768 9.21611C13.881 9.21611 13.0538 9.19027 12.7953 9.13857C12.5368 9.08687 12.4076 8.80253 12.4076 8.28555C12.4076 6.8897 12.6919 6.03668 13.2606 5.72649C13.364 5.67479 17.8617 5.64894 26.7538 5.64894C35.6459 5.70064 40.4538 5.77819 41.1776 5.88158C44.0727 6.29517 46.5025 7.01894 48.467 8.05291C50.4315 9.08687 51.8274 10.2759 52.6546 11.6201C53.4817 12.9642 54.0246 14.0757 54.2831 14.9546C54.5416 15.8335 54.6966 16.7123 54.7483 17.5912C54.7483 19.9176 53.9987 22.089 52.4995 24.1052C51.0002 26.1214 49.2683 27.6724 47.3038 28.758C45.3393 29.8437 43.6074 30.7225 42.1081 31.3946C40.6089 32.0667 39.6266 32.4027 39.1614 32.4027L39.7042 32.7905C43.168 34.755 44.8998 37.5984 44.8998 41.3207C44.8998 41.8893 44.7706 43.4661 44.5121 46.051C44.2536 48.636 44.1244 50.7556 44.1244 52.4099V53.1078C44.1244 54.0384 44.1502 54.7622 44.2019 55.2792C44.2536 55.7961 44.538 56.2614 45.0549 56.675C45.5719 57.0886 46.244 57.3212 47.0712 57.3729C48.5187 57.3729 49.7078 56.8043 50.6383 55.6669C51.5689 54.5295 52.241 53.3146 52.6546 52.0222C52.9131 51.2984 53.1199 50.859 53.2749 50.7039C53.43 50.5488 53.8178 50.4712 54.4382 50.4712C55.4721 50.4712 55.9891 50.7814 55.9891 51.4018C55.9891 52.3324 55.3687 53.8058 54.128 55.822C52.1634 58.7688 49.837 60.2422 47.1487 60.2422H46.4508C43.2972 60.2422 40.6864 59.596 38.6185 58.3035C36.5506 57.0111 35.4132 54.9948 35.2064 52.2548C35.2064 50.859 35.5942 48.6877 36.3697 45.7409C37.1451 42.7941 37.5329 40.9071 37.5329 40.0799C37.5329 37.4433 36.4213 35.5305 34.1983 34.3414C33.4229 33.9795 32.7766 33.7727 32.2596 33.721C31.7427 33.6693 29.9074 33.6176 26.7538 33.5659H21.403L18.9215 43.6471C17.2155 50.4712 16.3625 53.935 16.3625 54.0384C16.3625 54.2452 16.3883 54.3744 16.44 54.4261C16.4917 54.4778 16.6727 54.5812 16.9828 54.7363C17.293 54.8914 17.7325 54.9431 18.3011 54.8914C18.8698 54.8397 19.7228 54.8914 20.8602 55.0465H23.2642C23.5744 55.4601 23.7295 55.6928 23.7295 55.7444C23.7295 55.7961 23.6519 56.2614 23.4968 57.1403C23.29 57.8124 23.0315 58.3035 22.7213 58.6137H21.5581C19.697 58.5103 16.3108 58.4586 11.3994 58.4586C9.64171 58.4586 8.01321 58.4586 6.51397 58.4586C5.01472 58.4586 3.82566 58.4586 2.94679 58.4586C2.06793 58.4586 1.5251 58.4845 1.3183 58.5361C0.439434 58.5361 0 58.3035 0 57.8382C0 57.7348 0.0775472 57.3729 0.232642 56.7526C0.491132 55.7703 0.749623 55.2275 1.00811 55.1241C1.21491 55.0724 1.60264 55.0465 2.17132 55.0465H2.63661C4.03246 55.0465 5.5834 54.969 7.28944 54.8139C8.01321 54.6588 8.50435 54.3486 8.76284 53.8833C8.91793 53.6765 10.7791 46.4905 14.3462 32.3252C17.9134 18.1599 19.697 10.6895 19.697 9.91404C19.697 9.55215 18.2236 9.31951 15.2768 9.21611ZM46.2957 15.6525C46.2957 13.9982 45.7529 12.6023 44.6672 11.465C43.5815 10.3276 41.3585 9.60385 37.9981 9.29366C37.8947 9.29366 37.3002 9.29366 36.2146 9.29366C35.1289 9.29366 34.1466 9.26781 33.2678 9.21611H31.5617C29.1319 9.21611 27.7361 9.47461 27.3742 9.99159C27.3225 10.1467 26.4436 13.5846 24.7376 20.3054C23.0315 27.0261 22.1785 30.4641 22.1785 30.6191C22.1785 30.6708 23.9621 30.6967 27.5293 30.6967C31.5617 30.645 34.25 30.4641 35.5942 30.1539C38.9029 29.6369 41.4878 28.1118 43.3489 25.5786C44.1761 24.3895 44.874 22.8386 45.4427 20.9257C46.0114 19.0129 46.2957 17.2552 46.2957 15.6525Z" fill="white"/>
<path d="M57.4507 54.5086C57.4872 54.2893 57.5421 53.9969 57.6152 53.6313C57.6883 53.2658 57.9076 52.5714 58.2731 51.548C58.6386 50.5245 59.0041 49.6656 59.3696 48.9711C59.7351 48.2767 60.3382 47.6005 61.1788 46.9426C62.0195 46.2847 62.8602 45.974 63.7008 46.0105C65.0167 46.0105 66.1132 46.3395 66.9904 46.9974C67.8676 47.6553 68.4159 48.2767 68.6352 48.8615C68.8545 49.4463 68.9641 49.8301 68.9641 50.0128C68.9641 50.0859 68.9824 50.1225 69.0189 50.1225L69.622 49.5194C71.8516 47.1802 74.3919 46.0105 77.2428 46.0105C79.2166 46.0105 80.8065 46.504 82.0127 47.4908C83.2189 48.4777 83.8402 49.9215 83.8768 51.8221C83.9133 53.7227 83.2189 56.5919 81.7934 60.4298C80.3679 64.2676 79.6734 66.5885 79.71 67.3926C79.71 68.343 80.0207 68.8181 80.642 68.8181C80.8613 68.8181 81.0258 68.7998 81.1355 68.7633C82.1954 68.5805 83.1458 67.8861 83.9864 66.6799C84.8271 65.4737 85.4667 64.0117 85.9053 62.2938C85.9784 62.0014 86.3439 61.8552 87.0018 61.8552C87.7329 61.8552 88.0984 62.0014 88.0984 62.2938C88.0984 62.3304 88.0253 62.6045 87.8791 63.1162C87.5867 64.1762 87.1846 65.2179 86.6729 66.2413C86.1612 67.2647 85.3205 68.2881 84.1509 69.3116C82.9813 70.335 81.7203 70.8284 80.3679 70.7919C78.65 70.7919 77.4073 70.2984 76.6397 69.3116C75.8722 68.3247 75.4884 67.3013 75.4884 66.2413C75.4884 65.5468 76.1463 63.3538 77.4621 59.6622C78.778 55.9706 79.4541 53.1927 79.4907 51.3287C79.4907 49.1722 78.6866 48.0939 77.0784 48.0939H76.8042C73.6609 48.0939 71.011 49.9397 68.8545 53.6313L68.4707 54.2893L66.6614 61.6359C65.4553 66.4241 64.7608 69.0009 64.578 69.3664C64.1029 70.3532 63.3171 70.8467 62.2205 70.8467C61.7454 70.8467 61.3616 70.737 61.0692 70.5177C60.7768 70.2984 60.5758 70.0791 60.4661 69.8598C60.3565 69.6405 60.3199 69.4578 60.3565 69.3116C60.3565 68.8364 61.0509 65.8575 62.4398 60.3749C63.8288 54.8923 64.5598 51.9135 64.6329 51.4383C64.6694 51.2556 64.6877 50.8352 64.6877 50.1773C64.6877 48.7518 64.2491 48.0391 63.3719 48.0391C61.983 48.0391 60.8316 49.8666 59.9178 53.5217C59.6985 54.2527 59.5889 54.6365 59.5889 54.673C59.5158 54.8923 59.1686 55.002 58.5472 55.002H57.7796C57.5603 54.7827 57.4507 54.6182 57.4507 54.5086Z" fill="white"/>
<path d="M100.37 39.2264C100.37 35.6592 100.628 32.273 101.145 29.0677C101.662 25.8624 102.257 23.0966 102.929 20.7701C103.601 18.4437 104.557 16.169 105.798 13.946C107.039 11.723 108.021 9.99107 108.745 8.75032C109.469 7.50956 110.554 6.16541 112.002 4.71786C113.449 3.27031 114.302 2.39144 114.561 2.08125C114.819 1.77106 115.465 1.22823 116.499 0.452766H117.508H117.818C118.542 0.452766 118.903 0.685402 118.903 1.15069C118.903 1.30579 118.464 1.84861 117.585 2.77918C116.706 3.70975 115.646 5.07975 114.406 6.88918C113.165 8.69862 111.898 10.9216 110.606 13.5582C109.313 16.1949 108.228 19.762 107.349 24.2598C106.47 28.7575 106.031 33.7464 106.031 39.2264C106.031 44.7064 106.47 49.6694 107.349 54.1155C108.228 58.5615 109.288 62.1545 110.528 64.8945C111.769 67.6345 113.036 69.8575 114.328 71.5636C115.621 73.2696 116.706 74.6396 117.585 75.6736C118.464 76.7075 118.903 77.2504 118.903 77.3021C118.903 77.7674 118.516 78 117.74 78H117.508H116.499L114.328 76.1389C109.469 71.7445 105.927 66.2645 103.704 59.6989C101.481 53.1332 100.37 46.309 100.37 39.2264Z" fill="white"/>
<path d="M127.279 36.2007C127.641 34.0294 129.036 31.522 131.466 28.6786C133.896 25.8352 136.895 24.3876 140.462 24.3359C142.271 24.3359 143.926 24.8012 145.425 25.7318C146.924 26.6624 148.036 27.8256 148.759 29.2214C150.931 25.9644 153.541 24.3359 156.592 24.3359C158.504 24.3359 160.159 24.9046 161.555 26.042C162.95 27.1793 163.674 28.7044 163.726 30.6173C163.726 32.1165 163.364 33.3314 162.64 34.262C161.917 35.1926 161.219 35.7612 160.547 35.968C159.874 36.1748 159.28 36.2782 158.763 36.2782C157.781 36.2782 156.979 35.9939 156.359 35.4252C155.739 34.8565 155.428 34.1069 155.428 33.1763C155.428 30.7982 156.721 29.1697 159.306 28.2909C158.737 27.6188 157.703 27.2827 156.204 27.2827C155.532 27.2827 155.041 27.3344 154.73 27.4378C152.766 28.265 151.318 29.971 150.388 32.556C147.286 43.9812 145.735 50.6503 145.735 52.5631C145.735 54.0107 146.149 55.0447 146.976 55.665C147.803 56.2854 148.708 56.5956 149.69 56.5956C151.603 56.5956 153.49 55.7426 155.351 54.0365C157.212 52.3305 158.479 50.2367 159.151 47.7552C159.306 47.2382 159.461 46.9539 159.616 46.9022C159.771 46.8505 160.185 46.7988 160.857 46.7471H161.167C161.942 46.7471 162.33 46.9539 162.33 47.3675C162.33 47.4192 162.278 47.7035 162.175 48.2205C161.348 51.1673 159.745 53.778 157.367 56.0528C154.989 58.3275 152.223 59.4648 149.07 59.4648C145.451 59.4648 142.711 57.8364 140.85 54.5794C138.73 57.7847 136.3 59.3873 133.56 59.3873H133.095C130.562 59.3873 128.752 58.7152 127.666 57.3711C126.581 56.0269 126.012 54.6052 125.96 53.106C125.96 51.4516 126.452 50.1075 127.434 49.0735C128.416 48.0396 129.579 47.5226 130.923 47.5226C133.146 47.5226 134.258 48.6082 134.258 50.7796C134.258 51.8135 133.948 52.7182 133.327 53.4937C132.707 54.2692 132.113 54.7862 131.544 55.0447C130.975 55.3031 130.639 55.4324 130.536 55.4324L130.303 55.5099C130.303 55.5616 130.458 55.665 130.768 55.8201C131.079 55.9752 131.492 56.1562 132.009 56.363C132.526 56.5697 133.017 56.6473 133.483 56.5956C135.344 56.5956 136.946 55.4324 138.29 53.106C138.756 52.2788 139.35 50.5211 140.074 47.8328C140.798 45.1445 141.522 42.3528 142.245 39.4577C142.969 36.5626 143.383 34.8565 143.486 34.3395C143.745 32.9437 143.874 31.9356 143.874 31.3152C143.874 29.8677 143.486 28.8337 142.711 28.2133C141.935 27.5929 141.056 27.2827 140.074 27.2827C138.006 27.2827 136.067 28.1099 134.258 29.7643C132.449 31.4186 131.182 33.5382 130.458 36.1231C130.355 36.5884 130.226 36.8469 130.07 36.8986C129.915 36.9503 129.502 37.002 128.83 37.0537H127.744C127.434 36.7435 127.279 36.4592 127.279 36.2007Z" fill="white"/>
<path d="M173.651 55.9006C173.651 55.9006 173.651 55.2544 173.651 53.962C173.651 52.6695 174.065 51.558 174.892 50.6274C175.719 49.6969 176.831 49.2316 178.227 49.2316C179.674 49.2316 180.967 49.8778 182.104 51.1703C183.241 52.4627 183.836 54.7374 183.888 57.9944C183.888 59.8039 183.655 61.5616 183.19 63.2676C182.724 64.9737 182.182 66.4471 181.561 67.6878C180.941 68.9286 180.269 69.9884 179.545 70.8673C178.821 71.7461 178.201 72.4441 177.684 72.961C177.167 73.478 176.831 73.7107 176.676 73.659C176.469 73.659 176.133 73.4263 175.668 72.961C175.202 72.4958 174.97 72.1597 174.97 71.9529C174.97 71.7461 175.254 71.3325 175.823 70.7122C176.391 70.0918 177.038 69.3163 177.761 68.3858C178.485 67.4552 179.157 66.1627 179.778 64.5084C180.398 62.8541 180.812 60.9671 181.018 58.8474V57.9169L180.941 57.9944C180.837 58.0461 180.708 58.0978 180.553 58.1495C180.398 58.2012 180.243 58.2788 180.088 58.3822C179.933 58.4856 179.7 58.5373 179.39 58.5373C179.08 58.5373 178.769 58.5631 178.459 58.6148C177.063 58.6148 175.926 58.1754 175.047 57.2965L173.651 55.9006Z" fill="white"/>
<path d="M203.709 36.3595C203.709 35.6357 204.097 34.3949 204.872 32.6372C205.648 30.8795 206.888 29.0442 208.594 27.1313C210.3 25.2185 212.213 24.2879 214.333 24.3396C216.453 24.3396 218.159 24.9342 219.451 26.1232C220.744 27.3123 221.416 28.9666 221.467 31.0863C221.364 32.0685 221.286 32.6113 221.235 32.7147C221.235 32.8698 220.821 34.0589 219.994 36.2819C219.167 38.5049 218.314 41.0123 217.435 43.804C216.556 46.5957 216.142 48.8187 216.194 50.4731C216.194 52.6961 216.556 54.247 217.28 55.1259C218.004 56.0048 219.089 56.47 220.537 56.5217C221.726 56.5217 222.837 56.2374 223.871 55.6687C224.905 55.1 225.707 54.5055 226.275 53.8851C226.844 53.2648 227.542 52.4117 228.369 51.3261C228.369 51.2744 228.498 50.7574 228.757 49.7751C229.015 48.7929 229.377 47.2678 229.842 45.1998C230.308 43.1319 230.799 41.2191 231.316 39.4613C233.28 31.7066 234.366 27.6483 234.573 27.2864C235.245 25.8906 236.356 25.1927 237.907 25.1927C238.579 25.1927 239.122 25.3736 239.536 25.7355C239.949 26.0974 240.234 26.4076 240.389 26.6661C240.544 26.9245 240.596 27.1572 240.544 27.364C240.544 28.0361 239.277 33.4644 236.744 43.6489C234.211 53.8334 232.763 59.4168 232.401 60.3991C230.954 64.69 228.447 68.1021 224.879 70.6353C221.312 73.1685 217.745 74.461 214.178 74.5127C211.851 74.5127 209.809 73.944 208.052 72.8067C206.294 71.6693 205.415 69.9633 205.415 67.6885C205.415 66.5512 205.596 65.5948 205.958 64.8193C206.32 64.0438 206.811 63.4751 207.431 63.1133C208.052 62.7514 208.569 62.4929 208.982 62.3378C209.396 62.1827 209.835 62.1051 210.3 62.1051C212.575 62.1051 213.713 63.1908 213.713 65.3621C213.713 66.3961 213.402 67.3008 212.782 68.0763C212.162 68.8517 211.567 69.3687 210.998 69.6272C210.43 69.8857 210.094 70.015 209.99 70.015L209.758 70.0925C209.861 70.351 210.352 70.6612 211.231 71.0231C212.11 71.385 212.989 71.5659 213.868 71.5659H214.488C215.367 71.5659 216.039 71.5142 216.504 71.4108C218.21 70.9455 219.787 69.9633 221.235 68.464C222.682 66.9648 223.794 65.3621 224.569 63.6561C225.345 61.95 225.939 60.5025 226.353 59.3134C226.766 58.1244 226.973 57.3489 226.973 56.987L226.508 57.2972C226.198 57.504 225.707 57.7883 225.034 58.1502C224.362 58.5121 223.69 58.8223 223.018 59.0808C221.984 59.3393 220.976 59.4685 219.994 59.4685C217.616 59.4685 215.522 58.8999 213.713 57.7625C211.903 56.6251 210.714 54.7899 210.145 52.2566C210.094 51.8948 210.068 51.0934 210.068 49.8527C210.068 46.9059 210.973 43.0544 212.782 38.2981C214.591 33.5419 215.496 30.5176 215.496 29.2251C215.496 29.1734 215.496 29.1217 215.496 29.07C215.496 28.6047 215.496 28.2946 215.496 28.1395C215.496 27.9844 215.393 27.8034 215.186 27.5966C214.979 27.3898 214.695 27.2864 214.333 27.2864H214.023C212.834 27.2864 211.748 27.7776 210.766 28.7598C209.784 29.7421 209.008 30.8019 208.439 31.9393C207.871 33.0766 207.431 34.1623 207.121 35.1963C206.811 36.2302 206.604 36.7989 206.501 36.9023C206.397 37.0057 205.984 37.0574 205.26 37.0574H204.174C203.864 36.7472 203.709 36.5146 203.709 36.3595Z" fill="white"/>
<path d="M244.731 0.530312L245.042 0.452766C245.3 0.452766 245.559 0.452766 245.817 0.452766H246.748L248.919 2.3139C253.779 6.70824 257.32 12.1882 259.543 18.7539C261.766 25.3196 262.878 32.1437 262.878 39.2264C262.878 42.7419 262.619 46.1281 262.102 49.3851C261.585 52.6421 260.991 55.4079 260.318 57.6826C259.646 59.9573 258.69 62.2321 257.449 64.5068C256.208 66.7815 255.226 68.5134 254.502 69.7024C253.779 70.8915 252.719 72.2098 251.323 73.6574C249.927 75.1049 249.1 75.9579 248.841 76.2164C248.583 76.4749 247.988 76.966 247.058 77.6898C246.903 77.8449 246.799 77.9483 246.748 78H245.817C245.404 78 245.119 78 244.964 78C244.809 78 244.68 77.9225 244.576 77.7674C244.473 77.6123 244.395 77.3796 244.344 77.0694C244.395 77.0177 244.68 76.6817 245.197 76.0613C253.21 67.7379 257.217 55.4596 257.217 39.2264C257.217 22.9932 253.21 10.7148 245.197 2.39144C244.68 1.77106 244.395 1.43503 244.344 1.38333C244.344 0.969742 244.473 0.685402 244.731 0.530312Z" fill="white"/>
</svg>
