<svg width="92" height="68" viewBox="0 0 92 68" fill="none" xmlns="http://www.w3.org/2000/svg">
<path d="M15.906 3.71417C14.4527 3.71417 13.5914 3.68726 13.3223 3.63343C13.0531 3.5796 12.9186 3.28355 12.9186 2.74527C12.9186 1.29193 13.2146 0.403782 13.8067 0.0808182C13.9144 0.0269928 18.5974 7.62939e-05 27.8557 7.62939e-05C37.114 0.0539055 42.1199 0.134647 42.8735 0.242302C45.8878 0.67292 48.4177 1.4265 50.4632 2.50305C52.5086 3.5796 53.962 4.81763 54.8232 6.21714C55.6844 7.61665 56.2496 8.77394 56.5188 9.68901C56.7879 10.6041 56.9494 11.5191 57.0032 12.4342C57.0032 14.8564 56.2227 17.1172 54.6617 19.2165C53.1007 21.3157 51.2975 22.9305 49.2521 24.0609C47.2066 25.1913 45.4034 26.1064 43.8424 26.8061C42.2814 27.5059 41.2587 27.8557 40.7742 27.8557L41.3394 28.2595C44.9459 30.3049 46.7491 33.2654 46.7491 37.141C46.7491 37.7331 46.6145 39.3748 46.3454 42.0662C46.0762 44.7575 45.9417 46.9645 45.9417 48.6869V49.4136C45.9417 50.3825 45.9686 51.1361 46.0224 51.6744C46.0762 52.2126 46.3723 52.6971 46.9106 53.1277C47.4488 53.5583 48.1486 53.8005 49.0098 53.8544C50.517 53.8544 51.755 53.2623 52.7239 52.0781C53.6928 50.8939 54.3926 49.6289 54.8232 48.2832C55.0923 47.5297 55.3076 47.0721 55.4691 46.9106C55.6306 46.7492 56.0343 46.6684 56.6802 46.6684C57.7568 46.6684 58.2951 46.9914 58.2951 47.6373C58.2951 48.6062 57.6491 50.1403 56.3573 52.2396C54.3118 55.3077 51.8896 56.8418 49.0906 56.8418H48.3639C45.0804 56.8418 42.3622 56.169 40.2091 54.8233C38.056 53.4776 36.8718 51.3783 36.6564 48.5255C36.6564 47.0721 37.0602 44.8114 37.8676 41.7432C38.675 38.6751 39.0787 36.7104 39.0787 35.8491C39.0787 33.1039 37.9214 31.1123 35.6068 29.8743C34.7994 29.4975 34.1266 29.2822 33.5883 29.2283C33.05 29.1745 31.1391 29.1207 27.8557 29.0669H22.2845L19.7008 39.5632C17.9245 46.6684 17.0364 50.2749 17.0364 50.3825C17.0364 50.5978 17.0633 50.7324 17.1171 50.7862C17.1709 50.84 17.3593 50.9477 17.6823 51.1092C18.0053 51.2707 18.4628 51.3245 19.0549 51.2707C19.647 51.2168 20.5351 51.2707 21.7194 51.4321H24.2223C24.5453 51.8628 24.7068 52.105 24.7068 52.1588C24.7068 52.2126 24.626 52.6971 24.4645 53.6122C24.2492 54.3119 23.9801 54.8233 23.6571 55.1462H22.446C20.5082 55.0386 16.9825 54.9848 11.8689 54.9848C10.0388 54.9848 8.34324 54.9848 6.78225 54.9848C5.22126 54.9848 3.98323 54.9848 3.06816 54.9848C2.1531 54.9848 1.58791 55.0117 1.3726 55.0655C0.457533 55.0655 0 54.8233 0 54.3388C0 54.2312 0.0807411 53.8544 0.242223 53.2084C0.51136 52.1857 0.780497 51.6205 1.04963 51.5129C1.26494 51.4591 1.66865 51.4321 2.26075 51.4321H2.7452C4.19854 51.4321 5.81336 51.3514 7.58966 51.1899C8.34324 51.0284 8.8546 50.7055 9.12374 50.221C9.28522 50.0057 11.223 42.5237 14.9371 27.775C18.6512 13.0263 20.5082 5.24825 20.5082 4.44084C20.5082 4.06404 18.9742 3.82182 15.906 3.71417ZM48.2024 10.4157C48.2024 8.6932 47.6372 7.23986 46.5069 6.05566C45.3765 4.87146 43.0619 4.11787 39.5631 3.79491C39.4555 3.79491 38.8365 3.79491 37.7061 3.79491C36.5757 3.79491 35.553 3.76799 34.6379 3.71417H32.8616C30.3317 3.71417 28.8784 3.9833 28.5016 4.52158C28.4478 4.68306 27.5327 8.26258 25.7564 15.2601C23.9801 22.2577 23.0919 25.8372 23.0919 25.9987C23.0919 26.0525 24.949 26.0794 28.6631 26.0794C32.8616 26.0256 35.6606 25.8372 37.0602 25.5143C40.5051 24.976 43.1965 23.3881 45.1343 20.7505C45.9955 19.5125 46.7222 17.8977 47.3143 15.9061C47.9064 13.9145 48.2024 12.0843 48.2024 10.4157Z" fill="white"/>
<path d="M59.8164 50.8747C59.8545 50.6464 59.9115 50.3419 59.9877 49.9614C60.0638 49.5808 60.2921 48.8578 60.6727 47.7922C61.0532 46.7266 61.4338 45.8323 61.8143 45.1092C62.1949 44.3862 62.8228 43.6821 63.6981 42.9971C64.5734 42.3121 65.4487 41.9887 66.324 42.0267C67.694 42.0267 68.8357 42.3692 69.749 43.0542C70.6624 43.7392 71.2332 44.3862 71.4615 44.9951C71.6899 45.604 71.804 46.0036 71.804 46.1938C71.804 46.27 71.8231 46.308 71.8611 46.308L72.489 45.6801C74.8105 43.2445 77.4553 42.0267 80.4237 42.0267C82.4787 42.0267 84.1342 42.5405 85.39 43.568C86.6459 44.5955 87.2928 46.0987 87.3309 48.0776C87.3689 50.0565 86.6459 53.0439 85.1617 57.0398C83.6775 61.0357 82.9544 63.4522 82.9925 64.2895C82.9925 65.2789 83.316 65.7736 83.9629 65.7736C84.1912 65.7736 84.3625 65.7546 84.4767 65.7166C85.5803 65.5263 86.5697 64.8032 87.445 63.5474C88.3203 62.2915 88.9863 60.7693 89.443 58.9806C89.5191 58.6762 89.8996 58.524 90.5847 58.524C91.3458 58.524 91.7263 58.6762 91.7263 58.9806C91.7263 59.0187 91.6502 59.3041 91.498 59.8369C91.1935 60.9405 90.7749 62.0251 90.2421 63.0907C89.7094 64.1563 88.8341 65.2218 87.6163 66.2874C86.3985 67.353 85.0856 67.8667 83.6775 67.8287C81.8889 67.8287 80.595 67.3149 79.7958 66.2874C78.9966 65.2599 78.597 64.1943 78.597 63.0907C78.597 62.3676 79.282 60.0843 80.652 56.2406C82.0221 52.397 82.7261 49.5047 82.7642 47.5639C82.7642 45.3186 81.9269 44.1959 80.2525 44.1959H79.967C76.6942 44.1959 73.9352 46.1177 71.6899 49.9614L71.2903 50.6464L69.4065 58.2956C68.1507 63.281 67.4276 65.9639 67.2373 66.3445C66.7426 67.372 65.9244 67.8857 64.7827 67.8857C64.288 67.8857 63.8884 67.7716 63.5839 67.5432C63.2795 67.3149 63.0702 67.0866 62.956 66.8582C62.8419 66.6299 62.8038 66.4396 62.8419 66.2874C62.8419 65.7927 63.5649 62.6911 65.011 56.9827C66.4572 51.2743 67.2183 48.1728 67.2944 47.678C67.3325 47.4877 67.3515 47.0501 67.3515 46.3651C67.3515 44.8809 66.8948 44.1388 65.9815 44.1388C64.5353 44.1388 63.3366 46.0416 62.3852 49.8472C62.1568 50.6083 62.0427 51.0079 62.0427 51.046C61.9666 51.2743 61.605 51.3885 60.9581 51.3885H60.1589C59.9306 51.1601 59.8164 50.9889 59.8164 50.8747Z" fill="white"/>
</svg>
