<svg width="978" height="191" viewBox="0 0 978 191" fill="none" xmlns="http://www.w3.org/2000/svg">
<path d="M0 113.544C0 112.846 0.139755 112.217 0.419266 111.658C0.419266 111.611 6.59179 104.647 18.9369 90.7644C31.2819 76.882 37.501 69.8709 37.5942 69.7312L36.8954 69.5914C36.383 69.5914 34.6593 69.5914 31.7245 69.5914H30.8859H29.2089C27.625 69.5914 26.3206 69.638 25.2957 69.7312C24.2708 69.8244 22.9898 70.0806 21.4524 70.4998C19.9151 70.9191 18.6573 71.5247 17.6791 72.3167C16.7008 73.1086 15.6526 74.2732 14.5346 75.8105C13.4165 77.3479 12.5314 79.188 11.8792 81.3309C11.8326 81.4706 11.786 81.6104 11.7395 81.7501C11.6929 81.8899 11.6463 82.0064 11.5997 82.0995C11.5531 82.1927 11.5298 82.3092 11.5298 82.4489C11.5298 82.5887 11.5065 82.6586 11.4599 82.6586L11.3901 82.7983C11.2503 83.0312 10.8077 83.1477 10.0624 83.1477C9.27044 83.1477 8.80459 82.9148 8.66483 82.4489L10.9009 74.9021C11.5531 72.8058 12.182 70.7095 12.7876 68.6131C13.1603 67.3088 13.4398 66.61 13.6261 66.5168C13.7659 66.4236 19.2164 66.3771 29.9775 66.3771H46.1193C46.3522 66.61 46.4687 66.7963 46.4687 66.9361C46.4687 67.0292 46.3289 67.6349 46.0494 68.7529C21.4524 96.471 9.13068 110.377 9.0841 110.47L8.87447 110.68H15.0936C19.5192 110.633 21.9183 110.586 22.291 110.54C25.7849 110.12 28.6499 108.979 30.8859 107.116C33.122 105.252 34.9621 101.828 36.4063 96.8437C36.779 95.6791 37.0352 94.9803 37.1749 94.7474C37.3147 94.5145 37.6175 94.398 38.0833 94.398H38.3629C39.3411 94.398 39.8303 94.6542 39.8303 95.1667C36.0569 107.558 34.0304 113.824 33.7509 113.964C33.6112 114.057 27.9977 114.104 16.9104 114.104H4.61193C1.53731 114.104 0 113.917 0 113.544Z" fill="white"/>
<path d="M50.2417 96.6324C50.2417 93.4181 50.4746 90.3667 50.9405 87.4785C51.4063 84.5902 51.9421 82.0979 52.5477 80.0016C53.1533 77.9052 54.0151 75.8555 55.1331 73.8523C56.2512 71.8492 57.1363 70.2886 57.7885 69.1705C58.4407 68.0525 59.419 66.8413 60.7234 65.5369C62.0277 64.2325 62.7964 63.4405 63.0293 63.161C63.2622 62.8815 63.8446 62.3924 64.7763 61.6936H65.6847H65.9642C66.6164 61.6936 66.9425 61.9032 66.9425 62.3225C66.9425 62.4623 66.5465 62.9514 65.7545 63.7899C64.9626 64.6285 64.0076 65.863 62.8896 67.4935C61.7715 69.1239 60.6302 71.1271 59.4656 73.5029C58.3009 75.8788 57.3226 79.0931 56.5307 83.1461C55.7387 87.199 55.3428 91.6944 55.3428 96.6324C55.3428 101.57 55.7387 106.043 56.5307 110.049C57.3226 114.055 58.2776 117.293 59.3957 119.762C60.5137 122.231 61.6551 124.234 62.8197 125.771C63.9843 127.309 64.9626 128.543 65.7545 129.475C66.5465 130.407 66.9425 130.896 66.9425 130.942C66.9425 131.362 66.5931 131.571 65.8943 131.571H65.6847H64.7763L62.8197 129.894C58.4407 125.934 55.2496 120.996 53.2464 115.08C51.2433 109.164 50.2417 103.015 50.2417 96.6324Z" fill="white"/>
<path d="M74.4897 93.9088C74.8158 91.9522 76.0736 89.6928 78.2631 87.1306C80.4526 84.5685 83.1545 83.2641 86.3689 83.2175C87.9994 83.2175 89.4901 83.6367 90.8411 84.4753C92.192 85.3138 93.1936 86.362 93.8458 87.6198C95.8024 84.6849 98.1549 83.2175 100.903 83.2175C102.627 83.2175 104.118 83.7299 105.376 84.7548C106.633 85.7797 107.286 87.1539 107.332 88.8776C107.332 90.2285 107.006 91.3233 106.354 92.1618C105.702 93.0004 105.073 93.5128 104.467 93.6991C103.862 93.8855 103.326 93.9786 102.86 93.9786C101.975 93.9786 101.253 93.7224 100.694 93.21C100.135 92.6976 99.8553 92.0221 99.8553 91.1835C99.8553 89.0406 101.02 87.5732 103.349 86.7812C102.837 86.1756 101.905 85.8728 100.554 85.8728C99.9484 85.8728 99.5059 85.9194 99.2264 86.0126C97.4561 86.758 96.1518 88.2953 95.3132 90.6245C92.5181 100.92 91.1206 106.929 91.1206 108.653C91.1206 109.957 91.4932 110.889 92.2386 111.448C92.984 112.007 93.7992 112.287 94.6843 112.287C96.408 112.287 98.1083 111.518 99.7854 109.981C101.462 108.443 102.604 106.557 103.209 104.321C103.349 103.855 103.489 103.598 103.629 103.552C103.768 103.505 104.141 103.459 104.747 103.412H105.026C105.725 103.412 106.074 103.598 106.074 103.971C106.074 104.018 106.028 104.274 105.935 104.74C105.189 107.395 103.745 109.748 101.602 111.797C99.4593 113.847 96.967 114.872 94.1253 114.872C90.8643 114.872 88.3953 113.405 86.7183 110.47C84.8083 113.358 82.6188 114.802 80.1498 114.802H79.7305C77.4478 114.802 75.8174 114.197 74.8391 112.985C73.8608 111.774 73.3483 110.493 73.3018 109.142C73.3018 107.651 73.7443 106.44 74.6294 105.508C75.5146 104.577 76.5627 104.111 77.7739 104.111C79.7771 104.111 80.7787 105.089 80.7787 107.046C80.7787 107.977 80.4992 108.793 79.9401 109.491C79.3811 110.19 78.8454 110.656 78.333 110.889C77.8205 111.122 77.5177 111.238 77.4245 111.238L77.2149 111.308C77.2149 111.355 77.3547 111.448 77.6342 111.588C77.9137 111.728 78.2864 111.891 78.7522 112.077C79.2181 112.263 79.6606 112.333 80.0799 112.287C81.757 112.287 83.2011 111.238 84.4123 109.142C84.8316 108.397 85.3673 106.813 86.0195 104.39C86.6717 101.968 87.3239 99.4524 87.9761 96.8436C88.6283 94.2349 89.0009 92.6976 89.0941 92.2317C89.327 90.9739 89.4435 90.0655 89.4435 89.5065C89.4435 88.2021 89.0941 87.2704 88.3953 86.7114C87.6966 86.1523 86.9046 85.8728 86.0195 85.8728C84.1561 85.8728 82.4091 86.6182 80.7787 88.1089C79.1482 89.5996 78.0069 91.5096 77.3547 93.8389C77.2615 94.2582 77.145 94.4911 77.0053 94.5377C76.8655 94.5843 76.4928 94.6308 75.8872 94.6774H74.9089C74.6294 94.3979 74.4897 94.1417 74.4897 93.9088Z" fill="white"/>
<path d="M116.276 111.657C116.276 111.657 116.276 111.074 116.276 109.91C116.276 108.745 116.649 107.744 117.394 106.905C118.14 106.066 119.141 105.647 120.399 105.647C121.704 105.647 122.868 106.23 123.893 107.394C124.918 108.559 125.454 110.609 125.5 113.543C125.5 115.174 125.291 116.758 124.871 118.295C124.452 119.832 123.963 121.16 123.404 122.278C122.845 123.396 122.239 124.351 121.587 125.143C120.935 125.935 120.376 126.564 119.91 127.03C119.444 127.496 119.141 127.705 119.002 127.659C118.815 127.659 118.512 127.449 118.093 127.03C117.674 126.611 117.464 126.308 117.464 126.121C117.464 125.935 117.721 125.562 118.233 125.003C118.745 124.444 119.328 123.746 119.98 122.907C120.632 122.068 121.238 120.904 121.797 119.413C122.356 117.922 122.728 116.222 122.915 114.312V113.474L122.845 113.543C122.752 113.59 122.635 113.637 122.495 113.683C122.356 113.73 122.216 113.8 122.076 113.893C121.936 113.986 121.727 114.033 121.447 114.033C121.168 114.033 120.888 114.056 120.609 114.102C119.351 114.102 118.326 113.706 117.534 112.914L116.276 111.657Z" fill="white"/>
<path d="M143.368 94.0479C143.368 93.3957 143.718 92.2777 144.416 90.6938C145.115 89.1099 146.233 87.4561 147.77 85.7325C149.308 84.0088 151.031 83.1703 152.941 83.2169C154.851 83.2169 156.389 83.7526 157.553 84.8241C158.718 85.8955 159.324 87.3862 159.37 89.2962C159.277 90.1814 159.207 90.6705 159.161 90.7637C159.161 90.9034 158.788 91.9749 158.042 93.978C157.297 95.9812 156.528 98.2406 155.737 100.756C154.945 103.272 154.572 105.275 154.618 106.766C154.618 108.769 154.945 110.166 155.597 110.958C156.249 111.75 157.227 112.17 158.532 112.216C159.603 112.216 160.605 111.96 161.536 111.447C162.468 110.935 163.19 110.399 163.703 109.84C164.215 109.281 164.844 108.513 165.589 107.534C165.589 107.488 165.706 107.022 165.939 106.137C166.172 105.252 166.498 103.877 166.917 102.014C167.336 100.151 167.779 98.4269 168.245 96.843C170.015 89.8553 170.993 86.1983 171.179 85.8722C171.785 84.6144 172.787 83.9855 174.184 83.9855C174.79 83.9855 175.279 84.1486 175.652 84.4747C176.024 84.8008 176.281 85.0803 176.42 85.3132C176.56 85.5461 176.607 85.7558 176.56 85.9421C176.56 86.5477 175.419 91.4392 173.136 100.616C170.853 109.794 169.549 114.825 169.223 115.71C167.919 119.577 165.659 122.651 162.445 124.934C159.23 127.217 156.016 128.381 152.802 128.428C150.705 128.428 148.865 127.915 147.281 126.89C145.697 125.866 144.905 124.328 144.905 122.278C144.905 121.254 145.069 120.392 145.395 119.693C145.721 118.994 146.163 118.482 146.722 118.156C147.281 117.83 147.747 117.597 148.12 117.457C148.493 117.317 148.889 117.247 149.308 117.247C151.358 117.247 152.382 118.226 152.382 120.182C152.382 121.114 152.103 121.929 151.544 122.628C150.985 123.327 150.449 123.793 149.937 124.025C149.424 124.258 149.121 124.375 149.028 124.375L148.819 124.445C148.912 124.678 149.354 124.957 150.146 125.283C150.938 125.609 151.73 125.772 152.522 125.772H153.081C153.873 125.772 154.479 125.726 154.898 125.633C156.435 125.213 157.856 124.328 159.161 122.977C160.465 121.626 161.466 120.182 162.165 118.645C162.864 117.108 163.4 115.803 163.772 114.732C164.145 113.66 164.331 112.961 164.331 112.635L163.912 112.915C163.633 113.101 163.19 113.357 162.585 113.684C161.979 114.01 161.373 114.289 160.768 114.522C159.836 114.755 158.928 114.871 158.042 114.871C155.9 114.871 154.013 114.359 152.382 113.334C150.752 112.309 149.68 110.656 149.168 108.373C149.121 108.047 149.098 107.325 149.098 106.207C149.098 103.551 149.913 100.081 151.544 95.7949C153.174 91.509 153.99 88.7838 153.99 87.6192C153.99 87.5726 153.99 87.526 153.99 87.4794C153.99 87.0602 153.99 86.7806 153.99 86.6409C153.99 86.5011 153.896 86.3381 153.71 86.1517C153.524 85.9654 153.268 85.8722 152.941 85.8722H152.662C151.59 85.8722 150.612 86.3148 149.727 87.1999C148.842 88.085 148.143 89.04 147.631 90.0649C147.118 91.0898 146.722 92.0681 146.443 92.9998C146.163 93.9315 145.977 94.4439 145.884 94.5371C145.791 94.6302 145.418 94.6768 144.766 94.6768H143.787C143.508 94.3973 143.368 94.1877 143.368 94.0479Z" fill="white"/>
<path d="M180.334 61.7635L180.613 61.6936C180.846 61.6936 181.079 61.6936 181.312 61.6936H182.151L184.107 63.3707C188.486 67.3304 191.677 72.2684 193.68 78.1847C195.684 84.101 196.685 90.2503 196.685 96.6324C196.685 99.8002 196.452 102.852 195.986 105.786C195.521 108.721 194.985 111.214 194.379 113.263C193.774 115.313 192.912 117.363 191.794 119.413C190.676 121.462 189.791 123.023 189.138 124.094C188.486 125.166 187.531 126.354 186.273 127.658C185.016 128.963 184.27 129.731 184.037 129.964C183.804 130.197 183.269 130.64 182.43 131.292C182.29 131.432 182.197 131.525 182.151 131.571H181.312C180.939 131.571 180.683 131.571 180.543 131.571C180.404 131.571 180.287 131.501 180.194 131.362C180.101 131.222 180.031 131.012 179.984 130.733C180.031 130.686 180.287 130.383 180.753 129.824C187.974 122.324 191.584 111.26 191.584 96.6324C191.584 82.0047 187.974 70.9408 180.753 63.4405C180.287 62.8815 180.031 62.5787 179.984 62.5321C179.984 62.1595 180.101 61.9032 180.334 61.7635Z" fill="white"/>
<path d="M226.642 89.8538C226.642 89.2482 226.968 88.7823 227.62 88.4562H272.132C272.831 88.8289 273.18 89.2948 273.18 89.8538C273.18 90.3662 272.854 90.8088 272.202 91.1815L249.981 91.2513H227.76C227.014 91.0184 226.642 90.5526 226.642 89.8538ZM226.642 103.41C226.642 102.711 227.014 102.245 227.76 102.013H272.202C272.854 102.478 273.18 102.944 273.18 103.41C273.18 104.016 272.831 104.482 272.132 104.808H227.62C226.968 104.482 226.642 104.016 226.642 103.41Z" fill="white"/>
<path d="M300.558 113.544C300.558 112.846 300.698 112.217 300.977 111.658C300.977 111.611 307.15 104.647 319.495 90.7644C331.84 76.882 338.059 69.8709 338.152 69.7312L337.454 69.5914C336.941 69.5914 335.217 69.5914 332.283 69.5914H331.444H329.767C328.183 69.5914 326.879 69.638 325.854 69.7312C324.829 69.8244 323.548 70.0806 322.011 70.4998C320.473 70.9191 319.215 71.5247 318.237 72.3167C317.259 73.1086 316.211 74.2732 315.093 75.8105C313.975 77.3479 313.09 79.188 312.437 81.3309C312.391 81.4706 312.344 81.6104 312.298 81.7501C312.251 81.8899 312.204 82.0064 312.158 82.0995C312.111 82.1927 312.088 82.3092 312.088 82.4489C312.088 82.5887 312.065 82.6586 312.018 82.6586L311.948 82.7983C311.808 83.0312 311.366 83.1477 310.62 83.1477C309.829 83.1477 309.363 82.9148 309.223 82.4489L311.459 74.9021C312.111 72.8058 312.74 70.7095 313.346 68.6131C313.718 67.3088 313.998 66.61 314.184 66.5168C314.324 66.4236 319.774 66.3771 330.536 66.3771H346.677C346.91 66.61 347.027 66.7963 347.027 66.9361C347.027 67.0292 346.887 67.6349 346.607 68.7529C322.011 96.471 309.689 110.377 309.642 110.47L309.433 110.68H315.652C320.077 110.633 322.476 110.586 322.849 110.54C326.343 110.12 329.208 108.979 331.444 107.116C333.68 105.252 335.52 101.828 336.964 96.8437C337.337 95.6791 337.593 94.9803 337.733 94.7474C337.873 94.5145 338.176 94.398 338.641 94.398H338.921C339.899 94.398 340.388 94.6542 340.388 95.1667C336.615 107.558 334.589 113.824 334.309 113.964C334.169 114.057 328.556 114.104 317.469 114.104H305.17C302.095 114.104 300.558 113.917 300.558 113.544Z" fill="white"/>
<path d="M348.974 95.6839C350.819 93.0162 353.338 91.6823 356.533 91.6823C358.114 91.6823 359.695 92.1104 361.276 92.9668C362.857 93.8231 364.141 95.3381 365.129 97.5119C366.348 100.246 366.957 104 366.957 108.776C366.957 113.881 366.249 117.784 364.833 120.485C364.174 121.868 363.268 122.971 362.116 123.795C360.963 124.618 359.958 125.128 359.102 125.326C358.246 125.524 357.406 125.639 356.582 125.672C355.726 125.672 354.87 125.573 354.013 125.375C353.157 125.178 352.152 124.651 351 123.795C349.847 122.938 348.941 121.835 348.283 120.485C346.866 117.784 346.158 113.881 346.158 108.776C346.158 103.045 347.097 98.6811 348.974 95.6839ZM360.09 95.0911C359.102 94.0372 357.933 93.5102 356.582 93.5102C355.199 93.5102 354.013 94.0372 353.025 95.0911C352.202 95.9474 351.658 97.1331 351.395 98.6482C351.131 100.163 351 103.325 351 108.134C351 113.337 351.131 116.763 351.395 118.41C351.658 120.056 352.251 121.357 353.174 122.312C354.096 123.301 355.232 123.795 356.582 123.795C357.9 123.795 359.02 123.301 359.942 122.312C360.897 121.324 361.49 119.941 361.72 118.163C361.951 116.384 362.083 113.041 362.116 108.134C362.116 103.358 361.984 100.213 361.72 98.6976C361.457 97.1825 360.913 95.9804 360.09 95.0911Z" fill="white"/>
<path d="M391.874 97.541C391.874 97.541 391.874 97.2382 391.874 96.6326C391.874 96.027 392.2 95.5612 392.852 95.2351H413.746V84.7534L413.816 74.2718C414.281 73.6662 414.724 73.3634 415.143 73.3634C415.749 73.3634 416.215 73.7128 416.541 74.4115V95.2351H437.364C438.063 95.6078 438.413 96.0736 438.413 96.6326C438.413 97.1917 438.063 97.6575 437.364 98.0302H416.541V118.854C416.168 119.506 415.749 119.832 415.283 119.832H415.143H415.004C414.445 119.832 414.025 119.506 413.746 118.854V98.0302H392.852C392.2 97.7041 391.874 97.2382 391.874 96.6326V97.541Z" fill="white"/>
<path d="M462.045 47.8579C462.185 47.7647 476.277 47.7181 504.321 47.7181H546.388L550.44 57.1516C553.189 63.5804 554.656 66.9811 554.843 67.3538H552.048L551.559 66.3755C550.58 64.4655 549.276 62.6487 547.645 60.925C545.316 58.6889 542.731 56.8954 539.889 55.5444C537.047 54.1935 533.763 53.1919 530.036 52.5397C526.309 51.8875 522.792 51.4915 519.485 51.3518C516.177 51.212 511.915 51.1188 506.697 51.0723H497.962H495.796H475.392L475.951 51.8409C497.52 81.3293 508.351 96.2132 508.444 96.4927C508.491 96.5859 508.491 96.7257 508.444 96.912C508.304 97.0518 502.155 104.086 489.996 118.015L471.549 138.978C471.549 139.025 476.463 139.048 486.293 139.048C488.715 139.048 491.999 139.048 496.146 139.048C500.292 139.048 503.273 139.072 505.09 139.118C511.425 139.118 516.55 139.002 520.463 138.769C524.376 138.536 528.266 138.047 532.133 137.301C535.999 136.556 539.283 135.415 541.985 133.877C544.687 132.34 547.086 130.314 549.183 127.798C550.161 126.587 551.116 124.91 552.048 122.767H554.843C554.843 122.813 554.68 123.302 554.354 124.234C554.028 125.166 553.445 126.68 552.607 128.776C551.768 130.873 551.046 132.829 550.44 134.646L546.388 145.477L504.391 145.547C476.347 145.547 462.255 145.5 462.115 145.407C461.836 145.314 461.696 145.104 461.696 144.778C461.696 144.685 461.742 144.545 461.836 144.359L499.08 101.734C499.08 101.687 498.312 100.639 496.774 98.5891C495.237 96.5393 492.791 93.1852 489.437 88.5267C486.083 83.8682 483.055 79.7221 480.353 76.0885L461.766 50.5831L461.696 49.535C461.696 48.5567 461.812 47.9976 462.045 47.8579Z" fill="white"/>
<path d="M462.943 175.944C462.976 175.746 463.025 175.483 463.091 175.153C463.157 174.824 463.355 174.198 463.684 173.276C464.013 172.354 464.343 171.58 464.672 170.954C465.001 170.328 465.545 169.719 466.302 169.126C467.06 168.533 467.817 168.253 468.575 168.286C469.761 168.286 470.749 168.583 471.539 169.175C472.33 169.768 472.824 170.328 473.021 170.855C473.219 171.382 473.318 171.728 473.318 171.893C473.318 171.959 473.334 171.991 473.367 171.991L473.91 171.448C475.92 169.34 478.209 168.286 480.778 168.286C482.556 168.286 483.989 168.731 485.076 169.62C486.163 170.509 486.722 171.81 486.755 173.523C486.788 175.236 486.163 177.821 484.878 181.279C483.594 184.738 482.968 186.829 483.001 187.554C483.001 188.41 483.281 188.838 483.841 188.838C484.038 188.838 484.186 188.822 484.285 188.789C485.24 188.624 486.097 187.998 486.854 186.911C487.612 185.824 488.188 184.507 488.583 182.959C488.649 182.696 488.979 182.564 489.571 182.564C490.23 182.564 490.559 182.696 490.559 182.959C490.559 182.992 490.494 183.239 490.362 183.7C490.098 184.655 489.736 185.594 489.275 186.516C488.814 187.438 488.056 188.361 487.002 189.283C485.948 190.205 484.812 190.65 483.594 190.617C482.046 190.617 480.926 190.172 480.234 189.283C479.542 188.393 479.197 187.471 479.197 186.516C479.197 185.89 479.789 183.914 480.975 180.588C482.161 177.261 482.77 174.758 482.803 173.078C482.803 171.135 482.079 170.164 480.629 170.164H480.382C477.55 170.164 475.162 171.827 473.219 175.153L472.873 175.746L471.243 182.366C470.156 186.681 469.53 189.003 469.365 189.332C468.937 190.221 468.229 190.666 467.241 190.666C466.813 190.666 466.467 190.567 466.204 190.37C465.94 190.172 465.759 189.974 465.66 189.777C465.561 189.579 465.528 189.414 465.561 189.283C465.561 188.855 466.187 186.17 467.439 181.23C468.69 176.29 469.349 173.605 469.415 173.177C469.448 173.012 469.464 172.634 469.464 172.041C469.464 170.756 469.069 170.114 468.278 170.114C467.027 170.114 465.989 171.761 465.166 175.055C464.968 175.713 464.87 176.059 464.87 176.092C464.804 176.29 464.491 176.388 463.931 176.388H463.239C463.042 176.191 462.943 176.043 462.943 175.944Z" fill="white"/>
<path d="M494.314 172.98C494.314 172.552 494.545 172.223 495.006 171.992H526.476C526.97 172.256 527.217 172.585 527.217 172.98C527.217 173.343 526.987 173.656 526.526 173.919L510.815 173.968H495.105C494.578 173.804 494.314 173.474 494.314 172.98ZM494.314 182.565C494.314 182.071 494.578 181.741 495.105 181.577H526.526C526.987 181.906 527.217 182.235 527.217 182.565C527.217 182.993 526.97 183.322 526.476 183.553H495.006C494.545 183.322 494.314 182.993 494.314 182.565Z" fill="white"/>
<path d="M540.506 161.568L539.864 161.815C539.403 161.98 538.744 162.144 537.888 162.309C537.032 162.474 536.077 162.589 535.023 162.655H534.084V160.382H535.023C536.571 160.316 538.003 160.069 539.321 159.641C540.638 159.213 541.56 158.818 542.087 158.455C542.614 158.093 543.075 157.731 543.471 157.369C543.537 157.27 543.734 157.22 544.063 157.22C544.36 157.22 544.64 157.319 544.903 157.517V172.288L544.953 187.109C545.183 187.34 545.381 187.488 545.546 187.554C545.71 187.62 546.106 187.686 546.731 187.752C547.357 187.818 548.378 187.85 549.794 187.85H551.079V190.123H550.535C549.844 190.024 547.225 189.975 542.68 189.975C538.201 189.975 535.615 190.024 534.924 190.123H534.331V187.85H535.615C536.34 187.85 536.966 187.85 537.493 187.85C538.02 187.85 538.431 187.834 538.728 187.801C539.024 187.768 539.288 187.719 539.518 187.653C539.749 187.587 539.881 187.554 539.914 187.554C539.947 187.554 540.045 187.472 540.21 187.307C540.375 187.142 540.474 187.076 540.506 187.109V161.568Z" fill="white"/>
<path d="M497.922 2.27214C497.824 2.27214 497.692 2.27214 497.527 2.27214C496.704 2.27214 496.21 2.25567 496.045 2.22274C495.88 2.1898 495.798 2.00866 495.798 1.6793C495.798 0.790035 495.979 0.246597 496.342 0.0489845C496.407 0.0160484 498.005 -0.000419617 501.134 -0.000419617C503.67 -0.000419617 505.119 -0.000419617 505.481 -0.000419617C505.844 -0.000419617 506.074 0.0983849 506.173 0.296001C513.122 16.6321 516.663 25.0142 516.795 25.4424L519.462 14.9194C521.208 7.97001 522.081 4.26475 522.081 3.80365C522.081 2.91439 521.027 2.40388 518.919 2.27214C518.129 2.27214 517.733 2.091 517.733 1.7287C517.733 1.66283 517.766 1.46522 517.832 1.13586C517.964 0.608891 518.063 0.296001 518.129 0.197193C518.194 0.0983849 518.359 0.0325165 518.623 -0.000419617C518.721 -0.000419617 519.232 0.0160484 520.154 0.0489845C521.076 0.0819168 522.443 0.114853 524.255 0.147789C525.901 0.147789 527.153 0.131321 528.009 0.0983849C528.866 0.0654526 529.36 0.0489845 529.491 0.0489845C529.985 0.0489845 530.232 0.213661 530.232 0.543018C530.232 1.2676 530.101 1.76164 529.837 2.02512C529.771 2.1898 529.409 2.27214 528.75 2.27214C526.412 2.40388 524.946 3.0626 524.353 4.24828L516.992 33.3964C516.926 33.6269 516.581 33.7422 515.955 33.7422C515.494 33.7422 515.214 33.7093 515.115 33.6434C515.016 33.5446 512.892 28.5548 508.742 18.6741L502.468 3.90246L499.256 16.7474C497.116 25.1789 496.045 29.5429 496.045 29.8393C496.21 30.9262 497.395 31.4696 499.602 31.4696H500.096C500.294 31.6343 500.393 31.766 500.393 31.8649C500.393 31.9637 500.36 32.2765 500.294 32.8035C500.162 33.2317 499.997 33.5446 499.8 33.7422H499.158C498.137 33.6763 496.358 33.6434 493.822 33.6434C492.9 33.6434 492.06 33.6434 491.302 33.6434C490.545 33.6434 489.936 33.6434 489.474 33.6434C489.013 33.6434 488.733 33.6598 488.635 33.6928C488.141 33.6928 487.894 33.5446 487.894 33.2482C487.894 33.1164 487.943 32.8529 488.042 32.4577C488.141 32.0625 488.223 31.8319 488.289 31.766C488.355 31.5684 488.733 31.4696 489.425 31.4696C491.665 31.3708 493.114 30.7286 493.773 29.5429C493.904 29.3453 495.074 24.7837 497.28 15.8581L500.64 2.42035C500.574 2.38742 499.668 2.33801 497.922 2.27214Z" fill="white"/>
<path d="M576.016 180.417V12.7804H594.813V17.1128H580.348V176.085H594.813V180.417H576.016Z" fill="white"/>
<path d="M621.366 55.8949C621.366 51.1898 623.136 46.7176 626.676 42.4784C630.217 38.2391 634.2 36.0962 638.626 36.0496C641.001 36.0496 643.098 37.191 644.915 39.4736C645.66 38.0761 646.731 37.3773 648.129 37.3773C648.734 37.3773 649.27 37.5636 649.736 37.9363C650.202 38.309 650.435 38.7748 650.435 39.3339C650.435 39.9395 649.573 43.6663 647.849 50.5143C646.126 57.3623 645.241 61.2289 645.194 62.114C645.194 63.2786 645.357 64.0473 645.683 64.42C646.009 64.7926 646.498 65.0023 647.151 65.0489C647.57 65.0023 648.036 64.7926 648.548 64.42C649.526 63.4883 650.481 61.2522 651.413 57.7117C651.693 56.78 651.926 56.2909 652.112 56.2443C652.205 56.1977 652.438 56.1744 652.811 56.1744H653.09C653.975 56.1744 654.418 56.384 654.418 56.8033C654.418 57.0828 654.301 57.7117 654.068 58.69C653.836 59.6683 653.37 60.9261 652.671 62.4634C651.972 64.0007 651.227 65.1653 650.435 65.9573C649.829 66.5629 649.084 67.052 648.199 67.4247C647.826 67.5179 647.267 67.5645 646.522 67.5645C644.938 67.5645 643.61 67.2151 642.539 66.5163C641.467 65.8175 640.768 65.0954 640.442 64.3501L640.023 63.3019C639.976 63.2553 639.883 63.2786 639.744 63.3718C639.65 63.465 639.557 63.5581 639.464 63.6513C636.716 66.2601 633.92 67.5645 631.079 67.5645C628.517 67.5645 626.257 66.6328 624.301 64.7693C622.344 62.9059 621.366 59.9478 621.366 55.8949ZM643.587 43.9458C643.587 43.6663 643.47 43.1538 643.237 42.4085C643.005 41.6631 642.469 40.8479 641.63 39.9628C640.792 39.0777 639.72 38.6118 638.416 38.5652C636.785 38.5652 635.225 39.2873 633.734 40.7314C632.243 42.1756 631.079 44.0623 630.24 46.3915C628.889 50.0717 627.934 53.8917 627.375 57.8515C627.375 57.9912 627.375 58.2474 627.375 58.6201C627.375 58.9928 627.352 59.2723 627.305 59.4586C627.305 61.555 627.725 62.9991 628.563 63.7911C629.402 64.583 630.403 65.0023 631.568 65.0489C633.338 65.0489 635.085 64.2802 636.809 62.7429C638.532 61.2056 639.557 60.0177 639.883 59.1791C639.976 58.9928 640.605 56.5005 641.77 51.7022C642.935 46.904 643.54 44.3185 643.587 43.9458Z" fill="white"/>
<path d="M657.062 63.1674C657.095 62.9698 657.145 62.7063 657.211 62.3769C657.277 62.0476 657.474 61.4218 657.804 60.4996C658.133 59.5774 658.462 58.8034 658.792 58.1776C659.121 57.5519 659.664 56.9426 660.422 56.3497C661.179 55.7569 661.937 55.4769 662.695 55.5099C663.88 55.5099 664.868 55.8063 665.659 56.3991C666.449 56.992 666.943 57.5519 667.141 58.0788C667.338 58.6058 667.437 58.9516 667.437 59.1163C667.437 59.1822 667.454 59.2151 667.487 59.2151L668.03 58.6717C670.039 56.5638 672.328 55.5099 674.897 55.5099C676.676 55.5099 678.108 55.9545 679.195 56.8437C680.282 57.733 680.842 59.034 680.875 60.7466C680.908 62.4593 680.282 65.0447 678.998 68.503C677.713 71.9612 677.087 74.0526 677.12 74.7772C677.12 75.6336 677.4 76.0617 677.96 76.0617C678.158 76.0617 678.306 76.0453 678.405 76.0123C679.36 75.8476 680.216 75.2219 680.974 74.135C681.731 73.0481 682.308 71.7307 682.703 70.1827C682.769 69.9192 683.098 69.7875 683.691 69.7875C684.35 69.7875 684.679 69.9192 684.679 70.1827C684.679 70.2156 684.613 70.4627 684.481 70.9238C684.218 71.8789 683.856 72.8176 683.395 73.7398C682.933 74.662 682.176 75.5842 681.122 76.5063C680.068 77.4285 678.932 77.8732 677.713 77.8402C676.165 77.8402 675.045 77.3956 674.354 76.5063C673.662 75.6171 673.316 74.6949 673.316 73.7398C673.316 73.114 673.909 71.1378 675.095 67.8113C676.28 64.4848 676.89 61.9817 676.923 60.302C676.923 58.3588 676.198 57.3872 674.749 57.3872H674.502C671.669 57.3872 669.282 59.0504 667.338 62.3769L666.993 62.9698L665.362 69.5899C664.275 73.9044 663.65 76.2264 663.485 76.5558C663.057 77.445 662.349 77.8896 661.361 77.8896C660.932 77.8896 660.587 77.7908 660.323 77.5932C660.06 77.3956 659.879 77.198 659.78 77.0004C659.681 76.8028 659.648 76.6381 659.681 76.5063C659.681 76.0782 660.307 73.3939 661.558 68.4536C662.81 63.5132 663.468 60.829 663.534 60.4008C663.567 60.2361 663.584 59.8574 663.584 59.2645C663.584 57.98 663.189 57.3378 662.398 57.3378C661.147 57.3378 660.109 58.9846 659.286 62.2781C659.088 62.9368 658.989 63.2827 658.989 63.3156C658.923 63.5132 658.61 63.612 658.051 63.612H657.359C657.161 63.4144 657.062 63.2662 657.062 63.1674Z" fill="white"/>
<path d="M627.096 117.527C625.838 117.527 625.093 117.504 624.86 117.457C624.627 117.411 624.511 117.155 624.511 116.689C624.511 115.431 624.767 114.662 625.279 114.383C625.372 114.336 629.425 114.313 637.438 114.313C645.451 114.36 649.783 114.429 650.435 114.523C653.044 114.895 655.233 115.547 657.004 116.479C658.774 117.411 660.032 118.482 660.777 119.694C661.522 120.905 662.012 121.906 662.244 122.698C662.477 123.49 662.617 124.282 662.664 125.074C662.664 127.17 661.988 129.127 660.637 130.944C659.286 132.761 657.726 134.158 655.955 135.136C654.185 136.115 652.625 136.907 651.274 137.512C649.923 138.118 649.038 138.421 648.618 138.421L649.107 138.77C652.229 140.54 653.789 143.103 653.789 146.457C653.789 146.969 653.673 148.39 653.44 150.719C653.207 153.048 653.09 154.958 653.09 156.449V157.078C653.09 157.917 653.114 158.569 653.16 159.035C653.207 159.501 653.463 159.92 653.929 160.292C654.395 160.665 655 160.875 655.746 160.921C657.05 160.921 658.122 160.409 658.96 159.384C659.799 158.359 660.404 157.264 660.777 156.1C661.01 155.448 661.196 155.052 661.336 154.912C661.476 154.772 661.825 154.702 662.384 154.702C663.316 154.702 663.782 154.982 663.782 155.541C663.782 156.379 663.223 157.707 662.105 159.524C660.334 162.179 658.238 163.507 655.816 163.507H655.187C652.345 163.507 649.993 162.925 648.129 161.76C646.266 160.595 645.241 158.778 645.055 156.309C645.055 155.052 645.404 153.095 646.103 150.44C646.801 147.784 647.151 146.084 647.151 145.339C647.151 142.963 646.149 141.239 644.146 140.168C643.447 139.842 642.865 139.655 642.399 139.609C641.933 139.562 640.28 139.515 637.438 139.469H632.616L630.38 148.553C628.843 154.702 628.074 157.823 628.074 157.917C628.074 158.103 628.098 158.219 628.144 158.266C628.191 158.313 628.354 158.406 628.633 158.546C628.913 158.685 629.309 158.732 629.821 158.685C630.334 158.639 631.102 158.685 632.127 158.825H634.293C634.573 159.198 634.713 159.407 634.713 159.454C634.713 159.501 634.643 159.92 634.503 160.712C634.317 161.317 634.084 161.76 633.804 162.039H632.756C631.079 161.946 628.028 161.9 623.602 161.9C622.018 161.9 620.551 161.9 619.2 161.9C617.849 161.9 616.777 161.9 615.985 161.9C615.193 161.9 614.704 161.923 614.518 161.97C613.726 161.97 613.33 161.76 613.33 161.341C613.33 161.247 613.4 160.921 613.54 160.362C613.773 159.477 614.006 158.988 614.238 158.895C614.425 158.848 614.774 158.825 615.287 158.825H615.706C616.964 158.825 618.361 158.755 619.899 158.615C620.551 158.476 620.993 158.196 621.226 157.777C621.366 157.591 623.043 151.115 626.257 138.351C629.472 125.587 631.079 118.855 631.079 118.156C631.079 117.83 629.751 117.62 627.096 117.527ZM655.047 123.327C655.047 121.836 654.558 120.579 653.58 119.554C652.601 118.529 650.598 117.877 647.57 117.597C647.477 117.597 646.941 117.597 645.963 117.597C644.985 117.597 644.1 117.574 643.308 117.527H641.77C639.581 117.527 638.323 117.76 637.997 118.226C637.95 118.366 637.158 121.464 635.621 127.52C634.084 133.576 633.315 136.674 633.315 136.814C633.315 136.86 634.922 136.883 638.137 136.883C641.77 136.837 644.193 136.674 645.404 136.394C648.385 135.928 650.715 134.554 652.392 132.272C653.137 131.2 653.766 129.802 654.278 128.079C654.791 126.355 655.047 124.771 655.047 123.327Z" fill="white"/>
<path d="M665.099 158.342C665.132 158.145 665.181 157.881 665.247 157.552C665.313 157.222 665.511 156.597 665.84 155.674C666.17 154.752 666.499 153.978 666.828 153.352C667.158 152.727 667.701 152.117 668.459 151.525C669.216 150.932 669.974 150.652 670.731 150.685C671.917 150.685 672.905 150.981 673.695 151.574C674.486 152.167 674.98 152.727 675.177 153.254C675.375 153.781 675.474 154.126 675.474 154.291C675.474 154.357 675.49 154.39 675.523 154.39L676.067 153.846C678.076 151.739 680.365 150.685 682.934 150.685C684.712 150.685 686.145 151.129 687.232 152.019C688.319 152.908 688.879 154.209 688.912 155.921C688.945 157.634 688.319 160.22 687.034 163.678C685.75 167.136 685.124 169.227 685.157 169.952C685.157 170.808 685.437 171.237 685.997 171.237C686.194 171.237 686.343 171.22 686.441 171.187C687.397 171.022 688.253 170.397 689.01 169.31C689.768 168.223 690.344 166.905 690.74 165.358C690.805 165.094 691.135 164.962 691.728 164.962C692.386 164.962 692.716 165.094 692.716 165.358C692.716 165.39 692.65 165.637 692.518 166.099C692.255 167.054 691.892 167.992 691.431 168.915C690.97 169.837 690.213 170.759 689.159 171.681C688.105 172.603 686.968 173.048 685.75 173.015C684.202 173.015 683.082 172.57 682.39 171.681C681.699 170.792 681.353 169.87 681.353 168.915C681.353 168.289 681.946 166.313 683.131 162.986C684.317 159.66 684.926 157.157 684.959 155.477C684.959 153.534 684.235 152.562 682.786 152.562H682.539C679.706 152.562 677.318 154.225 675.375 157.552L675.029 158.145L673.399 164.765C672.312 169.079 671.686 171.401 671.522 171.731C671.093 172.62 670.385 173.064 669.397 173.064C668.969 173.064 668.623 172.966 668.36 172.768C668.096 172.57 667.915 172.373 667.816 172.175C667.718 171.978 667.685 171.813 667.718 171.681C667.718 171.253 668.343 168.569 669.595 163.628C670.846 158.688 671.505 156.004 671.571 155.576C671.604 155.411 671.62 155.032 671.62 154.439C671.62 153.155 671.225 152.513 670.435 152.513C669.183 152.513 668.146 154.159 667.322 157.453C667.125 158.112 667.026 158.457 667.026 158.49C666.96 158.688 666.647 158.787 666.087 158.787H665.396C665.198 158.589 665.099 158.441 665.099 158.342Z" fill="white"/>
<path d="M704.192 98.7295H604.037V94.5368H704.192V98.7295Z" fill="white"/>
<path d="M728.65 69.5898C727.392 69.5898 726.647 69.5665 726.414 69.5199C726.181 69.4734 726.064 69.2171 726.064 68.7513C726.064 67.4935 726.32 66.7248 726.833 66.4453C726.926 66.3987 730.979 66.3754 738.992 66.3754C747.004 66.422 751.337 66.4919 751.989 66.5851C754.598 66.9578 756.787 67.61 758.557 68.5417C760.328 69.4734 761.585 70.5448 762.331 71.756C763.076 72.9672 763.565 73.9688 763.798 74.7608C764.031 75.5527 764.171 76.3447 764.217 77.1366C764.217 79.2329 763.542 81.1895 762.191 83.0063C760.84 84.8232 759.279 86.2207 757.509 87.199C755.739 88.1773 754.178 88.9692 752.827 89.5748C751.476 90.1804 750.591 90.4832 750.172 90.4832L750.661 90.8326C753.782 92.6029 755.343 95.1651 755.343 98.5192C755.343 99.0316 755.227 100.452 754.994 102.782C754.761 105.111 754.644 107.021 754.644 108.512V109.141C754.644 109.979 754.667 110.631 754.714 111.097C754.761 111.563 755.017 111.982 755.483 112.355C755.949 112.728 756.554 112.937 757.3 112.984C758.604 112.984 759.675 112.471 760.514 111.447C761.352 110.422 761.958 109.327 762.331 108.162C762.564 107.51 762.75 107.114 762.89 106.974C763.03 106.835 763.379 106.765 763.938 106.765C764.87 106.765 765.335 107.044 765.335 107.603C765.335 108.442 764.776 109.769 763.658 111.586C761.888 114.242 759.792 115.569 757.369 115.569H756.741C753.899 115.569 751.546 114.987 749.683 113.822C747.819 112.658 746.795 110.841 746.608 108.372C746.608 107.114 746.958 105.158 747.656 102.502C748.355 99.8469 748.705 98.1465 748.705 97.4011C748.705 95.0253 747.703 93.3016 745.7 92.2302C745.001 91.9041 744.419 91.7178 743.953 91.6712C743.487 91.6246 741.833 91.578 738.992 91.5314H734.17L731.934 100.616C730.397 106.765 729.628 109.886 729.628 109.979C729.628 110.165 729.651 110.282 729.698 110.329C729.744 110.375 729.907 110.468 730.187 110.608C730.467 110.748 730.862 110.794 731.375 110.748C731.887 110.701 732.656 110.748 733.681 110.888H735.847C736.127 111.26 736.266 111.47 736.266 111.516C736.266 111.563 736.196 111.982 736.057 112.774C735.87 113.38 735.637 113.822 735.358 114.102H734.31C732.633 114.009 729.581 113.962 725.156 113.962C723.572 113.962 722.104 113.962 720.754 113.962C719.403 113.962 718.331 113.962 717.539 113.962C716.747 113.962 716.258 113.985 716.072 114.032C715.28 114.032 714.884 113.822 714.884 113.403C714.884 113.31 714.954 112.984 715.093 112.425C715.326 111.54 715.559 111.051 715.792 110.957C715.979 110.911 716.328 110.888 716.84 110.888H717.26C718.517 110.888 719.915 110.818 721.452 110.678C722.104 110.538 722.547 110.259 722.78 109.839C722.92 109.653 724.597 103.178 727.811 90.4134C731.026 77.649 732.633 70.9175 732.633 70.2187C732.633 69.8926 731.305 69.683 728.65 69.5898ZM756.601 75.3897C756.601 73.8989 756.112 72.6411 755.133 71.6163C754.155 70.5914 752.152 69.9392 749.124 69.6597C749.031 69.6597 748.495 69.6597 747.517 69.6597C746.538 69.6597 745.653 69.6364 744.861 69.5898H743.324C741.135 69.5898 739.877 69.8227 739.551 70.2886C739.504 70.4284 738.712 73.5263 737.175 79.5823C735.637 85.6384 734.869 88.7363 734.869 88.8761C734.869 88.9226 736.476 88.9459 739.69 88.9459C743.324 88.8994 745.746 88.7363 746.958 88.4568C749.939 87.9909 752.268 86.6167 753.945 84.334C754.691 83.2626 755.32 81.865 755.832 80.1413C756.345 78.4177 756.601 76.8338 756.601 75.3897Z" fill="white"/>
<path d="M766.652 110.406C766.685 110.208 766.735 109.945 766.801 109.615C766.866 109.286 767.064 108.66 767.393 107.738C767.723 106.816 768.052 106.042 768.381 105.416C768.711 104.79 769.254 104.181 770.012 103.588C770.769 102.995 771.527 102.715 772.284 102.748C773.47 102.748 774.458 103.045 775.249 103.637C776.039 104.23 776.533 104.79 776.731 105.317C776.928 105.844 777.027 106.19 777.027 106.355C777.027 106.42 777.044 106.453 777.076 106.453L777.62 105.91C779.629 103.802 781.918 102.748 784.487 102.748C786.266 102.748 787.698 103.193 788.785 104.082C789.872 104.971 790.432 106.272 790.465 107.985C790.498 109.698 789.872 112.283 788.588 115.741C787.303 119.2 786.677 121.291 786.71 122.016C786.71 122.872 786.99 123.3 787.55 123.3C787.748 123.3 787.896 123.284 787.995 123.251C788.95 123.086 789.806 122.46 790.564 121.373C791.321 120.286 791.898 118.969 792.293 117.421C792.359 117.157 792.688 117.026 793.281 117.026C793.94 117.026 794.269 117.157 794.269 117.421C794.269 117.454 794.203 117.701 794.071 118.162C793.808 119.117 793.446 120.056 792.984 120.978C792.523 121.9 791.766 122.822 790.712 123.745C789.658 124.667 788.522 125.111 787.303 125.079C785.755 125.079 784.635 124.634 783.944 123.745C783.252 122.855 782.906 121.933 782.906 120.978C782.906 120.352 783.499 118.376 784.685 115.05C785.87 111.723 786.48 109.22 786.513 107.54C786.513 105.597 785.788 104.625 784.339 104.625H784.092C781.259 104.625 778.871 106.289 776.928 109.615L776.582 110.208L774.952 116.828C773.865 121.143 773.239 123.465 773.075 123.794C772.647 124.683 771.939 125.128 770.95 125.128C770.522 125.128 770.176 125.029 769.913 124.832C769.649 124.634 769.468 124.436 769.37 124.239C769.271 124.041 769.238 123.876 769.271 123.745C769.271 123.316 769.897 120.632 771.148 115.692C772.4 110.752 773.058 108.067 773.124 107.639C773.157 107.474 773.174 107.096 773.174 106.503C773.174 105.218 772.778 104.576 771.988 104.576C770.736 104.576 769.699 106.223 768.876 109.516C768.678 110.175 768.579 110.521 768.579 110.554C768.513 110.752 768.2 110.85 767.64 110.85H766.949C766.751 110.653 766.652 110.504 766.652 110.406Z" fill="white"/>
<path d="M805.319 96.6324C805.319 93.4181 805.552 90.3667 806.018 87.4785C806.483 84.5902 807.019 82.0979 807.625 80.0016C808.23 77.9052 809.092 75.8555 810.21 73.8523C811.328 71.8492 812.213 70.2886 812.866 69.1705C813.518 68.0525 814.496 66.8413 815.8 65.5369C817.105 64.2325 817.874 63.4405 818.106 63.161C818.339 62.8815 818.922 62.3924 819.853 61.6936H820.762H821.041C821.694 61.6936 822.02 61.9032 822.02 62.3225C822.02 62.4623 821.624 62.9514 820.832 63.7899C820.04 64.6285 819.085 65.863 817.967 67.4935C816.849 69.1239 815.707 71.1271 814.543 73.5029C813.378 75.8788 812.4 79.0931 811.608 83.1461C810.816 87.199 810.42 91.6944 810.42 96.6324C810.42 101.57 810.816 106.043 811.608 110.049C812.4 114.055 813.355 117.293 814.473 119.762C815.591 122.231 816.732 124.234 817.897 125.771C819.061 127.309 820.04 128.543 820.832 129.475C821.624 130.407 822.02 130.896 822.02 130.942C822.02 131.362 821.67 131.571 820.971 131.571H820.762H819.853L817.897 129.894C813.518 125.934 810.327 120.996 808.324 115.08C806.32 109.164 805.319 103.015 805.319 96.6324Z" fill="white"/>
<path d="M829.567 93.9088C829.893 91.9522 831.151 89.6928 833.34 87.1306C835.53 84.5685 838.232 83.2641 841.446 83.2175C843.077 83.2175 844.567 83.6367 845.918 84.4753C847.269 85.3138 848.271 86.362 848.923 87.6198C850.88 84.6849 853.232 83.2175 855.981 83.2175C857.704 83.2175 859.195 83.7299 860.453 84.7548C861.711 85.7797 862.363 87.1539 862.409 88.8776C862.409 90.2285 862.083 91.3233 861.431 92.1618C860.779 93.0004 860.15 93.5128 859.544 93.6991C858.939 93.8855 858.403 93.9786 857.937 93.9786C857.052 93.9786 856.33 93.7224 855.771 93.21C855.212 92.6976 854.932 92.0221 854.932 91.1835C854.932 89.0406 856.097 87.5732 858.426 86.7812C857.914 86.1756 856.982 85.8728 855.631 85.8728C855.026 85.8728 854.583 85.9194 854.304 86.0126C852.533 86.758 851.229 88.2953 850.39 90.6245C847.595 100.92 846.198 106.929 846.198 108.653C846.198 109.957 846.57 110.889 847.316 111.448C848.061 112.007 848.876 112.287 849.761 112.287C851.485 112.287 853.185 111.518 854.863 109.981C856.54 108.443 857.681 106.557 858.287 104.321C858.426 103.855 858.566 103.598 858.706 103.552C858.846 103.505 859.218 103.459 859.824 103.412H860.103C860.802 103.412 861.152 103.598 861.152 103.971C861.152 104.018 861.105 104.274 861.012 104.74C860.266 107.395 858.822 109.748 856.679 111.797C854.536 113.847 852.044 114.872 849.202 114.872C845.941 114.872 843.472 113.405 841.795 110.47C839.885 113.358 837.696 114.802 835.227 114.802H834.808C832.525 114.802 830.895 114.197 829.916 112.985C828.938 111.774 828.425 110.493 828.379 109.142C828.379 107.651 828.821 106.44 829.707 105.508C830.592 104.577 831.64 104.111 832.851 104.111C834.854 104.111 835.856 105.089 835.856 107.046C835.856 107.977 835.576 108.793 835.017 109.491C834.458 110.19 833.923 110.656 833.41 110.889C832.898 111.122 832.595 111.238 832.502 111.238L832.292 111.308C832.292 111.355 832.432 111.448 832.711 111.588C832.991 111.728 833.364 111.891 833.829 112.077C834.295 112.263 834.738 112.333 835.157 112.287C836.834 112.287 838.278 111.238 839.489 109.142C839.909 108.397 840.444 106.813 841.097 104.39C841.749 101.968 842.401 99.4524 843.053 96.8436C843.705 94.2349 844.078 92.6976 844.171 92.2317C844.404 90.9739 844.521 90.0655 844.521 89.5065C844.521 88.2021 844.171 87.2704 843.472 86.7114C842.774 86.1523 841.982 85.8728 841.097 85.8728C839.233 85.8728 837.486 86.6182 835.856 88.1089C834.225 89.5996 833.084 91.5096 832.432 93.8389C832.339 94.2582 832.222 94.4911 832.082 94.5377C831.943 94.5843 831.57 94.6308 830.964 94.6774H829.986C829.707 94.3979 829.567 94.1417 829.567 93.9088Z" fill="white"/>
<path d="M871.354 111.657C871.354 111.657 871.354 111.074 871.354 109.91C871.354 108.745 871.726 107.744 872.472 106.905C873.217 106.066 874.219 105.647 875.476 105.647C876.781 105.647 877.945 106.23 878.97 107.394C879.995 108.559 880.531 110.609 880.577 113.543C880.577 115.174 880.368 116.758 879.948 118.295C879.529 119.832 879.04 121.16 878.481 122.278C877.922 123.396 877.316 124.351 876.664 125.143C876.012 125.935 875.453 126.564 874.987 127.03C874.521 127.496 874.219 127.705 874.079 127.659C873.892 127.659 873.59 127.449 873.17 127.03C872.751 126.611 872.541 126.308 872.541 126.121C872.541 125.935 872.798 125.562 873.31 125.003C873.823 124.444 874.405 123.746 875.057 122.907C875.709 122.068 876.315 120.904 876.874 119.413C877.433 117.922 877.806 116.222 877.992 114.312V113.474L877.922 113.543C877.829 113.59 877.712 113.637 877.573 113.683C877.433 113.73 877.293 113.8 877.153 113.893C877.014 113.986 876.804 114.033 876.524 114.033C876.245 114.033 875.965 114.056 875.686 114.102C874.428 114.102 873.403 113.706 872.611 112.914L871.354 111.657Z" fill="white"/>
<path d="M898.445 94.0479C898.445 93.3957 898.795 92.2777 899.493 90.6938C900.192 89.1099 901.31 87.4561 902.848 85.7325C904.385 84.0088 906.109 83.1703 908.019 83.2169C909.929 83.2169 911.466 83.7526 912.63 84.8241C913.795 85.8955 914.401 87.3862 914.447 89.2962C914.354 90.1814 914.284 90.6705 914.238 90.7637C914.238 90.9034 913.865 91.9749 913.12 93.978C912.374 95.9812 911.606 98.2406 910.814 100.756C910.022 103.272 909.649 105.275 909.696 106.766C909.696 108.769 910.022 110.166 910.674 110.958C911.326 111.75 912.304 112.17 913.609 112.216C914.68 112.216 915.682 111.96 916.614 111.447C917.545 110.935 918.267 110.399 918.78 109.84C919.292 109.281 919.921 108.513 920.666 107.534C920.666 107.488 920.783 107.022 921.016 106.137C921.249 105.252 921.575 103.877 921.994 102.014C922.413 100.151 922.856 98.4269 923.322 96.843C925.092 89.8553 926.07 86.1983 926.257 85.8722C926.862 84.6144 927.864 83.9855 929.261 83.9855C929.867 83.9855 930.356 84.1486 930.729 84.4747C931.101 84.8008 931.358 85.0803 931.497 85.3132C931.637 85.5461 931.684 85.7558 931.637 85.9421C931.637 86.5477 930.496 91.4392 928.213 100.616C925.931 109.794 924.626 114.825 924.3 115.71C922.996 119.577 920.736 122.651 917.522 124.934C914.308 127.217 911.093 128.381 907.879 128.428C905.782 128.428 903.942 127.915 902.358 126.89C900.775 125.866 899.983 124.328 899.983 122.278C899.983 121.254 900.146 120.392 900.472 119.693C900.798 118.994 901.24 118.482 901.799 118.156C902.358 117.83 902.824 117.597 903.197 117.457C903.57 117.317 903.966 117.247 904.385 117.247C906.435 117.247 907.46 118.226 907.46 120.182C907.46 121.114 907.18 121.929 906.621 122.628C906.062 123.327 905.526 123.793 905.014 124.025C904.501 124.258 904.199 124.375 904.105 124.375L903.896 124.445C903.989 124.678 904.431 124.957 905.223 125.283C906.015 125.609 906.807 125.772 907.599 125.772H908.158C908.95 125.772 909.556 125.726 909.975 125.633C911.512 125.213 912.933 124.328 914.238 122.977C915.542 121.626 916.544 120.182 917.242 118.645C917.941 117.108 918.477 115.803 918.85 114.732C919.222 113.66 919.409 112.961 919.409 112.635L918.989 112.915C918.71 113.101 918.267 113.357 917.662 113.684C917.056 114.01 916.45 114.289 915.845 114.522C914.913 114.755 914.005 114.871 913.12 114.871C910.977 114.871 909.09 114.359 907.46 113.334C905.829 112.309 904.758 110.656 904.245 108.373C904.199 108.047 904.175 107.325 904.175 106.207C904.175 103.551 904.991 100.081 906.621 95.7949C908.251 91.509 909.067 88.7838 909.067 87.6192C909.067 87.5726 909.067 87.526 909.067 87.4794C909.067 87.0602 909.067 86.7806 909.067 86.6409C909.067 86.5011 908.974 86.3381 908.787 86.1517C908.601 85.9654 908.345 85.8722 908.019 85.8722H907.739C906.668 85.8722 905.689 86.3148 904.804 87.1999C903.919 88.085 903.22 89.04 902.708 90.0649C902.195 91.0898 901.799 92.0681 901.52 92.9998C901.24 93.9315 901.054 94.4439 900.961 94.5371C900.868 94.6302 900.495 94.6768 899.843 94.6768H898.865C898.585 94.3973 898.445 94.1877 898.445 94.0479Z" fill="white"/>
<path d="M935.411 61.7635L935.69 61.6936C935.923 61.6936 936.156 61.6936 936.389 61.6936H937.228L939.184 63.3707C943.563 67.3304 946.754 72.2684 948.758 78.1847C950.761 84.101 951.762 90.2503 951.762 96.6324C951.762 99.8002 951.529 102.852 951.064 105.786C950.598 108.721 950.062 111.214 949.456 113.263C948.851 115.313 947.989 117.363 946.871 119.413C945.753 121.462 944.868 123.023 944.215 124.094C943.563 125.166 942.608 126.354 941.351 127.658C940.093 128.963 939.347 129.731 939.114 129.964C938.882 130.197 938.346 130.64 937.507 131.292C937.367 131.432 937.274 131.525 937.228 131.571H936.389C936.017 131.571 935.76 131.571 935.621 131.571C935.481 131.571 935.364 131.501 935.271 131.362C935.178 131.222 935.108 131.012 935.062 130.733C935.108 130.686 935.364 130.383 935.83 129.824C943.051 122.324 946.661 111.26 946.661 96.6324C946.661 82.0047 943.051 70.9408 935.83 63.4405C935.364 62.8815 935.108 62.5787 935.062 62.5321C935.062 62.1595 935.178 61.9032 935.411 61.7635Z" fill="white"/>
<path d="M959.169 17.1128V12.7804H977.966V180.417H959.169V176.085H973.634V17.1128H959.169Z" fill="white"/>
</svg>
