<svg width="565" height="132" viewBox="0 0 565 132" fill="none" xmlns="http://www.w3.org/2000/svg">
<path d="M1.1061 88.4111H0.995488C0.553049 88.4111 0.22122 88.153 0 87.6369V60.7587L0.0553049 33.8805C0.424004 33.4012 0.774269 33.1615 1.1061 33.1615C1.58541 33.1615 1.95411 33.4381 2.2122 33.9911V87.6369C1.91724 88.153 1.58541 88.4111 1.21671 88.4111H1.1061Z" fill="white"/>
<path d="M26.0489 40.239C25.9752 40.2022 25.883 40.1469 25.7724 40.0731C25.6618 39.9994 25.5881 39.9256 25.5512 39.8519C25.5143 39.7782 25.4037 39.7413 25.2194 39.7413C25.035 39.7413 24.8322 39.686 24.611 39.5754C24.3898 39.4648 24.0948 39.4463 23.7261 39.5201C23.3574 39.5938 22.915 39.5754 22.3988 39.4648C21.8826 39.3541 21.2374 39.3357 20.4632 39.4095H18.9699V36.8654H19.6336C20.5185 36.976 23.5602 37.0313 28.7589 37.0313C33.9575 37.0313 36.9993 36.976 37.8842 36.8654H38.5478V39.4095H37.0546C35.4692 39.4095 34.2894 39.4463 33.5151 39.5201C32.7408 39.5938 32.28 39.6675 32.1325 39.7413C31.985 39.815 31.7822 39.9809 31.5241 40.239V45.1612L32.2984 45.2718C35.9854 45.7142 39.1193 46.9125 41.7002 48.8666C44.2811 50.8207 45.5716 53.1066 45.5716 55.7244C45.5716 57.2361 45.1476 58.6187 44.2996 59.8723C43.4515 61.1258 42.3639 62.1951 41.0366 63.0799C39.7093 63.9648 38.2898 64.6469 36.7781 65.1262C35.2664 65.6055 33.7732 65.9742 32.2984 66.2323L31.5241 66.3429V71.2651C31.7453 71.4863 31.9297 71.6338 32.0772 71.7075C32.2247 71.7813 32.704 71.8734 33.5151 71.984C34.3262 72.0946 35.5061 72.1315 37.0546 72.0946H38.5478V74.6387H37.8842C36.9993 74.5281 33.9575 74.4728 28.7589 74.4728C23.5602 74.4728 20.5185 74.5281 19.6336 74.6387H18.9699V72.0946H20.4632C21.2005 72.0946 21.8273 72.0946 22.3435 72.0946C22.8597 72.0946 23.3206 72.0762 23.7261 72.0393C24.1317 72.0025 24.4267 71.984 24.611 71.984C24.7954 71.984 24.9982 71.9287 25.2194 71.8181C25.4406 71.7075 25.5512 71.6522 25.5512 71.6522C25.5512 71.6522 25.6249 71.5969 25.7724 71.4863C25.9199 71.3757 26.0121 71.3019 26.0489 71.2651V66.3429H25.9383C25.9015 66.3061 25.5143 66.2508 24.7769 66.177C24.0395 66.1033 22.9887 65.8636 21.6246 65.4581C20.2604 65.0525 18.933 64.5179 17.6426 63.8542C17.237 63.633 16.7946 63.3565 16.3153 63.0246C15.836 62.6928 15.2276 62.1766 14.4902 61.4761C13.7528 60.7756 13.126 59.9276 12.6099 58.9321C12.0937 57.9366 11.854 56.8674 11.8909 55.7244C11.8909 53.0698 13.2182 50.7654 15.8728 48.8113C18.5275 46.8572 21.5877 45.6958 25.0535 45.3271C25.6065 45.2533 25.9015 45.198 25.9383 45.1612H26.0489V40.239ZM18.1957 55.7244C18.1957 60.7018 20.7212 63.5408 25.7724 64.2414H26.0489V47.2627H25.883C25.5881 47.2627 25.0903 47.3365 24.3898 47.484C23.6893 47.6314 22.7491 48.037 21.5692 48.7007C20.3894 49.3643 19.5598 50.2123 19.0805 51.2447C18.4906 52.4983 18.1957 53.9915 18.1957 55.7244ZM31.7453 64.2414C34.4 63.8358 36.3172 62.9509 37.4971 61.5867C38.6769 60.2225 39.2668 58.2684 39.2668 55.7244C39.2668 54.1759 39.0456 52.8485 38.6032 51.7424C38.1607 50.6363 37.5708 49.8068 36.8334 49.2537C36.096 48.7007 35.4139 48.2951 34.7871 48.037C34.1603 47.7789 33.4967 47.5946 32.7961 47.484C32.0956 47.3734 31.7453 47.2996 31.7453 47.2627H31.4688V64.2414H31.7453Z" fill="white"/>
<path d="M50.9146 42.5308C50.9146 42.5308 50.9146 42.3614 50.9146 42.0225C50.9146 41.6837 51.097 41.423 51.462 41.2405H63.153V35.3754L63.1921 29.5103C63.4528 29.1715 63.7004 29.002 63.935 29.002C64.2739 29.002 64.5346 29.1975 64.717 29.5885V41.2405H76.369C76.76 41.449 76.9555 41.7097 76.9555 42.0225C76.9555 42.3353 76.76 42.596 76.369 42.8045H64.717V54.4565C64.5085 54.8214 64.2739 55.0039 64.0132 55.0039H63.935H63.8568C63.544 55.0039 63.3094 54.8214 63.153 54.4565V42.8045H51.462C51.097 42.6221 50.9146 42.3614 50.9146 42.0225V42.5308Z" fill="white"/>
<path d="M84.9526 34.1584C84.9895 33.9003 85.1001 33.6791 85.2845 33.4947C85.4688 33.3104 85.7269 33.1998 86.0587 33.1629C86.4274 33.1629 86.7408 33.3472 86.9989 33.7159C87.1095 33.974 88.8424 38.509 92.1976 47.3209C95.5527 56.1328 97.2488 60.631 97.2856 60.8153C97.3225 60.9997 95.6449 65.4978 92.2529 74.3097C88.8608 83.1216 87.1095 87.6566 86.9989 87.9147C86.7408 88.2834 86.4274 88.4678 86.0587 88.4678C85.7638 88.4678 85.5241 88.3756 85.3398 88.1912C85.1554 88.0069 85.0264 87.7672 84.9526 87.4723C84.9526 87.2879 86.6118 82.8082 89.9301 74.0332C93.2852 65.295 94.9628 60.8891 94.9628 60.8153C94.9628 60.7416 93.2852 56.3356 89.9301 47.5975C86.6118 38.8224 84.9526 34.3427 84.9526 34.1584Z" fill="white"/>
<path d="M121.887 55.4489C121.887 54.9696 122.145 54.6009 122.661 54.3428H157.891C158.444 54.6378 158.72 55.0065 158.72 55.4489C158.72 55.8545 158.462 56.2048 157.946 56.4997L140.359 56.555H122.772C122.182 56.3707 121.887 56.002 121.887 55.4489ZM121.887 66.1781C121.887 65.625 122.182 65.2563 122.772 65.072H157.946C158.462 65.4407 158.72 65.8094 158.72 66.1781C158.72 66.6574 158.444 67.0261 157.891 67.2842H122.661C122.145 67.0261 121.887 66.6574 121.887 66.1781Z" fill="white"/>
<path d="M224.161 5.28964L223.442 5.56616C222.926 5.75051 222.189 5.93486 221.23 6.11921C220.272 6.30356 219.202 6.43261 218.022 6.50635H216.972V3.96232H218.022C219.755 3.88858 221.359 3.61206 222.834 3.13275C224.309 2.65344 225.341 2.211 225.931 1.80543C226.521 1.39986 227.037 0.994292 227.48 0.588723C227.553 0.478113 227.775 0.422809 228.143 0.422809C228.475 0.422809 228.788 0.533418 229.083 0.754638V17.2908L229.139 33.8823C229.397 34.1404 229.618 34.3063 229.802 34.38C229.987 34.4537 230.429 34.5275 231.13 34.6012C231.83 34.675 232.973 34.7118 234.559 34.7118H235.997V37.2559H235.388C234.614 37.1452 231.683 37.0899 226.595 37.0899C221.58 37.0899 218.686 37.1452 217.912 37.2559H217.248V34.7118H218.686C219.497 34.7118 220.198 34.7118 220.788 34.7118C221.378 34.7118 221.839 34.6934 222.17 34.6565C222.502 34.6197 222.797 34.5644 223.055 34.4906C223.313 34.4169 223.461 34.38 223.498 34.38C223.535 34.38 223.645 34.2878 223.829 34.1035C224.014 33.9191 224.124 33.8454 224.161 33.8823V5.28964Z" fill="white"/>
<path d="M241.444 99.3338C240.449 99.3338 239.656 99.0019 239.066 98.3383C238.476 97.6746 238.181 96.8635 238.181 95.9049C238.181 93.2871 239.158 91.0196 241.112 89.1024C243.066 87.1851 245.5 86.2265 248.413 86.2265C251.768 86.2265 254.57 87.2589 256.819 89.3236C259.068 91.3883 260.211 94.0614 260.248 97.3428C260.248 98.9282 259.879 100.44 259.142 101.878C258.404 103.316 257.519 104.569 256.487 105.639C255.455 106.708 253.98 108.072 252.063 109.731C250.735 110.874 248.892 112.57 246.532 114.819L243.269 117.916L247.472 117.972C253.261 117.972 256.34 117.879 256.708 117.695C256.966 117.621 257.409 115.981 258.036 112.773V112.607H260.248V112.773C260.211 112.883 259.971 114.561 259.529 117.806C259.086 121.05 258.81 122.746 258.699 122.894V123.06H238.181V122.009V121.345C238.181 121.087 238.292 120.811 238.513 120.516C238.734 120.221 239.287 119.575 240.172 118.58C241.241 117.4 242.163 116.368 242.937 115.483C243.269 115.114 243.896 114.432 244.818 113.437C245.739 112.441 246.366 111.759 246.698 111.39C247.03 111.022 247.565 110.413 248.302 109.565C249.039 108.717 249.556 108.09 249.85 107.685C250.145 107.279 250.569 106.726 251.122 106.026C251.676 105.325 252.063 104.735 252.284 104.256C252.505 103.777 252.782 103.242 253.113 102.652C253.445 102.062 253.685 101.472 253.832 100.882C253.98 100.292 254.109 99.7393 254.22 99.2232C254.33 98.707 254.385 98.0986 254.385 97.3981C254.385 95.0753 253.759 93.0659 252.505 91.3699C251.252 89.6739 249.463 88.8258 247.141 88.8258C245.924 88.8258 244.855 89.1392 243.933 89.766C243.011 90.3928 242.366 91.0012 241.997 91.5911C241.628 92.181 241.444 92.5313 241.444 92.6419C241.444 92.6788 241.536 92.6972 241.721 92.6972C242.384 92.6972 243.066 92.9553 243.767 93.4715C244.467 93.9876 244.818 94.8356 244.818 96.0155C244.818 96.9372 244.523 97.7115 243.933 98.3383C243.343 98.9651 242.513 99.2969 241.444 99.3338Z" fill="white"/>
<path d="M194.602 110.147C194.381 110.147 194.123 110 193.828 109.705C193.533 109.41 193.367 109.152 193.33 108.931C193.293 108.71 193.864 108.157 195.044 107.272C196.224 106.387 197.441 105.465 198.694 104.506C199.948 103.548 200.648 103.013 200.796 102.903C200.87 102.829 200.962 102.792 201.072 102.792H201.128C201.349 102.792 201.607 103.105 201.902 103.732C202.197 104.359 203.193 106.516 204.889 110.203C205.589 111.788 206.161 113.06 206.603 114.019L211.304 124.25C211.341 124.25 213.258 120.324 217.056 112.47C220.853 104.617 224.651 96.7084 228.448 88.7445C232.246 80.7806 234.219 76.7065 234.366 76.5221C234.587 76.0059 234.956 75.7478 235.472 75.7478C235.73 75.7478 235.951 75.8585 236.136 76.0797C236.32 76.3009 236.449 76.5221 236.523 76.7433V77.0752L223.637 103.787L210.64 130.666C210.493 130.924 210.142 131.053 209.589 131.053C209.258 131.053 209.036 130.997 208.926 130.887C208.852 130.813 207.045 126.905 203.506 119.162L198.197 107.548L197.312 108.157C196.759 108.599 196.187 109.041 195.597 109.484C195.007 109.926 194.676 110.147 194.602 110.147Z" fill="white"/>
<path d="M263.068 79.0635H235.416V75.7452H263.068V79.0635Z" fill="white"/>
<path d="M268.599 62.4727H183.816V59.1544H268.599V62.4727Z" fill="white"/>
<path d="M280.434 60.8153C280.434 58.2713 280.618 55.8563 280.987 53.5704C281.355 51.2845 281.779 49.3119 282.259 47.6528C282.738 45.9936 283.42 44.3713 284.305 42.7859C285.19 41.2005 285.89 39.9654 286.407 39.0805C286.923 38.1956 287.697 37.237 288.729 36.2047C289.762 35.1723 290.37 34.5455 290.554 34.3243C290.739 34.1031 291.2 33.7159 291.937 33.1629H292.656H292.877C293.393 33.1629 293.651 33.3288 293.651 33.6606C293.651 33.7712 293.338 34.1584 292.711 34.822C292.084 35.4857 291.329 36.4627 290.444 37.7532C289.559 39.0436 288.656 40.629 287.734 42.5094C286.812 44.3898 286.038 46.9338 285.411 50.1415C284.784 53.3492 284.471 56.9071 284.471 60.8153C284.471 64.7235 284.784 68.2631 285.411 71.4339C286.038 74.6047 286.794 77.1671 287.679 79.1212C288.563 81.0754 289.467 82.6608 290.388 83.8775C291.31 85.0942 292.084 86.0712 292.711 86.8086C293.338 87.546 293.651 87.9332 293.651 87.97C293.651 88.3019 293.375 88.4678 292.822 88.4678H292.656H291.937L290.388 87.1405C286.923 84.0065 284.397 80.0983 282.812 75.4158C281.226 70.7333 280.434 65.8665 280.434 60.8153Z" fill="white"/>
<path d="M304.437 88.4102H304.327C303.884 88.4102 303.552 88.1521 303.331 87.6359V60.7577L303.386 33.8795C303.755 33.4002 304.105 33.1606 304.437 33.1606C304.916 33.1606 305.285 33.4371 305.543 33.9901V87.6359C305.248 88.1521 304.916 88.4102 304.548 88.4102H304.437Z" fill="white"/>
<path d="M317.434 42.2854C319.498 39.2989 322.319 37.8057 325.895 37.8057C327.665 37.8057 329.435 38.285 331.205 39.2436C332.974 40.2022 334.412 41.8983 335.518 44.3317C336.883 47.3919 337.565 51.5951 337.565 56.9412C337.565 62.656 336.772 67.0251 335.186 70.0485C334.449 71.597 333.435 72.8321 332.145 73.7539C330.854 74.6756 329.73 75.2471 328.771 75.4683C327.813 75.6896 326.872 75.8186 325.951 75.8555C324.992 75.8555 324.033 75.7449 323.075 75.5236C322.116 75.3024 320.992 74.7125 319.701 73.7539C318.411 72.7953 317.397 71.5601 316.659 70.0485C315.074 67.0251 314.281 62.656 314.281 56.9412C314.281 50.5258 315.332 45.6406 317.434 42.2854ZM329.877 41.6217C328.771 40.4419 327.462 39.852 325.951 39.852C324.402 39.852 323.075 40.4419 321.969 41.6217C321.047 42.5804 320.439 43.9077 320.144 45.6037C319.849 47.2997 319.701 50.8392 319.701 56.2222C319.701 62.0477 319.849 65.8822 320.144 67.7256C320.439 69.5691 321.102 71.0255 322.135 72.0947C323.167 73.2008 324.439 73.7539 325.951 73.7539C327.425 73.7539 328.679 73.2008 329.711 72.0947C330.781 70.9886 331.444 69.4401 331.702 67.4491C331.96 65.4581 332.108 61.7158 332.145 56.2222C332.145 50.8761 331.997 47.355 331.702 45.659C331.407 43.963 330.799 42.6172 329.877 41.6217Z" fill="white"/>
<path d="M345.086 42.2854C347.151 39.2989 349.972 37.8057 353.548 37.8057C355.318 37.8057 357.088 38.285 358.857 39.2436C360.627 40.2022 362.065 41.8983 363.171 44.3317C364.535 47.3919 365.217 51.5951 365.217 56.9412C365.217 62.656 364.425 67.0251 362.839 70.0485C362.102 71.597 361.088 72.8321 359.798 73.7539C358.507 74.6756 357.383 75.2471 356.424 75.4683C355.465 75.6896 354.525 75.8186 353.603 75.8555C352.645 75.8555 351.686 75.7449 350.728 75.5236C349.769 75.3024 348.644 74.7125 347.354 73.7539C346.064 72.7953 345.05 71.5601 344.312 70.0485C342.727 67.0251 341.934 62.656 341.934 56.9412C341.934 50.5258 342.985 45.6406 345.086 42.2854ZM357.53 41.6217C356.424 40.4419 355.115 39.852 353.603 39.852C352.055 39.852 350.728 40.4419 349.621 41.6217C348.7 42.5804 348.091 43.9077 347.796 45.6037C347.501 47.2997 347.354 50.8392 347.354 56.2222C347.354 62.0477 347.501 65.8822 347.796 67.7256C348.091 69.5691 348.755 71.0255 349.787 72.0947C350.82 73.2008 352.092 73.7539 353.603 73.7539C355.078 73.7539 356.332 73.2008 357.364 72.0947C358.433 70.9886 359.097 69.4401 359.355 67.4491C359.613 65.4581 359.761 61.7158 359.798 56.2222C359.798 50.8761 359.65 47.355 359.355 45.659C359.06 43.963 358.452 42.6172 357.53 41.6217Z" fill="white"/>
<path d="M370.471 34.1584C370.508 33.9003 370.619 33.6791 370.803 33.4947C370.987 33.3104 371.245 33.1998 371.577 33.1629C371.946 33.1629 372.259 33.3472 372.517 33.7159C372.628 33.974 374.361 38.509 377.716 47.3209C381.071 56.1328 382.767 60.631 382.804 60.8153C382.841 60.9997 381.163 65.4978 377.771 74.3097C374.379 83.1216 372.628 87.6566 372.517 87.9147C372.259 88.2834 371.946 88.4678 371.577 88.4678C371.282 88.4678 371.043 88.3756 370.858 88.1912C370.674 88.0069 370.545 87.7672 370.471 87.4723C370.471 87.2879 372.13 82.8082 375.449 74.0332C378.804 65.295 380.481 60.8891 380.481 60.8153C380.481 60.7416 378.804 56.3356 375.449 47.5975C372.13 38.8224 370.471 34.3427 370.471 34.1584Z" fill="white"/>
<path d="M404.327 61.5345C404.327 61.5345 404.327 61.2948 404.327 60.8155C404.327 60.3362 404.585 59.9675 405.101 59.7094H421.637V51.4137L421.692 43.118C422.061 42.6387 422.411 42.399 422.743 42.399C423.222 42.399 423.591 42.6755 423.849 43.2286V59.7094H440.33C440.883 60.0044 441.16 60.3731 441.16 60.8155C441.16 61.258 440.883 61.6267 440.33 61.9216H423.849V78.4025C423.554 78.9187 423.222 79.1768 422.854 79.1768H422.743H422.633C422.19 79.1768 421.858 78.9187 421.637 78.4025V61.9216H405.101C404.585 61.6635 404.327 61.2948 404.327 60.8155V61.5345Z" fill="white"/>
<path d="M464.235 88.4102H464.124C463.682 88.4102 463.35 88.1521 463.129 87.6359V60.7577L463.184 33.8795C463.553 33.4002 463.903 33.1606 464.235 33.1606C464.714 33.1606 465.083 33.4371 465.341 33.9901V87.6359C465.046 88.1521 464.714 88.4102 464.346 88.4102H464.235Z" fill="white"/>
<path d="M483.702 42.6744L482.983 42.9509C482.467 43.1353 481.73 43.3196 480.771 43.504C479.813 43.6883 478.743 43.8174 477.563 43.8911H476.513V41.3471H477.563C479.296 41.2733 480.9 40.9968 482.375 40.5175C483.85 40.0382 484.882 39.5958 485.472 39.1902C486.062 38.7846 486.578 38.3791 487.021 37.9735C487.094 37.8629 487.316 37.8076 487.684 37.8076C488.016 37.8076 488.33 37.9182 488.624 38.1394V54.6756L488.68 71.267C488.938 71.5251 489.159 71.691 489.343 71.7648C489.528 71.8385 489.97 71.9123 490.671 71.986C491.371 72.0597 492.514 72.0966 494.1 72.0966H495.538V74.6406H494.929C494.155 74.53 491.224 74.4747 486.136 74.4747C481.121 74.4747 478.227 74.53 477.453 74.6406H476.789V72.0966H478.227C479.038 72.0966 479.739 72.0966 480.329 72.0966C480.919 72.0966 481.38 72.0782 481.711 72.0413C482.043 72.0044 482.338 71.9491 482.596 71.8754C482.854 71.8016 483.002 71.7648 483.039 71.7648C483.076 71.7648 483.186 71.6726 483.371 71.4882C483.555 71.3039 483.665 71.2302 483.702 71.267V42.6744Z" fill="white"/>
<path d="M511.354 42.6744L510.635 42.9509C510.119 43.1353 509.382 43.3196 508.423 43.504C507.464 43.6883 506.395 43.8174 505.215 43.8911H504.165V41.3471H505.215C506.948 41.2733 508.552 40.9968 510.027 40.5175C511.502 40.0382 512.534 39.5958 513.124 39.1902C513.714 38.7846 514.23 38.3791 514.672 37.9735C514.746 37.8629 514.967 37.8076 515.336 37.8076C515.668 37.8076 515.981 37.9182 516.276 38.1394V54.6756L516.332 71.267C516.59 71.5251 516.811 71.691 516.995 71.7648C517.18 71.8385 517.622 71.9123 518.323 71.986C519.023 72.0597 520.166 72.0966 521.752 72.0966H523.189V74.6406H522.581C521.807 74.53 518.876 74.4747 513.788 74.4747C508.773 74.4747 505.879 74.53 505.105 74.6406H504.441V72.0966H505.879C506.69 72.0966 507.391 72.0966 507.981 72.0966C508.571 72.0966 509.031 72.0782 509.363 72.0413C509.695 72.0044 509.99 71.9491 510.248 71.8754C510.506 71.8016 510.654 71.7648 510.691 71.7648C510.727 71.7648 510.838 71.6726 511.022 71.4882C511.207 71.3039 511.317 71.2302 511.354 71.267V42.6744Z" fill="white"/>
<path d="M530.269 34.1584C530.305 33.9003 530.416 33.6791 530.6 33.4947C530.785 33.3104 531.043 33.1998 531.375 33.1629C531.743 33.1629 532.057 33.3472 532.315 33.7159C532.425 33.974 534.158 38.509 537.513 47.3209C540.869 56.1328 542.565 60.631 542.602 60.8153C542.638 60.9997 540.961 65.4978 537.569 74.3097C534.177 83.1216 532.425 87.6566 532.315 87.9147C532.057 88.2834 531.743 88.4678 531.375 88.4678C531.08 88.4678 530.84 88.3756 530.656 88.1912C530.471 88.0069 530.342 87.7672 530.269 87.4723C530.269 87.2879 531.928 82.8082 535.246 74.0332C538.601 65.295 540.279 60.8891 540.279 60.8153C540.279 60.7416 538.601 56.3356 535.246 47.5975C531.928 38.8224 530.269 34.3427 530.269 34.1584Z" fill="white"/>
<path d="M552.059 33.2182L552.28 33.1629C552.464 33.1629 552.649 33.1629 552.833 33.1629H553.497L555.045 34.4902C558.511 37.6241 561.037 41.5324 562.622 46.2148C564.207 50.8973 565 55.7641 565 60.8153C565 63.3225 564.816 65.7375 564.447 68.0603C564.078 70.3831 563.654 72.3556 563.175 73.9779C562.696 75.6002 562.014 77.2224 561.129 78.8447C560.244 80.467 559.543 81.7021 559.027 82.5502C558.511 83.3982 557.755 84.3383 556.76 85.3707C555.764 86.4031 555.174 87.0114 554.99 87.1958C554.806 87.3801 554.382 87.7304 553.718 88.2466C553.607 88.3572 553.534 88.4309 553.497 88.4678H552.833C552.538 88.4678 552.335 88.4678 552.225 88.4678C552.114 88.4678 552.022 88.4125 551.948 88.3019C551.874 88.1912 551.819 88.0253 551.782 87.8041C551.819 87.7672 552.022 87.5276 552.391 87.0852C558.105 81.1491 560.963 72.3925 560.963 60.8153C560.963 49.2382 558.105 40.4816 552.391 34.5455C552.022 34.1031 551.819 33.8634 551.782 33.8265C551.782 33.5316 551.874 33.3288 552.059 33.2182Z" fill="white"/>
</svg>
