<svg width="559" height="130" viewBox="0 0 559 130" fill="none" xmlns="http://www.w3.org/2000/svg">
<path d="M1.09435 87.0557H0.984916C0.547176 87.0557 0.21887 86.8003 0 86.2896V59.6969L0.0547176 33.1041C0.419501 32.6299 0.766046 32.3928 1.09435 32.3928C1.56857 32.3928 1.93335 32.6664 2.1887 33.2136V86.2896C1.89688 86.8003 1.56857 87.0557 1.20379 87.0557H1.09435Z" fill="white"/>
<path d="M25.7701 39.3963C25.6972 39.3599 25.606 39.3051 25.4965 39.2322C25.3871 39.1592 25.3142 39.0863 25.2777 39.0133C25.2412 38.9404 25.1318 38.9039 24.9494 38.9039C24.767 38.9039 24.5663 38.8492 24.3475 38.7397C24.1286 38.6303 23.8368 38.6121 23.472 38.685C23.1072 38.758 22.6695 38.7397 22.1588 38.6303C21.6481 38.5209 21.0097 38.5026 20.2437 38.5756H18.7663V36.0586H19.4229C20.2984 36.168 23.3078 36.2227 28.4513 36.2227C33.5947 36.2227 36.6042 36.168 37.4797 36.0586H38.1363V38.5756H36.6589C35.0904 38.5756 33.9231 38.6121 33.157 38.685C32.391 38.758 31.935 38.8309 31.7891 38.9039C31.6432 38.9768 31.4425 39.141 31.1872 39.3963V44.2662L31.9532 44.3756C35.6011 44.8134 38.7017 45.9989 41.2552 47.9323C43.8087 49.8656 45.0854 52.1273 45.0854 54.7173C45.0854 56.2129 44.6659 57.5808 43.8269 58.8211C42.9879 60.0613 41.9118 61.1192 40.5986 61.9947C39.2854 62.8702 37.881 63.545 36.3853 64.0192C34.8897 64.4935 33.4124 64.8582 31.9532 65.1136L31.1872 65.223V70.0929C31.406 70.3118 31.5884 70.4577 31.7343 70.5306C31.8803 70.6036 32.3545 70.6948 33.157 70.8042C33.9595 70.9137 35.1268 70.9501 36.6589 70.9137H38.1363V73.4307H37.4797C36.6042 73.3212 33.5947 73.2665 28.4513 73.2665C23.3078 73.2665 20.2984 73.3212 19.4229 73.4307H18.7663V70.9137H20.2437C20.9732 70.9137 21.5934 70.9137 22.1041 70.9137C22.6148 70.9137 23.0707 70.8954 23.472 70.8589C23.8733 70.8225 24.1651 70.8042 24.3475 70.8042C24.5299 70.8042 24.7305 70.7495 24.9494 70.6401C25.1682 70.5306 25.2777 70.4759 25.2777 70.4759C25.2777 70.4759 25.3506 70.4212 25.4965 70.3118C25.6425 70.2023 25.7337 70.1294 25.7701 70.0929V65.223H25.6607C25.6242 65.1866 25.2412 65.1318 24.5116 65.0589C23.7821 64.9859 22.7424 64.7488 21.3927 64.3475C20.043 63.9463 18.7298 63.4174 17.4531 62.7607C17.0518 62.5419 16.6141 62.2683 16.1398 61.94C15.6656 61.6117 15.0637 61.101 14.3342 60.4079C13.6046 59.7148 12.9845 58.8758 12.4738 57.8909C11.9631 56.906 11.726 55.8481 11.7624 54.7173C11.7624 52.0908 13.0757 49.8109 15.7021 47.8776C18.3285 45.9442 21.3563 44.7951 24.7852 44.4304C25.3324 44.3574 25.6242 44.3027 25.6607 44.2662H25.7701V39.3963ZM18.0002 54.7173C18.0002 59.6418 20.499 62.4507 25.4965 63.1438H25.7701V46.3455H25.606C25.3142 46.3455 24.8217 46.4184 24.1286 46.5643C23.4355 46.7103 22.5053 47.1115 21.338 47.7681C20.1707 48.4247 19.3499 49.2637 18.8757 50.2851C18.2921 51.5254 18.0002 53.0028 18.0002 54.7173ZM31.406 63.1438C34.0325 62.7425 35.9294 61.867 37.0967 60.5173C38.264 59.1676 38.8476 57.2343 38.8476 54.7173C38.8476 53.1852 38.6288 51.8719 38.191 50.7776C37.7533 49.6832 37.1696 48.8625 36.4401 48.3153C35.7105 47.7681 35.0356 47.3669 34.4155 47.1115C33.7954 46.8562 33.1388 46.6738 32.4457 46.5643C31.7526 46.4549 31.406 46.382 31.406 46.3455H31.1325V63.1438H31.406Z" fill="white"/>
<path d="M51.4546 41.6657C51.4546 41.6657 51.4546 41.4981 51.4546 41.1628C51.4546 40.8275 51.6351 40.5696 51.9962 40.3891H74.4724C74.8592 40.5954 75.0526 40.8533 75.0526 41.1628C75.0526 41.4723 74.8592 41.7302 74.4724 41.9365H51.9962C51.6351 41.756 51.4546 41.4981 51.4546 41.1628V41.6657Z" fill="white"/>
<path d="M84.0518 33.3806C84.0882 33.1253 84.1977 32.9064 84.3801 32.724C84.5625 32.5416 84.8178 32.4322 85.1461 32.3957C85.5109 32.3957 85.821 32.5781 86.0763 32.9429C86.1857 33.1982 87.9002 37.6851 91.2198 46.4034C94.5393 55.1217 96.2173 59.5721 96.2538 59.7545C96.2903 59.9369 94.6305 64.3873 91.2745 73.1056C87.9185 81.8239 86.1857 86.3108 86.0763 86.5661C85.821 86.9309 85.5109 87.1133 85.1461 87.1133C84.8543 87.1133 84.6172 87.0221 84.4348 86.8397C84.2524 86.6573 84.1247 86.4202 84.0518 86.1284C84.0518 85.946 85.6933 81.5139 88.9763 72.832C92.2959 64.1866 93.9556 59.8275 93.9556 59.7545C93.9556 59.6815 92.2959 55.3224 88.9763 46.677C85.6933 37.9952 84.0518 33.563 84.0518 33.3806Z" fill="white"/>
<path d="M120.591 54.4457C120.591 53.9715 120.847 53.6067 121.357 53.3514H156.212C156.76 53.6432 157.033 54.008 157.033 54.4457C157.033 54.847 156.778 55.1935 156.267 55.4853L138.867 55.5401H121.467C120.883 55.3577 120.591 54.9929 120.591 54.4457ZM120.591 65.0609C120.591 64.5137 120.883 64.149 121.467 63.9666H156.267C156.778 64.3314 157.033 64.6961 157.033 65.0609C157.033 65.5351 156.76 65.8999 156.212 66.1553H121.357C120.847 65.8999 120.591 65.5351 120.591 65.0609Z" fill="white"/>
<path d="M221.781 4.81563L221.07 5.08922C220.559 5.27161 219.83 5.45401 218.881 5.6364C217.933 5.81879 216.875 5.94646 215.708 6.01942H214.668V3.50241H215.708C217.422 3.42946 219.009 3.15587 220.468 2.68165C221.927 2.20743 222.949 1.76969 223.532 1.36843C224.116 0.967165 224.627 0.565903 225.064 0.164641C225.137 0.0552058 225.356 0.000488274 225.721 0.000488274C226.049 0.000488274 226.359 0.109923 226.651 0.328794V16.6893L226.706 33.1046C226.961 33.36 227.18 33.5241 227.362 33.5971C227.545 33.67 227.983 33.743 228.676 33.8159C229.369 33.8889 230.5 33.9254 232.068 33.9254H233.491V36.4424H232.889C232.123 36.3329 229.223 36.2782 224.189 36.2782C219.228 36.2782 216.364 36.3329 215.598 36.4424H214.942V33.9254H216.364C217.167 33.9254 217.86 33.9254 218.443 33.9254C219.027 33.9254 219.483 33.9071 219.811 33.8707C220.14 33.8342 220.432 33.7795 220.687 33.7065C220.942 33.6335 221.088 33.5971 221.125 33.5971C221.161 33.5971 221.271 33.5059 221.453 33.3235C221.635 33.1411 221.745 33.0681 221.781 33.1046V4.81563Z" fill="white"/>
<path d="M238.88 97.8631C237.895 97.8631 237.111 97.5348 236.527 96.8782C235.944 96.2216 235.652 95.419 235.652 94.4706C235.652 91.8806 236.619 89.6372 238.552 87.7403C240.485 85.8435 242.893 84.895 245.775 84.895C249.094 84.895 251.866 85.9164 254.092 87.9592C256.317 90.002 257.448 92.6467 257.484 95.8932C257.484 97.4618 257.119 98.9574 256.39 100.38C255.66 101.803 254.785 103.043 253.763 104.101C252.742 105.159 251.283 106.508 249.386 108.15C248.073 109.281 246.249 110.959 243.914 113.184L240.686 116.248L244.844 116.303C250.572 116.303 253.617 116.212 253.982 116.029C254.238 115.956 254.675 114.333 255.295 111.159V110.995H257.484V111.159C257.448 111.269 257.211 112.929 256.773 116.139C256.335 119.349 256.062 121.027 255.952 121.173V121.337H235.652V120.297V119.641C235.652 119.385 235.761 119.112 235.98 118.82C236.199 118.528 236.746 117.89 237.622 116.905C238.68 115.737 239.592 114.716 240.358 113.841C240.686 113.476 241.306 112.801 242.218 111.816C243.13 110.831 243.75 110.156 244.078 109.792C244.407 109.427 244.936 108.825 245.665 107.986C246.395 107.147 246.905 106.527 247.197 106.125C247.489 105.724 247.909 105.177 248.456 104.484C249.003 103.791 249.386 103.207 249.605 102.733C249.824 102.259 250.097 101.73 250.426 101.146C250.754 100.562 250.991 99.9788 251.137 99.3952C251.283 98.8115 251.411 98.2643 251.52 97.7536C251.629 97.2429 251.684 96.6411 251.684 95.948C251.684 93.6498 251.064 91.6618 249.824 89.9838C248.583 88.3057 246.814 87.4667 244.516 87.4667C243.312 87.4667 242.254 87.7768 241.342 88.3969C240.431 89.0171 239.792 89.619 239.427 90.2026C239.063 90.7863 238.88 91.1328 238.88 91.2423C238.88 91.2787 238.971 91.297 239.154 91.297C239.81 91.297 240.485 91.5523 241.178 92.063C241.871 92.5737 242.218 93.4127 242.218 94.58C242.218 95.492 241.926 96.258 241.342 96.8782C240.759 97.4983 239.938 97.8266 238.88 97.8631Z" fill="white"/>
<path d="M192.533 108.56C192.314 108.56 192.059 108.414 191.767 108.122C191.475 107.83 191.311 107.575 191.275 107.356C191.238 107.137 191.804 106.59 192.971 105.715C194.138 104.839 195.342 103.927 196.582 102.979C197.822 102.03 198.516 101.501 198.661 101.392C198.734 101.319 198.826 101.282 198.935 101.282H198.99C199.209 101.282 199.464 101.593 199.756 102.213C200.048 102.833 201.033 104.967 202.711 108.615C203.404 110.183 203.969 111.442 204.407 112.39L209.058 122.513C209.094 122.513 210.991 118.628 214.748 110.858C218.506 103.088 222.263 95.2636 226.02 87.3842C229.778 79.5049 231.729 75.474 231.875 75.2917C232.094 74.781 232.459 74.5256 232.969 74.5256C233.225 74.5256 233.444 74.635 233.626 74.8539C233.808 75.0728 233.936 75.2917 234.009 75.5105V75.8388L221.26 102.267L208.401 128.86C208.255 129.115 207.909 129.243 207.362 129.243C207.033 129.243 206.814 129.188 206.705 129.079C206.632 129.006 204.845 125.139 201.343 117.479L196.09 105.988L195.214 106.59C194.667 107.028 194.102 107.466 193.518 107.903C192.934 108.341 192.606 108.56 192.533 108.56Z" fill="white"/>
<path d="M260.275 77.8066H232.916V74.5236H260.275V77.8066Z" fill="white"/>
<path d="M265.747 61.3945H181.865V58.1115H265.747V61.3945Z" fill="white"/>
<path d="M277.456 59.7545C277.456 57.2375 277.638 54.8482 278.003 52.5865C278.368 50.3248 278.788 48.3732 279.262 46.7317C279.736 45.0902 280.411 43.4851 281.286 41.9166C282.162 40.348 282.855 39.126 283.366 38.2505C283.876 37.375 284.642 36.4266 285.664 35.4052C286.685 34.3838 287.287 33.7637 287.469 33.5448C287.652 33.3259 288.108 32.9429 288.837 32.3957H289.549H289.768C290.278 32.3957 290.534 32.5599 290.534 32.8882C290.534 32.9976 290.223 33.3806 289.603 34.0372C288.983 34.6939 288.235 35.6605 287.36 36.9373C286.484 38.214 285.591 39.7826 284.679 41.643C283.767 43.5034 283.001 46.0204 282.381 49.194C281.761 52.3676 281.45 55.8878 281.45 59.7545C281.45 63.6212 281.761 67.1231 282.381 70.2603C283.001 73.3974 283.749 75.9327 284.624 77.866C285.5 79.7994 286.393 81.3679 287.305 82.5717C288.217 83.7755 288.983 84.7422 289.603 85.4718C290.223 86.2013 290.534 86.5843 290.534 86.6208C290.534 86.9491 290.26 87.1133 289.713 87.1133H289.549H288.837L287.305 85.8001C283.876 82.6994 281.377 78.8327 279.809 74.1999C278.24 69.5672 277.456 64.752 277.456 59.7545Z" fill="white"/>
<path d="M301.203 87.0557H301.094C300.656 87.0557 300.328 86.8003 300.109 86.2896V59.6969L300.164 33.1041C300.528 32.6299 300.875 32.3928 301.203 32.3928C301.677 32.3928 302.042 32.6664 302.298 33.2136V86.2896C302.006 86.8003 301.677 87.0557 301.313 87.0557H301.203Z" fill="white"/>
<path d="M314.063 41.4241C316.106 38.4694 318.896 36.992 322.435 36.992C324.185 36.992 325.936 37.4662 327.687 38.4147C329.438 39.3631 330.861 41.0411 331.955 43.4487C333.305 46.4764 333.98 50.6349 333.98 55.9243C333.98 61.5784 333.196 65.9011 331.627 68.8924C330.898 70.4244 329.894 71.6465 328.618 72.5584C327.341 73.4704 326.228 74.0358 325.28 74.2547C324.331 74.4735 323.401 74.6012 322.489 74.6377C321.541 74.6377 320.592 74.5283 319.644 74.3094C318.696 74.0905 317.583 73.5069 316.306 72.5584C315.029 71.61 314.026 70.388 313.297 68.8924C311.728 65.9011 310.944 61.5784 310.944 55.9243C310.944 49.577 311.983 44.7437 314.063 41.4241ZM326.374 40.7675C325.28 39.6002 323.985 39.0166 322.489 39.0166C320.957 39.0166 319.644 39.6002 318.55 40.7675C317.638 41.716 317.036 43.0292 316.744 44.7072C316.452 46.3852 316.306 49.8871 316.306 55.213C316.306 60.9765 316.452 64.7703 316.744 66.5942C317.036 68.4181 317.692 69.859 318.714 70.9169C319.735 72.0113 320.994 72.5584 322.489 72.5584C323.948 72.5584 325.189 72.0113 326.21 70.9169C327.268 69.8225 327.925 68.2905 328.18 66.3206C328.435 64.3508 328.581 60.6482 328.618 55.213C328.618 49.9236 328.472 46.4399 328.18 44.7619C327.888 43.0839 327.286 41.7524 326.374 40.7675Z" fill="white"/>
<path d="M341.422 41.4241C343.465 38.4694 346.256 36.992 349.794 36.992C351.545 36.992 353.296 37.4662 355.047 38.4147C356.798 39.3631 358.22 41.0411 359.315 43.4487C360.664 46.4764 361.339 50.6349 361.339 55.9243C361.339 61.5784 360.555 65.9011 358.986 68.8924C358.257 70.4244 357.254 71.6465 355.977 72.5584C354.7 73.4704 353.588 74.0358 352.639 74.2547C351.691 74.4735 350.761 74.6012 349.849 74.6377C348.9 74.6377 347.952 74.5283 347.003 74.3094C346.055 74.0905 344.942 73.5069 343.666 72.5584C342.389 71.61 341.386 70.388 340.656 68.8924C339.088 65.9011 338.303 61.5784 338.303 55.9243C338.303 49.577 339.343 44.7437 341.422 41.4241ZM353.734 40.7675C352.639 39.6002 351.344 39.0166 349.849 39.0166C348.317 39.0166 347.003 39.6002 345.909 40.7675C344.997 41.716 344.395 43.0292 344.103 44.7072C343.811 46.3852 343.666 49.8871 343.666 55.213C343.666 60.9765 343.811 64.7703 344.103 66.5942C344.395 68.4181 345.052 69.859 346.073 70.9169C347.095 72.0113 348.353 72.5584 349.849 72.5584C351.308 72.5584 352.548 72.0113 353.569 70.9169C354.627 69.8225 355.284 68.2905 355.539 66.3206C355.795 64.3508 355.941 60.6482 355.977 55.213C355.977 49.9236 355.831 46.4399 355.539 44.7619C355.247 43.0839 354.646 41.7524 353.734 40.7675Z" fill="white"/>
<path d="M366.536 33.3806C366.572 33.1253 366.682 32.9064 366.864 32.724C367.046 32.5416 367.302 32.4322 367.63 32.3957C367.995 32.3957 368.305 32.5781 368.56 32.9429C368.67 33.1982 370.384 37.6851 373.704 46.4034C377.023 55.1217 378.701 59.5721 378.738 59.7545C378.774 59.9369 377.114 64.3873 373.758 73.1056C370.402 81.8239 368.67 86.3108 368.56 86.5661C368.305 86.9309 367.995 87.1133 367.63 87.1133C367.338 87.1133 367.101 87.0221 366.919 86.8397C366.736 86.6573 366.609 86.4202 366.536 86.1284C366.536 85.946 368.177 81.5139 371.46 72.832C374.78 64.1866 376.44 59.8275 376.44 59.7545C376.44 59.6815 374.78 55.3224 371.46 46.677C368.177 37.9952 366.536 33.563 366.536 33.3806Z" fill="white"/>
<path d="M401.565 60.4627C401.565 60.4627 401.565 60.2256 401.565 59.7514C401.565 59.2771 401.821 58.9123 402.331 58.657H434.122C434.67 58.9488 434.943 59.3136 434.943 59.7514C434.943 60.1891 434.67 60.5539 434.122 60.8457H402.331C401.821 60.5904 401.565 60.2256 401.565 59.7514V60.4627Z" fill="white"/>
<path d="M459.303 87.0557H459.193C458.756 87.0557 458.427 86.8003 458.208 86.2896V59.6969L458.263 33.1041C458.628 32.6299 458.975 32.3928 459.303 32.3928C459.777 32.3928 460.142 32.6664 460.397 33.2136V86.2896C460.105 86.8003 459.777 87.0557 459.412 87.0557H459.303Z" fill="white"/>
<path d="M478.566 41.8039L477.855 42.0775C477.344 42.2599 476.614 42.4423 475.666 42.6247C474.717 42.8071 473.66 42.9347 472.492 43.0077H471.453V40.4907H472.492C474.207 40.4177 475.794 40.1441 477.253 39.6699C478.712 39.1957 479.733 38.758 480.317 38.3567C480.901 37.9554 481.411 37.5542 481.849 37.1529C481.922 37.0435 482.141 36.9888 482.506 36.9888C482.834 36.9888 483.144 37.0982 483.436 37.3171V53.6776L483.491 70.0929C483.746 70.3482 483.965 70.5124 484.147 70.5854C484.33 70.6583 484.767 70.7313 485.46 70.8042C486.153 70.8772 487.284 70.9137 488.853 70.9137H490.275V73.4307H489.674C488.908 73.3212 486.008 73.2665 480.973 73.2665C476.012 73.2665 473.149 73.3212 472.383 73.4307H471.726V70.9137H473.149C473.951 70.9137 474.644 70.9137 475.228 70.9137C475.812 70.9137 476.268 70.8954 476.596 70.8589C476.924 70.8225 477.216 70.7677 477.472 70.6948C477.727 70.6218 477.873 70.5854 477.909 70.5854C477.946 70.5854 478.055 70.4942 478.238 70.3118C478.42 70.1294 478.529 70.0564 478.566 70.0929V41.8039Z" fill="white"/>
<path d="M505.925 41.8039L505.214 42.0775C504.703 42.2599 503.974 42.4423 503.025 42.6247C502.077 42.8071 501.019 42.9347 499.852 43.0077H498.812V40.4907H499.852C501.566 40.4177 503.153 40.1441 504.612 39.6699C506.071 39.1957 507.093 38.758 507.676 38.3567C508.26 37.9554 508.771 37.5542 509.208 37.1529C509.281 37.0435 509.5 36.9888 509.865 36.9888C510.193 36.9888 510.503 37.0982 510.795 37.3171V53.6776L510.85 70.0929C511.105 70.3482 511.324 70.5124 511.506 70.5854C511.689 70.6583 512.127 70.7313 512.82 70.8042C513.513 70.8772 514.644 70.9137 516.212 70.9137H517.635V73.4307H517.033C516.267 73.3212 513.367 73.2665 508.333 73.2665C503.372 73.2665 500.508 73.3212 499.742 73.4307H499.086V70.9137H500.508C501.311 70.9137 502.004 70.9137 502.588 70.9137C503.171 70.9137 503.627 70.8954 503.955 70.8589C504.284 70.8225 504.576 70.7677 504.831 70.6948C505.086 70.6218 505.232 70.5854 505.269 70.5854C505.305 70.5854 505.415 70.4942 505.597 70.3118C505.779 70.1294 505.889 70.0564 505.925 70.0929V41.8039Z" fill="white"/>
<path d="M524.639 33.3806C524.675 33.1253 524.785 32.9064 524.967 32.724C525.149 32.5416 525.405 32.4322 525.733 32.3957C526.098 32.3957 526.408 32.5781 526.663 32.9429C526.773 33.1982 528.487 37.6851 531.807 46.4034C535.126 55.1217 536.804 59.5721 536.841 59.7545C536.877 59.9369 535.217 64.3873 531.861 73.1056C528.505 81.8239 526.773 86.3108 526.663 86.5661C526.408 86.9309 526.098 87.1133 525.733 87.1133C525.441 87.1133 525.204 87.0221 525.022 86.8397C524.839 86.6573 524.712 86.4202 524.639 86.1284C524.639 85.946 526.28 81.5139 529.563 72.832C532.883 64.1866 534.543 59.8275 534.543 59.7545C534.543 59.6815 532.883 55.3224 529.563 46.677C526.28 37.9952 524.639 33.563 524.639 33.3806Z" fill="white"/>
<path d="M546.196 32.4504L546.415 32.3957C546.597 32.3957 546.78 32.3957 546.962 32.3957H547.619L549.151 33.7089C552.58 36.8096 555.078 40.6763 556.647 45.3091C558.216 49.9418 559 54.757 559 59.7545C559 62.235 558.817 64.6244 558.453 66.9225C558.088 69.2206 557.668 71.1722 557.194 72.7773C556.72 74.3823 556.045 75.9874 555.17 77.5924C554.294 79.1975 553.601 80.4195 553.09 81.2585C552.58 82.0975 551.832 83.0277 550.847 84.0491C549.862 85.0705 549.278 85.6724 549.096 85.8548C548.914 86.0372 548.494 86.3837 547.837 86.8944C547.728 87.0038 547.655 87.0768 547.619 87.1133H546.962C546.67 87.1133 546.47 87.1133 546.36 87.1133C546.251 87.1133 546.159 87.0586 546.087 86.9491C546.014 86.8397 545.959 86.6755 545.922 86.4567C545.959 86.4202 546.159 86.1831 546.524 85.7453C552.178 79.8723 555.005 71.2087 555.005 59.7545C555.005 48.3003 552.178 39.6367 546.524 33.7637C546.159 33.3259 545.959 33.0888 545.922 33.0523C545.922 32.7605 546.014 32.5599 546.196 32.4504Z" fill="white"/>
</svg>
