<svg width="563" height="130" viewBox="0 0 563 130" fill="none" xmlns="http://www.w3.org/2000/svg">
<path d="M1.09617 87.2012H0.986553C0.548085 87.2012 0.219234 86.9454 0 86.4339V59.7969L0.0548085 33.16C0.420198 32.685 0.767319 32.4475 1.09617 32.4475C1.57118 32.4475 1.93657 32.7215 2.19234 33.2696V86.4339C1.90003 86.9454 1.57118 87.2012 1.20579 87.2012H1.09617Z" fill="white"/>
<path d="M27.348 39.4628C27.2749 39.4263 27.1835 39.3715 27.0739 39.2984C26.9643 39.2253 26.8912 39.1523 26.8547 39.0792C26.8181 39.0061 26.7085 38.9696 26.5258 38.9696C26.3431 38.9696 26.1422 38.9147 25.9229 38.8051C25.7037 38.6955 25.4114 38.6772 25.046 38.7503C24.6806 38.8234 24.2421 38.8051 23.7306 38.6955C23.2191 38.5859 22.5796 38.5676 21.8123 38.6407H20.3325V36.1195H20.9902C21.8671 36.2291 24.8816 36.2839 30.0336 36.2839C35.1856 36.2839 38.2 36.2291 39.077 36.1195H39.7347V38.6407H38.2548C36.0625 38.6407 34.6923 38.6772 34.1442 38.7503C33.5961 38.8234 33.1394 39.0609 32.774 39.4628L32.7192 51.2467C32.7192 59.1025 32.7375 63.0305 32.774 63.0305C32.9202 62.9939 33.1028 62.9391 33.3221 62.8661C33.5413 62.793 33.9981 62.5737 34.6923 62.2084C35.3865 61.843 35.9894 61.3862 36.501 60.8381C37.0125 60.2901 37.5423 59.4862 38.0904 58.4266C38.6385 57.3669 39.0222 56.1246 39.2414 54.6996C39.351 53.9323 39.4424 52.5986 39.5154 50.6986C39.5885 48.7985 39.7895 47.4101 40.1183 46.5331C40.6299 44.962 41.4885 44.0302 42.6943 43.7379C42.9501 43.6648 43.8818 43.6283 45.4896 43.6283H47.9011L48.2848 43.9571V45.3273C47.9925 45.5466 47.7367 45.6562 47.5175 45.6562C46.4944 45.8023 45.8184 46.4052 45.4896 47.4649C45.1607 48.5245 44.9232 50.0591 44.7771 52.0688C44.6309 54.0784 44.3751 55.6313 44.0097 56.7275C42.3655 61.4776 38.8395 64.2911 33.4317 65.168L32.7192 65.2776V67.744L32.774 70.2104C33.0298 70.4662 33.249 70.6306 33.4317 70.7037C33.6144 70.7767 34.0711 70.8498 34.8019 70.9229C35.5327 70.996 36.6837 71.0325 38.2548 71.0325H39.7347V73.5537H39.077C38.2 73.4441 35.1856 73.3893 30.0336 73.3893C24.8816 73.3893 21.8671 73.4441 20.9902 73.5537H20.3325V71.0325H21.8123C22.5431 71.0325 23.1642 71.0325 23.6758 71.0325C24.1873 71.0325 24.6441 71.0143 25.046 70.9777C25.4479 70.9412 25.7402 70.9229 25.9229 70.9229C26.1056 70.9229 26.3066 70.8681 26.5258 70.7585C26.7451 70.6489 26.8547 70.5941 26.8547 70.5941C26.8547 70.5941 26.9278 70.5392 27.0739 70.4296C27.2201 70.32 27.3114 70.2469 27.348 70.2104V65.2776C19.5286 64.2911 15.4545 59.6324 15.1257 51.3015C15.0526 47.7572 14.1757 45.8754 12.4949 45.6562C11.9833 45.6562 11.7275 45.3456 11.7275 44.7244C11.7275 44.1764 11.8006 43.8658 11.9468 43.7927C12.0929 43.7196 12.5862 43.6648 13.4266 43.6283H14.5776H15.2901C16.3863 43.6283 17.1353 43.6831 17.5372 43.7927C17.9392 43.9023 18.3594 44.1764 18.7978 44.6148C19.3094 45.1264 19.6748 45.7658 19.894 46.5331C20.1863 47.3004 20.3507 48.6341 20.3873 50.5341C20.4238 52.4342 20.6613 54.3342 21.0998 56.2342C21.5383 58.1343 22.3787 59.7054 23.621 60.9478C24.1691 61.4593 24.7354 61.8795 25.32 62.2084C25.9047 62.5372 26.3979 62.7747 26.7999 62.9209L27.2931 63.0305C27.3297 63.0305 27.348 59.1025 27.348 51.2467V39.4628Z" fill="white"/>
<path d="M53.5259 41.7326C53.5259 41.7326 53.5259 41.5647 53.5259 41.2289C53.5259 40.8931 53.7067 40.6347 54.0684 40.4539H65.6545V34.6414L65.6933 28.829C65.9516 28.4932 66.197 28.3253 66.4295 28.3253C66.7653 28.3253 67.0237 28.519 67.2045 28.9065V40.4539H78.7519C79.1394 40.6606 79.3331 40.9189 79.3331 41.2289C79.3331 41.5389 79.1394 41.7972 78.7519 42.0039H67.2045V53.5513C66.9978 53.9129 66.7653 54.0938 66.507 54.0938H66.4295H66.352C66.042 54.0938 65.8095 53.9129 65.6545 53.5513V42.0039H54.0684C53.7067 41.823 53.5259 41.5647 53.5259 41.2289V41.7326Z" fill="white"/>
<path d="M87.2612 33.432C87.2978 33.1762 87.4074 32.957 87.5901 32.7743C87.7728 32.5916 88.0285 32.482 88.3574 32.4454C88.7228 32.4454 89.0334 32.6281 89.2891 32.9935C89.3988 33.2493 91.1161 37.7436 94.4411 46.4764C97.7662 55.2092 99.447 59.667 99.4835 59.8497C99.5201 60.0324 97.8575 64.4901 94.496 73.2229C91.1344 81.9558 89.3988 86.45 89.2891 86.7058C89.0334 87.0712 88.7228 87.2539 88.3574 87.2539C88.0651 87.2539 87.8276 87.1626 87.6449 86.9799C87.4622 86.7972 87.3343 86.5597 87.2612 86.2674C87.2612 86.0847 88.9055 81.6452 92.194 72.9489C95.519 64.2892 97.1816 59.9227 97.1816 59.8497C97.1816 59.7766 95.519 55.4102 92.194 46.7504C88.9055 38.0542 87.2612 33.6147 87.2612 33.432Z" fill="white"/>
<path d="M123.863 54.5347C123.863 54.0596 124.119 53.6943 124.63 53.4385H159.543C160.091 53.7308 160.365 54.0962 160.365 54.5347C160.365 54.9366 160.109 55.2837 159.598 55.576L142.169 55.6308H124.74C124.155 55.4481 123.863 55.0827 123.863 54.5347ZM123.863 65.1675C123.863 64.6194 124.155 64.254 124.74 64.0713H159.598C160.109 64.4367 160.365 64.8021 160.365 65.1675C160.365 65.6425 160.091 66.0079 159.543 66.2637H124.63C124.119 66.0079 123.863 65.6425 123.863 65.1675Z" fill="white"/>
<path d="M225.219 4.82362L224.506 5.09766C223.995 5.28036 223.264 5.46305 222.314 5.64575C221.364 5.82844 220.304 5.95633 219.135 6.02941H218.094V3.50822H219.135C220.852 3.43514 222.442 3.1611 223.903 2.68609C225.365 2.21108 226.388 1.77261 226.973 1.37069C227.557 0.968756 228.069 0.566827 228.507 0.164898C228.58 0.0552814 228.8 0.000472881 229.165 0.000472881C229.494 0.000472881 229.804 0.11009 230.097 0.329324V16.7171L230.152 33.1596C230.407 33.4154 230.627 33.5798 230.809 33.6529C230.992 33.726 231.43 33.799 232.125 33.8721C232.819 33.9452 233.952 33.9817 235.523 33.9817H236.948V36.5029H236.345C235.578 36.3933 232.673 36.3385 227.63 36.3385C222.661 36.3385 219.793 36.3933 219.025 36.5029H218.368V33.9817H219.793C220.597 33.9817 221.291 33.9817 221.876 33.9817C222.46 33.9817 222.917 33.9635 223.246 33.9269C223.575 33.8904 223.867 33.8356 224.123 33.7625C224.378 33.6894 224.525 33.6529 224.561 33.6529C224.598 33.6529 224.707 33.5615 224.89 33.3788C225.073 33.1962 225.182 33.1231 225.219 33.1596V4.82362Z" fill="white"/>
<path d="M242.346 98.0282C241.359 98.0282 240.573 97.6993 239.989 97.0416C239.404 96.3839 239.112 95.5801 239.112 94.63C239.112 92.0358 240.08 89.7886 242.017 87.8886C243.953 85.9886 246.365 85.0386 249.251 85.0386C252.576 85.0386 255.353 86.0617 257.582 88.1078C259.811 90.154 260.944 92.8031 260.98 96.0551C260.98 97.6262 260.615 99.1243 259.884 100.549C259.153 101.974 258.277 103.217 257.253 104.276C256.23 105.336 254.769 106.688 252.869 108.332C251.553 109.465 249.726 111.146 247.388 113.375L244.154 116.444L248.32 116.499C254.056 116.499 257.107 116.407 257.473 116.225C257.728 116.152 258.167 114.526 258.788 111.347V111.182H260.98V111.347C260.944 111.456 260.706 113.119 260.268 116.334C259.829 119.55 259.555 121.23 259.446 121.377V121.541H239.112V120.5V119.842C239.112 119.586 239.221 119.312 239.441 119.02C239.66 118.728 240.208 118.088 241.085 117.102C242.145 115.932 243.058 114.909 243.825 114.032C244.154 113.667 244.775 112.991 245.689 112.004C246.602 111.018 247.223 110.342 247.552 109.976C247.881 109.611 248.411 109.008 249.142 108.168C249.873 107.327 250.384 106.706 250.676 106.304C250.969 105.902 251.389 105.354 251.937 104.66C252.485 103.966 252.869 103.381 253.088 102.906C253.307 102.431 253.581 101.901 253.91 101.317C254.239 100.732 254.476 100.147 254.623 99.5628C254.769 98.9782 254.897 98.4301 255.006 97.9186C255.116 97.407 255.171 96.8041 255.171 96.1099C255.171 93.8079 254.55 91.8165 253.307 90.1357C252.065 88.455 250.293 87.6146 247.991 87.6146C246.785 87.6146 245.725 87.9251 244.812 88.5463C243.898 89.1675 243.259 89.7704 242.894 90.355C242.528 90.9396 242.346 91.2867 242.346 91.3963C242.346 91.4329 242.437 91.4512 242.62 91.4512C243.277 91.4512 243.953 91.7069 244.647 92.2185C245.342 92.73 245.689 93.5704 245.689 94.7397C245.689 95.6531 245.397 96.4205 244.812 97.0416C244.227 97.6628 243.405 97.9916 242.346 98.0282Z" fill="white"/>
<path d="M195.923 108.74C195.704 108.74 195.448 108.594 195.156 108.302C194.864 108.01 194.699 107.754 194.663 107.535C194.626 107.315 195.193 106.767 196.362 105.89C197.531 105.013 198.737 104.1 199.979 103.15C201.222 102.2 201.916 101.67 202.062 101.56C202.135 101.487 202.226 101.451 202.336 101.451H202.391C202.61 101.451 202.866 101.761 203.158 102.383C203.45 103.004 204.437 105.141 206.118 108.795C206.812 110.366 207.378 111.627 207.817 112.577L212.476 122.717C212.512 122.717 214.412 118.825 218.176 111.042C221.939 103.26 225.703 95.4219 229.466 87.5295C233.23 79.6371 235.185 75.5995 235.331 75.4168C235.55 74.9053 235.915 74.6495 236.427 74.6495C236.683 74.6495 236.902 74.7591 237.085 74.9784C237.267 75.1976 237.395 75.4168 237.468 75.6361V75.9649L224.698 102.437L211.818 129.074C211.672 129.33 211.325 129.458 210.776 129.458C210.448 129.458 210.228 129.403 210.119 129.294C210.046 129.221 208.255 125.347 204.748 117.674L199.486 106.164L198.609 106.767C198.061 107.206 197.495 107.644 196.91 108.083C196.325 108.521 195.996 108.74 195.923 108.74Z" fill="white"/>
<path d="M263.776 77.9395H236.372V74.6509H263.776V77.9395Z" fill="white"/>
<path d="M269.258 61.4932H185.237V58.2047H269.258V61.4932Z" fill="white"/>
<path d="M280.986 59.8497C280.986 57.3285 281.169 54.9352 281.534 52.6698C281.899 50.4043 282.32 48.4495 282.795 46.8052C283.27 45.161 283.945 43.5533 284.822 41.9821C285.699 40.4109 286.394 39.1869 286.905 38.3099C287.417 37.433 288.184 36.483 289.207 35.4599C290.23 34.4368 290.833 33.8156 291.016 33.5964C291.198 33.3772 291.655 32.9935 292.386 32.4454H293.099H293.318C293.829 32.4454 294.085 32.6099 294.085 32.9387C294.085 33.0483 293.774 33.432 293.153 34.0897C292.532 34.7474 291.783 35.7157 290.906 36.9945C290.029 38.2734 289.134 39.8446 288.221 41.7081C287.307 43.5715 286.54 46.0927 285.919 49.2716C285.297 52.4505 284.987 55.9765 284.987 59.8497C284.987 63.7228 285.297 67.2305 285.919 70.3729C286.54 73.5152 287.289 76.0547 288.166 77.9913C289.043 79.9278 289.938 81.499 290.851 82.7048C291.765 83.9106 292.532 84.8789 293.153 85.6097C293.774 86.3404 294.085 86.7241 294.085 86.7606C294.085 87.0895 293.811 87.2539 293.263 87.2539H293.099H292.386L290.851 85.9385C287.417 82.8327 284.914 78.9596 283.343 74.3191C281.771 69.6787 280.986 64.8555 280.986 59.8497Z" fill="white"/>
<path d="M304.772 87.2012H304.663C304.224 87.2012 303.896 86.9454 303.676 86.4339V59.7969L303.731 33.16C304.096 32.685 304.444 32.4475 304.772 32.4475C305.247 32.4475 305.613 32.7215 305.869 33.2696V86.4339C305.576 86.9454 305.247 87.2012 304.882 87.2012H304.772Z" fill="white"/>
<path d="M317.653 41.4881C319.7 38.5284 322.495 37.0486 326.039 37.0486C327.793 37.0486 329.547 37.5236 331.301 38.4736C333.055 39.4236 334.48 41.1044 335.576 43.516C336.928 46.5487 337.604 50.7142 337.604 56.0123C337.604 61.6759 336.818 66.0057 335.247 69.0019C334.516 70.5366 333.511 71.7606 332.232 72.6741C330.954 73.5876 329.839 74.1539 328.889 74.3732C327.939 74.5924 327.007 74.7203 326.094 74.7568C325.144 74.7568 324.194 74.6472 323.244 74.428C322.294 74.2088 321.179 73.6241 319.901 72.6741C318.622 71.7241 317.617 70.5 316.886 69.0019C315.315 66.0057 314.529 61.6759 314.529 56.0123C314.529 49.6545 315.571 44.8131 317.653 41.4881ZM329.985 40.8304C328.889 39.6611 327.592 39.0765 326.094 39.0765C324.559 39.0765 323.244 39.6611 322.148 40.8304C321.234 41.7804 320.631 43.0958 320.339 44.7766C320.047 46.4574 319.901 49.9651 319.901 55.2998C319.901 61.073 320.047 64.873 320.339 66.7C320.631 68.5269 321.289 69.9702 322.312 71.0299C323.335 72.126 324.596 72.6741 326.094 72.6741C327.555 72.6741 328.798 72.126 329.821 71.0299C330.88 69.9337 331.538 68.3991 331.794 66.4259C332.05 64.4528 332.196 60.7441 332.232 55.2998C332.232 50.0017 332.086 46.5122 331.794 44.8314C331.502 43.1506 330.899 41.8169 329.985 40.8304Z" fill="white"/>
<path d="M351.469 41.8715L350.757 42.1455C350.245 42.3282 349.515 42.5109 348.564 42.6936C347.614 42.8763 346.555 43.0042 345.386 43.0773H344.344V40.5561H345.386C347.103 40.483 348.692 40.2089 350.154 39.7339C351.615 39.2589 352.639 38.8205 353.223 38.4185C353.808 38.0166 354.319 37.6147 354.758 37.2127C354.831 37.1031 355.05 37.0483 355.416 37.0483C355.744 37.0483 356.055 37.1579 356.347 37.3772V53.7649L356.402 70.2075C356.658 70.4632 356.877 70.6277 357.06 70.7007C357.243 70.7738 357.681 70.8469 358.375 70.92C359.069 70.9931 360.202 71.0296 361.773 71.0296H363.198V73.5508H362.595C361.828 73.4412 358.923 73.3864 353.881 73.3864C348.912 73.3864 346.043 73.4412 345.276 73.5508H344.618V71.0296H346.043C346.847 71.0296 347.541 71.0296 348.126 71.0296C348.711 71.0296 349.167 71.0113 349.496 70.9748C349.825 70.9382 350.117 70.8834 350.373 70.8104C350.629 70.7373 350.775 70.7007 350.812 70.7007C350.848 70.7007 350.958 70.6094 351.14 70.4267C351.323 70.244 351.433 70.1709 351.469 70.2075V41.8715Z" fill="white"/>
<path d="M370.215 33.432C370.252 33.1762 370.361 32.957 370.544 32.7743C370.727 32.5916 370.983 32.482 371.312 32.4454C371.677 32.4454 371.987 32.6281 372.243 32.9935C372.353 33.2493 374.07 37.7436 377.395 46.4764C380.72 55.2092 382.401 59.667 382.438 59.8497C382.474 60.0324 380.812 64.4901 377.45 73.2229C374.088 81.9558 372.353 86.45 372.243 86.7058C371.987 87.0712 371.677 87.2539 371.312 87.2539C371.019 87.2539 370.782 87.1626 370.599 86.9799C370.416 86.7972 370.288 86.5597 370.215 86.2674C370.215 86.0847 371.86 81.6452 375.148 72.9489C378.473 64.2892 380.136 59.9227 380.136 59.8497C380.136 59.7766 378.473 55.4102 375.148 46.7504C371.86 38.0542 370.215 33.6147 370.215 33.432Z" fill="white"/>
<path d="M403.769 60.56C403.769 60.56 403.769 60.3225 403.769 59.8475C403.769 59.3725 404.024 59.0071 404.536 58.7514H420.924V50.5301L420.978 42.3088C421.344 41.8338 421.691 41.5963 422.02 41.5963C422.495 41.5963 422.86 41.8703 423.116 42.4184V58.7514H439.449C439.997 59.0437 440.271 59.4091 440.271 59.8475C440.271 60.286 439.997 60.6514 439.449 60.9437H423.116V77.2766C422.824 77.7882 422.495 78.0439 422.129 78.0439H422.02H421.91C421.472 78.0439 421.143 77.7882 420.924 77.2766V60.9437H404.536C404.024 60.6879 403.769 60.3225 403.769 59.8475V60.56Z" fill="white"/>
<path d="M463.137 87.2012H463.028C462.589 87.2012 462.26 86.9454 462.041 86.4339V59.7969L462.096 33.16C462.461 32.685 462.808 32.4475 463.137 32.4475C463.612 32.4475 463.978 32.7215 464.233 33.2696V86.4339C463.941 86.9454 463.612 87.2012 463.247 87.2012H463.137Z" fill="white"/>
<path d="M482.429 41.8715L481.717 42.1455C481.205 42.3282 480.474 42.5109 479.524 42.6936C478.574 42.8763 477.515 43.0042 476.346 43.0773H475.304V40.5561H476.346C478.063 40.483 479.652 40.2089 481.114 39.7339C482.575 39.2589 483.599 38.8205 484.183 38.4185C484.768 38.0166 485.279 37.6147 485.718 37.2127C485.791 37.1031 486.01 37.0483 486.376 37.0483C486.704 37.0483 487.015 37.1579 487.307 37.3772V53.7649L487.362 70.2075C487.618 70.4632 487.837 70.6277 488.02 70.7007C488.202 70.7738 488.641 70.8469 489.335 70.92C490.029 70.9931 491.162 71.0296 492.733 71.0296H494.158V73.5508H493.555C492.788 73.4412 489.883 73.3864 484.841 73.3864C479.872 73.3864 477.003 73.4412 476.236 73.5508H475.578V71.0296H477.003C477.807 71.0296 478.501 71.0296 479.086 71.0296C479.671 71.0296 480.127 71.0113 480.456 70.9748C480.785 70.9382 481.077 70.8834 481.333 70.8104C481.589 70.7373 481.735 70.7007 481.772 70.7007C481.808 70.7007 481.918 70.6094 482.1 70.4267C482.283 70.244 482.393 70.1709 482.429 70.2075V41.8715Z" fill="white"/>
<path d="M503.421 41.4881C505.467 38.5284 508.262 37.0486 511.807 37.0486C513.561 37.0486 515.314 37.5236 517.068 38.4736C518.822 39.4236 520.247 41.1044 521.343 43.516C522.695 46.5487 523.371 50.7142 523.371 56.0123C523.371 61.6759 522.586 66.0057 521.014 69.0019C520.284 70.5366 519.279 71.7606 518 72.6741C516.721 73.5876 515.607 74.1539 514.657 74.3732C513.707 74.5924 512.775 74.7203 511.861 74.7568C510.911 74.7568 509.961 74.6472 509.011 74.428C508.061 74.2088 506.947 73.6241 505.668 72.6741C504.389 71.7241 503.384 70.5 502.654 69.0019C501.082 66.0057 500.297 61.6759 500.297 56.0123C500.297 49.6545 501.338 44.8131 503.421 41.4881ZM515.753 40.8304C514.657 39.6611 513.36 39.0765 511.861 39.0765C510.327 39.0765 509.011 39.6611 507.915 40.8304C507.002 41.7804 506.399 43.0958 506.107 44.7766C505.814 46.4574 505.668 49.9651 505.668 55.2998C505.668 61.073 505.814 64.873 506.107 66.7C506.399 68.5269 507.057 69.9702 508.08 71.0299C509.103 72.126 510.363 72.6741 511.861 72.6741C513.323 72.6741 514.565 72.126 515.588 71.0299C516.648 69.9337 517.306 68.3991 517.562 66.4259C517.817 64.4528 517.963 60.7441 518 55.2998C518 50.0017 517.854 46.5122 517.562 44.8314C517.269 43.1506 516.666 41.8169 515.753 40.8304Z" fill="white"/>
<path d="M528.579 33.432C528.616 33.1762 528.725 32.957 528.908 32.7743C529.091 32.5916 529.346 32.482 529.675 32.4454C530.041 32.4454 530.351 32.6281 530.607 32.9935C530.717 33.2493 532.434 37.7436 535.759 46.4764C539.084 55.2092 540.765 59.667 540.801 59.8497C540.838 60.0324 539.175 64.4901 535.814 73.2229C532.452 81.9558 530.717 86.45 530.607 86.7058C530.351 87.0712 530.041 87.2539 529.675 87.2539C529.383 87.2539 529.145 87.1626 528.963 86.9799C528.78 86.7972 528.652 86.5597 528.579 86.2674C528.579 86.0847 530.223 81.6452 533.512 72.9489C536.837 64.2892 538.499 59.9227 538.499 59.8497C538.499 59.7766 536.837 55.4102 533.512 46.7504C530.223 38.0542 528.579 33.6147 528.579 33.432Z" fill="white"/>
<path d="M550.174 32.5002L550.394 32.4454C550.576 32.4454 550.759 32.4454 550.942 32.4454H551.599L553.134 33.7608C556.569 36.8666 559.072 40.7398 560.643 45.3802C562.214 50.0207 563 54.8438 563 59.8497C563 62.3343 562.817 64.7276 562.452 67.0296C562.086 69.3315 561.666 71.2864 561.191 72.8941C560.716 74.5018 560.04 76.1095 559.163 77.7172C558.286 79.3249 557.592 80.549 557.08 81.3894C556.569 82.2298 555.82 83.1615 554.833 84.1846C553.847 85.2077 553.262 85.8106 553.079 85.9933C552.897 86.176 552.476 86.5231 551.819 87.0347C551.709 87.1443 551.636 87.2174 551.599 87.2539H550.942C550.649 87.2539 550.448 87.2539 550.339 87.2539C550.229 87.2539 550.138 87.1991 550.065 87.0895C549.992 86.9799 549.937 86.8154 549.9 86.5962C549.937 86.5597 550.138 86.3222 550.503 85.8837C556.167 80.0009 558.999 71.3229 558.999 59.8497C558.999 48.3764 556.167 39.6984 550.503 33.8156C550.138 33.3772 549.937 33.1397 549.9 33.1031C549.9 32.8108 549.992 32.6099 550.174 32.5002Z" fill="white"/>
</svg>
