<svg width="562" height="136" viewBox="0 0 562 136" fill="none" xmlns="http://www.w3.org/2000/svg">
<path d="M1.09423 91.3398H0.984803C0.547113 91.3398 0.218845 91.0719 0 90.5361V62.635L0.0547113 34.7339C0.419453 34.2364 0.765958 33.9876 1.09423 33.9876C1.56839 33.9876 1.93313 34.2746 2.18845 34.8487V90.5361C1.89666 91.0719 1.56839 91.3398 1.20365 91.3398H1.09423Z" fill="white"/>
<path d="M27.3002 41.3351C27.2273 41.2969 27.1361 41.2395 27.0267 41.1629C26.9173 41.0864 26.8443 41.0098 26.8078 40.9333C26.7714 40.8567 26.6619 40.8185 26.4796 40.8185C26.2972 40.8185 26.0966 40.761 25.8777 40.6462C25.6589 40.5314 25.3671 40.5123 25.0024 40.5888C24.6376 40.6654 24.1999 40.6462 23.6893 40.5314C23.1787 40.4166 22.5404 40.3975 21.7744 40.474H20.2972V37.8332H20.9537C21.8291 37.948 24.8382 38.0054 29.9811 38.0054C35.1239 38.0054 38.1331 37.948 39.0085 37.8332H39.665V40.474H38.1878C35.9993 40.474 34.6315 40.5123 34.0844 40.5888C33.5373 40.6654 33.0814 40.9141 32.7167 41.3351L32.6619 53.6782C32.6619 61.9069 32.6802 66.0213 32.7167 66.0213C32.8626 65.983 33.0449 65.9256 33.2638 65.8491C33.4826 65.7725 33.9385 65.5429 34.6315 65.1601C35.3246 64.7774 35.9264 64.299 36.437 63.7249C36.9477 63.1508 37.4765 62.3088 38.0236 61.1989C38.5708 60.089 38.9537 58.7877 39.1726 57.295C39.282 56.4913 39.3732 55.0943 39.4461 53.1041C39.5191 51.1139 39.7197 49.6595 40.048 48.741C40.5586 47.0952 41.4157 46.1193 42.6194 45.8131C42.8747 45.7365 43.8048 45.6983 45.4097 45.6983H47.817L48.1999 46.0427V47.478C47.9082 47.7076 47.6528 47.8224 47.434 47.8224C46.4127 47.9755 45.7379 48.607 45.4097 49.717C45.0814 50.8269 44.8443 52.4343 44.6984 54.5394C44.5525 56.6444 44.2972 58.271 43.9325 59.4192C42.2911 64.3947 38.7714 67.3417 33.3732 68.2603L32.6619 68.3751V70.9585L32.7167 73.542C32.972 73.8099 33.1908 73.9821 33.3732 74.0586C33.5556 74.1352 34.0115 74.2117 34.741 74.2883C35.4705 74.3648 36.6194 74.4031 38.1878 74.4031H39.665V77.0439H39.0085C38.1331 76.9291 35.1239 76.8717 29.9811 76.8717C24.8382 76.8717 21.8291 76.9291 20.9537 77.0439H20.2972V74.4031H21.7744C22.5039 74.4031 23.1239 74.4031 23.6346 74.4031C24.1452 74.4031 24.6011 74.384 25.0024 74.3457C25.4036 74.3074 25.6954 74.2883 25.8777 74.2883C26.0601 74.2883 26.2607 74.2309 26.4796 74.1161C26.6984 74.0012 26.8078 73.9438 26.8078 73.9438C26.8078 73.9438 26.8808 73.8864 27.0267 73.7716C27.1726 73.6568 27.2638 73.5802 27.3002 73.542V68.3751C19.4948 67.3417 15.4279 62.4619 15.0996 53.7356C15.0267 50.0231 14.1513 48.0521 12.4735 47.8224C11.9628 47.8224 11.7075 47.4971 11.7075 46.8465C11.7075 46.2724 11.7805 45.9471 11.9264 45.8705C12.0723 45.794 12.5647 45.7365 13.4036 45.6983H14.5525H15.2638C16.358 45.6983 17.1057 45.7557 17.5069 45.8705C17.9081 45.9853 18.3276 46.2724 18.7653 46.7316C19.2759 47.2675 19.6407 47.9373 19.8595 48.741C20.1513 49.5447 20.3154 50.9417 20.3519 52.9319C20.3884 54.9221 20.6255 56.9123 21.0631 58.9025C21.5008 60.8927 22.3397 62.5384 23.5799 63.8397C24.127 64.3755 24.6923 64.8157 25.2759 65.1601C25.8595 65.5046 26.3519 65.7534 26.7531 65.9065L27.2455 66.0213C27.282 66.0213 27.3002 61.9069 27.3002 53.6782V41.3351Z" fill="white"/>
<path d="M54.5137 43.7139C54.5137 43.7139 54.5137 43.538 54.5137 43.1863C54.5137 42.8345 54.6942 42.5639 55.0552 42.3745H77.5288C77.9156 42.591 78.109 42.8616 78.109 43.1863C78.109 43.511 77.9156 43.7816 77.5288 43.998H55.0552C54.6942 43.8086 54.5137 43.538 54.5137 43.1863V43.7139Z" fill="white"/>
<path d="M87.106 35.0192C87.1424 34.7513 87.2519 34.5217 87.4342 34.3303C87.6166 34.139 87.8719 34.0241 88.2002 33.9859C88.5649 33.9859 88.875 34.1772 89.1303 34.56C89.2397 34.8279 90.954 39.5355 94.2731 48.6827C97.5923 57.83 99.2701 62.4993 99.3066 62.6907C99.343 62.8821 97.6835 67.5514 94.3278 76.6986C90.9722 85.8459 89.2397 90.5535 89.1303 90.8214C88.875 91.2041 88.5649 91.3955 88.2002 91.3955C87.9084 91.3955 87.6713 91.2998 87.4889 91.1085C87.3066 90.9171 87.1789 90.6683 87.106 90.3621C87.106 90.1708 88.7473 85.5206 92.03 76.4116C95.3491 67.3409 97.0087 62.7672 97.0087 62.6907C97.0087 62.6141 95.3491 58.0405 92.03 48.9698C88.7473 39.8608 87.106 35.2106 87.106 35.0192Z" fill="white"/>
<path d="M123.642 57.1235C123.642 56.626 123.897 56.2432 124.408 55.9753H159.259C159.806 56.2815 160.08 56.6642 160.08 57.1235C160.08 57.5445 159.824 57.9081 159.314 58.2143L141.916 58.2717H124.517C123.934 58.0803 123.642 57.6976 123.642 57.1235ZM123.642 68.261C123.642 67.6869 123.934 67.3042 124.517 67.1128H159.314C159.824 67.4955 160.08 67.8783 160.08 68.261C160.08 68.7585 159.806 69.1413 159.259 69.4092H124.408C123.897 69.1413 123.642 68.7585 123.642 68.261Z" fill="white"/>
<path d="M224.82 5.05159L224.109 5.33864C223.598 5.53001 222.869 5.72137 221.92 5.91274C220.972 6.1041 219.914 6.23806 218.747 6.3146H217.708V3.67376H218.747C220.461 3.59721 222.048 3.31017 223.507 2.81262C224.966 2.31506 225.987 1.85579 226.571 1.43478C227.154 1.01378 227.665 0.592775 228.103 0.171771C228.176 0.0569517 228.394 -0.000457913 228.759 -0.000457913C229.087 -0.000457913 229.397 0.114361 229.689 0.344V17.5095L229.744 34.7324C229.999 35.0003 230.218 35.1725 230.401 35.2491C230.583 35.3256 231.021 35.4022 231.714 35.4787C232.407 35.5553 233.537 35.5935 235.106 35.5935H236.528V38.2344H235.926C235.16 38.1196 232.261 38.0621 227.227 38.0621C222.267 38.0621 219.404 38.1196 218.638 38.2344H217.981V35.5935H219.404C220.206 35.5935 220.899 35.5935 221.483 35.5935C222.066 35.5935 222.522 35.5744 222.85 35.5361C223.179 35.4978 223.47 35.4404 223.726 35.3639C223.981 35.2873 224.127 35.2491 224.163 35.2491C224.2 35.2491 224.309 35.1534 224.492 34.962C224.674 34.7707 224.784 34.6941 224.82 34.7324V5.05159Z" fill="white"/>
<path d="M241.918 102.676C240.933 102.676 240.149 102.331 239.565 101.643C238.982 100.954 238.69 100.112 238.69 99.1165C238.69 96.3992 239.657 94.0454 241.59 92.0552C243.523 90.065 245.93 89.0699 248.812 89.0699C252.131 89.0699 254.903 90.1415 257.128 92.2848C259.353 94.4281 260.483 97.2029 260.52 100.609C260.52 102.255 260.155 103.824 259.426 105.317C258.696 106.809 257.821 108.111 256.799 109.221C255.778 110.331 254.319 111.747 252.422 113.469C251.109 114.655 249.286 116.416 246.951 118.751L243.723 121.966L247.881 122.023C253.608 122.023 256.653 121.927 257.018 121.736C257.274 121.659 257.711 119.956 258.331 116.626V116.454H260.52V116.626C260.483 116.741 260.246 118.483 259.809 121.851C259.371 125.219 259.097 126.979 258.988 127.132V127.305H238.69V126.214V125.525C238.69 125.257 238.799 124.97 239.018 124.664C239.237 124.358 239.784 123.688 240.66 122.655C241.717 121.43 242.629 120.358 243.395 119.44C243.723 119.057 244.343 118.349 245.255 117.315C246.167 116.282 246.787 115.574 247.115 115.191C247.444 114.809 247.973 114.177 248.702 113.297C249.432 112.416 249.942 111.766 250.234 111.345C250.526 110.924 250.945 110.35 251.492 109.623C252.039 108.895 252.422 108.283 252.641 107.785C252.86 107.288 253.134 106.733 253.462 106.121C253.79 105.508 254.027 104.896 254.173 104.283C254.319 103.671 254.447 103.097 254.556 102.561C254.666 102.025 254.72 101.394 254.72 100.667C254.72 98.2554 254.1 96.1695 252.86 94.409C251.62 92.6484 249.851 91.7681 247.553 91.7681C246.35 91.7681 245.292 92.0934 244.38 92.7441C243.468 93.3947 242.83 94.0262 242.465 94.6386C242.1 95.251 241.918 95.6146 241.918 95.7294C241.918 95.7676 242.009 95.7868 242.191 95.7868C242.848 95.7868 243.523 96.0547 244.216 96.5905C244.909 97.1263 245.255 98.0066 245.255 99.2314C245.255 100.188 244.964 100.992 244.38 101.643C243.796 102.293 242.976 102.638 241.918 102.676Z" fill="white"/>
<path d="M195.576 113.9C195.358 113.9 195.102 113.747 194.81 113.44C194.519 113.134 194.355 112.866 194.318 112.637C194.282 112.407 194.847 111.833 196.014 110.914C197.181 109.996 198.385 109.039 199.625 108.044C200.865 107.049 201.558 106.494 201.704 106.379C201.777 106.303 201.868 106.264 201.978 106.264H202.032C202.251 106.264 202.507 106.59 202.798 107.24C203.09 107.891 204.075 110.13 205.753 113.957C206.446 115.603 207.011 116.923 207.449 117.918L212.099 128.539C212.136 128.539 214.032 124.463 217.789 116.311C221.546 108.159 225.303 99.9492 229.06 91.6822C232.817 83.4152 234.768 79.186 234.914 78.9947C235.133 78.4589 235.497 78.1909 236.008 78.1909C236.263 78.1909 236.482 78.3058 236.665 78.5354C236.847 78.765 236.975 78.9947 237.048 79.2243V79.5688L224.3 107.298L211.443 135.199C211.297 135.467 210.95 135.601 210.403 135.601C210.075 135.601 209.856 135.543 209.747 135.428C209.674 135.352 207.886 131.295 204.385 123.258L199.133 111.201L198.257 111.833C197.71 112.292 197.145 112.752 196.561 113.211C195.978 113.67 195.649 113.9 195.576 113.9Z" fill="white"/>
<path d="M263.31 81.6348H235.955V78.1902H263.31V81.6348Z" fill="white"/>
<path d="M268.78 64.4121H184.908V60.9675H268.78V64.4121Z" fill="white"/>
<path d="M280.488 62.6907C280.488 60.0498 280.671 57.543 281.035 55.17C281.4 52.7971 281.82 50.7495 282.294 49.0272C282.768 47.3049 283.443 45.6209 284.318 43.9751C285.193 42.3294 285.886 41.0472 286.397 40.1287C286.908 39.2101 287.674 38.215 288.695 37.1434C289.716 36.0717 290.318 35.4211 290.5 35.1915C290.683 34.9618 291.139 34.56 291.868 33.9859H292.579H292.798C293.309 33.9859 293.564 34.1581 293.564 34.5026C293.564 34.6174 293.254 35.0192 292.634 35.7082C292.014 36.3971 291.266 37.4113 290.391 38.7509C289.516 40.0904 288.622 41.7362 287.71 43.6881C286.798 45.64 286.032 48.2809 285.412 51.6106C284.792 54.9404 284.482 58.6337 284.482 62.6907C284.482 66.7476 284.792 70.4219 285.412 73.7133C286.032 77.0048 286.78 79.6648 287.655 81.6933C288.531 83.7218 289.424 85.3675 290.336 86.6305C291.248 87.8935 292.014 88.9078 292.634 89.6732C293.254 90.4387 293.564 90.8405 293.564 90.8788C293.564 91.2233 293.291 91.3955 292.744 91.3955H292.579H291.868L290.336 90.0177C286.908 86.7645 284.409 82.7075 282.841 77.8468C281.272 72.9861 280.488 67.9341 280.488 62.6907Z" fill="white"/>
<path d="M304.233 91.3398H304.123C303.686 91.3398 303.358 91.0719 303.139 90.5361V62.635L303.193 34.7339C303.558 34.2364 303.905 33.9876 304.233 33.9876C304.707 33.9876 305.072 34.2746 305.327 34.8487V90.5361C305.035 91.0719 304.707 91.3398 304.342 91.3398H304.233Z" fill="white"/>
<path d="M317.09 43.46C319.132 40.3598 321.923 38.8098 325.461 38.8098C327.211 38.8098 328.962 39.3073 330.713 40.3024C332.464 41.2975 333.886 43.0581 334.98 45.5841C336.33 48.7608 337.005 53.1239 337.005 58.6735C337.005 64.6058 336.22 69.1412 334.652 72.2796C333.923 73.8871 332.92 75.1692 331.643 76.1261C330.366 77.0829 329.254 77.6761 328.306 77.9057C327.357 78.1354 326.427 78.2693 325.515 78.3076C324.567 78.3076 323.619 78.1928 322.67 77.9632C321.722 77.7335 320.609 77.1212 319.333 76.1261C318.056 75.1309 317.053 73.8488 316.324 72.2796C314.755 69.1412 313.971 64.6058 313.971 58.6735C313.971 52.014 315.011 46.9428 317.09 43.46ZM329.4 42.771C328.306 41.5463 327.011 40.9339 325.515 40.9339C323.983 40.9339 322.67 41.5463 321.576 42.771C320.664 43.7661 320.062 45.144 319.771 46.9045C319.479 48.6651 319.333 52.3393 319.333 57.9272C319.333 63.9743 319.479 67.9547 319.771 69.8684C320.062 71.7821 320.719 73.2938 321.74 74.4038C322.761 75.552 324.02 76.1261 325.515 76.1261C326.974 76.1261 328.214 75.552 329.236 74.4038C330.293 73.2556 330.95 71.6481 331.205 69.5813C331.461 67.5146 331.606 63.6299 331.643 57.9272C331.643 52.3776 331.497 48.7225 331.205 46.9619C330.913 45.2014 330.312 43.8044 329.4 42.771Z" fill="white"/>
<path d="M350.847 43.8631L350.136 44.1502C349.625 44.3415 348.895 44.5329 347.947 44.7243C346.999 44.9156 345.941 45.0496 344.774 45.1261H343.734V42.4853H344.774C346.488 42.4087 348.075 42.1217 349.534 41.6241C350.993 41.1266 352.014 40.6673 352.598 40.2463C353.181 39.8253 353.692 39.4043 354.13 38.9833C354.202 38.8685 354.421 38.8111 354.786 38.8111C355.114 38.8111 355.424 38.9259 355.716 39.1555V56.321L355.771 73.5439C356.026 73.8118 356.245 73.984 356.427 74.0606C356.61 74.1371 357.047 74.2137 357.74 74.2902C358.433 74.3668 359.564 74.4051 361.133 74.4051H362.555V77.0459H361.953C361.187 76.9311 358.288 76.8737 353.254 76.8737C348.294 76.8737 345.43 76.9311 344.664 77.0459H344.008V74.4051H345.43C346.233 74.4051 346.926 74.4051 347.509 74.4051C348.093 74.4051 348.549 74.3859 348.877 74.3476C349.206 74.3094 349.497 74.252 349.753 74.1754C350.008 74.0989 350.154 74.0606 350.19 74.0606C350.227 74.0606 350.336 73.9649 350.519 73.7735C350.701 73.5822 350.81 73.5056 350.847 73.5439V43.8631Z" fill="white"/>
<path d="M369.559 35.0192C369.596 34.7513 369.705 34.5217 369.887 34.3303C370.07 34.139 370.325 34.0241 370.653 33.9859C371.018 33.9859 371.328 34.1772 371.583 34.56C371.693 34.8279 373.407 39.5355 376.726 48.6827C380.045 57.83 381.723 62.4993 381.76 62.6907C381.796 62.8821 380.137 67.5514 376.781 76.6986C373.425 85.8459 371.693 90.5535 371.583 90.8214C371.328 91.2041 371.018 91.3955 370.653 91.3955C370.362 91.3955 370.124 91.2998 369.942 91.1085C369.76 90.9171 369.632 90.6683 369.559 90.3621C369.559 90.1708 371.2 85.5206 374.483 76.4116C377.802 67.3409 379.462 62.7672 379.462 62.6907C379.462 62.6141 377.802 58.0405 374.483 48.9698C371.2 39.8608 369.559 35.2106 369.559 35.0192Z" fill="white"/>
<path d="M404.584 63.4399C404.584 63.4399 404.584 63.1912 404.584 62.6936C404.584 62.1961 404.84 61.8133 405.35 61.5454H437.138C437.685 61.8516 437.958 62.2343 437.958 62.6936C437.958 63.1529 437.685 63.5356 437.138 63.8418H405.35C404.84 63.5739 404.584 63.1912 404.584 62.6936V63.4399Z" fill="white"/>
<path d="M462.315 91.3398H462.206C461.768 91.3398 461.44 91.0719 461.221 90.5361V62.635L461.276 34.7339C461.641 34.2364 461.987 33.9876 462.315 33.9876C462.79 33.9876 463.154 34.2746 463.41 34.8487V90.5361C463.118 91.0719 462.79 91.3398 462.425 91.3398H462.315Z" fill="white"/>
<path d="M481.575 43.8631L480.864 44.1502C480.353 44.3415 479.624 44.5329 478.676 44.7243C477.727 44.9156 476.67 45.0496 475.502 45.1261H474.463V42.4853H475.502C477.217 42.4087 478.803 42.1217 480.262 41.6241C481.721 41.1266 482.743 40.6673 483.326 40.2463C483.91 39.8253 484.42 39.4043 484.858 38.9833C484.931 38.8685 485.15 38.8111 485.515 38.8111C485.843 38.8111 486.153 38.9259 486.445 39.1555V56.321L486.499 73.5439C486.755 73.8118 486.974 73.984 487.156 74.0606C487.338 74.1371 487.776 74.2137 488.469 74.2902C489.162 74.3668 490.293 74.4051 491.861 74.4051H493.284V77.0459H492.682C491.916 76.9311 489.016 76.8737 483.983 76.8737C479.022 76.8737 476.159 76.9311 475.393 77.0459H474.736V74.4051H476.159C476.961 74.4051 477.654 74.4051 478.238 74.4051C478.822 74.4051 479.277 74.3859 479.606 74.3476C479.934 74.3094 480.226 74.252 480.481 74.1754C480.736 74.0989 480.882 74.0606 480.919 74.0606C480.955 74.0606 481.065 73.9649 481.247 73.7735C481.429 73.5822 481.539 73.5056 481.575 73.5439V43.8631Z" fill="white"/>
<path d="M502.529 43.46C504.571 40.3598 507.362 38.8098 510.9 38.8098C512.65 38.8098 514.401 39.3073 516.152 40.3024C517.903 41.2975 519.325 43.0581 520.419 45.5841C521.769 48.7608 522.444 53.1239 522.444 58.6735C522.444 64.6058 521.659 69.1412 520.091 72.2796C519.362 73.8871 518.358 75.1692 517.082 76.1261C515.805 77.0829 514.693 77.6761 513.745 77.9057C512.796 78.1354 511.866 78.2693 510.954 78.3076C510.006 78.3076 509.058 78.1928 508.109 77.9632C507.161 77.7335 506.048 77.1212 504.772 76.1261C503.495 75.1309 502.492 73.8488 501.763 72.2796C500.194 69.1412 499.41 64.6058 499.41 58.6735C499.41 52.014 500.45 46.9428 502.529 43.46ZM514.839 42.771C513.745 41.5463 512.45 40.9339 510.954 40.9339C509.422 40.9339 508.109 41.5463 507.015 42.771C506.103 43.7661 505.501 45.144 505.21 46.9045C504.918 48.6651 504.772 52.3393 504.772 57.9272C504.772 63.9743 504.918 67.9547 505.21 69.8684C505.501 71.7821 506.158 73.2938 507.179 74.4038C508.2 75.552 509.459 76.1261 510.954 76.1261C512.413 76.1261 513.653 75.552 514.675 74.4038C515.732 73.2556 516.389 71.6481 516.644 69.5813C516.9 67.5146 517.045 63.6299 517.082 57.9272C517.082 52.3776 516.936 48.7225 516.644 46.9619C516.352 45.2014 515.751 43.8044 514.839 42.771Z" fill="white"/>
<path d="M527.642 35.0192C527.678 34.7513 527.787 34.5217 527.97 34.3303C528.152 34.139 528.408 34.0241 528.736 33.9859C529.101 33.9859 529.411 34.1772 529.666 34.56C529.775 34.8279 531.49 39.5355 534.809 48.6827C538.128 57.83 539.806 62.4993 539.842 62.6907C539.879 62.8821 538.219 67.5514 534.863 76.6986C531.508 85.8459 529.775 90.5535 529.666 90.8214C529.411 91.2041 529.101 91.3955 528.736 91.3955C528.444 91.3955 528.207 91.2998 528.025 91.1085C527.842 90.9171 527.715 90.6683 527.642 90.3621C527.642 90.1708 529.283 85.5206 532.566 76.4116C535.885 67.3409 537.544 62.7672 537.544 62.6907C537.544 62.6141 535.885 58.0405 532.566 48.9698C529.283 39.8608 527.642 35.2106 527.642 35.0192Z" fill="white"/>
<path d="M549.197 34.0433L549.416 33.9859C549.599 33.9859 549.781 33.9859 549.963 33.9859H550.62L552.152 35.3637C555.58 38.6169 558.079 42.6739 559.647 47.5345C561.216 52.3952 562 57.4473 562 62.6907C562 65.2933 561.817 67.8001 561.453 70.2113C561.088 72.6226 560.669 74.6702 560.194 76.3542C559.72 78.0382 559.045 79.7222 558.17 81.4062C557.295 83.0902 556.602 84.3724 556.091 85.2527C555.58 86.133 554.833 87.1089 553.848 88.1806C552.863 89.2522 552.279 89.8837 552.097 90.0751C551.915 90.2665 551.495 90.63 550.839 91.1659C550.729 91.2807 550.656 91.3572 550.62 91.3955H549.963C549.672 91.3955 549.471 91.3955 549.362 91.3955C549.252 91.3955 549.161 91.3381 549.088 91.2233C549.015 91.1085 548.96 90.9362 548.924 90.7066C548.96 90.6683 549.161 90.4195 549.526 89.9603C555.179 83.7983 558.006 74.7084 558.006 62.6907C558.006 50.6729 555.179 41.5831 549.526 35.4211C549.161 34.9618 548.96 34.7131 548.924 34.6748C548.924 34.3686 549.015 34.1581 549.197 34.0433Z" fill="white"/>
</svg>
