<svg width="150" height="94" viewBox="0 0 150 94" fill="none" xmlns="http://www.w3.org/2000/svg">
<path d="M0 43.3496C0 42.8502 0.280887 41.8827 0.84266 40.4471C1.40443 39.0114 2.18467 37.3885 3.18338 35.5784C4.18209 33.7682 5.55532 32.2077 7.30306 30.8969C9.05079 29.5861 10.8922 28.8995 12.8272 28.8371C15.6984 28.8371 17.8519 29.6173 19.2876 31.1778C20.7232 32.7383 21.441 34.5797 21.441 36.7019C21.441 37.8255 20.3799 41.3209 18.2576 47.1883C16.1354 53.0558 15.0743 57.4563 15.0743 60.39C15.0743 63.0741 15.5112 64.9466 16.3851 66.0078C17.2589 67.0689 18.5697 67.6307 20.3175 67.6931C22.0652 67.7555 23.7193 67.2249 25.2798 66.1014C26.8403 64.9778 27.995 63.9167 28.7441 62.918L29.774 61.3263C29.8988 61.0766 31.0848 56.3328 33.3319 47.0947C35.2045 39.6044 36.328 35.2351 36.7025 33.9867C37.077 32.7383 37.514 31.8332 38.0133 31.2714C39.0745 30.3351 40.198 29.867 41.384 29.867C42.4451 29.867 43.2253 30.1791 43.7247 30.8033C44.2241 31.4275 44.4737 32.0205 44.4737 32.5822L37.3579 62.3562C37.2955 62.6683 37.2643 63.1677 37.2643 63.8543C37.2643 65.4148 37.4828 66.4447 37.9197 66.944C38.3566 67.4434 39.012 67.7243 39.8859 67.7867C41.2591 67.5994 42.3515 66.6319 43.1629 64.8842C43.9744 63.1365 44.9107 60.39 45.9718 56.6449C46.0966 56.1455 46.7208 55.8958 47.8444 55.8958C49.0303 55.8958 49.6233 56.1767 49.6233 56.7385C49.5609 57.0506 49.4985 57.4875 49.4361 58.0493C49.3736 58.6111 49.0928 59.6098 48.5934 61.0454C48.0941 62.4811 47.5635 63.8231 47.0017 65.0715C46.4399 66.3199 45.6597 67.5058 44.661 68.6294C43.6623 69.7529 42.5387 70.5332 41.2904 70.9701C40.791 71.0949 40.042 71.1573 39.0433 71.1573C34.9236 71.1573 32.0835 69.4096 30.523 65.9141C30.3982 65.9765 30.0549 66.2886 29.4931 66.8504C28.9313 67.4122 28.3696 67.8803 27.8078 68.2549C27.246 68.6294 26.5594 69.0975 25.748 69.6593C24.9365 70.2211 24.0314 70.5956 23.0327 70.7828C22.034 70.9701 20.9729 71.1261 19.8493 71.251C17.1029 71.251 14.6685 70.6892 12.5463 69.5657C9.30047 67.6307 7.67757 64.3224 7.67757 59.641C7.67757 56.0831 8.76991 51.4329 10.9546 45.6903C13.1393 39.9477 14.2316 36.2962 14.2316 34.7357C14.2316 34.6733 14.2316 34.6109 14.2316 34.5484C14.2316 33.9867 14.2316 33.6122 14.2316 33.4249C14.2316 33.2376 14.1068 33.0192 13.8571 32.7695C13.6074 32.5198 13.2641 32.395 12.8272 32.395H12.4526C11.017 32.395 9.7062 32.988 8.52023 34.1739C7.33426 35.3599 6.39798 36.6395 5.71136 38.0127C5.02475 39.3859 4.49419 40.6967 4.11967 41.9451C3.74516 43.1935 3.49548 43.8801 3.37064 44.005C3.2458 44.1298 2.74645 44.1922 1.87258 44.1922H0.561773C0.187258 43.8177 0 43.5368 0 43.3496Z" fill="white"/>
<path d="M60.3906 46.8145C60.3906 42.5075 60.7027 38.4191 61.3269 34.5491C61.9511 30.6791 62.6689 27.3396 63.4804 24.5308C64.2918 21.7219 65.4466 18.9755 66.9446 16.2914C68.4427 13.6074 69.6287 11.5164 70.5025 10.0183C71.3764 8.52023 72.6872 6.89733 74.435 5.14959C76.1827 3.40185 77.2126 2.34072 77.5247 1.96621C77.8368 1.59169 78.6171 0.936287 79.8654 0H81.0826H81.4571C82.331 0 82.7679 0.280884 82.7679 0.842659C82.7679 1.02991 82.2374 1.68532 81.1762 2.80887C80.1151 3.93241 78.8355 5.58652 77.3375 7.7712C75.8394 9.95587 74.3101 12.6399 72.7496 15.8233C71.1892 19.0067 69.8784 23.3136 68.8172 28.7441C67.7561 34.1746 67.2255 40.198 67.2255 46.8145C67.2255 53.4309 67.7561 59.4231 68.8172 64.7912C69.8784 70.1593 71.158 74.4974 72.656 77.8056C74.1541 81.1138 75.6833 83.7979 77.2438 85.8577C78.8043 87.9175 80.1151 89.5717 81.1762 90.82C82.2374 92.0684 82.7679 92.7238 82.7679 92.7862C82.7679 93.348 82.2998 93.6289 81.3635 93.6289H81.0826H79.8654L77.2438 91.3818C71.3764 86.0762 67.1007 79.4597 64.4167 71.5325C61.7326 63.6052 60.3906 55.3659 60.3906 46.8145Z" fill="white"/>
<path d="M90.4454 34.1739C90.0085 33.737 89.79 33.4249 89.79 33.2376C89.79 32.988 89.8837 32.4886 90.0709 31.7396C90.2582 30.9905 90.4142 30.5536 90.5391 30.4288C90.6639 30.1167 90.9448 29.9606 91.3817 29.9606C91.8187 29.9606 93.4104 29.9294 96.1568 29.867H101.119L102.898 22.3767C103.085 21.6901 103.304 20.785 103.553 19.6614C103.803 18.5379 104.022 17.7265 104.209 17.2271C104.396 16.7277 104.583 16.1035 104.771 15.3545C104.958 14.6055 105.208 14.0749 105.52 13.7628C105.832 13.4507 106.144 13.0762 106.456 12.6393C106.768 12.2023 107.205 11.9215 107.767 11.7966C108.329 11.6718 108.89 11.6094 109.452 11.6094C110.576 11.6718 111.356 12.0151 111.793 12.6393C112.23 13.2635 112.448 13.8565 112.448 14.4182C112.448 14.8552 112.167 16.322 111.606 18.8188C111.044 21.3156 110.42 23.7811 109.733 26.2155L108.797 29.6797C108.797 29.8046 110.357 29.867 113.478 29.867H118.253C118.69 30.3039 118.909 30.6472 118.909 30.8969C118.909 32.2701 118.503 33.3625 117.691 34.1739H107.673L104.303 47.7501C101.868 57.7372 100.651 63.1053 100.651 63.8543C100.651 66.4759 101.494 67.7867 103.179 67.7867C105.364 67.7867 107.486 66.7256 109.546 64.6033C111.606 62.4811 113.26 59.8595 114.508 56.7385C114.633 56.364 114.789 56.1455 114.976 56.0831C115.163 56.0207 115.632 55.9583 116.381 55.8958H116.755C117.691 55.8958 118.16 56.1455 118.16 56.6449C118.16 56.8321 118.066 57.2066 117.879 57.7684C117.567 58.7671 117.005 59.9531 116.193 61.3263C115.382 62.6995 114.321 64.1664 113.01 65.7269C111.699 67.2874 110.108 68.5982 108.235 69.6593C106.362 70.7204 104.459 71.251 102.524 71.251C100.651 71.251 98.872 70.7828 97.1867 69.8465C95.5014 68.9103 94.2842 67.2874 93.5352 64.9778C93.4104 64.4785 93.3479 63.6358 93.3479 62.4499V60.7645L96.6249 47.6565C98.8096 38.8554 99.9332 34.4236 99.9956 34.3612C99.9956 34.2364 98.4039 34.1739 95.2205 34.1739H90.4454Z" fill="white"/>
<path d="M127.429 0.0936279L127.804 0C128.116 0 128.428 0 128.74 0H129.863L132.485 2.24709C138.352 7.55273 142.628 14.1692 145.312 22.0964C147.996 30.0237 149.338 38.263 149.338 46.8145C149.338 51.059 149.026 55.1474 148.402 59.0798C147.778 63.0123 147.06 66.3517 146.248 69.0981C145.437 71.8446 144.282 74.591 142.784 77.3375C141.286 80.0839 140.1 82.175 139.226 83.6106C138.352 85.0463 137.073 86.6379 135.388 88.3857C133.702 90.1334 132.704 91.1633 132.391 91.4754C132.079 91.7875 131.361 92.3805 130.238 93.2544C130.051 93.4416 129.926 93.5665 129.863 93.6289H128.74C128.241 93.6289 127.897 93.6289 127.71 93.6289C127.523 93.6289 127.367 93.5353 127.242 93.348C127.117 93.1608 127.023 92.8799 126.961 92.5054C127.023 92.4429 127.367 92.0372 127.991 91.2882C137.666 81.2387 142.503 66.4141 142.503 46.8145C142.503 27.2148 137.666 12.3902 127.991 2.34072C127.367 1.59169 127.023 1.18597 126.961 1.12355C126.961 0.624191 127.117 0.280884 127.429 0.0936279Z" fill="white"/>
</svg>
