<svg width="102" height="85" viewBox="0 0 102 85" fill="none" xmlns="http://www.w3.org/2000/svg">
<path d="M22.1554 5.17532C22.1554 4.76827 20.4981 4.50659 17.1835 4.39029C15.846 4.39029 14.9738 4.36121 14.5667 4.30306C14.1597 4.24491 13.9561 3.98323 13.9561 3.51803C13.9561 3.40173 14.0143 2.99467 14.1306 2.29687C14.4795 1.13386 14.7702 0.523277 15.0028 0.465126C15.1191 0.406979 15.439 0.377903 15.9623 0.377903H16.3985C18.7826 0.494202 22.7369 0.552353 28.2612 0.552353C30.2383 0.552353 32.07 0.552353 33.7564 0.552353C35.4428 0.552353 36.7511 0.523277 37.6815 0.465126C38.612 0.406979 39.1935 0.406979 39.4261 0.465126C40.4146 0.465126 40.9089 0.697731 40.9089 1.16293C40.9089 1.45369 40.8217 1.86074 40.6472 2.38409C40.5891 2.5004 40.56 2.67485 40.56 2.90745C40.56 3.14005 40.5309 3.3145 40.4728 3.43081C40.4146 3.54711 40.3565 3.66341 40.2983 3.77971C40.2402 3.89601 40.1529 3.98323 40.0366 4.04139C39.9203 4.09954 39.804 4.15769 39.6877 4.21584C39.5714 4.27399 39.3679 4.30306 39.0772 4.30306C38.7864 4.30306 38.5247 4.33214 38.2921 4.39029C38.0595 4.44844 37.6525 4.44844 37.071 4.39029C34.7449 4.44844 33.2621 4.53566 32.6225 4.65197C31.9828 4.76827 31.4594 5.0881 31.0524 5.61145L23.9871 33.3493C24.0452 33.3493 29.3951 29.1624 40.0366 20.7887C50.6782 12.4151 56.1443 8.11192 56.4351 7.87932C57.2492 7.06521 57.6563 6.39648 57.6563 5.87313C57.6563 5.00087 56.9294 4.50659 55.4756 4.39029C54.5452 4.39029 54.08 4.07046 54.08 3.43081C54.08 3.3145 54.1672 2.90745 54.3417 2.20964C54.5161 1.51184 54.6615 1.07571 54.7778 0.901257C54.9523 0.610504 55.4465 0.465126 56.2606 0.465126C56.4932 0.465126 57.5109 0.494202 59.3135 0.552353C61.1162 0.610504 63.4422 0.63958 66.2916 0.63958C67.6291 0.63958 69.0247 0.610504 70.4785 0.552353C71.9322 0.494202 72.8045 0.465126 73.0952 0.465126C74.2582 0.465126 74.8397 0.755882 74.8397 1.33739C74.8397 2.6167 74.6071 3.48896 74.1419 3.95416C73.9675 4.24491 73.4151 4.39029 72.4846 4.39029C68.1234 4.68104 64.1691 6.16388 60.6219 8.83881C59.6915 9.42031 57.6563 10.9322 54.5161 13.3745C51.376 15.8169 48.4685 18.1138 45.7935 20.2654L41.6939 23.4927L42.479 25.4117C43.0023 26.691 43.8164 28.6391 44.9213 31.2558C46.0262 33.8726 47.0438 36.344 47.9742 38.67C52.3355 48.9627 54.6615 54.2834 54.9523 54.6324C55.0686 54.7487 55.2139 54.865 55.3884 54.9813C56.2025 55.5628 57.6853 55.8826 59.8369 55.9407H61.6686C62.0176 56.4059 62.192 56.6676 62.192 56.7258C62.192 56.7839 62.1048 57.3073 61.9303 58.2958C61.6977 59.0518 61.407 59.6042 61.0581 59.9531H60.0986C57.7726 59.7787 55.0104 59.6914 51.8121 59.6914C44.7178 59.6914 40.7345 59.7787 39.8622 59.9531H38.9899C38.641 59.6042 38.4666 59.3425 38.4666 59.1681C38.4666 58.9936 38.5247 58.4703 38.641 57.598C38.8736 56.8421 39.0481 56.3769 39.1644 56.2024C39.2807 56.028 39.6005 55.9407 40.1239 55.9407H40.3856C43.2931 55.9407 44.7468 55.2139 44.7468 53.7601C44.7468 53.5275 43.9618 51.4922 42.3917 47.6543C40.8217 43.8164 39.8913 41.6357 39.6005 41.1124L34.5414 29.0752L28.6101 33.6982L22.6787 38.3211L20.6725 46.4331C19.3351 51.783 18.6663 54.6033 18.6663 54.894C18.6663 55.3011 18.8989 55.5628 19.3641 55.6791C19.8293 55.7954 21.2831 55.8826 23.7254 55.9407H26.4294C26.7783 56.4641 26.9528 56.7839 26.9528 56.9002C26.9528 57.8306 26.7492 58.7029 26.3422 59.517C26.0514 59.8077 25.5862 59.9531 24.9466 59.9531C24.7721 59.9531 23.6963 59.924 21.7192 59.8659C19.7421 59.8077 16.8346 59.7787 12.9966 59.7787C9.39131 59.7787 6.62916 59.7787 4.71019 59.7787C2.79123 59.7787 1.74452 59.8077 1.57006 59.8659C0.523355 59.8659 0 59.5751 0 58.9936C0 58.8773 0.0872258 58.4703 0.261677 57.7725C0.49428 56.8421 0.726882 56.3187 0.959484 56.2024C1.19209 56.0861 1.86082 55.9989 2.96568 55.9407C4.53574 55.9407 6.28026 55.8535 8.19923 55.6791C9.01333 55.5046 9.56576 55.1557 9.85652 54.6324C10.031 54.3997 12.1244 46.3168 16.1368 30.3836C20.1492 14.4503 22.1554 6.04758 22.1554 5.17532Z" fill="white"/>
<path d="M72.7693 55.3374C72.8104 55.2141 72.8515 55.0496 72.8926 54.844C72.9337 54.6385 73.0365 54.1862 73.2009 53.4873C73.3654 52.7884 73.5709 52.1512 73.8176 51.5756C74.0643 51 74.3726 50.3217 74.7427 49.5405C75.1127 48.7594 75.5238 48.1427 75.976 47.6905C76.4283 47.2382 76.9627 46.786 77.5794 46.3338C78.1961 45.8815 78.8745 45.6965 79.6145 45.7787C82.6979 45.7787 84.6713 47.0943 85.5347 49.7255L86.1514 49.1705C88.7003 46.9093 91.126 45.7787 93.4283 45.7787C96.1006 45.7787 98.1973 46.7449 99.7185 48.6772C101.24 50.6095 102 52.9529 102 55.7074C102 60.1475 100.438 64.2382 97.3134 67.9795C94.1888 71.7207 90.6532 73.6119 86.7064 73.653C85.8019 73.653 85.0002 73.5296 84.3013 73.283C83.8491 73.0774 83.3763 72.7691 82.8829 72.3579C82.3896 71.9468 81.999 71.5974 81.7112 71.3096L81.2795 70.8162C81.2384 70.8573 80.7862 72.6457 79.9228 76.1814C79.0595 79.7171 78.6278 81.5054 78.6278 81.5466C78.6278 81.7932 78.7922 81.9371 79.1211 81.9782C79.45 82.0193 80.2106 82.081 81.4029 82.1632H82.9446C83.1913 82.451 83.3146 82.636 83.3146 82.7183C83.3146 82.8005 83.2529 83.1705 83.1296 83.8283C83.0063 84.3216 82.8829 84.63 82.7596 84.7533C82.6362 84.8767 82.369 84.9589 81.9579 85C81.8757 85 81.6495 85 81.2795 85C80.9095 85 80.2106 84.9794 79.1828 84.9383C78.155 84.8972 76.8805 84.8767 75.3593 84.8767C72.4815 84.8767 70.652 84.9178 69.8708 85H69.3775C69.0897 84.7122 68.9458 84.4861 68.9458 84.3216C69.028 83.2116 69.2953 82.4921 69.7475 82.1632H70.9809C72.3787 82.1221 73.1804 81.8755 73.3859 81.4232C73.5093 81.1765 74.7632 76.2636 77.1477 66.6844C79.5323 57.1052 80.7862 52.0278 80.9095 51.4523C80.9506 51.2467 80.9712 50.9589 80.9712 50.5889C80.9712 48.9033 80.4573 48.0605 79.4295 48.0605C78.525 48.0605 77.7644 48.6361 77.1477 49.7872C76.531 50.9384 76.0583 52.1923 75.7294 53.549C75.4005 54.9057 75.1538 55.6457 74.9893 55.7691C74.9071 55.8513 74.5782 55.8924 74.0026 55.8924H73.1393C72.8926 55.6457 72.7693 55.4607 72.7693 55.3374ZM82.3279 66.7461C83.2324 69.8706 84.7535 71.4329 86.8914 71.4329C88.1248 71.4329 89.317 70.9601 90.4682 70.0145C91.6193 69.0689 92.5649 67.8767 93.3049 66.4377C94.0449 65.0399 94.785 62.8198 95.525 59.7775C96.265 56.7352 96.6556 54.474 96.6967 52.994V52.624C96.6967 49.5816 95.4428 48.0605 92.9349 48.0605C92.4827 48.0605 92.0304 48.1222 91.5782 48.2455C91.126 48.3688 90.6737 48.5538 90.2215 48.8005C89.7692 49.0472 89.3581 49.3144 88.9881 49.6022C88.6181 49.89 88.2686 50.1983 87.9397 50.5272C87.6108 50.8561 87.3025 51.1645 87.0147 51.4523C86.7269 51.7401 86.5008 52.0278 86.3364 52.3156C86.1719 52.6034 86.0075 52.809 85.843 52.9323L85.658 53.179C85.658 53.2201 85.5963 53.5079 85.473 54.0423C85.3497 54.5768 85.1235 55.4813 84.7946 56.7558C84.4657 58.0303 84.178 59.0992 83.9313 59.9625C82.8624 64.3205 82.3279 66.5816 82.3279 66.7461Z" fill="white"/>
</svg>
