<svg width="93" height="76" viewBox="0 0 93 76" fill="none" xmlns="http://www.w3.org/2000/svg">
<path d="M22.6871 5.8138C22.6871 5.39698 20.99 5.12902 17.5959 5.00993C16.2263 5.00993 15.3331 4.98015 14.9163 4.9206C14.4995 4.86106 14.2911 4.5931 14.2911 4.11673C14.2911 3.99764 14.3506 3.58082 14.4697 2.86626C14.827 1.67534 15.1247 1.05011 15.3629 0.990562C15.482 0.931015 15.8095 0.901241 16.3454 0.901241H16.792C19.2334 1.02033 23.2825 1.07988 28.9394 1.07988C30.964 1.07988 32.8397 1.07988 34.5665 1.07988C36.2934 1.07988 37.6332 1.05011 38.5859 0.990562C39.5386 0.931015 40.1341 0.931015 40.3723 0.990562C41.3846 0.990562 41.8907 1.22874 41.8907 1.70512C41.8907 2.00285 41.8014 2.41967 41.6227 2.95558C41.5632 3.07468 41.5334 3.25331 41.5334 3.4915C41.5334 3.72968 41.5037 3.90832 41.4441 4.02741C41.3846 4.14651 41.325 4.2656 41.2655 4.38469C41.2059 4.50378 41.1166 4.5931 40.9975 4.65265C40.8784 4.71219 40.7593 4.77174 40.6402 4.83129C40.5211 4.89083 40.3127 4.9206 40.015 4.9206C39.7173 4.9206 39.4493 4.95038 39.2111 5.00993C38.9729 5.06947 38.5561 5.06947 37.9607 5.00993C35.5788 5.06947 34.0604 5.15879 33.4054 5.27788C32.7504 5.39698 32.2145 5.72448 31.7976 6.2604L24.5628 34.6639C24.6223 34.6639 30.1006 30.3766 40.9975 21.8019C51.8945 13.2273 57.4918 8.82088 57.7895 8.58269C58.6232 7.74905 59.04 7.06427 59.04 6.52835C59.04 5.63516 58.2957 5.12902 56.807 5.00993C55.8543 5.00993 55.3779 4.68242 55.3779 4.02741C55.3779 3.90832 55.4672 3.4915 55.6459 2.77694C55.8245 2.06239 55.9734 1.6158 56.0925 1.43716C56.2711 1.13943 56.7772 0.990562 57.6109 0.990562C57.8491 0.990562 58.8911 1.02033 60.737 1.07988C62.583 1.13943 64.9648 1.1692 67.8826 1.1692C69.2521 1.1692 70.6813 1.13943 72.1699 1.07988C73.6586 1.02033 74.5518 0.990562 74.8495 0.990562C76.0404 0.990562 76.6359 1.28829 76.6359 1.88375C76.6359 3.19377 76.3977 4.08696 75.9213 4.56333C75.7427 4.86106 75.177 5.00993 74.2243 5.00993C69.7583 5.30766 65.7092 6.82608 62.0768 9.5652C61.1241 10.1607 59.04 11.7089 55.8245 14.2098C52.609 16.7107 49.6317 19.0628 46.8926 21.266L42.6946 24.5708L43.4984 26.5359C44.0344 27.8459 44.868 29.8407 45.9994 32.5202C47.1308 35.1998 48.1728 37.7305 49.1256 40.1124C53.5915 50.652 55.9734 56.1005 56.2711 56.4578C56.3902 56.5769 56.539 56.696 56.7177 56.8151C57.5513 57.4105 59.0698 57.738 61.273 57.7976H63.1487C63.5059 58.2739 63.6846 58.5419 63.6846 58.6014C63.6846 58.661 63.5953 59.1969 63.4166 60.2092C63.1784 60.9833 62.8807 61.549 62.5234 61.9062H61.5409C59.1591 61.7276 56.3306 61.6383 53.0556 61.6383C45.791 61.6383 41.7121 61.7276 40.8189 61.9062H39.9257C39.5684 61.549 39.3898 61.281 39.3898 61.1024C39.3898 60.9237 39.4493 60.3878 39.5684 59.4946C39.8066 58.7205 39.9852 58.2442 40.1043 58.0655C40.2234 57.8869 40.5509 57.7976 41.0868 57.7976H41.3548C44.3321 57.7976 45.8207 57.0532 45.8207 55.5646C45.8207 55.3264 45.0169 53.2423 43.4091 49.3122C41.8014 45.3822 40.8486 43.1492 40.5509 42.6133L35.3704 30.2873L29.2967 35.0212L23.223 39.7551L21.1686 48.0618C19.7991 53.54 19.1143 56.428 19.1143 56.7257C19.1143 57.1426 19.3525 57.4105 19.8289 57.5296C20.3052 57.6487 21.7939 57.738 24.2948 57.7976H27.0637C27.421 58.3335 27.5996 58.661 27.5996 58.7801C27.5996 59.7328 27.3912 60.626 26.9744 61.4597C26.6767 61.7574 26.2003 61.9062 25.5453 61.9062C25.3666 61.9062 24.265 61.8765 22.2405 61.8169C20.2159 61.7574 17.2386 61.7276 13.3086 61.7276C9.6167 61.7276 6.78826 61.7276 4.82324 61.7276C2.85821 61.7276 1.78638 61.7574 1.60775 61.8169C0.535915 61.8169 0 61.5192 0 60.9237C0 60.8046 0.0893192 60.3878 0.267958 59.6733C0.506142 58.7205 0.744327 58.1846 0.982511 58.0655C1.2207 57.9464 1.90548 57.8571 3.03685 57.7976C4.6446 57.7976 6.43098 57.7082 8.396 57.5296C9.22965 57.351 9.79534 56.9937 10.0931 56.4578C10.2717 56.2196 12.4154 47.9427 16.524 31.627C20.6327 15.3114 22.6871 6.70699 22.6871 5.8138Z" fill="white"/>
<path d="M84.6824 37.4162C84.6824 36.4058 85.0823 35.5217 85.8822 34.7639C86.6821 34.0061 87.6083 33.6062 88.6608 33.5641C89.4185 33.5641 90.05 33.8167 90.5552 34.3219C91.0604 34.8271 91.3341 35.4586 91.3762 36.2163C91.3762 37.1846 90.9552 38.0687 90.1132 38.8686C89.2712 39.6685 88.345 40.0895 87.3346 40.1316C86.7032 40.1316 86.1138 39.9211 85.5665 39.5001C85.0192 39.0791 84.7245 38.3844 84.6824 37.4162ZM74.3892 57.1817C74.3892 56.8449 74.5786 56.1924 74.9575 55.2241C75.3364 54.2558 75.8416 53.1823 76.4731 52.0035C77.1046 50.8247 78.0307 49.7512 79.2516 48.7829C80.4725 47.8146 81.7355 47.3516 83.0405 47.3937C84.6824 47.3937 86.0506 47.8778 87.1452 48.8461C88.2398 49.8144 88.8081 51.1194 88.8502 52.7613C88.8502 53.477 88.5555 54.6558 87.9661 56.2976C87.3767 57.9395 86.5348 60.1497 85.4402 62.9282C84.3456 65.7068 83.4615 68.0854 82.7879 70.064C82.5774 70.9902 82.4722 71.6638 82.4722 72.0848C82.4722 73.1373 82.83 73.6635 83.5457 73.6635C83.9246 73.6635 84.3246 73.6004 84.7455 73.4741C85.1665 73.3478 85.6507 73.0531 86.198 72.59C86.7453 72.1269 87.3136 71.3901 87.903 70.3798C88.4924 69.3694 89.0186 68.1275 89.4817 66.654C89.608 66.1488 89.7132 65.8541 89.7974 65.7699C89.8816 65.6857 90.2395 65.6436 90.871 65.6436C91.7129 65.6436 92.1339 65.8541 92.1339 66.2751C92.1339 66.6119 91.9445 67.2644 91.5656 68.2327C91.1867 69.201 90.6605 70.2745 89.9869 71.4533C89.3133 72.6321 88.3661 73.6845 87.1452 74.6107C85.9243 75.5369 84.6192 76 83.23 76C81.8828 76 80.6409 75.558 79.5042 74.6739C78.3675 73.7898 77.7781 72.4426 77.736 70.6324C77.736 69.9167 77.8413 69.2431 78.0518 68.6116C78.2623 67.9801 79.1674 65.5805 80.7672 61.4127C82.3669 57.1606 83.2931 54.6137 83.5457 53.7717C83.7983 52.9297 83.9457 52.1088 83.9878 51.3089C83.9878 50.2985 83.6299 49.7933 82.9142 49.7933H82.7879C81.525 49.7933 80.3672 50.4879 79.3148 51.8772C78.2623 53.2665 77.4624 55.0346 76.9151 57.1817C76.873 57.2238 76.8309 57.2869 76.7888 57.3711C76.7467 57.4553 76.7257 57.5185 76.7257 57.5606C76.7257 57.6027 76.6836 57.6448 76.5994 57.6869C76.5152 57.729 76.452 57.75 76.4099 57.75C76.3678 57.75 76.2836 57.75 76.1573 57.75C76.031 57.75 75.8626 57.75 75.6521 57.75H74.7681C74.5155 57.4974 74.3892 57.308 74.3892 57.1817Z" fill="white"/>
</svg>
