<svg width="107" height="76" viewBox="0 0 107 76" fill="none" xmlns="http://www.w3.org/2000/svg">
<path d="M22.6826 5.89228C22.6826 5.47554 20.9859 5.20763 17.5924 5.08857C16.2231 5.08857 15.3301 5.0588 14.9134 4.99926C14.4966 4.93973 14.2882 4.67183 14.2882 4.19555C14.2882 4.07648 14.3478 3.65974 14.4668 2.94533C14.824 1.75464 15.1217 1.12953 15.3599 1.07C15.4789 1.01046 15.8064 0.980694 16.3422 0.980694H16.7887C19.2296 1.09977 23.2779 1.1593 28.9337 1.1593C30.9579 1.1593 32.8332 1.1593 34.5597 1.1593C36.2862 1.1593 37.6257 1.12953 38.5783 1.07C39.5308 1.01046 40.1261 1.01046 40.3643 1.07C41.3764 1.07 41.8824 1.30814 41.8824 1.78441C41.8824 2.08208 41.7931 2.49882 41.6145 3.03463C41.555 3.1537 41.5252 3.3323 41.5252 3.57044C41.5252 3.80858 41.4954 3.98718 41.4359 4.10625C41.3764 4.22532 41.3168 4.34439 41.2573 4.46346C41.1978 4.58252 41.1085 4.67183 40.9894 4.73136C40.8703 4.79089 40.7513 4.85043 40.6322 4.90996C40.5131 4.9695 40.3047 4.99926 40.0071 4.99926C39.7094 4.99926 39.4415 5.02903 39.2034 5.08857C38.9652 5.1481 38.5485 5.1481 37.9531 5.08857C35.5718 5.1481 34.0536 5.2374 33.3988 5.35647C32.7439 5.47554 32.2081 5.80298 31.7913 6.33879L24.5579 34.7367C24.6174 34.7367 30.0946 30.4502 40.9894 21.8773C51.8842 13.3043 57.4804 8.89876 57.7781 8.66063C58.6116 7.82714 59.0283 7.1425 59.0283 6.60669C59.0283 5.71368 58.2841 5.20763 56.7958 5.08857C55.8432 5.08857 55.3669 4.76113 55.3669 4.10625C55.3669 3.98718 55.4562 3.57044 55.6348 2.85603C55.8134 2.14162 55.9623 1.69511 56.0813 1.51651C56.2599 1.21883 56.766 1.07 57.5995 1.07C57.8376 1.07 58.8795 1.09977 60.725 1.1593C62.5706 1.21883 64.952 1.2486 67.8691 1.2486C69.2384 1.2486 70.6673 1.21883 72.1556 1.1593C73.644 1.09977 74.537 1.07 74.8347 1.07C76.0253 1.07 76.6207 1.36767 76.6207 1.96301C76.6207 3.27277 76.3826 4.16578 75.9063 4.64206C75.7277 4.93973 75.1621 5.08857 74.2095 5.08857C69.7445 5.38624 65.6961 6.90436 62.0645 9.64294C61.112 10.2383 59.0283 11.7862 55.8134 14.2866C52.5986 16.7871 49.6219 19.1387 46.8833 21.3414L42.6861 24.6456L43.4898 26.6102C44.0256 27.92 44.8591 29.9144 45.9903 32.5934C47.1214 35.2725 48.1633 37.8027 49.1158 40.1841C53.5809 50.7216 55.9623 56.169 56.2599 56.5262C56.379 56.6453 56.5279 56.7644 56.7065 56.8834C57.5399 57.4788 59.0581 57.8062 61.2608 57.8658H63.1362C63.4934 58.342 63.672 58.6099 63.672 58.6695C63.672 58.729 63.5827 59.2648 63.4041 60.2769C63.1659 61.0509 62.8683 61.6164 62.5111 61.9736H61.5287C59.1474 61.795 56.3195 61.7057 53.0451 61.7057C45.7819 61.7057 41.7038 61.795 40.8108 61.9736H39.9178C39.5606 61.6164 39.382 61.3485 39.382 61.1699C39.382 60.9913 39.4415 60.4555 39.5606 59.5625C39.7987 58.7885 39.9773 58.3123 40.0964 58.1337C40.2154 57.9551 40.5429 57.8658 41.0787 57.8658H41.3466C44.3233 57.8658 45.8117 57.1216 45.8117 55.6332C45.8117 55.3951 45.008 53.3114 43.4005 49.3821C41.7931 45.4529 40.8406 43.2203 40.5429 42.6845L35.3634 30.3609L29.2909 35.0939L23.2184 39.8269L21.1645 48.1319C19.7952 53.6091 19.1105 56.4965 19.1105 56.7941C19.1105 57.2109 19.3487 57.4788 19.8249 57.5979C20.3012 57.7169 21.7896 57.8062 24.29 57.8658H27.0584C27.4156 58.4016 27.5942 58.729 27.5942 58.8481C27.5942 59.8006 27.3858 60.6936 26.9691 61.5271C26.6714 61.8248 26.1951 61.9736 25.5402 61.9736C25.3616 61.9736 24.2602 61.9439 22.2361 61.8843C20.2119 61.8248 17.2352 61.795 13.3059 61.795C9.6148 61.795 6.78691 61.795 4.82228 61.795C2.85765 61.795 1.78603 61.8248 1.60743 61.8843C0.535809 61.8843 0 61.5867 0 60.9913C0 60.8722 0.0893015 60.4555 0.267905 59.7411C0.506042 58.7885 0.744179 58.2527 0.982317 58.1337C1.22045 58.0146 1.9051 57.9253 3.03625 57.8658C4.64368 57.8658 6.42971 57.7765 8.39434 57.5979C9.22782 57.4193 9.7934 57.062 10.0911 56.5262C10.2697 56.2881 12.4129 48.0128 16.5208 31.7004C20.6286 15.388 22.6826 6.78529 22.6826 5.89228Z" fill="white"/>
<path d="M96.1567 32.2466C96.1988 32.2466 97.714 32.1414 100.702 31.931C103.691 31.7205 105.227 31.5942 105.311 31.5521C105.816 31.5521 106.069 31.7205 106.069 32.0572C106.069 32.3519 104.533 38.7076 101.46 51.1243C98.3875 63.5411 96.8091 69.8758 96.7249 70.1283C96.6407 70.3809 96.6197 70.6966 96.6618 71.0754C96.6618 72.8432 97.251 73.7271 98.4296 73.7271C98.8084 73.685 99.2293 73.4956 99.6923 73.1589C100.576 72.3171 101.439 70.2967 102.281 67.0978C102.533 66.256 102.744 65.814 102.912 65.7719C102.996 65.7298 103.207 65.7088 103.544 65.7088H103.796H104.049C104.68 65.7088 104.996 65.8772 104.996 66.2139C104.996 66.4243 104.933 66.7611 104.806 67.2241C104.259 69.3286 103.628 71.0333 102.912 72.3381C102.197 73.6429 101.607 74.4847 101.144 74.8635C100.681 75.2424 100.092 75.5791 99.3766 75.8737C99.0399 75.9579 98.5348 76 97.8613 76C96.4303 76 95.2307 75.6843 94.2626 75.053C93.2945 74.4216 92.6631 73.7692 92.3685 73.0957L91.9897 72.1487C91.9476 72.1066 91.8634 72.1276 91.7371 72.2118C91.653 72.296 91.5688 72.3802 91.4846 72.4644C89.0012 74.8215 86.4758 76 83.9083 76C81.5933 76 79.5519 75.1582 77.784 73.4746C76.0162 71.7909 75.1323 69.1182 75.1323 65.4563C75.1323 63.4359 75.5532 61.3735 76.395 59.2689C77.2369 57.1644 78.247 55.3545 79.4256 53.8392C81.4038 51.44 83.3821 49.7774 85.3604 48.8514C87.3386 47.9255 89.1275 47.4625 90.727 47.4625C93.084 47.4625 94.8519 48.3464 96.0304 50.1142C96.2408 50.3667 96.3461 50.4509 96.3461 50.3667C96.3882 50.1984 96.9564 47.9044 98.0508 43.4849C99.1451 39.0653 99.7344 36.7293 99.8186 36.4768C99.8186 35.9296 99.6712 35.5929 99.3766 35.4666C99.082 35.3403 98.2612 35.2351 96.9143 35.1509H95.5884C95.3359 34.8984 95.2096 34.73 95.2096 34.6458C95.2096 34.5616 95.2517 34.1618 95.3359 33.4462C95.5463 32.6465 95.8199 32.2466 96.1567 32.2466ZM95.2728 54.7862C94.3047 51.4611 92.7263 49.7985 90.5375 49.7985C89.0644 49.7985 87.6543 50.4509 86.3074 51.7557C84.9605 53.0605 83.9083 54.7652 83.1506 56.8697C81.93 60.1949 81.0671 63.6464 80.562 67.2241C80.562 67.3503 80.562 67.5818 80.562 67.9186C80.562 68.2553 80.541 68.5078 80.4989 68.6762C80.4989 70.5703 80.8777 71.8751 81.6353 72.5906C82.393 73.3062 83.2979 73.685 84.3502 73.7271C86.6231 73.7271 88.9591 72.2118 91.3583 69.1813L91.8634 68.4868L95.2728 54.7862Z" fill="white"/>
</svg>
