<svg width="148" height="101" viewBox="0 0 148 101" fill="none" xmlns="http://www.w3.org/2000/svg">
<path d="M0 58.5559C0 54.7327 0.637208 51.2448 1.91162 48.0923C3.18604 44.9398 4.82937 42.3239 6.8416 40.2446C8.85384 38.1652 11.1008 36.4213 13.5826 35.0127C16.0644 33.6042 18.412 32.5645 20.6254 31.8938C22.8389 31.223 24.9517 30.9212 26.964 30.9883H27.2658C30.2842 30.9883 32.9001 31.7261 35.1135 33.2017C37.327 34.6774 38.4337 36.8573 38.4337 39.7415C38.4337 45.7782 34.7111 49.7356 27.2658 51.6137C23.9792 52.4857 19.4852 52.9552 13.7838 53.0223C11.3021 53.0223 10.0276 53.0893 9.96057 53.2235C9.96057 53.3576 9.75935 54.5314 9.3569 56.7449C8.95445 58.9584 8.71969 60.9035 8.65262 62.5804C8.65262 65.7329 9.3569 68.2146 10.7655 70.0257C12.174 71.8367 14.2869 72.7757 17.104 72.8428C19.9211 72.9099 23.0401 72.2727 26.4609 70.9312C29.8817 69.5897 32.9671 67.3762 35.7172 64.2908C36.3209 63.62 36.7233 63.2847 36.9245 63.2847C37.1928 63.2847 37.6288 63.5865 38.2325 64.1902C38.8362 64.7938 39.1715 65.2634 39.2386 65.5987C39.3057 65.9341 39.0039 66.4707 38.3331 67.2085C37.6624 67.9463 36.6562 68.8519 35.3148 69.925C33.9733 70.9982 32.4305 72.0379 30.6866 73.044C28.9427 74.0501 26.8298 74.8886 24.3481 75.5593C21.8663 76.2301 19.3175 76.5654 16.7016 76.5654C11.4027 76.5654 7.31113 74.788 4.42692 71.233C1.54271 67.6781 0.0670746 63.4524 0 58.5559ZM33.6044 39.9427C33.2019 36.4548 30.9214 34.7109 26.7627 34.7109C24.5493 34.7109 22.5035 35.1804 20.6254 36.1195C18.7473 37.0585 17.2382 38.1988 16.0979 39.5403C14.9576 40.8818 13.985 42.2568 13.1801 43.6654C12.3753 45.0739 11.8387 46.2813 11.5704 47.2874C11.3021 48.2935 11.1344 48.9307 11.0673 49.199C11.0673 49.2661 11.738 49.2996 13.0795 49.2996C20.659 49.2996 25.9579 48.4947 28.9762 46.8849C31.9946 45.2751 33.5373 42.9611 33.6044 39.9427Z" fill="white"/>
<path d="M52.4189 50.3064C52.4189 45.6782 52.7543 41.2849 53.4251 37.1262C54.0958 32.9676 54.8672 29.3791 55.7391 26.3608C56.6111 23.3424 57.852 20.3911 59.4618 17.5069C61.0716 14.6227 62.346 12.3757 63.285 10.7659C64.2241 9.15614 65.6326 7.41221 67.5107 5.53412C69.3888 3.65603 70.4955 2.51576 70.8309 2.11332C71.1663 1.71087 72.0047 1.00658 73.3462 0.000465393H74.6542H75.0566C75.9957 0.000465393 76.4652 0.302307 76.4652 0.905975C76.4652 1.1072 75.895 1.81149 74.7548 3.01882C73.6145 4.22617 72.2395 6.00364 70.6297 8.35125C69.0199 10.6989 67.3766 13.5831 65.6997 17.0039C64.0228 20.4247 62.6143 25.0528 61.474 30.8883C60.3337 36.7238 59.7636 43.1965 59.7636 50.3064C59.7636 57.4163 60.3337 63.8554 61.474 69.6239C62.6143 75.3923 63.9893 80.054 65.5991 83.6089C67.2089 87.1639 68.8522 90.0481 70.5291 92.2615C72.2059 94.475 73.6145 96.2525 74.7548 97.5939C75.895 98.9354 76.4652 99.6397 76.4652 99.7068C76.4652 100.31 75.9621 100.612 74.956 100.612H74.6542H73.3462L70.5291 98.1976C64.2241 92.4963 59.6295 85.3864 56.7453 76.8679C53.861 68.3494 52.4189 59.4956 52.4189 50.3064Z" fill="white"/>
<path d="M84.715 36.7231C84.2455 36.2536 84.0107 35.9183 84.0107 35.717C84.0107 35.4487 84.1114 34.9121 84.3126 34.1072C84.5138 33.3023 84.6815 32.8328 84.8156 32.6987C84.9498 32.3633 85.2516 32.1956 85.7211 32.1956C86.1907 32.1956 87.9011 32.1621 90.8523 32.095H96.1848L98.0964 24.0461C98.2976 23.3082 98.5324 22.3357 98.8007 21.1283C99.069 19.921 99.3037 19.049 99.505 18.5124C99.7062 17.9758 99.9074 17.3051 100.109 16.5002C100.31 15.6953 100.578 15.1251 100.914 14.7898C101.249 14.4544 101.584 14.0519 101.92 13.5824C102.255 13.1129 102.725 12.8111 103.328 12.6769C103.932 12.5428 104.536 12.4757 105.139 12.4757C106.347 12.5428 107.185 12.9117 107.655 13.5824C108.124 14.2532 108.359 14.8904 108.359 15.494C108.359 15.9636 108.057 17.5398 107.453 20.2228C106.85 22.9058 106.179 25.5552 105.441 28.1711L104.435 31.8938C104.435 32.0279 106.112 32.095 109.466 32.095H114.597C115.066 32.5645 115.301 32.9334 115.301 33.2017C115.301 34.6774 114.865 35.8512 113.993 36.7231H103.228L99.6056 51.3119C96.9897 62.0438 95.6817 67.8122 95.6817 68.6171C95.6817 71.4342 96.5872 72.8428 98.3982 72.8428C100.746 72.8428 103.026 71.7025 105.24 69.422C107.453 67.1415 109.231 64.3243 110.572 60.9706C110.706 60.5681 110.874 60.3334 111.075 60.2663C111.277 60.1992 111.78 60.1322 112.585 60.0651H112.987C113.993 60.0651 114.496 60.3334 114.496 60.87C114.496 61.0712 114.396 61.4737 114.194 62.0773C113.859 63.1505 113.255 64.4249 112.383 65.9006C111.511 67.3762 110.371 68.9525 108.962 70.6293C107.554 72.3062 105.844 73.7148 103.831 74.855C101.819 75.9953 99.7733 76.5654 97.694 76.5654C95.6817 76.5654 93.7701 76.0624 91.9591 75.0563C90.1481 74.0501 88.8401 72.3062 88.0352 69.8244C87.9011 69.2878 87.834 68.3823 87.834 67.1079V65.2969L91.3554 51.2112C93.703 41.7537 94.9104 36.9914 94.9774 36.9244C94.9774 36.7902 93.267 36.7231 89.8462 36.7231H84.715Z" fill="white"/>
<path d="M124.457 0.101082L124.859 0.000465393C125.194 0.000465393 125.53 0.000465393 125.865 0.000465393H127.073L129.89 2.41515C136.195 8.11649 140.789 15.2264 143.674 23.7449C146.558 32.2633 148 41.1172 148 50.3064C148 54.8675 147.664 59.2608 146.994 63.4865C146.323 67.7122 145.552 71.3007 144.68 74.252C143.808 77.2033 142.567 80.1546 140.957 83.1058C139.347 86.0571 138.073 88.3041 137.134 89.8468C136.195 91.3896 134.82 93.1 133.009 94.978C131.198 96.8561 130.124 97.9629 129.789 98.2982C129.454 98.6336 128.682 99.2708 127.475 100.21C127.274 100.411 127.14 100.545 127.073 100.612H125.865C125.329 100.612 124.96 100.612 124.759 100.612C124.557 100.612 124.39 100.512 124.255 100.31C124.121 100.109 124.021 99.8074 123.954 99.405C124.021 99.3379 124.39 98.9019 125.06 98.097C135.457 87.298 140.655 71.3678 140.655 50.3064C140.655 29.245 135.457 13.3148 125.06 2.51576C124.39 1.71087 124.021 1.27489 123.954 1.20781C123.954 0.671211 124.121 0.302307 124.457 0.101082Z" fill="white"/>
</svg>
