<svg width="963" height="133" viewBox="0 0 963 133" fill="none" xmlns="http://www.w3.org/2000/svg">
<path d="M0 67.6727C0 67.3825 0.163238 66.8202 0.489714 65.9859C0.81619 65.1516 1.26963 64.2084 1.85003 63.1565C2.43043 62.1045 3.22849 61.1976 4.24419 60.4358C5.25989 59.674 6.33001 59.275 7.45454 59.2387C9.12319 59.2387 10.3747 59.6922 11.209 60.5991C12.0433 61.5059 12.4605 62.5761 12.4605 63.8094C12.4605 64.4624 11.8438 66.4938 10.6105 69.9036C9.37712 73.3135 8.76044 75.8709 8.76044 77.5758C8.76044 79.1357 9.01437 80.2239 9.52222 80.8406C10.0301 81.4573 10.7919 81.7837 11.8076 81.82C12.8233 81.8563 13.7845 81.5479 14.6914 80.895C15.5983 80.242 16.2694 79.6254 16.7047 79.045L17.3032 78.12C17.3758 77.9748 18.065 75.2179 19.3709 69.8492C20.4592 65.4962 21.1121 62.9569 21.3298 62.2314C21.5474 61.5059 21.8014 60.98 22.0916 60.6535C22.7082 60.1094 23.3612 59.8373 24.0504 59.8373C24.6671 59.8373 25.1205 60.0187 25.4107 60.3814C25.7009 60.7442 25.846 61.0888 25.846 61.4153L21.7107 78.7185C21.6744 78.8999 21.6563 79.1901 21.6563 79.5891C21.6563 80.496 21.7832 81.0945 22.0371 81.3847C22.2911 81.6749 22.672 81.8382 23.1798 81.8744C23.9779 81.7656 24.6127 81.2033 25.0843 80.1876C25.5558 79.1719 26.1 77.5758 26.7166 75.3993C26.7892 75.1091 27.1519 74.964 27.8049 74.964C28.4941 74.964 28.8387 75.1273 28.8387 75.4537C28.8025 75.6351 28.7662 75.889 28.7299 76.2155C28.6936 76.542 28.5304 77.1224 28.2402 77.9567C27.95 78.791 27.6416 79.571 27.3152 80.2965C26.9887 81.022 26.5353 81.7112 25.9549 82.3641C25.3745 83.0171 24.7215 83.4705 23.996 83.7245C23.7058 83.797 23.2705 83.8333 22.6901 83.8333C20.2959 83.8333 18.6454 82.8176 17.7385 80.7862C17.666 80.8224 17.4665 81.0038 17.14 81.3303C16.8135 81.6568 16.487 81.9288 16.1606 82.1465C15.8341 82.3641 15.4351 82.6362 14.9635 82.9627C14.4919 83.2892 13.9659 83.5068 13.3855 83.6156C12.8051 83.7245 12.1884 83.8151 11.5355 83.8877C9.93939 83.8877 8.52466 83.5612 7.2913 82.9083C5.40499 81.7837 4.46184 79.8612 4.46184 77.1405C4.46184 75.0728 5.09666 72.3703 6.36628 69.033C7.63591 65.6957 8.27073 63.5736 8.27073 62.6667C8.27073 62.6305 8.27073 62.5942 8.27073 62.5579C8.27073 62.2314 8.27073 62.0138 8.27073 61.905C8.27073 61.7961 8.19818 61.6692 8.05308 61.5241C7.90798 61.379 7.70846 61.3064 7.45454 61.3064H7.23689C6.40256 61.3064 5.64078 61.651 4.95156 62.3403C4.26233 63.0295 3.7182 63.7731 3.31917 64.5712C2.92015 65.3692 2.61181 66.131 2.39416 66.8565C2.17651 67.582 2.03141 67.9811 1.95886 68.0536C1.88631 68.1262 1.59611 68.1624 1.08825 68.1624H0.326476C0.108825 67.9448 0 67.7815 0 67.6727Z" fill="white"/>
<path d="M35.0962 69.6853C35.0962 67.1823 35.2776 64.8062 35.6403 62.5572C36.0031 60.3081 36.4202 58.3674 36.8918 56.735C37.3634 55.1026 38.0345 53.5065 38.9051 51.9467C39.7757 50.3869 40.4649 49.1717 40.9728 48.3011C41.4806 47.4305 42.2424 46.4873 43.2581 45.4716C44.2738 44.4559 44.8723 43.8392 45.0537 43.6216C45.2351 43.4039 45.6885 43.023 46.414 42.4789H47.1214H47.339C47.8469 42.4789 48.1008 42.6421 48.1008 42.9686C48.1008 43.0774 47.7925 43.4583 47.1758 44.1113C46.5591 44.7642 45.8155 45.7255 44.9449 46.9952C44.0743 48.2648 43.1855 49.8246 42.2787 51.6747C41.3718 53.5247 40.61 56.0277 39.9933 59.1836C39.3767 62.3395 39.0683 65.8401 39.0683 69.6853C39.0683 73.5304 39.3767 77.0128 39.9933 80.1325C40.61 83.2522 41.3537 85.7733 42.2243 87.6959C43.0949 89.6184 43.9836 91.1783 44.8905 92.3753C45.7974 93.5724 46.5591 94.5337 47.1758 95.2592C47.7925 95.9847 48.1008 96.3656 48.1008 96.4019C48.1008 96.7284 47.8288 96.8916 47.2846 96.8916H47.1214H46.414L44.8905 95.5857C41.4806 92.5023 38.9958 88.6571 37.4359 84.0502C35.8761 79.4433 35.0962 74.6549 35.0962 69.6853Z" fill="white"/>
<path d="M52.562 62.3403C52.3081 62.0863 52.1812 61.905 52.1812 61.7961C52.1812 61.651 52.2356 61.3608 52.3444 60.9255C52.4532 60.4902 52.5439 60.2363 52.6165 60.1638C52.689 59.9824 52.8522 59.8917 53.1062 59.8917C53.3601 59.8917 54.2851 59.8736 55.8812 59.8373H58.7651L59.7989 55.4843C59.9078 55.0852 60.0347 54.5593 60.1798 53.9063C60.3249 53.2534 60.4519 52.7818 60.5607 52.4916C60.6695 52.2014 60.7784 51.8386 60.8872 51.4033C60.996 50.968 61.1411 50.6597 61.3225 50.4783C61.5039 50.2969 61.6852 50.0793 61.8666 49.8254C62.048 49.5714 62.3019 49.4082 62.6284 49.3356C62.9549 49.2631 63.2813 49.2268 63.6078 49.2268C64.2608 49.2631 64.7142 49.4626 64.9681 49.8254C65.2221 50.1881 65.349 50.5327 65.349 50.8592C65.349 51.1131 65.1858 51.9656 64.8593 53.4166C64.5328 54.8676 64.1701 56.3005 63.7711 57.7152L63.2269 59.7285C63.2269 59.801 64.1338 59.8373 65.9476 59.8373H68.7226C68.9765 60.0912 69.1035 60.2907 69.1035 60.4358C69.1035 61.2339 68.8677 61.8687 68.3961 62.3403H62.574L60.6151 70.2301C59.2004 76.0341 58.493 79.1538 58.493 79.5891C58.493 81.1126 58.9827 81.8744 59.9622 81.8744C61.2318 81.8744 62.4652 81.2577 63.6622 80.0244C64.8593 78.791 65.8206 77.2675 66.5461 75.4537C66.6187 75.2361 66.7093 75.1091 66.8182 75.0728C66.927 75.0366 67.1991 75.0003 67.6344 74.964H67.852C68.3961 74.964 68.6682 75.1091 68.6682 75.3993C68.6682 75.5081 68.6138 75.7258 68.505 76.0523C68.3236 76.6327 67.9971 77.3219 67.5255 78.12C67.054 78.918 66.4373 79.7705 65.6755 80.6773C64.9137 81.5842 63.9887 82.346 62.9005 82.9627C61.8122 83.5794 60.7058 83.8877 59.5813 83.8877C58.493 83.8877 57.4592 83.6156 56.4798 83.0715C55.5003 82.5274 54.793 81.5842 54.3577 80.242C54.2851 79.9518 54.2488 79.4621 54.2488 78.7729V77.7935L56.1533 70.1757C57.4229 65.0609 58.0759 62.4854 58.1121 62.4491C58.1121 62.3765 57.1871 62.3403 55.3371 62.3403H52.562Z" fill="white"/>
<path d="M74.0562 42.5333L74.2739 42.4789C74.4553 42.4789 74.6366 42.4789 74.818 42.4789H75.471L76.9945 43.7848C80.4044 46.8682 82.8892 50.7134 84.4491 55.3203C86.0089 59.9272 86.7888 64.7156 86.7888 69.6853C86.7888 72.152 86.6074 74.528 86.2447 76.8133C85.8819 79.0986 85.4648 81.0394 84.9932 82.6355C84.5216 84.2316 83.8505 85.8277 82.9799 87.4238C82.1093 89.0199 81.4201 90.2351 80.9122 91.0694C80.4044 91.9038 79.6608 92.8288 78.6813 93.8445C77.7019 94.8602 77.1215 95.4587 76.9401 95.6401C76.7587 95.8215 76.3416 96.1661 75.6886 96.674C75.5798 96.7828 75.5072 96.8553 75.471 96.8916H74.818C74.5278 96.8916 74.3283 96.8916 74.2195 96.8916C74.1107 96.8916 74.02 96.8372 73.9474 96.7284C73.8749 96.6195 73.8205 96.4563 73.7842 96.2386C73.8205 96.2024 74.02 95.9666 74.3827 95.5313C80.0054 89.691 82.8167 81.0756 82.8167 69.6853C82.8167 58.2949 80.0054 49.6795 74.3827 43.8392C74.02 43.4039 73.8205 43.1681 73.7842 43.1319C73.7842 42.8417 73.8749 42.6421 74.0562 42.5333Z" fill="white"/>
<path d="M110.121 64.4074C110.121 63.9359 110.375 63.5731 110.882 63.3192H145.543C146.087 63.6094 146.359 63.9721 146.359 64.4074C146.359 64.8065 146.106 65.1511 145.598 65.4413L128.294 65.4957H110.991C110.411 65.3143 110.121 64.9516 110.121 64.4074ZM110.121 74.9635C110.121 74.4194 110.411 74.0566 110.991 73.8753H145.598C146.106 74.238 146.359 74.6008 146.359 74.9635C146.359 75.4351 146.087 75.7978 145.543 76.0518H110.882C110.375 75.7978 110.121 75.4351 110.121 74.9635Z" fill="white"/>
<path d="M180.03 49.1169C180.03 48.863 178.996 48.6997 176.929 48.6272C176.094 48.6272 175.55 48.6091 175.296 48.5728C175.042 48.5365 174.916 48.3733 174.916 48.0831C174.916 48.0105 174.952 47.7566 175.024 47.3213C175.242 46.5958 175.423 46.2149 175.568 46.1786C175.641 46.1424 175.841 46.1242 176.167 46.1242H176.439C177.926 46.1968 180.393 46.233 183.839 46.233C185.073 46.233 186.215 46.233 187.267 46.233C188.319 46.233 189.135 46.2149 189.716 46.1786C190.296 46.1424 190.659 46.1424 190.804 46.1786C191.421 46.1786 191.729 46.3237 191.729 46.6139C191.729 46.7953 191.675 47.0492 191.566 47.3757C191.53 47.4483 191.511 47.5571 191.511 47.7022C191.511 47.8473 191.493 47.9561 191.457 48.0287C191.421 48.1012 191.384 48.1738 191.348 48.2463C191.312 48.3189 191.257 48.3733 191.185 48.4095C191.112 48.4458 191.04 48.4821 190.967 48.5184C190.895 48.5546 190.768 48.5728 190.586 48.5728C190.405 48.5728 190.242 48.5909 190.097 48.6272C189.952 48.6635 189.698 48.6635 189.335 48.6272C187.884 48.6635 186.959 48.7179 186.56 48.7904C186.161 48.863 185.834 49.0625 185.58 49.389L181.173 66.6922C181.209 66.6922 184.547 64.0804 191.185 58.8568C197.823 53.6332 201.233 50.9488 201.414 50.8037C201.922 50.2959 202.176 49.8787 202.176 49.5522C202.176 49.0081 201.723 48.6997 200.816 48.6272C200.236 48.6272 199.945 48.4277 199.945 48.0287C199.945 47.9561 200 47.7022 200.109 47.2669C200.217 46.8316 200.308 46.5595 200.381 46.4507C200.489 46.2693 200.798 46.1786 201.306 46.1786C201.451 46.1786 202.086 46.1968 203.21 46.233C204.335 46.2693 205.786 46.2875 207.563 46.2875C208.397 46.2875 209.268 46.2693 210.175 46.233C211.082 46.1968 211.626 46.1786 211.807 46.1786C212.533 46.1786 212.896 46.36 212.896 46.7228C212.896 47.5208 212.75 48.0649 212.46 48.3551C212.351 48.5365 212.007 48.6272 211.426 48.6272C208.706 48.8086 206.239 49.7336 204.026 51.4022C203.446 51.765 202.176 52.7082 200.217 54.2317C198.259 55.7553 196.445 57.1881 194.776 58.5303L192.219 60.5436L192.708 61.7407C193.035 62.5387 193.543 63.7539 194.232 65.3863C194.921 67.0187 195.556 68.5604 196.136 70.0114C198.857 76.4321 200.308 79.7513 200.489 79.9689C200.562 80.0415 200.653 80.114 200.762 80.1866C201.269 80.5493 202.194 80.7488 203.537 80.7851H204.679C204.897 81.0753 205.006 81.2385 205.006 81.2748C205.006 81.3111 204.951 81.6376 204.842 82.2542C204.697 82.7258 204.516 83.0704 204.298 83.2881H203.7C202.249 83.1793 200.526 83.1248 198.531 83.1248C194.105 83.1248 191.62 83.1793 191.076 83.2881H190.532C190.314 83.0704 190.205 82.9072 190.205 82.7984C190.205 82.6895 190.242 82.3631 190.314 81.8189C190.459 81.3474 190.568 81.0572 190.641 80.9483C190.713 80.8395 190.913 80.7851 191.239 80.7851H191.403C193.216 80.7851 194.123 80.3317 194.123 79.4248C194.123 79.2797 193.633 78.0101 192.654 75.6159C191.675 73.2217 191.094 71.8614 190.913 71.5349L187.757 64.026L184.057 66.9099L180.357 69.7937L179.105 74.8541C178.271 78.1914 177.854 79.9508 177.854 80.1321C177.854 80.3861 177.999 80.5493 178.289 80.6219C178.579 80.6944 179.486 80.7488 181.01 80.7851H182.697C182.914 81.1116 183.023 81.3111 183.023 81.3836C183.023 81.964 182.896 82.5082 182.642 83.016C182.461 83.1974 182.171 83.2881 181.772 83.2881C181.663 83.2881 180.992 83.2699 179.758 83.2337C178.525 83.1974 176.711 83.1793 174.317 83.1793C172.068 83.1793 170.345 83.1793 169.148 83.1793C167.951 83.1793 167.298 83.1974 167.189 83.2337C166.536 83.2337 166.209 83.0523 166.209 82.6895C166.209 82.617 166.264 82.3631 166.373 81.9278C166.518 81.3474 166.663 81.0209 166.808 80.9483C166.953 80.8758 167.37 80.8214 168.06 80.7851C169.039 80.7851 170.127 80.7307 171.324 80.6219C171.832 80.513 172.177 80.2954 172.358 79.9689C172.467 79.8238 173.773 74.7816 176.276 64.8422C178.779 54.9028 180.03 49.661 180.03 49.1169Z" fill="white"/>
<path d="M211.604 80.4101C211.63 80.3332 211.655 80.2306 211.681 80.1023C211.706 79.9741 211.771 79.692 211.873 79.256C211.976 78.82 212.104 78.4225 212.258 78.0634C212.412 77.7044 212.604 77.2812 212.835 76.7939C213.066 76.3067 213.322 75.922 213.604 75.6398C213.886 75.3577 214.22 75.0756 214.605 74.7935C214.989 74.5114 215.412 74.396 215.874 74.4473C217.798 74.4473 219.029 75.268 219.567 76.9093L219.952 76.5631C221.542 75.1526 223.055 74.4473 224.491 74.4473C226.158 74.4473 227.466 75.05 228.415 76.2554C229.364 77.4608 229.839 78.9226 229.839 80.6409C229.839 83.4107 228.864 85.9626 226.915 88.2964C224.966 90.6302 222.76 91.81 220.298 91.8356C219.734 91.8356 219.234 91.7587 218.798 91.6048C218.516 91.4766 218.221 91.2842 217.913 91.0278C217.605 90.7713 217.362 90.5533 217.182 90.3738L216.913 90.066C216.887 90.0917 216.605 91.2073 216.066 93.4129C215.528 95.6185 215.259 96.7341 215.259 96.7598C215.259 96.9136 215.361 97.0034 215.566 97.029C215.771 97.0547 216.246 97.0932 216.99 97.1445H217.951C218.105 97.324 218.182 97.4394 218.182 97.4907C218.182 97.542 218.144 97.7728 218.067 98.1831C217.99 98.4909 217.913 98.6832 217.836 98.7602C217.759 98.8371 217.592 98.8884 217.336 98.9141C217.285 98.9141 217.144 98.9141 216.913 98.9141C216.682 98.9141 216.246 98.9012 215.605 98.8756C214.964 98.8499 214.169 98.8371 213.22 98.8371C211.424 98.8371 210.283 98.8628 209.796 98.9141H209.488C209.309 98.7345 209.219 98.5935 209.219 98.4909C209.27 97.7984 209.437 97.3496 209.719 97.1445H210.488C211.36 97.1188 211.86 96.9649 211.989 96.6828C212.066 96.5289 212.848 93.4642 214.335 87.4885C215.823 81.5129 216.605 78.3456 216.682 77.9865C216.708 77.8583 216.72 77.6787 216.72 77.4479C216.72 76.3964 216.4 75.8707 215.759 75.8707C215.194 75.8707 214.72 76.2297 214.335 76.9478C213.951 77.6659 213.656 78.4481 213.45 79.2945C213.245 80.1408 213.091 80.6024 212.989 80.6794C212.937 80.7307 212.732 80.7563 212.373 80.7563H211.835C211.681 80.6024 211.604 80.487 211.604 80.4101ZM217.567 87.527C218.131 89.4761 219.08 90.4507 220.413 90.4507C221.183 90.4507 221.927 90.1558 222.645 89.5659C223.363 88.976 223.953 88.2323 224.414 87.3347C224.876 86.4627 225.338 85.0778 225.799 83.1799C226.261 81.2821 226.505 79.8715 226.53 78.9482V78.7174C226.53 76.8196 225.748 75.8707 224.183 75.8707C223.901 75.8707 223.619 75.9091 223.337 75.9861C223.055 76.063 222.773 76.1784 222.491 76.3323C222.209 76.4862 221.952 76.6529 221.721 76.8324C221.491 77.0119 221.273 77.2043 221.067 77.4095C220.862 77.6146 220.67 77.807 220.49 77.9865C220.311 78.166 220.17 78.3456 220.067 78.5251C219.965 78.7046 219.862 78.8328 219.759 78.9098L219.644 79.0637C219.644 79.0893 219.606 79.2688 219.529 79.6022C219.452 79.9356 219.311 80.4999 219.105 81.2949C218.9 82.0899 218.721 82.7568 218.567 83.2953C217.9 86.0139 217.567 87.4244 217.567 87.527Z" fill="white"/>
<path d="M234.911 74.1478C234.911 72.0801 235.256 70.1938 235.945 68.4889C236.634 66.784 237.523 65.3692 238.611 64.2447C239.699 63.1202 240.915 62.177 242.257 61.4153C243.599 60.6535 244.869 60.0912 246.066 59.7285C247.263 59.3657 248.405 59.2025 249.494 59.2387H249.657C251.289 59.2387 252.704 59.6378 253.901 60.4358C255.098 61.2339 255.697 62.4128 255.697 63.9726C255.697 67.2374 253.684 69.3776 249.657 70.3933C247.879 70.8649 245.449 71.1188 242.366 71.1551C241.023 71.1551 240.334 71.1914 240.298 71.2639C240.298 71.3365 240.189 71.9713 239.972 73.1684C239.754 74.3655 239.627 75.4175 239.591 76.3243C239.591 78.0293 239.972 79.3714 240.733 80.3509C241.495 81.3303 242.638 81.8382 244.161 81.8744C245.685 81.9107 247.372 81.5661 249.222 80.8406C251.072 80.1151 252.74 78.918 254.228 77.2493C254.554 76.8866 254.772 76.7052 254.881 76.7052C255.026 76.7052 255.261 76.8685 255.588 77.1949C255.914 77.5214 256.096 77.7753 256.132 77.9567C256.168 78.1381 256.005 78.4283 255.642 78.8273C255.28 79.2263 254.735 79.7161 254.01 80.2965C253.284 80.8769 252.45 81.4391 251.507 81.9833C250.564 82.5274 249.421 82.9808 248.079 83.3436C246.737 83.7063 245.358 83.8877 243.944 83.8877C241.078 83.8877 238.865 82.9264 237.305 81.0038C235.745 79.0812 234.947 76.7959 234.911 74.1478ZM253.085 64.0815C252.867 62.1952 251.634 61.252 249.385 61.252C248.188 61.252 247.081 61.5059 246.066 62.0138C245.05 62.5216 244.234 63.1383 243.617 63.8638C243 64.5893 242.474 65.333 242.039 66.0947C241.604 66.8565 241.314 67.5095 241.169 68.0536C241.023 68.5977 240.933 68.9423 240.897 69.0874C240.897 69.1237 241.259 69.1419 241.985 69.1419C246.084 69.1419 248.95 68.7066 250.582 67.8359C252.214 66.9653 253.049 65.7139 253.085 64.0815Z" fill="white"/>
<path d="M263.26 69.6853C263.26 67.1823 263.441 64.8062 263.804 62.5572C264.167 60.3081 264.584 58.3674 265.055 56.735C265.527 55.1026 266.198 53.5065 267.069 51.9467C267.939 50.3869 268.628 49.1717 269.136 48.3011C269.644 47.4305 270.406 46.4873 271.422 45.4716C272.437 44.4559 273.036 43.8392 273.217 43.6216C273.399 43.4039 273.852 43.023 274.578 42.4789H275.285H275.503C276.01 42.4789 276.264 42.6421 276.264 42.9686C276.264 43.0774 275.956 43.4583 275.339 44.1113C274.723 44.7642 273.979 45.7255 273.108 46.9952C272.238 48.2648 271.349 49.8246 270.442 51.6747C269.535 53.5247 268.774 56.0277 268.157 59.1836C267.54 62.3395 267.232 65.8401 267.232 69.6853C267.232 73.5304 267.54 77.0128 268.157 80.1325C268.774 83.2522 269.517 85.7733 270.388 87.6959C271.258 89.6184 272.147 91.1783 273.054 92.3753C273.961 93.5724 274.723 94.5337 275.339 95.2592C275.956 95.9847 276.264 96.3656 276.264 96.4019C276.264 96.7284 275.992 96.8916 275.448 96.8916H275.285H274.578L273.054 95.5857C269.644 92.5023 267.159 88.6571 265.6 84.0502C264.04 79.4433 263.26 74.6549 263.26 69.6853Z" fill="white"/>
<path d="M280.726 62.3403C280.472 62.0863 280.345 61.905 280.345 61.7961C280.345 61.651 280.4 61.3608 280.508 60.9255C280.617 60.4902 280.708 60.2363 280.781 60.1638C280.853 59.9824 281.016 59.8917 281.27 59.8917C281.524 59.8917 282.449 59.8736 284.045 59.8373H286.929L287.963 55.4843C288.072 55.0852 288.199 54.5593 288.344 53.9063C288.489 53.2534 288.616 52.7818 288.725 52.4916C288.834 52.2014 288.942 51.8386 289.051 51.4033C289.16 50.968 289.305 50.6597 289.487 50.4783C289.668 50.2969 289.849 50.0793 290.031 49.8254C290.212 49.5714 290.466 49.4082 290.792 49.3356C291.119 49.2631 291.445 49.2268 291.772 49.2268C292.425 49.2631 292.878 49.4626 293.132 49.8254C293.386 50.1881 293.513 50.5327 293.513 50.8592C293.513 51.1131 293.35 51.9656 293.023 53.4166C292.697 54.8676 292.334 56.3005 291.935 57.7152L291.391 59.7285C291.391 59.801 292.298 59.8373 294.112 59.8373H296.887C297.141 60.0912 297.268 60.2907 297.268 60.4358C297.268 61.2339 297.032 61.8687 296.56 62.3403H290.738L288.779 70.2301C287.364 76.0341 286.657 79.1538 286.657 79.5891C286.657 81.1126 287.147 81.8744 288.126 81.8744C289.396 81.8744 290.629 81.2577 291.826 80.0244C293.023 78.791 293.985 77.2675 294.71 75.4537C294.783 75.2361 294.873 75.1091 294.982 75.0728C295.091 75.0366 295.363 75.0003 295.798 74.964H296.016C296.56 74.964 296.832 75.1091 296.832 75.3993C296.832 75.5081 296.778 75.7258 296.669 76.0523C296.488 76.6327 296.161 77.3219 295.69 78.12C295.218 78.918 294.601 79.7705 293.84 80.6773C293.078 81.5842 292.153 82.346 291.065 82.9627C289.976 83.5794 288.87 83.8877 287.745 83.8877C286.657 83.8877 285.623 83.6156 284.644 83.0715C283.664 82.5274 282.957 81.5842 282.522 80.242C282.449 79.9518 282.413 79.4621 282.413 78.7729V77.7935L284.317 70.1757C285.587 65.0609 286.24 62.4854 286.276 62.4491C286.276 62.3765 285.351 62.3403 283.501 62.3403H280.726Z" fill="white"/>
<path d="M302.219 42.5333L302.437 42.4789C302.618 42.4789 302.8 42.4789 302.981 42.4789H303.634L305.158 43.7848C308.567 46.8682 311.052 50.7134 312.612 55.3203C314.172 59.9272 314.952 64.7156 314.952 69.6853C314.952 72.152 314.771 74.528 314.408 76.8133C314.045 79.0986 313.628 81.0394 313.156 82.6355C312.685 84.2316 312.014 85.8277 311.143 87.4238C310.272 89.0199 309.583 90.2351 309.075 91.0694C308.567 91.9038 307.824 92.8288 306.844 93.8445C305.865 94.8602 305.285 95.4587 305.103 95.6401C304.922 95.8215 304.505 96.1661 303.852 96.674C303.743 96.7828 303.67 96.8553 303.634 96.8916H302.981C302.691 96.8916 302.491 96.8916 302.383 96.8916C302.274 96.8916 302.183 96.8372 302.111 96.7284C302.038 96.6195 301.984 96.4563 301.947 96.2386C301.984 96.2024 302.183 95.9666 302.546 95.5313C308.168 89.691 310.98 81.0756 310.98 69.6853C310.98 58.2949 308.168 49.6795 302.546 43.8392C302.183 43.4039 301.984 43.1681 301.947 43.1319C301.947 42.8417 302.038 42.6421 302.219 42.5333Z" fill="white"/>
<path d="M335.264 70.3914C335.264 70.3914 335.264 70.1556 335.264 69.684C335.264 69.2124 335.518 68.8497 336.025 68.5958H352.295V60.4339L352.349 52.272C352.712 51.8004 353.057 51.5646 353.383 51.5646C353.855 51.5646 354.217 51.8367 354.471 52.3808V68.5958H370.686C371.23 68.886 371.503 69.2487 371.503 69.684C371.503 70.1193 371.23 70.4821 370.686 70.7723H354.471V86.9872C354.181 87.4951 353.855 87.749 353.492 87.749H353.383H353.274C352.839 87.749 352.512 87.4951 352.295 86.9872V70.7723H336.025C335.518 70.5183 335.264 70.1556 335.264 69.684V70.3914Z" fill="white"/>
<path d="M402.147 49.1169C402.147 48.863 401.114 48.6997 399.046 48.6272C398.212 48.6272 397.668 48.6091 397.414 48.5728C397.16 48.5365 397.033 48.3733 397.033 48.0831C397.033 48.0105 397.069 47.7566 397.142 47.3213C397.359 46.5958 397.541 46.2149 397.686 46.1786C397.758 46.1424 397.958 46.1242 398.284 46.1242H398.556C400.044 46.1968 402.51 46.233 405.956 46.233C407.19 46.233 408.332 46.233 409.384 46.233C410.436 46.233 411.253 46.2149 411.833 46.1786C412.413 46.1424 412.776 46.1424 412.921 46.1786C413.538 46.1786 413.846 46.3237 413.846 46.6139C413.846 46.7953 413.792 47.0492 413.683 47.3757C413.647 47.4483 413.629 47.5571 413.629 47.7022C413.629 47.8473 413.61 47.9561 413.574 48.0287C413.538 48.1012 413.502 48.1738 413.465 48.2463C413.429 48.3189 413.375 48.3733 413.302 48.4095C413.23 48.4458 413.157 48.4821 413.084 48.5184C413.012 48.5546 412.885 48.5728 412.704 48.5728C412.522 48.5728 412.359 48.5909 412.214 48.6272C412.069 48.6635 411.815 48.6635 411.452 48.6272C410.001 48.6635 409.076 48.7179 408.677 48.7904C408.278 48.863 407.952 49.0625 407.698 49.389L403.29 66.6922C403.326 66.6922 406.664 64.0804 413.302 58.8568C419.94 53.6332 423.35 50.9488 423.532 50.8037C424.04 50.2959 424.293 49.8787 424.293 49.5522C424.293 49.0081 423.84 48.6997 422.933 48.6272C422.353 48.6272 422.063 48.4277 422.063 48.0287C422.063 47.9561 422.117 47.7022 422.226 47.2669C422.335 46.8316 422.425 46.5595 422.498 46.4507C422.607 46.2693 422.915 46.1786 423.423 46.1786C423.568 46.1786 424.203 46.1968 425.327 46.233C426.452 46.2693 427.903 46.2875 429.68 46.2875C430.515 46.2875 431.385 46.2693 432.292 46.233C433.199 46.1968 433.743 46.1786 433.924 46.1786C434.65 46.1786 435.013 46.36 435.013 46.7228C435.013 47.5208 434.868 48.0649 434.577 48.3551C434.469 48.5365 434.124 48.6272 433.544 48.6272C430.823 48.8086 428.356 49.7336 426.143 51.4022C425.563 51.765 424.293 52.7082 422.335 54.2317C420.376 55.7553 418.562 57.1881 416.893 58.5303L414.336 60.5436L414.826 61.7407C415.152 62.5387 415.66 63.7539 416.349 65.3863C417.038 67.0187 417.673 68.5604 418.254 70.0114C420.974 76.4321 422.425 79.7513 422.607 79.9689C422.679 80.0415 422.77 80.114 422.879 80.1866C423.387 80.5493 424.312 80.7488 425.654 80.7851H426.796C427.014 81.0753 427.123 81.2385 427.123 81.2748C427.123 81.3111 427.068 81.6376 426.96 82.2542C426.815 82.7258 426.633 83.0704 426.416 83.2881H425.817C424.366 83.1793 422.643 83.1248 420.648 83.1248C416.222 83.1248 413.737 83.1793 413.193 83.2881H412.649C412.431 83.0704 412.323 82.9072 412.323 82.7984C412.323 82.6895 412.359 82.3631 412.431 81.8189C412.577 81.3474 412.685 81.0572 412.758 80.9483C412.831 80.8395 413.03 80.7851 413.356 80.7851H413.52C415.333 80.7851 416.24 80.3317 416.24 79.4248C416.24 79.2797 415.751 78.0101 414.771 75.6159C413.792 73.2217 413.211 71.8614 413.03 71.5349L409.874 64.026L406.174 66.9099L402.474 69.7937L401.222 74.8541C400.388 78.1914 399.971 79.9508 399.971 80.1321C399.971 80.3861 400.116 80.5493 400.406 80.6219C400.696 80.6944 401.603 80.7488 403.127 80.7851H404.814C405.031 81.1116 405.14 81.3111 405.14 81.3836C405.14 81.964 405.013 82.5082 404.759 83.016C404.578 83.1974 404.288 83.2881 403.889 83.2881C403.78 83.2881 403.109 83.2699 401.875 83.2337C400.642 83.1974 398.828 83.1793 396.434 83.1793C394.185 83.1793 392.462 83.1793 391.265 83.1793C390.068 83.1793 389.415 83.1974 389.306 83.2337C388.653 83.2337 388.327 83.0523 388.327 82.6895C388.327 82.617 388.381 82.3631 388.49 81.9278C388.635 81.3474 388.78 81.0209 388.925 80.9483C389.07 80.8758 389.487 80.8214 390.177 80.7851C391.156 80.7851 392.244 80.7307 393.441 80.6219C393.949 80.513 394.294 80.2954 394.475 79.9689C394.584 79.8238 395.89 74.7816 398.393 64.8422C400.896 54.9028 402.147 49.661 402.147 49.1169Z" fill="white"/>
<path d="M439.915 68.369C439.915 67.7535 440.159 67.2149 440.646 66.7533C441.133 66.2916 441.698 66.048 442.339 66.0223C442.8 66.0223 443.185 66.1762 443.493 66.484C443.801 66.7917 443.967 67.1764 443.993 67.6381C443.993 68.2279 443.736 68.7665 443.224 69.2538C442.711 69.7411 442.146 69.9975 441.531 70.0232C441.146 70.0232 440.787 69.895 440.454 69.6385C440.12 69.382 439.941 68.9589 439.915 68.369ZM433.645 80.41C433.645 80.2049 433.76 79.8073 433.991 79.2175C434.222 78.6276 434.529 77.9736 434.914 77.2555C435.299 76.5374 435.863 75.8834 436.607 75.2936C437.35 74.7037 438.12 74.4216 438.915 74.4472C439.915 74.4472 440.749 74.7422 441.415 75.332C442.082 75.9219 442.428 76.7169 442.454 77.7171C442.454 78.1531 442.275 78.8712 441.916 79.8715C441.556 80.8717 441.044 82.2181 440.377 83.9108C439.71 85.6035 439.171 87.0525 438.761 88.2579C438.633 88.8221 438.569 89.2324 438.569 89.4889C438.569 90.1301 438.787 90.4506 439.223 90.4506C439.453 90.4506 439.697 90.4122 439.954 90.3352C440.21 90.2583 440.505 90.0788 440.838 89.7967C441.172 89.5145 441.518 89.0657 441.877 88.4502C442.236 87.8347 442.557 87.0781 442.839 86.1805C442.916 85.8727 442.98 85.6932 443.031 85.6419C443.082 85.5906 443.3 85.565 443.685 85.565C444.198 85.565 444.455 85.6932 444.455 85.9497C444.455 86.1549 444.339 86.5524 444.108 87.1422C443.877 87.7321 443.557 88.3861 443.147 89.1042C442.736 89.8223 442.159 90.4635 441.415 91.0277C440.672 91.5919 439.877 91.874 439.03 91.874C438.21 91.874 437.453 91.6047 436.761 91.0662C436.068 90.5276 435.709 89.7069 435.683 88.6041C435.683 88.1681 435.748 87.7578 435.876 87.3731C436.004 86.9884 436.555 85.5265 437.53 82.9875C438.505 80.3972 439.069 78.8456 439.223 78.3327C439.377 77.8197 439.466 77.3196 439.492 76.8323C439.492 76.2168 439.274 75.9091 438.838 75.9091H438.761C437.992 75.9091 437.286 76.3322 436.645 77.1786C436.004 78.0249 435.517 79.1021 435.183 80.41C435.158 80.4357 435.132 80.4741 435.106 80.5254C435.081 80.5767 435.068 80.6152 435.068 80.6409C435.068 80.6665 435.042 80.6921 434.991 80.7178C434.94 80.7434 434.901 80.7563 434.876 80.7563C434.85 80.7563 434.799 80.7563 434.722 80.7563C434.645 80.7563 434.542 80.7563 434.414 80.7563H433.875C433.721 80.6024 433.645 80.487 433.645 80.41Z" fill="white"/>
<path d="M464.102 126.709C464.755 127.652 465.68 128.124 466.877 128.124H466.986C468.002 128.124 469.017 127.035 470.033 124.859C471.049 122.682 471.992 119.708 472.862 115.935C473.733 112.163 474.549 108.372 475.311 104.563C476.073 100.754 476.835 96.6369 477.596 92.2113C477.705 91.4496 477.796 90.8873 477.868 90.5246C480.48 75.1076 483.31 60.8152 486.357 47.6474C489.404 34.4795 491.617 25.9186 492.995 21.9646C493.213 21.3116 493.394 20.7675 493.539 20.3322C493.684 19.8969 493.993 19.0988 494.464 17.938C494.936 16.7772 495.426 15.7615 495.933 14.8909C496.441 14.0203 497.058 13.1316 497.783 12.2247C498.509 11.3178 499.307 10.5923 500.178 10.0482C501.048 9.50406 501.973 9.25014 502.953 9.28641C504.984 9.28641 506.508 9.92123 507.523 11.1909C508.539 12.4605 509.119 13.9115 509.264 15.5439C509.264 16.4508 509.047 17.1763 508.612 17.7204C508.176 18.2645 507.759 18.6091 507.36 18.7542C506.961 18.8993 506.562 18.9537 506.163 18.9175C505.401 18.9175 504.712 18.6454 504.095 18.1013C503.479 17.5571 503.17 16.8135 503.17 15.8703C503.17 14.1291 504.132 13.0953 506.054 12.7688L505.891 12.5512C505.782 12.4423 505.637 12.3154 505.456 12.1703C505.274 12.0252 505.129 11.9164 505.02 11.8438C504.476 11.4811 503.878 11.2997 503.225 11.2997C502.717 11.2997 502.245 11.5173 501.81 11.9526C501.375 12.3879 500.794 13.4036 500.069 14.9997C499.343 16.5958 498.636 18.6998 497.947 21.3116C497.257 23.9234 496.405 27.6053 495.389 32.3574C494.374 37.1094 493.358 42.6958 492.342 49.1165C490.202 61.2687 487.971 72.7497 485.649 83.5597C483.328 94.3697 481.514 102.205 480.208 107.066C478.902 111.927 477.905 115.409 477.215 117.513C474.422 125.965 470.976 130.191 466.877 130.191C465.426 130.191 464.102 129.629 462.905 128.505C461.708 127.38 461.037 125.838 460.892 123.88C460.892 122.61 461.236 121.739 461.925 121.268C462.615 120.796 463.304 120.56 463.993 120.56C464.755 120.56 465.444 120.832 466.061 121.377C466.677 121.921 466.986 122.664 466.986 123.607C466.986 125.349 466.025 126.383 464.102 126.709Z" fill="white"/>
<path d="M517.208 9.27085C517.028 9.09133 516.938 8.9631 516.938 8.88616C516.938 8.78357 516.977 8.5784 517.054 8.27064C517.131 7.96288 517.195 7.78336 517.246 7.73206C517.298 7.60383 517.413 7.53971 517.592 7.53971C517.772 7.53971 518.426 7.52689 519.554 7.50125H521.593L522.324 4.42366C522.401 4.14155 522.491 3.76968 522.594 3.30804C522.696 2.8464 522.786 2.513 522.863 2.30783C522.94 2.10265 523.017 1.84619 523.094 1.53843C523.171 1.23067 523.273 1.01268 523.401 0.884445C523.53 0.756212 523.658 0.602333 523.786 0.422808C523.914 0.243282 524.094 0.127872 524.325 0.07658C524.555 0.0252857 524.786 -0.000360489 525.017 -0.000360489C525.479 0.0252857 525.799 0.166342 525.979 0.422808C526.158 0.679272 526.248 0.922915 526.248 1.15373C526.248 1.33326 526.133 1.93595 525.902 2.96181C525.671 3.98767 525.415 5.00071 525.133 6.00092L524.748 7.4243C524.748 7.4756 525.389 7.50125 526.671 7.50125H528.633C528.813 7.68077 528.903 7.82183 528.903 7.92441C528.903 8.48864 528.736 8.93745 528.402 9.27085H524.286L522.901 14.849C521.901 18.9524 521.401 21.158 521.401 21.4658C521.401 22.5429 521.747 23.0815 522.44 23.0815C523.337 23.0815 524.209 22.6455 525.056 21.7735C525.902 20.9015 526.582 19.8244 527.094 18.5421C527.146 18.3882 527.21 18.2984 527.287 18.2728C527.364 18.2471 527.556 18.2215 527.864 18.1958H528.018C528.402 18.1958 528.595 18.2984 528.595 18.5036C528.595 18.5805 528.556 18.7344 528.479 18.9652C528.351 19.3756 528.12 19.8629 527.787 20.4271C527.454 20.9913 527.018 21.594 526.479 22.2352C525.94 22.8763 525.286 23.4149 524.517 23.8509C523.748 24.2869 522.965 24.5049 522.17 24.5049C521.401 24.5049 520.67 24.3125 519.978 23.9278C519.285 23.5431 518.785 22.8763 518.477 21.9274C518.426 21.7222 518.4 21.376 518.4 20.8887V20.1963L519.747 14.8105C520.644 11.1943 521.106 9.37344 521.132 9.34779C521.132 9.2965 520.478 9.27085 519.17 9.27085H517.208Z" fill="white"/>
<path d="M491.846 109.559C493.282 107.482 495.244 106.443 497.731 106.443C498.963 106.443 500.194 106.776 501.425 107.443C502.656 108.11 503.656 109.29 504.425 110.982C505.374 113.111 505.849 116.035 505.849 119.753C505.849 123.729 505.297 126.768 504.194 128.871C503.681 129.948 502.976 130.807 502.079 131.448C501.181 132.089 500.399 132.487 499.732 132.641C499.065 132.795 498.411 132.885 497.77 132.91C497.103 132.91 496.436 132.833 495.77 132.679C495.103 132.525 494.32 132.115 493.423 131.448C492.525 130.781 491.82 129.922 491.307 128.871C490.204 126.768 489.653 123.729 489.653 119.753C489.653 115.291 490.384 111.893 491.846 109.559ZM500.501 109.097C499.732 108.277 498.821 107.866 497.77 107.866C496.693 107.866 495.77 108.277 495 109.097C494.359 109.764 493.936 110.687 493.731 111.867C493.525 113.047 493.423 115.509 493.423 119.253C493.423 123.306 493.525 125.973 493.731 127.255C493.936 128.537 494.397 129.55 495.116 130.294C495.834 131.064 496.718 131.448 497.77 131.448C498.796 131.448 499.668 131.064 500.386 130.294C501.13 129.525 501.591 128.448 501.771 127.063C501.95 125.678 502.053 123.075 502.079 119.253C502.079 115.535 501.976 113.085 501.771 111.906C501.566 110.726 501.142 109.79 500.501 109.097Z" fill="white"/>
<path d="M544.008 74.1478C544.008 72.0801 544.352 70.1938 545.042 68.4889C545.731 66.784 546.62 65.3692 547.708 64.2447C548.796 63.1202 550.011 62.177 551.354 61.4153C552.696 60.6535 553.965 60.0912 555.162 59.7285C556.359 59.3657 557.502 59.2025 558.59 59.2387H558.754C560.386 59.2387 561.801 59.6378 562.998 60.4358C564.195 61.2339 564.793 62.4128 564.793 63.9726C564.793 67.2374 562.78 69.3776 558.754 70.3933C556.976 70.8649 554.546 71.1188 551.462 71.1551C550.12 71.1551 549.431 71.1914 549.395 71.2639C549.395 71.3365 549.286 71.9713 549.068 73.1684C548.851 74.3655 548.724 75.4175 548.687 76.3243C548.687 78.0293 549.068 79.3714 549.83 80.3509C550.592 81.3303 551.734 81.8382 553.258 81.8744C554.782 81.9107 556.468 81.5661 558.318 80.8406C560.168 80.1151 561.837 78.918 563.324 77.2493C563.651 76.8866 563.868 76.7052 563.977 76.7052C564.122 76.7052 564.358 76.8685 564.685 77.1949C565.011 77.5214 565.192 77.7753 565.229 77.9567C565.265 78.1381 565.102 78.4283 564.739 78.8273C564.376 79.2263 563.832 79.7161 563.107 80.2965C562.381 80.8769 561.547 81.4391 560.604 81.9833C559.661 82.5274 558.518 82.9808 557.176 83.3436C555.834 83.7063 554.455 83.8877 553.04 83.8877C550.175 83.8877 547.962 82.9264 546.402 81.0038C544.842 79.0812 544.044 76.7959 544.008 74.1478ZM562.182 64.0815C561.964 62.1952 560.731 61.252 558.482 61.252C557.285 61.252 556.178 61.5059 555.162 62.0138C554.147 62.5216 553.331 63.1383 552.714 63.8638C552.097 64.5893 551.571 65.333 551.136 66.0947C550.701 66.8565 550.41 67.5095 550.265 68.0536C550.12 68.5977 550.029 68.9423 549.993 69.0874C549.993 69.1237 550.356 69.1419 551.081 69.1419C555.181 69.1419 558.046 68.7066 559.679 67.8359C561.311 66.9653 562.145 65.7139 562.182 64.0815Z" fill="white"/>
<path d="M572.356 69.6853C572.356 67.1823 572.538 64.8062 572.901 62.5572C573.263 60.3081 573.68 58.3674 574.152 56.735C574.624 55.1026 575.295 53.5065 576.165 51.9467C577.036 50.3869 577.725 49.1717 578.233 48.3011C578.741 47.4305 579.503 46.4873 580.518 45.4716C581.534 44.4559 582.133 43.8392 582.314 43.6216C582.495 43.4039 582.949 43.023 583.674 42.4789H584.382H584.599C585.107 42.4789 585.361 42.6421 585.361 42.9686C585.361 43.0774 585.053 43.4583 584.436 44.1113C583.819 44.7642 583.076 45.7255 582.205 46.9952C581.335 48.2648 580.446 49.8246 579.539 51.6747C578.632 53.5247 577.87 56.0277 577.254 59.1836C576.637 62.3395 576.329 65.8401 576.329 69.6853C576.329 73.5304 576.637 77.0128 577.254 80.1325C577.87 83.2522 578.614 85.7733 579.485 87.6959C580.355 89.6184 581.244 91.1783 582.151 92.3753C583.058 93.5724 583.819 94.5337 584.436 95.2592C585.053 95.9847 585.361 96.3656 585.361 96.4019C585.361 96.7284 585.089 96.8916 584.545 96.8916H584.382H583.674L582.151 95.5857C578.741 92.5023 576.256 88.6571 574.696 84.0502C573.136 79.4433 572.356 74.6549 572.356 69.6853Z" fill="white"/>
<path d="M590.53 67.8345C589.769 67.8345 589.388 67.6532 589.388 67.2904C589.388 67.0365 589.877 66.2384 590.857 64.8963C591.836 63.5541 592.816 62.4658 593.795 61.6315C595.065 60.6521 596.244 60.0898 597.332 59.9447C597.55 59.8722 600.597 59.8359 606.473 59.8359C612.277 59.8359 615.27 59.8722 615.451 59.9447C616.177 60.1261 616.54 60.6158 616.54 61.4138C616.54 61.9217 616.376 62.3933 616.05 62.8286C615.723 63.2639 615.306 63.5541 614.798 63.6992C614.581 63.7717 612.84 63.808 609.575 63.808C606.31 63.808 604.678 63.8443 604.678 63.9168C604.641 63.9531 604.351 65.4404 603.807 68.3787C603.263 71.317 602.683 74.3097 602.066 77.3568C601.449 80.4039 601.123 82.0181 601.086 82.1995C600.905 82.7436 600.579 83.1789 600.107 83.5054C599.635 83.8319 599.109 83.9951 598.529 83.9951C597.332 83.9951 596.733 83.3966 596.733 82.1995V81.6554L599.454 72.8405C599.853 71.5346 600.288 70.0836 600.76 68.4875C601.232 66.8914 601.612 65.7306 601.903 65.0051L602.229 63.8624C602.229 63.8261 601.395 63.808 599.726 63.808C599.654 63.808 599.454 63.808 599.128 63.808C598.801 63.808 598.547 63.7899 598.366 63.7536C595.536 63.7536 593.324 64.9144 591.727 67.236C591.546 67.5262 591.401 67.6894 591.292 67.7257C591.183 67.762 590.929 67.7983 590.53 67.8345Z" fill="white"/>
<path d="M619.804 42.5333L620.022 42.4789C620.203 42.4789 620.385 42.4789 620.566 42.4789H621.219L622.743 43.7848C626.152 46.8682 628.637 50.7134 630.197 55.3203C631.757 59.9272 632.537 64.7156 632.537 69.6853C632.537 72.152 632.355 74.528 631.993 76.8133C631.63 79.0986 631.213 81.0394 630.741 82.6355C630.27 84.2316 629.599 85.8277 628.728 87.4238C627.857 89.0199 627.168 90.2351 626.66 91.0694C626.152 91.9038 625.409 92.8288 624.429 93.8445C623.45 94.8602 622.87 95.4587 622.688 95.6401C622.507 95.8215 622.09 96.1661 621.437 96.674C621.328 96.7828 621.255 96.8553 621.219 96.8916H620.566C620.276 96.8916 620.076 96.8916 619.968 96.8916C619.859 96.8916 619.768 96.8372 619.695 96.7284C619.623 96.6195 619.569 96.4563 619.532 96.2386C619.569 96.2024 619.768 95.9666 620.131 95.5313C625.753 89.691 628.565 81.0756 628.565 69.6853C628.565 58.2949 625.753 49.6795 620.131 43.8392C619.768 43.4039 619.569 43.1681 619.532 43.1319C619.532 42.8417 619.623 42.6421 619.804 42.5333Z" fill="white"/>
<path d="M657.621 46.124C657.658 46.124 658.964 46.0333 661.539 45.852C664.115 45.6706 665.439 45.5618 665.511 45.5255C665.947 45.5255 666.164 45.6706 666.164 45.9608C666.164 46.2147 664.84 51.6923 662.192 62.3934C659.544 73.0946 658.184 78.554 658.111 78.7717C658.039 78.9893 658.02 79.2614 658.057 79.5878C658.057 81.1114 658.565 81.8732 659.58 81.8732C659.907 81.8369 660.269 81.6737 660.668 81.3835C661.43 80.658 662.174 78.9168 662.899 76.1598C663.117 75.4343 663.298 75.0535 663.444 75.0172C663.516 74.9809 663.697 74.9628 663.988 74.9628H664.205H664.423C664.967 74.9628 665.239 75.1079 665.239 75.3981C665.239 75.5794 665.185 75.8696 665.076 76.2687C664.604 78.0824 664.06 79.5516 663.444 80.6761C662.827 81.8006 662.319 82.5261 661.92 82.8526C661.521 83.1791 661.013 83.4693 660.396 83.7232C660.106 83.7958 659.671 83.832 659.091 83.832C657.857 83.832 656.823 83.56 655.989 83.0158C655.155 82.4717 654.611 81.9094 654.357 81.329L654.03 80.5129C653.994 80.4766 653.921 80.4947 653.812 80.5673C653.74 80.6398 653.667 80.7124 653.595 80.7849C651.455 82.8163 649.278 83.832 647.065 83.832C645.07 83.832 643.311 83.1065 641.787 81.6555C640.264 80.2045 639.502 77.901 639.502 74.7451C639.502 73.0039 639.865 71.2264 640.59 69.4127C641.316 67.5989 642.186 66.0391 643.202 64.7332C644.907 62.6655 646.612 61.2326 648.317 60.4346C650.022 59.6365 651.563 59.2375 652.942 59.2375C654.973 59.2375 656.497 59.9993 657.513 61.5228C657.694 61.7405 657.785 61.813 657.785 61.7405C657.821 61.5954 658.311 59.6184 659.254 55.8095C660.197 52.0006 660.705 49.9873 660.777 49.7697C660.777 49.2981 660.65 49.0079 660.396 48.8991C660.143 48.7903 659.435 48.6996 658.274 48.627H657.132C656.914 48.4094 656.805 48.2643 656.805 48.1917C656.805 48.1192 656.841 47.7746 656.914 47.1579C657.095 46.4687 657.331 46.124 657.621 46.124ZM656.86 65.5494C656.025 62.6836 654.665 61.2508 652.779 61.2508C651.509 61.2508 650.294 61.813 649.133 62.9376C647.972 64.0621 647.065 65.5312 646.412 67.345C645.36 70.2107 644.617 73.1853 644.181 76.2687C644.181 76.3775 644.181 76.577 644.181 76.8672C644.181 77.1574 644.163 77.3751 644.127 77.5202C644.127 79.1525 644.454 80.2771 645.106 80.8937C645.759 81.5104 646.539 81.8369 647.446 81.8732C649.405 81.8732 651.418 80.5673 653.486 77.9555L653.921 77.3569L656.86 65.5494Z" fill="white"/>
<path d="M668.123 67.8345C667.361 67.8345 666.98 67.6532 666.98 67.2904C666.98 67.0365 667.47 66.2384 668.45 64.8963C669.429 63.5541 670.408 62.4658 671.388 61.6315C672.658 60.6521 673.836 60.0898 674.925 59.9447C675.142 59.8722 678.189 59.8359 684.066 59.8359C689.87 59.8359 692.863 59.8722 693.044 59.9447C693.77 60.1261 694.132 60.6158 694.132 61.4138C694.132 61.9217 693.969 62.3933 693.643 62.8286C693.316 63.2639 692.899 63.5541 692.391 63.6992C692.174 63.7717 690.432 63.808 687.168 63.808C683.903 63.808 682.27 63.8443 682.27 63.9168C682.234 63.9531 681.944 65.4404 681.4 68.3787C680.856 71.317 680.275 74.3097 679.659 77.3568C679.042 80.4039 678.715 82.0181 678.679 82.1995C678.498 82.7436 678.171 83.1789 677.7 83.5054C677.228 83.8319 676.702 83.9951 676.122 83.9951C674.925 83.9951 674.326 83.3966 674.326 82.1995V81.6554L677.047 72.8405C677.446 71.5346 677.881 70.0836 678.353 68.4875C678.824 66.8914 679.205 65.7306 679.495 65.0051L679.822 63.8624C679.822 63.8261 678.988 63.808 677.319 63.808C677.246 63.808 677.047 63.808 676.72 63.808C676.394 63.808 676.14 63.7899 675.959 63.7536C673.129 63.7536 670.916 64.9144 669.32 67.236C669.139 67.5262 668.994 67.6894 668.885 67.7257C668.776 67.762 668.522 67.7983 668.123 67.8345Z" fill="white"/>
<path d="M709.27 70.3914C709.27 70.3914 709.27 70.1556 709.27 69.684C709.27 69.2124 709.523 68.8497 710.031 68.5958H726.301V60.4339L726.355 52.272C726.718 51.8004 727.062 51.5646 727.389 51.5646C727.861 51.5646 728.223 51.8367 728.477 52.3808V68.5958H744.692C745.236 68.886 745.508 69.2487 745.508 69.684C745.508 70.1193 745.236 70.4821 744.692 70.7723H728.477V86.9872C728.187 87.4951 727.861 87.749 727.498 87.749H727.389H727.28C726.845 87.749 726.518 87.4951 726.301 86.9872V70.7723H710.031C709.523 70.5183 709.27 70.1556 709.27 69.684V70.3914Z" fill="white"/>
<path d="M776.159 49.1169C776.159 48.863 775.125 48.6997 773.058 48.6272C772.223 48.6272 771.679 48.6091 771.425 48.5728C771.171 48.5365 771.044 48.3733 771.044 48.0831C771.044 48.0105 771.081 47.7566 771.153 47.3213C771.371 46.5958 771.552 46.2149 771.697 46.1786C771.77 46.1424 771.969 46.1242 772.296 46.1242H772.568C774.055 46.1968 776.522 46.233 779.968 46.233C781.201 46.233 782.344 46.233 783.396 46.233C784.448 46.233 785.264 46.2149 785.845 46.1786C786.425 46.1424 786.788 46.1424 786.933 46.1786C787.55 46.1786 787.858 46.3237 787.858 46.6139C787.858 46.7953 787.804 47.0492 787.695 47.3757C787.658 47.4483 787.64 47.5571 787.64 47.7022C787.64 47.8473 787.622 47.9561 787.586 48.0287C787.55 48.1012 787.513 48.1738 787.477 48.2463C787.441 48.3189 787.386 48.3733 787.314 48.4095C787.241 48.4458 787.169 48.4821 787.096 48.5184C787.024 48.5546 786.897 48.5728 786.715 48.5728C786.534 48.5728 786.371 48.5909 786.226 48.6272C786.08 48.6635 785.827 48.6635 785.464 48.6272C784.013 48.6635 783.088 48.7179 782.689 48.7904C782.29 48.863 781.963 49.0625 781.709 49.389L777.302 66.6922C777.338 66.6922 780.675 64.0804 787.314 58.8568C793.952 53.6332 797.362 50.9488 797.543 50.8037C798.051 50.2959 798.305 49.8787 798.305 49.5522C798.305 49.0081 797.852 48.6997 796.945 48.6272C796.364 48.6272 796.074 48.4277 796.074 48.0287C796.074 47.9561 796.129 47.7022 796.237 47.2669C796.346 46.8316 796.437 46.5595 796.51 46.4507C796.618 46.2693 796.927 46.1786 797.435 46.1786C797.58 46.1786 798.214 46.1968 799.339 46.233C800.464 46.2693 801.915 46.2875 803.692 46.2875C804.526 46.2875 805.397 46.2693 806.304 46.233C807.211 46.1968 807.755 46.1786 807.936 46.1786C808.662 46.1786 809.024 46.36 809.024 46.7228C809.024 47.5208 808.879 48.0649 808.589 48.3551C808.48 48.5365 808.136 48.6272 807.555 48.6272C804.835 48.8086 802.368 49.7336 800.155 51.4022C799.575 51.765 798.305 52.7082 796.346 54.2317C794.387 55.7553 792.574 57.1881 790.905 58.5303L788.348 60.5436L788.837 61.7407C789.164 62.5387 789.672 63.7539 790.361 65.3863C791.05 67.0187 791.685 68.5604 792.265 70.0114C794.986 76.4321 796.437 79.7513 796.618 79.9689C796.691 80.0415 796.782 80.114 796.89 80.1866C797.398 80.5493 798.323 80.7488 799.665 80.7851H800.808C801.026 81.0753 801.135 81.2385 801.135 81.2748C801.135 81.3111 801.08 81.6376 800.971 82.2542C800.826 82.7258 800.645 83.0704 800.427 83.2881H799.829C798.378 83.1793 796.655 83.1248 794.66 83.1248C790.234 83.1248 787.749 83.1793 787.205 83.2881H786.661C786.443 83.0704 786.334 82.9072 786.334 82.7984C786.334 82.6895 786.371 82.3631 786.443 81.8189C786.588 81.3474 786.697 81.0572 786.77 80.9483C786.842 80.8395 787.042 80.7851 787.368 80.7851H787.531C789.345 80.7851 790.252 80.3317 790.252 79.4248C790.252 79.2797 789.762 78.0101 788.783 75.6159C787.804 73.2217 787.223 71.8614 787.042 71.5349L783.886 64.026L780.186 66.9099L776.486 69.7937L775.234 74.8541C774.4 78.1914 773.983 79.9508 773.983 80.1321C773.983 80.3861 774.128 80.5493 774.418 80.6219C774.708 80.6944 775.615 80.7488 777.139 80.7851H778.825C779.043 81.1116 779.152 81.3111 779.152 81.3836C779.152 81.964 779.025 82.5082 778.771 83.016C778.59 83.1974 778.299 83.2881 777.9 83.2881C777.792 83.2881 777.12 83.2699 775.887 83.2337C774.654 83.1974 772.84 83.1793 770.446 83.1793C768.197 83.1793 766.474 83.1793 765.277 83.1793C764.08 83.1793 763.427 83.1974 763.318 83.2337C762.665 83.2337 762.338 83.0523 762.338 82.6895C762.338 82.617 762.393 82.3631 762.502 81.9278C762.647 81.3474 762.792 81.0209 762.937 80.9483C763.082 80.8758 763.499 80.8214 764.188 80.7851C765.168 80.7851 766.256 80.7307 767.453 80.6219C767.961 80.513 768.306 80.2954 768.487 79.9689C768.596 79.8238 769.902 74.7816 772.405 64.8422C774.908 54.9028 776.159 49.661 776.159 49.1169Z" fill="white"/>
<path d="M820.928 65.1754C820.954 65.1754 821.877 65.1113 823.698 64.9831C825.519 64.8548 826.455 64.7779 826.506 64.7522C826.814 64.7522 826.968 64.8548 826.968 65.06C826.968 65.2395 826.032 69.1121 824.16 76.6779C822.287 84.2436 821.326 88.1034 821.274 88.2573C821.223 88.4112 821.21 88.6035 821.236 88.8343C821.236 89.9115 821.595 90.45 822.313 90.45C822.544 90.4244 822.8 90.309 823.082 90.1038C823.621 89.5909 824.147 88.3599 824.66 86.4107C824.814 85.8978 824.942 85.6285 825.044 85.6029C825.096 85.5772 825.224 85.5644 825.429 85.5644H825.583H825.737C826.122 85.5644 826.314 85.667 826.314 85.8721C826.314 86.0004 826.275 86.2056 826.198 86.4877C825.865 87.77 825.48 88.8087 825.044 89.6037C824.608 90.3988 824.249 90.9117 823.967 91.1425C823.685 91.3733 823.326 91.5785 822.89 91.758C822.685 91.8093 822.377 91.835 821.967 91.835C821.095 91.835 820.364 91.6426 819.774 91.2579C819.184 90.8732 818.799 90.4757 818.62 90.0654L818.389 89.4883C818.363 89.4627 818.312 89.4755 818.235 89.5268C818.184 89.5781 818.133 89.6294 818.081 89.6807C816.568 91.1169 815.029 91.835 813.465 91.835C812.054 91.835 810.811 91.322 809.733 90.2962C808.656 89.2703 808.118 87.6418 808.118 85.4105C808.118 84.1795 808.374 82.9228 808.887 81.6405C809.4 80.3581 810.016 79.2553 810.734 78.3321C811.939 76.8702 813.144 75.8572 814.35 75.293C815.555 74.7287 816.645 74.4466 817.62 74.4466C819.056 74.4466 820.133 74.9852 820.851 76.0624C820.979 76.2162 821.044 76.2675 821.044 76.2162C821.069 76.1136 821.415 74.7159 822.082 72.023C822.749 69.3301 823.108 67.9068 823.159 67.7529C823.159 67.4195 823.07 67.2143 822.89 67.1374C822.711 67.0604 822.21 66.9963 821.39 66.945H820.582C820.428 66.7911 820.351 66.6886 820.351 66.6373C820.351 66.586 820.377 66.3423 820.428 65.9063C820.556 65.419 820.723 65.1754 820.928 65.1754ZM820.39 78.9091C819.8 76.883 818.838 75.87 817.504 75.87C816.607 75.87 815.748 76.2675 814.927 77.0626C814.106 77.8576 813.465 78.8963 813.003 80.1786C812.26 82.2047 811.734 84.3077 811.426 86.4877C811.426 86.5646 811.426 86.7057 811.426 86.9108C811.426 87.116 811.413 87.2699 811.388 87.3725C811.388 88.5266 811.618 89.3216 812.08 89.7576C812.542 90.1936 813.093 90.4244 813.734 90.45C815.119 90.45 816.543 89.5268 818.004 87.6802L818.312 87.2571L820.39 78.9091Z" fill="white"/>
<path d="M861.462 7.49123C861.498 7.49123 862.804 7.40054 865.38 7.21916C867.955 7.03778 869.279 6.92896 869.352 6.89268C869.787 6.89268 870.005 7.03778 870.005 7.32799C870.005 7.58191 868.681 13.0595 866.033 23.7606C863.385 34.4618 862.024 39.9212 861.952 40.1388C861.879 40.3565 861.861 40.6286 861.898 40.955C861.898 42.4786 862.405 43.2404 863.421 43.2404C863.748 43.2041 864.11 43.0408 864.509 42.7506C865.271 42.0251 866.015 40.2839 866.74 37.527C866.958 36.8015 867.139 36.4206 867.284 36.3844C867.357 36.3481 867.538 36.33 867.828 36.33H868.046H868.264C868.808 36.33 869.08 36.4751 869.08 36.7653C869.08 36.9466 869.026 37.2368 868.917 37.6359C868.445 39.4496 867.901 40.9188 867.284 42.0433C866.668 43.1678 866.16 43.8933 865.761 44.2198C865.362 44.5463 864.854 44.8365 864.237 45.0904C863.947 45.1629 863.512 45.1992 862.931 45.1992C861.698 45.1992 860.664 44.9272 859.83 44.383C858.995 43.8389 858.451 43.2766 858.197 42.6962L857.871 41.88C857.835 41.8438 857.762 41.8619 857.653 41.9345C857.581 42.007 857.508 42.0796 857.436 42.1521C855.295 44.1835 853.119 45.1992 850.906 45.1992C848.911 45.1992 847.152 44.4737 845.628 43.0227C844.105 41.5717 843.343 39.2682 843.343 36.1123C843.343 34.3711 843.706 32.5936 844.431 30.7799C845.157 28.9661 846.027 27.4063 847.043 26.1004C848.748 24.0327 850.453 22.5998 852.158 21.8018C853.863 21.0037 855.404 20.6047 856.783 20.6047C858.814 20.6047 860.338 21.3665 861.353 22.89C861.535 23.1077 861.625 23.1802 861.625 23.1077C861.662 22.9626 862.151 20.9856 863.095 17.1767C864.038 13.3678 864.546 11.3545 864.618 11.1369C864.618 10.6653 864.491 10.3751 864.237 10.2663C863.983 10.1574 863.276 10.0668 862.115 9.99421H860.972C860.755 9.77656 860.646 9.63146 860.646 9.55891C860.646 9.48636 860.682 9.14174 860.755 8.52507C860.936 7.83584 861.172 7.49123 861.462 7.49123ZM860.7 26.9166C859.866 24.0508 858.506 22.618 856.619 22.618C855.35 22.618 854.135 23.1802 852.974 24.3047C851.813 25.4293 850.906 26.8984 850.253 28.7122C849.201 31.5779 848.458 34.5525 848.022 37.6359C848.022 37.7447 848.022 37.9442 848.022 38.2344C848.022 38.5246 848.004 38.7422 847.968 38.8873C847.968 40.5197 848.294 41.6443 848.947 42.2609C849.6 42.8776 850.38 43.2041 851.287 43.2404C853.246 43.2404 855.259 41.9345 857.327 39.3226L857.762 38.7241L860.7 26.9166Z" fill="white"/>
<path d="M871.963 35.514C871.963 33.4464 872.308 31.56 872.997 29.8551C873.686 28.1502 874.575 26.7355 875.663 25.6109C876.751 24.4864 877.966 23.5432 879.309 22.7815C880.651 22.0197 881.92 21.4574 883.117 21.0947C884.315 20.7319 885.457 20.5687 886.545 20.605H886.709C888.341 20.605 889.756 21.004 890.953 21.802C892.15 22.6001 892.749 23.779 892.749 25.3389C892.749 28.6036 890.735 30.7439 886.709 31.7596C884.931 32.2311 882.501 32.4851 879.417 32.5213C878.075 32.5213 877.386 32.5576 877.35 32.6302C877.35 32.7027 877.241 33.3375 877.023 34.5346C876.806 35.7317 876.679 36.7837 876.642 37.6905C876.642 39.3955 877.023 40.7377 877.785 41.7171C878.547 42.6965 879.689 43.2044 881.213 43.2406C882.737 43.2769 884.423 42.9323 886.273 42.2068C888.123 41.4813 889.792 40.2842 891.279 38.6156C891.606 38.2528 891.824 38.0714 891.932 38.0714C892.077 38.0714 892.313 38.2347 892.64 38.5611C892.966 38.8876 893.148 39.1415 893.184 39.3229C893.22 39.5043 893.057 39.7945 892.694 40.1935C892.331 40.5926 891.787 41.0823 891.062 41.6627C890.336 42.2431 889.502 42.8053 888.559 43.3495C887.616 43.8936 886.473 44.347 885.131 44.7098C883.789 45.0725 882.41 45.2539 880.995 45.2539C878.13 45.2539 875.917 44.2926 874.357 42.37C872.797 40.4475 871.999 38.1621 871.963 35.514ZM890.137 25.4477C889.919 23.5614 888.686 22.6182 886.437 22.6182C885.24 22.6182 884.133 22.8722 883.117 23.38C882.102 23.8879 881.286 24.5045 880.669 25.23C880.052 25.9555 879.526 26.6992 879.091 27.461C878.656 28.2227 878.365 28.8757 878.22 29.4198C878.075 29.9639 877.985 30.3086 877.948 30.4537C877.948 30.4899 878.311 30.5081 879.037 30.5081C883.136 30.5081 886.001 30.0728 887.634 29.2022C889.266 28.3316 890.1 27.0801 890.137 25.4477Z" fill="white"/>
<path d="M900.312 31.0515C900.312 28.5485 900.494 26.1725 900.857 23.9234C901.219 21.6743 901.637 19.7336 902.108 18.1012C902.58 16.4689 903.251 14.8728 904.121 13.3129C904.992 11.7531 905.681 10.5379 906.189 9.66727C906.697 8.79667 907.459 7.85352 908.474 6.83781C909.49 5.82211 910.089 5.20543 910.27 4.98778C910.451 4.77013 910.905 4.38924 911.63 3.84512H912.338H912.555C913.063 3.84512 913.317 4.00835 913.317 4.33483C913.317 4.44366 913.009 4.82454 912.392 5.4775C911.775 6.13045 911.032 7.09174 910.161 8.36137C909.291 9.631 908.402 11.1908 907.495 13.0409C906.588 14.8909 905.826 17.3939 905.21 20.5498C904.593 23.7057 904.285 27.2063 904.285 31.0515C904.285 34.8966 904.593 38.379 905.21 41.4987C905.826 44.6184 906.57 47.1395 907.441 49.0621C908.311 50.9846 909.2 52.5445 910.107 53.7416C911.014 54.9386 911.775 55.8999 912.392 56.6254C913.009 57.3509 913.317 57.7318 913.317 57.7681C913.317 58.0946 913.045 58.2578 912.501 58.2578H912.338H911.63L910.107 56.9519C906.697 53.8685 904.212 50.0234 902.652 45.4164C901.092 40.8095 900.312 36.0212 900.312 31.0515Z" fill="white"/>
<path d="M917.779 23.7065C917.525 23.4526 917.398 23.2712 917.398 23.1624C917.398 23.0173 917.452 22.7271 917.561 22.2918C917.67 21.8565 917.761 21.6025 917.833 21.53C917.906 21.3486 918.069 21.2579 918.323 21.2579C918.577 21.2579 919.502 21.2398 921.098 21.2035H923.982L925.016 16.8505C925.125 16.4515 925.252 15.9255 925.397 15.2725C925.542 14.6196 925.669 14.148 925.778 13.8578C925.886 13.5676 925.995 13.2048 926.104 12.7695C926.213 12.3342 926.358 12.0259 926.539 11.8445C926.721 11.6631 926.902 11.4455 927.083 11.1916C927.265 10.9376 927.519 10.7744 927.845 10.7019C928.172 10.6293 928.498 10.593 928.825 10.593C929.478 10.6293 929.931 10.8288 930.185 11.1916C930.439 11.5543 930.566 11.8989 930.566 12.2254C930.566 12.4793 930.403 13.3318 930.076 14.7828C929.75 16.2338 929.387 17.6667 928.988 19.0814L928.444 21.0947C928.444 21.1672 929.351 21.2035 931.164 21.2035H933.939C934.193 21.4574 934.32 21.6569 934.32 21.802C934.32 22.6001 934.085 23.2349 933.613 23.7065H927.791L925.832 31.5963C924.417 37.4003 923.71 40.52 923.71 40.9553C923.71 42.4789 924.2 43.2406 925.179 43.2406C926.449 43.2406 927.682 42.624 928.879 41.3906C930.076 40.1573 931.037 38.6337 931.763 36.8199C931.835 36.6023 931.926 36.4753 932.035 36.4391C932.144 36.4028 932.416 36.3665 932.851 36.3302H933.069C933.613 36.3302 933.885 36.4753 933.885 36.7655C933.885 36.8744 933.831 37.092 933.722 37.4185C933.54 37.9989 933.214 38.6881 932.742 39.4862C932.271 40.2842 931.654 41.1367 930.892 42.0436C930.131 42.9504 929.206 43.7122 928.117 44.3289C927.029 44.9456 925.923 45.2539 924.798 45.2539C923.71 45.2539 922.676 44.9818 921.697 44.4377C920.717 43.8936 920.01 42.9504 919.574 41.6083C919.502 41.3181 919.466 40.8283 919.466 40.1391V39.1597L921.37 31.5419C922.64 26.4271 923.293 23.8516 923.329 23.8153C923.329 23.7428 922.404 23.7065 920.554 23.7065H917.779Z" fill="white"/>
<path d="M939.272 3.89953L939.489 3.84512C939.671 3.84512 939.852 3.84512 940.033 3.84512H940.686L942.21 5.15102C945.62 8.23441 948.105 12.0796 949.664 16.6865C951.224 21.2935 952.004 26.0818 952.004 31.0515C952.004 33.5182 951.823 35.8942 951.46 38.1795C951.097 40.4649 950.68 42.4056 950.209 44.0017C949.737 45.5978 949.066 47.1939 948.195 48.79C947.325 50.3861 946.635 51.6013 946.128 52.4357C945.62 53.27 944.876 54.195 943.897 55.2107C942.917 56.2264 942.337 56.8249 942.155 57.0063C941.974 57.1877 941.557 57.5323 940.904 58.0402C940.795 58.149 940.723 58.2215 940.686 58.2578H940.033C939.743 58.2578 939.544 58.2578 939.435 58.2578C939.326 58.2578 939.235 58.2034 939.163 58.0946C939.09 57.9857 939.036 57.8225 939 57.6049C939.036 57.5686 939.235 57.3328 939.598 56.8975C945.221 51.0572 948.032 42.4419 948.032 31.0515C948.032 19.6611 945.221 11.0457 939.598 5.20543C939.235 4.77013 939.036 4.53434 939 4.49807C939 4.20787 939.09 4.00835 939.272 3.89953Z" fill="white"/>
<path d="M895.306 83.4502C895.343 83.4502 896.649 83.3595 899.224 83.1781C901.8 82.9968 903.124 82.8879 903.196 82.8517C903.632 82.8517 903.849 82.9968 903.849 83.287C903.849 83.5409 902.525 89.0184 899.877 99.7196C897.229 110.421 895.869 115.88 895.796 116.098C895.724 116.315 895.705 116.588 895.742 116.914C895.742 118.438 896.25 119.199 897.265 119.199C897.592 119.163 897.955 119 898.354 118.71C899.115 117.984 899.859 116.243 900.584 113.486C900.802 112.761 900.983 112.38 901.129 112.343C901.201 112.307 901.383 112.289 901.673 112.289H901.89H902.108C902.652 112.289 902.924 112.434 902.924 112.724C902.924 112.906 902.87 113.196 902.761 113.595C902.289 115.409 901.745 116.878 901.129 118.002C900.512 119.127 900.004 119.852 899.605 120.179C899.206 120.505 898.698 120.795 898.081 121.049C897.791 121.122 897.356 121.158 896.776 121.158C895.542 121.158 894.508 120.886 893.674 120.342C892.84 119.798 892.296 119.236 892.042 118.655L891.715 117.839C891.679 117.803 891.606 117.821 891.498 117.893C891.425 117.966 891.352 118.039 891.28 118.111C889.14 120.142 886.963 121.158 884.75 121.158C882.755 121.158 880.996 120.433 879.472 118.982C877.949 117.531 877.187 115.227 877.187 112.071C877.187 110.33 877.55 108.553 878.275 106.739C879.001 104.925 879.871 103.365 880.887 102.059C882.592 99.9917 884.297 98.5588 886.002 97.7607C887.707 96.9627 889.248 96.5637 890.627 96.5637C892.658 96.5637 894.182 97.3254 895.198 98.849C895.379 99.0667 895.47 99.1392 895.47 99.0667C895.506 98.9216 895.996 96.9446 896.939 93.1357C897.882 89.3268 898.39 87.3135 898.462 87.0959C898.462 86.6243 898.335 86.3341 898.081 86.2253C897.828 86.1164 897.12 86.0257 895.959 85.9532H894.817C894.599 85.7355 894.49 85.5904 894.49 85.5179C894.49 85.4453 894.527 85.1007 894.599 84.4841C894.78 83.7948 895.016 83.4502 895.306 83.4502ZM894.545 102.876C893.71 100.01 892.35 98.5769 890.464 98.5769C889.194 98.5769 887.979 99.1392 886.818 100.264C885.657 101.388 884.75 102.857 884.097 104.671C883.045 107.537 882.302 110.511 881.867 113.595C881.867 113.704 881.867 113.903 881.867 114.193C881.867 114.484 881.848 114.701 881.812 114.846C881.812 116.479 882.139 117.603 882.792 118.22C883.444 118.837 884.224 119.163 885.131 119.199C887.09 119.199 889.103 117.893 891.171 115.282L891.606 114.683L894.545 102.876Z" fill="white"/>
<path d="M905.101 99.6655C904.847 99.4115 904.72 99.2302 904.72 99.1213C904.72 98.9762 904.774 98.686 904.883 98.2507C904.992 97.8154 905.082 97.5615 905.155 97.489C905.228 97.3076 905.391 97.2169 905.645 97.2169C905.899 97.2169 906.824 97.1988 908.42 97.1625H911.304L912.338 92.8095C912.446 92.4104 912.573 91.8845 912.718 91.2315C912.863 90.5785 912.99 90.107 913.099 89.8168C913.208 89.5266 913.317 89.1638 913.426 88.7285C913.535 88.2932 913.68 87.9849 913.861 87.8035C914.042 87.6221 914.224 87.4045 914.405 87.1506C914.587 86.8966 914.84 86.7334 915.167 86.6608C915.493 86.5883 915.82 86.552 916.146 86.552C916.799 86.5883 917.253 86.7878 917.507 87.1506C917.761 87.5133 917.888 87.8579 917.888 88.1844C917.888 88.4383 917.724 89.2908 917.398 90.7418C917.071 92.1928 916.709 93.6257 916.31 95.0404L915.766 97.0537C915.766 97.1262 916.672 97.1625 918.486 97.1625H921.261C921.515 97.4164 921.642 97.6159 921.642 97.761C921.642 98.5591 921.406 99.1939 920.935 99.6655H915.113L913.154 107.555C911.739 113.359 911.032 116.479 911.032 116.914C911.032 118.438 911.521 119.2 912.501 119.2C913.77 119.2 915.004 118.583 916.201 117.35C917.398 116.116 918.359 114.593 919.085 112.779C919.157 112.561 919.248 112.434 919.357 112.398C919.466 112.362 919.738 112.325 920.173 112.289H920.391C920.935 112.289 921.207 112.434 921.207 112.725C921.207 112.833 921.152 113.051 921.044 113.377C920.862 113.958 920.536 114.647 920.064 115.445C919.593 116.243 918.976 117.096 918.214 118.003C917.452 118.909 916.527 119.671 915.439 120.288C914.351 120.905 913.244 121.213 912.12 121.213C911.032 121.213 909.998 120.941 909.018 120.397C908.039 119.853 907.332 118.909 906.896 117.567C906.824 117.277 906.787 116.787 906.787 116.098V115.119L908.692 107.501C909.961 102.386 910.614 99.8106 910.651 99.7743C910.651 99.7017 909.726 99.6655 907.876 99.6655H905.101Z" fill="white"/>
<path d="M962.615 71.3174H836.106V68.0526H962.615V71.3174Z" fill="white"/>
</svg>
