<svg width="96" height="96" viewBox="0 0 96 96" fill="none" xmlns="http://www.w3.org/2000/svg">
<path d="M0 48C0 34.1622 4.80481 22.7267 14.4144 13.6937C24.024 4.66066 34.979 0.0960922 47.2793 0C61.3093 0 72.9369 4.70871 82.1622 14.1261C91.3874 23.5435 96 34.8348 96 48C96 61.4535 91.3393 72.7928 82.018 82.018C72.6967 91.2432 61.4054 95.9039 48.1441 96C34.5946 96 23.2072 91.3393 13.982 82.018C4.75676 72.6967 0.0960961 61.3574 0 48ZM44.3964 5.9099C39.015 6.1982 33.5856 7.78378 28.1081 10.6667C22.6306 13.5495 17.6817 17.9219 13.2613 23.7838C8.84084 29.6456 6.34234 36.3724 5.76577 43.964V45.1171H45.1171V5.9099H44.3964ZM90.0901 43.964C89.5135 38.1982 88.024 33.009 85.6216 28.3964C83.2192 23.7838 80.4324 20.1321 77.2613 17.4414C74.0901 14.7507 70.7267 12.4925 67.1712 10.6667C63.6156 8.84084 60.5405 7.59159 57.9459 6.91891C55.3514 6.24625 53.1411 5.9099 51.3153 5.9099H50.8829V45.1171H90.0901V43.964ZM5.76577 52.036C6.53453 58.955 8.6006 65.0571 11.964 70.3423C15.3273 75.6276 19.1712 79.6156 23.4955 82.3063C27.8198 84.997 31.8078 86.967 35.4595 88.2162C39.1111 89.4655 42.1862 90.0901 44.6847 90.0901H45.1171V50.8829H5.76577V52.036ZM90.0901 52.036V50.8829H50.8829V90.0901H51.3153C52.949 90.0901 55.0631 89.8018 57.6577 89.2252C60.2523 88.6486 63.3754 87.3994 67.027 85.4775C70.6787 83.5556 73.994 81.2973 76.973 78.7027C79.952 76.1081 82.7868 72.4565 85.4775 67.7477C88.1682 63.039 89.7057 57.8018 90.0901 52.036Z" fill="white"/>
</svg>
