<svg width="412" height="96" viewBox="0 0 412 96" fill="none" xmlns="http://www.w3.org/2000/svg">
<path d="M9.7982 12.176C9.35427 11.7321 9.00546 11.4467 8.75179 11.3198C8.49811 11.193 7.99076 11.0979 7.22974 11.0345C6.46871 10.971 5.10521 10.8759 3.13923 10.7491H0V6.37318H17.789C19.2476 6.37318 21.2136 6.37318 23.6869 6.37318C26.1602 6.37318 27.9043 6.34148 28.919 6.27805C34.4998 6.27805 38.9391 6.69028 42.2369 7.51472C45.5347 8.33916 48.5788 10.0832 51.3692 12.7468C54.9841 16.108 56.7915 20.1351 56.7915 24.828C56.7915 29.1405 55.1743 32.8505 51.94 35.958C48.7056 39.0656 44.8371 41.1267 40.3343 42.1414C38.9391 42.4585 35.0389 42.6487 28.6336 42.7121H19.6915V54.1275C19.6915 61.6743 19.7867 65.5746 19.9769 65.8283C20.4843 66.5259 22.6088 66.9064 26.3505 66.9698H29.4897V71.3457H28.4433C27.1115 71.1554 22.5454 71.0603 14.7449 71.0603C6.18333 71.0603 1.61718 71.1554 1.04641 71.3457H0V66.9698H3.13923C5.80282 66.9064 7.41999 66.8113 7.99076 66.6844C8.56153 66.5576 9.16401 66.1771 9.7982 65.5429V12.176ZM45.6615 24.9232C45.6615 23.2743 45.6298 22.0059 45.5664 21.118C45.503 20.2302 45.3127 19.0886 44.9956 17.6934C44.6785 16.2982 44.1395 15.2518 43.3784 14.5542C42.6174 13.8566 41.571 13.1273 40.2392 12.3663C38.9074 11.6052 37.2268 11.1296 35.1974 10.9393C34.4364 10.8125 31.5825 10.7491 26.6359 10.7491H24.6382C21.5307 10.7491 19.8818 11.0345 19.6915 11.6052C19.5013 11.8589 19.4061 16.4568 19.4061 25.3988V38.8119H26.1602H29.68C32.9143 38.8119 35.5779 38.5899 37.6707 38.146C39.7636 37.702 41.6027 36.6556 43.1882 35.0068C44.8371 33.1676 45.6615 29.8064 45.6615 24.9232Z" fill="white"/>
<path d="M75.246 42.3321C75.246 42.3321 74.5483 42.3321 73.1531 42.3321C71.7579 42.3321 70.5847 41.8564 69.6334 40.9052C68.6821 39.9539 68.2065 38.7172 68.2065 37.1952C68.2065 34.9755 69.2846 33.0095 71.4408 31.2972C73.5971 29.5849 77.4339 28.7288 82.9513 28.7288C87.5809 28.7288 91.3226 29.7435 94.1765 31.7729C97.0303 33.8023 98.9329 36.2122 99.8841 39.0026C100.201 39.8905 100.36 40.8735 100.36 41.9516C100.36 43.0297 100.391 46.6763 100.455 52.8913V59.5503C100.455 62.5944 100.613 64.6872 100.931 65.8287C101.248 66.9703 101.914 67.541 102.928 67.541C103.88 67.541 104.514 67.0337 104.831 66.019C105.148 65.0043 105.306 63.3237 105.306 60.9772V57.5526H109.112V61.2626C109.048 63.7993 108.953 65.2897 108.826 65.7336C108.255 67.6362 107.146 69.1265 105.497 70.2046C103.848 71.2827 102.104 71.8535 100.265 71.9169C98.4255 71.9804 96.9352 71.4096 95.7936 70.2046C94.6521 68.9997 93.8911 67.6679 93.5106 66.2092V65.8287L93.3203 66.1141C93.1935 66.3044 93.0349 66.4946 92.8447 66.6849C92.6544 66.8751 92.4007 67.1605 92.0836 67.541C91.7665 67.9216 91.386 68.2704 90.9421 68.5875C90.4982 68.9045 90.0225 69.2851 89.5152 69.729C89.0078 70.1729 88.4371 70.5217 87.8029 70.7754C87.1687 71.0291 86.4711 71.2827 85.71 71.5364C84.949 71.7901 84.1246 71.9804 83.2367 72.1072C82.3489 72.234 81.3659 72.3292 80.2877 72.3926C76.4826 72.3926 73.058 71.4096 70.0139 69.4436C66.9698 67.4776 65.4478 64.7189 65.4478 61.1675C65.4478 59.8357 65.6697 58.5673 66.1137 57.3623C66.5576 56.1574 67.4137 54.8573 68.6821 53.4621C69.9505 52.0669 71.4725 50.8936 73.2483 49.9423C75.024 48.9911 77.4973 48.1032 80.6683 47.2787C83.8392 46.4543 87.3272 45.9787 91.1324 45.8518H92.4641V43.759C92.4641 41.6028 92.2739 40.0173 91.8934 39.0026C90.4982 34.4999 87.4224 32.2485 82.6659 32.2485C81.5244 32.2485 80.4463 32.2802 79.4316 32.3436C78.4169 32.4071 77.6242 32.5339 77.0534 32.7241C76.4826 32.9144 76.2289 33.0095 76.2924 33.0095C77.6876 33.9608 78.3852 35.356 78.3852 37.1952C78.3852 38.7806 77.8778 40.0173 76.8631 40.9052L75.246 42.3321ZM74.1995 61.2626C74.1995 63.2286 74.9606 64.9726 76.4826 66.4946C78.0047 68.0167 79.8755 68.8094 82.0952 68.8728C84.5051 68.8728 86.6296 68.1435 88.4688 66.6849C90.3079 65.2263 91.5446 63.3237 92.1788 60.9772C92.3056 60.5333 92.4007 58.4405 92.4641 54.6987C92.4641 51.0205 92.4324 49.1813 92.369 49.1813C91.8617 49.1813 91.1958 49.213 90.3713 49.2764C89.5469 49.3399 88.12 49.6252 86.0906 50.1326C84.0612 50.6399 82.222 51.2741 80.5731 52.0352C78.9242 52.7962 77.4656 53.9694 76.1972 55.5549C74.9289 57.1404 74.263 59.0429 74.1995 61.2626Z" fill="white"/>
<path d="M113.202 66.9698H114.534C117.007 66.9698 118.498 66.5259 119.005 65.638V64.877C119.005 64.3062 119.005 63.5769 119.005 62.689C119.005 61.8012 119.037 60.8182 119.1 59.7401C119.164 58.6619 119.164 57.4253 119.1 56.0301C119.037 54.6349 119.037 53.3031 119.1 52.0347C119.1 50.0687 119.1 47.9759 119.1 45.7562C119.1 43.5366 119.1 41.6657 119.1 40.1437L119.005 37.9557C118.815 36.7508 118.371 35.958 117.673 35.5775C116.976 35.197 115.549 34.9116 113.392 34.7214H111.68V32.5334C111.68 31.0748 111.744 30.3455 111.87 30.3455L112.822 30.2503C113.456 30.1869 114.344 30.1235 115.485 30.0601C116.627 29.9967 117.768 29.9332 118.91 29.8698C119.925 29.8064 121.034 29.743 122.239 29.6796C123.444 29.6162 124.364 29.521 124.998 29.3942C125.632 29.2673 125.981 29.2356 126.045 29.2991H126.33V35.8629C128.803 31.5504 131.879 29.3942 135.557 29.3942H136.128C138.982 29.3942 141.075 30.0918 142.407 31.487C143.738 32.8822 144.404 34.3409 144.404 35.8629C144.404 37.1947 143.992 38.3362 143.168 39.2875C142.343 40.2388 141.138 40.7144 139.553 40.7144C137.967 40.7144 136.794 40.2071 136.033 39.1924C135.272 38.1777 134.86 37.0996 134.796 35.958C134.796 35.3873 134.86 34.8799 134.987 34.436C135.113 33.992 135.272 33.6115 135.462 33.2944C135.652 32.9773 135.748 32.8188 135.748 32.8188C135.621 32.692 134.891 32.8188 133.56 33.1993C132.545 33.7067 131.784 34.1823 131.277 34.6262C128.296 37.4801 126.806 43.1561 126.806 51.6542V56.696C126.806 57.5204 126.806 58.3766 126.806 59.2644C126.806 60.1523 126.806 60.9767 126.806 61.7378C126.806 62.4988 126.837 63.133 126.901 63.6403C126.964 64.1477 126.964 64.6233 126.901 65.0672V65.5429C126.964 65.6697 127.059 65.7966 127.186 65.9234C127.313 66.0502 127.471 66.1454 127.662 66.2088C127.852 66.2722 128.011 66.3673 128.137 66.4942C128.264 66.621 128.486 66.6844 128.803 66.6844C129.12 66.6844 129.342 66.7161 129.469 66.7796C129.596 66.843 129.881 66.8747 130.325 66.8747C130.769 66.8747 131.055 66.8747 131.181 66.8747C131.308 66.8747 131.625 66.9064 132.133 66.9698C132.64 67.0332 132.957 67.0332 133.084 66.9698H136.033V71.3457H135.177C134.035 71.1554 130.008 71.0603 123.096 71.0603C116.563 71.0603 113.012 71.1554 112.441 71.3457H111.68V66.9698H113.202Z" fill="white"/>
<path d="M153.632 13.4127C153.632 11.6369 154.202 10.2417 155.344 9.22702C156.485 8.21232 157.881 7.70497 159.529 7.70497C160.988 7.8318 162.256 8.37086 163.335 9.32214C164.413 10.2734 164.952 11.6369 164.952 13.4127C164.952 15.3152 164.413 16.7421 163.335 17.6934C162.256 18.6447 160.925 19.1203 159.339 19.1203C157.754 19.1203 156.422 18.6447 155.344 17.6934C154.266 16.7421 153.695 15.3152 153.632 13.4127ZM170.564 71.3457C169.613 71.1554 166.315 71.0603 160.671 71.0603C159.973 71.0603 158.8 71.0603 157.151 71.0603C155.502 71.0603 153.917 71.1237 152.395 71.2506L150.302 71.3457H149.541V66.9698H151.063C152.839 66.9698 154.393 66.8747 155.724 66.6844C156.295 66.4307 156.644 66.0819 156.771 65.638C156.898 65.1941 156.961 63.8623 156.961 61.6426V51.8444V43.4732C156.961 40.1754 156.898 38.0826 156.771 37.1947C156.644 36.3068 156.2 35.7044 155.439 35.3873C154.551 34.9433 153.061 34.7214 150.968 34.7214H149.922V32.5334C149.922 31.0748 149.985 30.3455 150.112 30.3455L151.063 30.2503C151.697 30.1869 152.585 30.1235 153.727 30.0601C154.868 29.9967 156.01 29.9332 157.151 29.8698C158.229 29.8064 159.371 29.743 160.576 29.6796C161.781 29.6162 162.7 29.521 163.335 29.3942C163.969 29.2673 164.318 29.2356 164.381 29.2991H164.666V65.4478C164.983 66.0819 165.364 66.4625 165.808 66.5893C166.252 66.7161 167.362 66.843 169.137 66.9698H171.325V71.3457H170.564Z" fill="white"/>
<path d="M176.082 31.2015C179.443 30.9478 182.044 29.1721 183.883 25.8743C185.722 22.5766 186.737 18.708 186.927 14.2687V12.8418H190.732V30.3454H203.574V34.7213H190.732V48.4197C190.795 56.3471 190.827 60.8181 190.827 61.8328C190.827 62.8475 191.049 63.8622 191.493 64.8769C192.381 67.3502 193.935 68.5869 196.154 68.5869C198.945 68.5869 200.657 66.3355 201.291 61.8328C201.355 61.3254 201.386 59.8668 201.386 57.4569V54.1274H205.191V57.4569V58.5984C205.191 63.4817 203.86 67.1917 201.196 69.7284C199.484 71.4407 197.264 72.2969 194.537 72.2969C192.381 72.2969 190.51 71.9164 188.925 71.1553C187.339 70.3943 186.134 69.4113 185.31 68.2064C184.485 67.0014 183.883 65.8916 183.502 64.8769C183.122 63.8622 182.9 62.8475 182.836 61.8328C182.773 61.3888 182.741 56.6959 182.741 47.7538V34.7213H175.226V31.2015H176.082Z" fill="white"/>
<path d="M217.083 77.6243C218.478 77.6243 219.588 78.0682 220.412 78.9561C221.237 79.8439 221.68 80.9855 221.744 82.3807C221.744 83.5222 221.458 84.4418 220.888 85.1394C220.317 85.837 219.746 86.3126 219.175 86.5663C218.731 86.7566 218.922 86.9468 219.746 87.1371C220.19 87.2639 220.634 87.3273 221.078 87.3273C222.346 87.3273 223.52 87.042 224.598 86.4712C225.676 85.9004 226.532 85.2345 227.166 84.4735C227.8 83.7125 228.498 82.6978 229.259 81.4294C230.02 80.161 230.527 79.178 230.781 78.4804C231.035 77.7828 231.415 76.7681 231.923 75.4363L233.54 71.3458L226.691 53.9374C225.422 50.7664 223.995 47.1515 222.41 43.0927C220.888 39.2242 219.968 36.9728 219.651 36.3386C219.334 35.7045 218.827 35.2922 218.129 35.102C218.066 35.0386 218.002 35.0069 217.939 35.0069C217.178 34.8166 215.782 34.7215 213.753 34.7215H212.326V30.3456H212.992L214.895 30.4407C216.1 30.4407 217.431 30.4724 218.89 30.5358C220.349 30.5993 221.427 30.631 222.124 30.631C222.568 30.631 223.202 30.631 224.027 30.631C224.851 30.631 225.771 30.5993 226.786 30.5358C227.8 30.4724 228.72 30.4407 229.544 30.4407C230.369 30.4407 231.13 30.4407 231.827 30.4407L232.684 30.3456H233.445V34.7215H232.588C229.481 34.7215 227.991 35.3239 228.117 36.5289L237.725 60.6915C237.725 60.628 239.184 56.9815 242.101 49.7517L246.287 38.9071V38.051C246.287 37.0997 245.97 36.3704 245.336 35.863C244.701 35.3557 244.131 35.0386 243.623 34.9117C243.116 34.7849 242.672 34.7215 242.292 34.7215H242.006V30.3456H242.577H243.243C243.687 30.3456 244.226 30.3456 244.86 30.3456C245.494 30.3456 246.16 30.3773 246.858 30.4407C247.555 30.5041 248.285 30.5358 249.046 30.5358C249.807 30.5358 250.346 30.5358 250.663 30.5358C254.151 30.5358 256.719 30.4724 258.368 30.3456H258.844V34.7215H257.797C254.246 35.0386 251.868 36.3069 250.663 38.5266C250.536 38.6534 249.141 42.1415 246.477 48.9907C243.814 55.8399 240.991 63.0062 238.011 70.4897C235.03 77.9731 233.064 82.4124 232.113 83.8076C229.132 88.4372 225.517 90.752 221.268 90.752C218.478 90.752 216.29 89.8958 214.704 88.1835C213.119 86.4712 212.326 84.5369 212.326 82.3807C212.326 80.6684 212.834 79.4634 213.848 78.7658C214.863 78.0682 215.941 77.6877 217.083 77.6243Z" fill="white"/>
<path d="M269.688 47.5639C269.688 43.188 270.005 39.034 270.639 35.1021C271.273 31.1701 272.003 27.7772 272.827 24.9234C273.652 22.0695 274.825 19.2791 276.347 16.5521C277.869 13.8251 279.074 11.7005 279.962 10.1785C280.85 8.65645 282.181 7.00756 283.957 5.23183C285.733 3.45611 286.779 2.37799 287.096 1.99748C287.414 1.61697 288.206 0.951073 289.475 -0.000213623H290.711H291.092C291.98 -0.000213623 292.424 0.285172 292.424 0.855942C292.424 1.0462 291.885 1.7121 290.806 2.85363C289.728 3.99517 288.428 5.67577 286.906 7.89542C285.384 10.1151 283.83 12.8421 282.245 16.0764C280.659 19.3108 279.328 23.6867 278.25 29.2041C277.171 34.7216 276.632 40.8415 276.632 47.5639C276.632 54.2862 277.171 60.3745 278.25 65.8285C279.328 71.2825 280.628 75.6901 282.15 79.0513C283.672 82.4125 285.226 85.1395 286.811 87.2323C288.397 89.3251 289.728 91.0057 290.806 92.2741C291.885 93.5425 292.424 94.2084 292.424 94.2718C292.424 94.8425 291.948 95.1279 290.997 95.1279H290.711H289.475L286.811 92.8449C280.85 87.4543 276.506 80.7319 273.778 72.6777C271.051 64.6235 269.688 56.2522 269.688 47.5639Z" fill="white"/>
<path d="M327.051 69.0626C330.792 69.0626 334.217 67.4137 337.324 64.1159C340.432 60.8181 342.017 56.9813 342.081 52.6054C342.081 48.61 340.432 45.8513 337.134 44.3293C330.412 42.617 326.099 41.4437 324.197 40.8095C322.294 40.1753 320.962 39.5411 320.201 38.907C316.396 36.2434 314.494 32.4065 314.494 27.3964C314.494 23.5279 315.508 20.0082 317.538 16.8372C319.567 13.6663 321.628 11.2881 323.721 9.70261C325.56 8.11713 327.78 6.84876 330.38 5.89748C332.98 4.9462 335.01 4.43885 336.468 4.37543H337.515H338.181C344.269 4.37543 348.676 6.40483 351.403 10.4636C351.467 10.4636 351.879 10.0514 352.64 9.22697C353.401 8.40252 354.226 7.48295 355.113 6.46825C356.001 5.45355 356.635 4.75594 357.016 4.37543C357.079 4.37543 357.206 4.37543 357.396 4.37543C357.587 4.37543 357.745 4.34372 357.872 4.2803C358.697 4.2803 359.109 4.50227 359.109 4.9462C359.109 5.39013 358.221 9.22697 356.445 16.4567C354.669 23.6864 353.655 27.4282 353.401 27.6818C353.147 27.9355 352.64 28.0306 351.879 27.9672C350.611 27.9672 349.976 27.6818 349.976 27.1111C349.976 26.7305 350.008 26.4135 350.072 26.1598C350.072 25.9695 350.103 25.367 350.167 24.3523C350.23 23.3376 350.294 22.5132 350.357 21.879C350.357 19.7228 350.072 17.8519 349.501 16.2664C348.93 14.681 348.359 13.5077 347.788 12.7467C347.218 11.9857 346.425 11.1929 345.41 10.3685C343.127 9.03671 340.527 8.37081 337.61 8.37081C333.995 8.37081 330.634 9.82944 327.526 12.7467C324.419 15.664 322.833 19.0252 322.77 22.8303C322.77 24.7329 323.245 26.3817 324.197 27.777C325.148 29.1722 326.448 30.1552 328.097 30.7259C328.351 30.8528 330.57 31.4552 334.756 32.5334C338.942 33.6115 341.066 34.1823 341.13 34.2457C343.286 34.9433 345.379 36.4653 347.408 38.8118C349.437 41.1583 350.452 44.3293 350.452 48.3246C350.452 49.9735 350.198 51.7493 349.691 53.6518C349.374 55.047 348.803 56.6008 347.979 58.3131C347.154 60.0254 346.013 61.8963 344.554 63.9257C343.096 65.9551 341.003 67.8576 338.276 69.6333C335.549 71.4091 332.568 72.614 329.334 73.2482C328.573 73.3751 327.494 73.4385 326.099 73.4385C319.821 73.4385 314.938 71.6945 311.45 68.2064L310.498 67.16L307.835 70.109C306.376 71.8213 305.488 72.8043 305.171 73.058C304.854 73.3116 304.442 73.4385 303.934 73.4385C303.11 73.4385 302.698 73.1848 302.698 72.6775C302.698 72.4872 304.537 65.0355 308.215 50.3223C308.342 49.9418 308.976 49.7516 310.118 49.7516H311.354C311.735 50.1321 311.925 50.4809 311.925 50.798C311.925 50.9248 311.893 51.2102 311.83 51.6541C311.767 52.0981 311.64 52.764 311.45 53.6518C311.259 54.5397 311.196 55.5861 311.259 56.791C311.386 59.2644 311.957 61.3572 312.972 63.0695C313.986 64.7818 315.35 66.0502 317.062 66.8746C318.774 67.6991 320.423 68.2698 322.009 68.5869C323.594 68.904 325.275 69.0626 327.051 69.0626Z" fill="white"/>
<path d="M368.44 45.2623C368.44 44.1862 368.866 43.2446 369.718 42.4376C370.569 41.6305 371.556 41.2045 372.677 41.1597C373.484 41.1597 374.156 41.4287 374.694 41.9668C375.233 42.5048 375.524 43.1774 375.569 43.9844C375.569 45.0157 375.12 45.9573 374.224 46.8092C373.327 47.6611 372.341 48.1095 371.264 48.1543C370.592 48.1543 369.964 47.9301 369.381 47.4817C368.798 47.0334 368.485 46.2935 368.44 45.2623ZM357.477 66.3133C357.477 65.9546 357.679 65.2596 358.082 64.2284C358.486 63.1971 359.024 62.0538 359.696 60.7983C360.369 59.5429 361.355 58.3996 362.656 57.3683C363.956 56.3371 365.301 55.8438 366.691 55.8887C368.44 55.8887 369.897 56.4043 371.063 57.4356C372.228 58.4668 372.834 59.8568 372.879 61.6054C372.879 62.3676 372.565 63.6231 371.937 65.3717C371.309 67.1204 370.413 69.4743 369.247 72.4336C368.081 75.3928 367.139 77.9261 366.422 80.0334C366.198 81.0199 366.086 81.7373 366.086 82.1856C366.086 83.3065 366.467 83.867 367.229 83.867C367.633 83.867 368.059 83.7998 368.507 83.6652C368.955 83.5307 369.471 83.2169 370.054 82.7237C370.637 82.2305 371.242 81.4458 371.87 80.3697C372.497 79.2936 373.058 77.9709 373.551 76.4016C373.686 75.8636 373.798 75.5497 373.887 75.4601C373.977 75.3704 374.358 75.3256 375.031 75.3256C375.928 75.3256 376.376 75.5497 376.376 75.9981C376.376 76.3568 376.174 77.0518 375.771 78.083C375.367 79.1143 374.807 80.2576 374.089 81.5131C373.372 82.7685 372.363 83.8894 371.063 84.8758C369.762 85.8623 368.372 86.3555 366.893 86.3555C365.458 86.3555 364.135 85.8847 362.925 84.9431C361.714 84.0015 361.086 82.5667 361.042 80.6387C361.042 79.8765 361.154 79.1591 361.378 78.4866C361.602 77.814 362.566 75.2583 364.27 70.8194C365.974 66.2909 366.96 63.5782 367.229 62.6815C367.498 61.7848 367.655 60.9104 367.7 60.0585C367.7 58.9824 367.319 58.4444 366.557 58.4444H366.422C365.077 58.4444 363.844 59.1842 362.723 60.6638C361.602 62.1435 360.75 64.0266 360.167 66.3133C360.122 66.3581 360.078 66.4254 360.033 66.5151C359.988 66.6047 359.966 66.672 359.966 66.7168C359.966 66.7617 359.921 66.8065 359.831 66.8513C359.741 66.8962 359.674 66.9186 359.629 66.9186C359.584 66.9186 359.495 66.9186 359.36 66.9186C359.226 66.9186 359.046 66.9186 358.822 66.9186H357.881C357.612 66.6496 357.477 66.4478 357.477 66.3133Z" fill="white"/>
<path d="M389.74 0.0949173L390.12 -0.000213623C390.437 -0.000213623 390.755 -0.000213623 391.072 -0.000213623H392.213L394.877 2.28287C400.838 7.67346 405.182 14.3958 407.909 22.45C410.636 30.5042 412 38.8755 412 47.5639C412 51.8763 411.683 56.0303 411.049 60.0256C410.414 64.021 409.685 67.4139 408.861 70.2044C408.036 72.9948 406.863 75.7852 405.341 78.5756C403.819 81.3661 402.614 83.4906 401.726 84.9492C400.838 86.4079 399.538 88.025 397.826 89.8008C396.113 91.5765 395.099 92.6229 394.782 92.94C394.464 93.2571 393.735 93.8596 392.594 94.7474C392.403 94.9377 392.277 95.0645 392.213 95.1279H391.072C390.564 95.1279 390.215 95.1279 390.025 95.1279C389.835 95.1279 389.676 95.0328 389.55 94.8425C389.423 94.6523 389.328 94.3669 389.264 93.9864C389.328 93.923 389.676 93.5108 390.311 92.7497C400.14 82.5393 405.055 67.4774 405.055 47.5639C405.055 27.6504 400.14 12.5884 390.311 2.37799C389.676 1.61697 389.328 1.20474 389.264 1.14133C389.264 0.633972 389.423 0.285172 389.74 0.0949173Z" fill="white"/>
</svg>
