<svg width="1024" height="65" viewBox="0 0 1024 65" fill="none" xmlns="http://www.w3.org/2000/svg">
<path d="M0 15.6495C0 12.0861 1.22359 9.08077 3.67077 6.63359C6.11794 4.18641 8.93005 2.96282 12.1071 2.96282H13.0087C16.658 2.96282 19.835 4.31521 22.5398 7.01999L23.8922 5.02361C24.1068 4.72307 24.3215 4.40108 24.5362 4.05761C24.7508 3.71415 24.9655 3.43509 25.1802 3.22042L25.3734 2.96282C25.4163 2.96282 25.5022 2.96282 25.631 2.96282C25.7598 2.96282 25.8886 2.94136 26.0174 2.89842H26.275C26.4038 2.89842 26.597 3.02722 26.8546 3.28482V18.5475L26.4682 18.9339H25.309C24.8367 18.9339 24.5576 18.8695 24.4718 18.7407C24.3859 18.6119 24.2786 18.1826 24.1498 17.4527C23.4199 12.0431 21.2518 8.45824 17.6454 6.69799C16.0569 6.01106 14.4469 5.6676 12.8155 5.6676C10.54 5.6676 8.69392 6.44039 7.27713 7.98598C5.86035 9.53156 5.15195 11.3347 5.15195 13.3955C5.15195 14.8552 5.51688 16.1862 6.24674 17.3883C6.9766 18.5904 8.00699 19.5564 9.33791 20.2863C9.76724 20.458 11.6134 20.9517 14.8763 21.7675C18.1392 22.5832 19.9424 23.0769 20.2858 23.2486C22.733 24.1932 24.7294 25.8031 26.275 28.0786C27.8205 30.354 28.6148 32.9944 28.6577 35.9997C28.6577 39.4773 27.5415 42.6114 25.309 45.402C23.0765 48.1927 19.9209 49.6095 15.8423 49.6524C13.438 49.6524 11.2914 49.2875 9.40231 48.5576C7.51326 47.8277 6.20381 47.1623 5.47395 46.5612L4.31476 45.6596C4.14303 45.8743 3.82103 46.3036 3.34877 46.9476C2.87651 47.5916 2.44718 48.1927 2.06078 48.7508C1.67438 49.3089 1.48119 49.6095 1.48119 49.6524C1.39532 49.6953 1.18066 49.7168 0.837192 49.7168H0.579595C0.450796 49.7168 0.257598 49.588 0 49.3304V41.7957C0 36.6866 0.0214665 34.0892 0.0643994 34.0033C0.150265 33.7887 0.579595 33.6813 1.35239 33.6813H2.18958C2.44718 33.9389 2.57598 34.218 2.57598 34.5185C2.57598 35.8924 2.79064 37.2448 3.21997 38.5757C3.6493 39.9066 4.37916 41.2161 5.40955 42.5041C6.43994 43.7921 7.85673 44.8224 9.65991 45.5952C11.4631 46.368 13.6097 46.7544 16.0999 46.7544C18.1177 46.7544 19.8565 45.9387 21.3162 44.3072C22.7759 42.6758 23.5058 40.6794 23.5058 38.3181C23.5058 36.472 23.0335 34.7976 22.089 33.2949C21.1445 31.7923 19.8994 30.7619 18.3538 30.2038C15.9496 29.6027 14.3611 29.1949 13.5883 28.9802C13.3736 28.9373 12.794 28.8085 11.8495 28.5938C10.905 28.3791 10.1966 28.2074 9.72431 28.0786C9.25205 27.9498 8.56512 27.7137 7.66353 27.3702C6.76194 27.0267 6.05354 26.6403 5.53835 26.211C5.02315 25.7817 4.40063 25.2665 3.67077 24.6654C2.94091 24.0644 2.36131 23.313 1.93198 22.4114C0.643994 20.3077 0 18.0538 0 15.6495Z" fill="white"/>
<path d="M36.7073 52.5514C37.6518 52.5514 38.4031 52.8519 38.9613 53.4529C39.5194 54.054 39.8199 54.8268 39.8628 55.7713C39.8628 56.5441 39.6696 57.1666 39.2833 57.6389C38.8969 58.1112 38.5105 58.4332 38.1241 58.6049C37.8235 58.7337 37.9523 58.8625 38.5105 58.9913C38.811 59.0772 39.1115 59.1201 39.4121 59.1201C40.2707 59.1201 41.065 58.9269 41.7948 58.5405C42.5247 58.1541 43.1043 57.7033 43.5336 57.1881C43.9629 56.6729 44.4352 55.986 44.9504 55.1273C45.4656 54.2687 45.8091 53.6032 45.9808 53.131C46.1525 52.6587 46.4101 51.9718 46.7536 51.0702L47.8484 48.301L43.2116 36.5159C42.353 34.3693 41.387 31.9221 40.3136 29.1744C39.2833 26.5555 38.6607 25.0313 38.4461 24.602C38.2314 24.1727 37.8879 23.8936 37.4157 23.7648C37.3727 23.7219 37.3298 23.7004 37.2869 23.7004C36.7717 23.5716 35.8271 23.5072 34.4533 23.5072H33.4873V20.5448H33.9381L35.2261 20.6092C36.0418 20.6092 36.9434 20.6307 37.9309 20.6736C38.9183 20.7166 39.6482 20.738 40.1204 20.738C40.421 20.738 40.8503 20.738 41.4084 20.738C41.9666 20.738 42.5891 20.7166 43.276 20.6736C43.9629 20.6307 44.5855 20.6092 45.1436 20.6092C45.7017 20.6092 46.2169 20.6092 46.6892 20.6092L47.2688 20.5448H47.784V23.5072H47.2044C45.1007 23.5072 44.0917 23.9151 44.1776 24.7308L50.6819 41.0883C50.6819 41.0453 51.6694 38.5767 53.6443 33.6823L56.4779 26.3408V25.7612C56.4779 25.1172 56.2632 24.6235 55.8339 24.28C55.4046 23.9365 55.0182 23.7219 54.6747 23.636C54.3312 23.5502 54.0307 23.5072 53.7731 23.5072H53.5799V20.5448H53.9663H54.4171C54.7176 20.5448 55.0826 20.5448 55.5119 20.5448C55.9412 20.5448 56.392 20.5663 56.8643 20.6092C57.3366 20.6522 57.8303 20.6736 58.3455 20.6736C58.8607 20.6736 59.2256 20.6736 59.4403 20.6736C61.8016 20.6736 63.5404 20.6307 64.6566 20.5448H64.9786V23.5072H64.2702C61.866 23.7219 60.256 24.5805 59.4403 26.0832C59.3544 26.1691 58.4099 28.5304 56.6067 33.1671C54.8035 37.8039 52.893 42.6553 50.8751 47.7214C48.8573 52.7875 47.5264 55.7928 46.8824 56.7373C44.8645 59.8714 42.4174 61.4385 39.5408 61.4385C37.6518 61.4385 36.1706 60.8589 35.0973 59.6997C34.024 58.5405 33.4873 57.231 33.4873 55.7713C33.4873 54.6121 33.8308 53.7964 34.5177 53.3241C35.2046 52.8519 35.9345 52.5943 36.7073 52.5514Z" fill="white"/>
<path d="M68.9069 45.3394H69.8084C71.4828 45.3394 72.4918 45.0389 72.8352 44.4378V43.9226C72.8352 43.5362 72.8352 43.0425 72.8352 42.4414C72.8352 41.8404 72.8352 41.1749 72.8352 40.445C72.8352 39.7152 72.8567 38.878 72.8996 37.9335C72.9426 36.9889 72.9426 36.0873 72.8996 35.2287C72.8996 33.8978 72.8996 32.481 72.8996 30.9783C72.8996 29.4757 72.8782 28.2091 72.8352 27.1788V25.6976C72.7064 24.8818 72.4059 24.3452 71.9336 24.0876C71.4614 23.83 70.4954 23.6368 69.0357 23.508H67.8765V22.0268C67.8765 21.0393 67.9194 20.5456 68.0053 20.5456L68.6493 20.4812C69.0786 20.4383 69.6796 20.3953 70.4524 20.3524C71.2252 20.3095 72.0195 20.2665 72.8352 20.2236C73.5651 20.1807 74.3379 20.1377 75.1536 20.0948C75.9693 20.0519 76.5919 19.9875 77.0212 19.9016C77.4505 19.8158 77.6866 19.7943 77.7296 19.8372H77.9228V22.4132C77.9228 24.0446 77.9442 24.8604 77.9872 24.8604C78.0301 24.8604 78.1374 24.753 78.3092 24.5384C78.4809 24.3237 78.7385 24.0017 79.082 23.5724C79.4254 23.1431 79.8333 22.7567 80.3055 22.4132C80.7778 22.0697 81.4003 21.6619 82.1731 21.1896C82.9459 20.7173 83.7617 20.3739 84.6203 20.1592C85.479 19.9445 86.5738 19.8372 87.9047 19.8372C92.799 20.0089 95.5253 22.4347 96.0834 27.1144C96.1263 27.4149 96.1478 30.3987 96.1478 36.0659V41.6042C96.1478 43.2357 96.1907 44.2017 96.2766 44.5022C96.3625 44.8027 96.5986 45.0174 96.985 45.1462C97.8866 45.275 98.9384 45.3394 100.141 45.3394H101.171V48.3018H100.656L99.1102 48.2374C98.1227 48.1944 97.0494 48.173 95.8902 48.173C94.731 48.173 93.9153 48.1515 93.443 48.1086C89.0209 48.1086 86.6167 48.173 86.2303 48.3018H85.7151V45.3394H86.7455C89.3644 45.3394 90.6739 44.9959 90.6739 44.309C90.7168 44.2231 90.7383 41.2608 90.7383 35.4219C90.6953 29.6259 90.6524 26.5562 90.6095 26.2128C90.3519 25.0106 89.9225 24.109 89.3215 23.508C88.7204 22.9069 88.2052 22.542 87.7759 22.4132C87.3465 22.2844 86.7884 22.2415 86.1015 22.2844C84.1695 22.2844 82.4737 23.0143 81.0139 24.474C79.8548 25.6332 79.1249 26.8138 78.8244 28.0159C78.5238 29.2181 78.3521 30.9998 78.3092 33.3611V37.4827V41.3466C78.3092 42.6346 78.3306 43.4933 78.3736 43.9226C78.4165 44.3519 78.4809 44.631 78.5668 44.7598C78.6526 44.8886 78.8458 45.0174 79.1464 45.1462C80.048 45.275 81.0998 45.3394 82.3019 45.3394H83.3323V48.3018H82.8171L81.3359 48.2374C80.3055 48.1944 79.2108 48.173 78.0516 48.173C76.8924 48.173 76.0767 48.1515 75.6044 48.1086C71.1823 48.1086 68.7781 48.173 68.3917 48.3018H67.8765V45.3394H68.9069Z" fill="white"/>
<path d="M126.287 16.4227C126.287 15.7358 126.287 14.8771 126.287 13.8467C126.287 12.8163 126.309 12.1079 126.352 11.7215C126.352 9.78955 126.137 8.58743 125.708 8.11516C125.278 7.6429 124.184 7.36383 122.423 7.27797H121.264V5.79678C121.264 4.80933 121.307 4.3156 121.393 4.3156L122.037 4.2512C122.466 4.20826 123.089 4.16533 123.905 4.1224C124.72 4.07946 125.514 4.03653 126.287 3.9936C127.017 3.95066 127.811 3.90773 128.67 3.8648C129.529 3.82187 130.173 3.75747 130.602 3.6716C131.031 3.58574 131.268 3.56427 131.31 3.6072H131.504V23.1846C131.504 36.3221 131.525 42.9552 131.568 43.084C131.697 43.9427 131.997 44.5008 132.47 44.7584C132.942 45.016 133.908 45.2092 135.368 45.338H136.527V48.3004C136.441 48.3004 134.809 48.4077 131.632 48.6224C128.455 48.8371 126.76 48.9659 126.545 49.0088H126.094V45.4668L125.579 45.9176C123.089 47.9784 120.298 49.0088 117.207 49.0088C113.901 49.0088 110.917 47.6993 108.255 45.0804C105.594 42.4615 104.263 38.9195 104.263 34.4545C104.263 30.1612 105.615 26.6622 108.32 23.9574C111.025 21.2526 114.18 19.8788 117.787 19.8359C121.007 19.8359 123.84 20.8877 126.287 22.9914V16.4227ZM126.094 26.2758C124.162 23.571 121.736 22.2186 118.817 22.2186C116.713 22.2186 114.846 22.9914 113.214 24.537C112.055 25.7391 111.325 27.113 111.025 28.6586C110.724 30.2042 110.552 32.222 110.509 34.7121C110.509 37.1164 110.66 39.0698 110.96 40.5725C111.261 42.0751 112.012 43.3846 113.214 44.5008C114.502 45.9176 116.177 46.626 118.237 46.626C121.286 46.626 123.905 44.9731 126.094 41.6673V26.2758Z" fill="white"/>
<path d="M140.197 45.3394H141.099C142.773 45.3394 143.782 45.0389 144.126 44.4378V43.9226C144.126 43.5362 144.126 43.0425 144.126 42.4414C144.126 41.8404 144.147 41.1749 144.19 40.445C144.233 39.7152 144.233 38.878 144.19 37.9335C144.147 36.9889 144.147 36.0873 144.19 35.2287C144.19 33.8978 144.19 32.481 144.19 30.9783C144.19 29.4757 144.19 28.2091 144.19 27.1788L144.126 25.6976C143.997 24.8818 143.696 24.3452 143.224 24.0876C142.752 23.83 141.786 23.6368 140.326 23.508H139.167V22.0268C139.167 21.0393 139.21 20.5456 139.296 20.5456L139.94 20.4812C140.369 20.4383 140.97 20.3953 141.743 20.3524C142.516 20.3095 143.289 20.2665 144.061 20.2236C144.748 20.1807 145.5 20.1377 146.315 20.0948C147.131 20.0519 147.754 19.9875 148.183 19.9016C148.612 19.8158 148.848 19.7943 148.891 19.8372H149.085V24.2808C150.759 21.3613 152.841 19.9016 155.331 19.9016H155.718C157.65 19.9016 159.066 20.3739 159.968 21.3184C160.87 22.2629 161.32 23.2504 161.32 24.2808C161.32 25.1824 161.041 25.9552 160.483 26.5992C159.925 27.2431 159.109 27.5651 158.036 27.5651C156.963 27.5651 156.168 27.2217 155.653 26.5348C155.138 25.8478 154.859 25.118 154.816 24.3452C154.816 23.9588 154.859 23.6153 154.945 23.3148C155.031 23.0143 155.138 22.7567 155.267 22.542C155.396 22.3273 155.46 22.22 155.46 22.22C155.374 22.1341 154.88 22.22 153.979 22.4776C153.292 22.8211 152.777 23.1431 152.433 23.4436C150.415 25.3756 149.406 29.2181 149.406 34.9711V38.3842C149.406 38.9424 149.406 39.522 149.406 40.123C149.406 40.7241 149.406 41.2822 149.406 41.7974C149.406 42.3126 149.428 42.7419 149.471 43.0854C149.514 43.4289 149.514 43.7509 149.471 44.0514V44.3734C149.514 44.4593 149.578 44.5451 149.664 44.631C149.75 44.7169 149.857 44.7813 149.986 44.8242C150.115 44.8671 150.222 44.9315 150.308 45.0174C150.394 45.1033 150.544 45.1462 150.759 45.1462C150.974 45.1462 151.124 45.1677 151.21 45.2106C151.296 45.2535 151.489 45.275 151.789 45.275C152.09 45.275 152.283 45.275 152.369 45.275C152.455 45.275 152.669 45.2965 153.013 45.3394C153.356 45.3823 153.571 45.3823 153.657 45.3394H155.653V48.3018H155.074C154.301 48.173 151.575 48.1086 146.895 48.1086C142.473 48.1086 140.069 48.173 139.682 48.3018H139.167V45.3394H140.197Z" fill="white"/>
<path d="M164.927 34.5198C164.927 30.4412 166.322 26.9207 169.113 23.9583C171.903 20.996 175.274 19.4933 179.223 19.4504C183.087 19.4504 186.415 20.9101 189.205 23.8295C191.996 26.749 193.413 30.2909 193.456 34.4554C193.456 38.5341 192.082 41.9687 189.334 44.7594C186.586 47.55 183.216 48.9453 179.223 48.9453C175.059 48.9453 171.646 47.5071 168.984 44.6306C166.322 41.754 164.97 38.3838 164.927 34.5198ZM179.223 46.3693C184.461 46.3693 187.08 42.8703 187.08 35.8722V33.8115V32.2015C187.08 31.2569 187.059 30.4412 187.016 29.7543C186.973 29.0674 186.823 28.2516 186.565 27.3071C186.307 26.3626 185.964 25.5898 185.535 24.9887C185.105 24.3877 184.44 23.7866 183.538 23.1855C182.637 22.5845 181.585 22.1552 180.383 21.8976C180.168 21.8546 179.824 21.8332 179.352 21.8332C178.064 21.8332 176.841 22.0908 175.681 22.606C173.835 23.5505 172.633 24.8599 172.075 26.5343C171.517 28.2087 171.238 30.1836 171.238 32.4591V33.7471C171.238 37.8686 171.646 40.7666 172.461 42.441C173.835 45.0599 176.089 46.3693 179.223 46.3693Z" fill="white"/>
<path d="M197.964 45.3394H198.866C200.54 45.3394 201.549 45.0389 201.892 44.4378V43.9226C201.892 43.5362 201.892 43.0425 201.892 42.4414C201.892 41.8404 201.892 41.1749 201.892 40.445C201.892 39.7152 201.914 38.878 201.957 37.9335C202 36.9889 202 36.0873 201.957 35.2287C201.957 33.8978 201.957 32.481 201.957 30.9783C201.957 29.4757 201.935 28.2091 201.892 27.1788V25.6976C201.764 24.8818 201.463 24.3452 200.991 24.0876C200.518 23.83 199.553 23.6368 198.093 23.508H196.934V22.0268C196.934 21.0393 196.977 20.5456 197.062 20.5456L197.706 20.4812C198.136 20.4383 198.737 20.3953 199.51 20.3524C200.282 20.3095 201.077 20.2665 201.892 20.2236C202.622 20.1807 203.395 20.1377 204.211 20.0948C205.026 20.0519 205.649 19.9875 206.078 19.9016C206.508 19.8158 206.744 19.7943 206.787 19.8372H206.98V22.4132C206.98 24.0446 207.001 24.8604 207.044 24.8604C207.087 24.8604 207.195 24.753 207.366 24.5384C207.538 24.3237 207.796 24.0017 208.139 23.5724C208.483 23.1431 208.89 22.7567 209.363 22.4132C209.835 22.0697 210.457 21.6619 211.23 21.1896C212.003 20.7173 212.819 20.3739 213.677 20.1592C214.536 19.9445 215.631 19.8372 216.962 19.8372C217.606 19.8372 218.207 19.8801 218.765 19.966C219.323 20.0519 219.817 20.1807 220.246 20.3524C220.676 20.5241 221.083 20.6959 221.47 20.8676C221.856 21.0393 222.178 21.2325 222.436 21.4472C222.693 21.6619 222.929 21.898 223.144 22.1556C223.359 22.4132 223.552 22.6493 223.724 22.864C223.895 23.0787 224.046 23.3148 224.175 23.5724C224.303 23.83 224.389 24.0446 224.432 24.2164C224.475 24.3881 224.539 24.5598 224.625 24.7316L224.754 25.0536L224.947 24.796C225.076 24.6242 225.205 24.4525 225.334 24.2808C225.463 24.109 225.656 23.8729 225.913 23.5724C226.171 23.2719 226.45 22.9928 226.751 22.7352C227.051 22.4776 227.373 22.1985 227.717 21.898C228.06 21.5975 228.489 21.3399 229.005 21.1252C229.52 20.9105 230.013 20.6959 230.486 20.4812C230.958 20.2665 231.516 20.1163 232.16 20.0304C232.804 19.9445 233.47 19.8801 234.156 19.8372C239.566 19.8372 242.507 22.2629 242.979 27.1144C243.022 27.4149 243.044 30.3987 243.044 36.0659V41.6042C243.044 43.2357 243.087 44.2017 243.172 44.5022C243.258 44.8027 243.494 45.0174 243.881 45.1462C244.782 45.275 245.834 45.3394 247.036 45.3394H248.067V48.3018H247.552L246.07 48.2374C245.04 48.1944 243.945 48.173 242.786 48.173C241.627 48.173 240.811 48.1515 240.339 48.1086C235.917 48.1086 233.512 48.173 233.126 48.3018H232.611V45.3394H233.641C236.26 45.3394 237.57 44.9959 237.57 44.309C237.613 44.2231 237.634 41.2608 237.634 35.4219C237.591 29.6259 237.548 26.5562 237.505 26.2128C237.248 25.0106 236.818 24.109 236.217 23.508C235.616 22.9069 235.101 22.542 234.672 22.4132C234.242 22.2844 233.684 22.2415 232.997 22.2844C231.065 22.2844 229.369 23.0143 227.91 24.474C226.751 25.6332 226.021 26.8138 225.72 28.0159C225.42 29.2181 225.248 30.9998 225.205 33.3611V37.4827V41.3466C225.205 42.6346 225.226 43.4933 225.269 43.9226C225.312 44.3519 225.377 44.631 225.463 44.7598C225.548 44.8886 225.742 45.0174 226.042 45.1462C226.944 45.275 227.996 45.3394 229.198 45.3394H230.228V48.3018H229.713L228.167 48.2374C227.18 48.1944 226.107 48.173 224.947 48.173C223.788 48.173 222.972 48.1515 222.5 48.1086C218.078 48.1086 215.674 48.173 215.287 48.3018H214.772V45.3394H215.803C218.422 45.3394 219.731 44.9959 219.731 44.309C219.774 44.2231 219.795 41.2608 219.795 35.4219C219.752 29.6259 219.71 26.5562 219.667 26.2128C219.409 25.0106 218.98 24.109 218.379 23.508C217.778 22.9069 217.262 22.542 216.833 22.4132C216.404 22.2844 215.846 22.2415 215.159 22.2844C213.227 22.2844 211.531 23.0143 210.071 24.474C208.912 25.6332 208.182 26.8138 207.881 28.0159C207.581 29.2181 207.409 30.9998 207.366 33.3611V37.4827V41.3466C207.366 42.6346 207.388 43.4933 207.431 43.9226C207.474 44.3519 207.538 44.631 207.624 44.7598C207.71 44.8886 207.903 45.0174 208.203 45.1462C209.105 45.275 210.157 45.3394 211.359 45.3394H212.389V48.3018H211.874L210.393 48.2374C209.363 48.1944 208.268 48.173 207.109 48.173C205.95 48.173 205.134 48.1515 204.662 48.1086C200.239 48.1086 197.835 48.173 197.449 48.3018H196.934V45.3394H197.964Z" fill="white"/>
<path d="M250.771 34.2613C250.771 31.9 251.2 29.7534 252.059 27.8214C252.918 25.8894 253.991 24.3223 255.279 23.1202C256.567 21.9181 257.962 21.0165 259.465 20.4154C260.968 19.8144 262.384 19.4924 263.715 19.4495C265.991 19.4495 267.944 19.8359 269.576 20.6086C271.207 21.3814 272.452 22.4548 273.311 23.8286C274.169 25.2025 274.771 26.5763 275.114 27.9502C275.457 29.324 275.651 30.8482 275.694 32.5225C275.694 32.8231 275.543 33.1236 275.243 33.4241H257.082V34.3901C257.082 40.7442 259.229 44.6082 263.522 45.982C264.381 46.2396 265.325 46.3684 266.356 46.3684C268.159 46.3684 269.704 45.6815 270.992 44.3076C271.722 43.5778 272.302 42.6762 272.731 41.6029L273.375 40.0573C273.504 39.9285 273.847 39.8641 274.406 39.8641H274.599C275.329 39.8641 275.694 40.0787 275.694 40.5081C275.694 40.6798 275.629 40.9589 275.5 41.3453C274.685 43.7066 273.332 45.5742 271.443 46.948C269.554 48.3219 267.429 49.0088 265.068 49.0088C260.989 49.0088 257.597 47.5276 254.893 44.5652C252.188 41.6029 250.814 38.1682 250.771 34.2613ZM270.413 30.5906C269.941 25.0951 267.901 22.1757 264.295 21.8322H264.166C263.823 21.8322 263.479 21.8537 263.136 21.8966C262.792 21.9396 262.256 22.1113 261.526 22.4118C260.796 22.7124 260.173 23.1632 259.658 23.7642C259.143 24.3653 258.649 25.2454 258.177 26.4046C257.705 27.5638 257.361 28.9806 257.147 30.655V31.1058H270.413V30.5906Z" fill="white"/>
<path d="M299.058 25.9529C299.058 25.3948 299.359 24.9654 299.96 24.6649H340.982C341.626 25.0084 341.948 25.4377 341.948 25.9529C341.948 26.4252 341.648 26.833 341.047 27.1765L320.568 27.2409H300.088C299.402 27.0262 299.058 26.5969 299.058 25.9529ZM299.058 38.4464C299.058 37.8024 299.402 37.3731 300.088 37.1584H341.047C341.648 37.5877 341.948 38.0171 341.948 38.4464C341.948 39.0045 341.626 39.4338 340.982 39.7344H299.96C299.359 39.4338 299.058 39.0045 299.058 38.4464Z" fill="white"/>
<path d="M371.817 8.24532C371.516 7.94479 371.28 7.75159 371.108 7.66572C370.937 7.57986 370.593 7.51546 370.078 7.47253C369.563 7.42959 368.64 7.36519 367.309 7.27933H365.184V4.31695H377.226C378.214 4.31695 379.545 4.31695 381.219 4.31695C382.893 4.31695 384.074 4.29549 384.761 4.25255C388.539 4.25255 391.544 4.53162 393.777 5.08974C396.009 5.64787 398.07 6.82853 399.959 8.63171C402.406 10.9072 403.63 13.6334 403.63 16.8104C403.63 19.7299 402.535 22.2415 400.346 24.3452C398.156 26.4489 395.537 27.8442 392.489 28.5311C391.544 28.7458 388.904 28.8746 384.568 28.9175H378.514V36.6455C378.514 41.7545 378.579 44.3949 378.707 44.5666C379.051 45.0389 380.489 45.2965 383.022 45.3394H385.147V48.3018H384.439C383.537 48.173 380.446 48.1086 375.166 48.1086C369.37 48.1086 366.278 48.173 365.892 48.3018H365.184V45.3394H367.309C369.112 45.2965 370.207 45.2321 370.593 45.1462C370.98 45.0603 371.387 44.8027 371.817 44.3734V8.24532ZM396.095 16.8748C396.095 15.7586 396.074 14.8999 396.031 14.2989C395.988 13.6978 395.859 12.925 395.645 11.9805C395.43 11.036 395.065 10.3276 394.55 9.8553C394.035 9.38304 393.326 8.88931 392.425 8.37411C391.523 7.85892 390.385 7.53692 389.011 7.40813C388.496 7.32226 386.564 7.27933 383.215 7.27933H381.863C379.759 7.27933 378.643 7.47253 378.514 7.85892C378.385 8.03065 378.321 11.1433 378.321 17.1968V26.2772H382.893H385.276C387.466 26.2772 389.269 26.1269 390.686 25.8264C392.103 25.5258 393.348 24.8174 394.421 23.7012C395.537 22.4561 396.095 20.1807 396.095 16.8748Z" fill="white"/>
<path d="M416.123 28.6586C416.123 28.6586 415.651 28.6586 414.706 28.6586C413.762 28.6586 412.967 28.3366 412.323 27.6926C411.679 27.0486 411.357 26.2114 411.357 25.181C411.357 23.6784 412.087 22.3474 413.547 21.1882C415.007 20.0291 417.604 19.4495 421.339 19.4495C424.473 19.4495 427.006 20.1364 428.938 21.5102C430.87 22.8841 432.158 24.5155 432.802 26.4046C433.017 27.0057 433.124 27.6711 433.124 28.401C433.124 29.1308 433.146 31.5995 433.189 35.8069V40.3149C433.189 42.3756 433.296 43.7924 433.511 44.5652C433.725 45.338 434.176 45.7244 434.863 45.7244C435.507 45.7244 435.936 45.381 436.151 44.694C436.366 44.0071 436.473 42.8694 436.473 41.2809V38.9625H439.049V41.4741C439.006 43.1914 438.942 44.2003 438.856 44.5008C438.469 45.7888 437.718 46.7977 436.602 47.5276C435.486 48.2575 434.305 48.6439 433.06 48.6868C431.815 48.7297 430.806 48.3433 430.033 47.5276C429.26 46.7119 428.745 45.8103 428.488 44.8228V44.5652L428.359 44.7584C428.273 44.8872 428.166 45.016 428.037 45.1448C427.908 45.2736 427.736 45.4668 427.522 45.7244C427.307 45.982 427.049 46.2181 426.749 46.4328C426.448 46.6475 426.126 46.9051 425.783 47.2056C425.439 47.5061 425.053 47.7423 424.624 47.914C424.194 48.0857 423.722 48.2575 423.207 48.4292C422.692 48.6009 422.133 48.7297 421.532 48.8156C420.931 48.9015 420.266 48.9659 419.536 49.0088C416.96 49.0088 414.642 48.3433 412.581 47.0124C410.52 45.6815 409.49 43.8139 409.49 41.4097C409.49 40.5081 409.64 39.6494 409.941 38.8337C410.241 38.018 410.821 37.1378 411.679 36.1933C412.538 35.2488 413.568 34.4545 414.77 33.8105C415.973 33.1665 417.647 32.5655 419.794 32.0073C421.94 31.4492 424.302 31.1272 426.878 31.0414H427.779V29.6246C427.779 28.1648 427.65 27.0915 427.393 26.4046C426.448 23.3564 424.366 21.8322 421.146 21.8322C420.373 21.8322 419.643 21.8537 418.956 21.8966C418.27 21.9396 417.733 22.0254 417.346 22.1542C416.96 22.283 416.788 22.3474 416.831 22.3474C417.776 22.9914 418.248 23.936 418.248 25.181C418.248 26.2543 417.905 27.0915 417.218 27.6926L416.123 28.6586ZM415.414 41.4741C415.414 42.805 415.93 43.9856 416.96 45.016C417.99 46.0464 419.257 46.5831 420.76 46.626C422.391 46.626 423.829 46.1323 425.074 45.1448C426.319 44.1574 427.157 42.8694 427.586 41.2809C427.672 40.9803 427.736 39.5635 427.779 37.0305C427.779 34.5404 427.758 33.2953 427.715 33.2953C427.371 33.2953 426.921 33.3168 426.362 33.3597C425.804 33.4027 424.838 33.5959 423.464 33.9393C422.091 34.2828 420.846 34.7121 419.729 35.2273C418.613 35.7425 417.626 36.5368 416.767 37.6101C415.908 38.6834 415.457 39.9714 415.414 41.4741Z" fill="white"/>
<path d="M441.819 45.3394H442.721C444.395 45.3394 445.404 45.0389 445.747 44.4378V43.9226C445.747 43.5362 445.747 43.0425 445.747 42.4414C445.747 41.8404 445.769 41.1749 445.812 40.445C445.855 39.7152 445.855 38.878 445.812 37.9335C445.769 36.9889 445.769 36.0873 445.812 35.2287C445.812 33.8978 445.812 32.481 445.812 30.9783C445.812 29.4757 445.812 28.2091 445.812 27.1788L445.747 25.6976C445.619 24.8818 445.318 24.3452 444.846 24.0876C444.373 23.83 443.407 23.6368 441.948 23.508H440.789V22.0268C440.789 21.0393 440.832 20.5456 440.917 20.5456L441.561 20.4812C441.991 20.4383 442.592 20.3953 443.365 20.3524C444.137 20.3095 444.91 20.2665 445.683 20.2236C446.37 20.1807 447.121 20.1377 447.937 20.0948C448.753 20.0519 449.375 19.9875 449.804 19.9016C450.234 19.8158 450.47 19.7943 450.513 19.8372H450.706V24.2808C452.38 21.3613 454.463 19.9016 456.953 19.9016H457.339C459.271 19.9016 460.688 20.3739 461.59 21.3184C462.491 22.2629 462.942 23.2504 462.942 24.2808C462.942 25.1824 462.663 25.9552 462.105 26.5992C461.547 27.2431 460.731 27.5651 459.658 27.5651C458.584 27.5651 457.79 27.2217 457.275 26.5348C456.76 25.8478 456.481 25.118 456.438 24.3452C456.438 23.9588 456.481 23.6153 456.566 23.3148C456.652 23.0143 456.76 22.7567 456.888 22.542C457.017 22.3273 457.082 22.22 457.082 22.22C456.996 22.1341 456.502 22.22 455.6 22.4776C454.914 22.8211 454.398 23.1431 454.055 23.4436C452.037 25.3756 451.028 29.2181 451.028 34.9711V38.3842C451.028 38.9424 451.028 39.522 451.028 40.123C451.028 40.7241 451.028 41.2822 451.028 41.7974C451.028 42.3126 451.05 42.7419 451.092 43.0854C451.135 43.4289 451.135 43.7509 451.092 44.0514V44.3734C451.135 44.4593 451.2 44.5451 451.286 44.631C451.372 44.7169 451.479 44.7813 451.608 44.8242C451.736 44.8671 451.844 44.9315 451.93 45.0174C452.016 45.1033 452.166 45.1462 452.38 45.1462C452.595 45.1462 452.745 45.1677 452.831 45.2106C452.917 45.2535 453.11 45.275 453.411 45.275C453.711 45.275 453.905 45.275 453.99 45.275C454.076 45.275 454.291 45.2965 454.634 45.3394C454.978 45.3823 455.193 45.3823 455.278 45.3394H457.275V48.3018H456.695C455.922 48.173 453.196 48.1086 448.517 48.1086C444.094 48.1086 441.69 48.173 441.304 48.3018H440.789V45.3394H441.819Z" fill="white"/>
<path d="M469.189 9.08252C469.189 7.88039 469.575 6.93587 470.348 6.24894C471.121 5.56201 472.065 5.21855 473.181 5.21855C474.169 5.30442 475.027 5.66935 475.757 6.31334C476.487 6.95733 476.852 7.88039 476.852 9.08252C476.852 10.3705 476.487 11.3365 475.757 11.9805C475.027 12.6245 474.126 12.9465 473.053 12.9465C471.979 12.9465 471.078 12.6245 470.348 11.9805C469.618 11.3365 469.232 10.3705 469.189 9.08252ZM480.652 48.3018C480.008 48.173 477.775 48.1086 473.954 48.1086C473.482 48.1086 472.688 48.1086 471.571 48.1086C470.455 48.1086 469.382 48.1515 468.351 48.2374L466.935 48.3018H466.419V45.3394H467.45C468.652 45.3394 469.704 45.275 470.605 45.1462C470.992 44.9745 471.228 44.7383 471.314 44.4378C471.4 44.1373 471.443 43.2357 471.443 41.733V35.0999V29.4327C471.443 27.2002 471.4 25.7834 471.314 25.1824C471.228 24.5813 470.927 24.1734 470.412 23.9588C469.811 23.6582 468.802 23.508 467.385 23.508H466.677V22.0268C466.677 21.0393 466.72 20.5456 466.806 20.5456L467.45 20.4812C467.879 20.4383 468.48 20.3953 469.253 20.3524C470.026 20.3095 470.799 20.2665 471.571 20.2236C472.301 20.1807 473.074 20.1377 473.89 20.0948C474.705 20.0519 475.328 19.9875 475.757 19.9016C476.187 19.8158 476.423 19.7943 476.466 19.8372H476.659V44.309C476.874 44.7383 477.131 44.9959 477.432 45.0818C477.732 45.1677 478.484 45.2535 479.686 45.3394H481.167V48.3018H480.652Z" fill="white"/>
<path d="M484.387 21.1248C486.662 20.953 488.422 19.7509 489.667 17.5184C490.913 15.2859 491.599 12.667 491.728 9.66167V8.69567H494.304V20.5452H502.998V23.5075H494.304V32.7811C494.347 38.1477 494.369 41.1744 494.369 41.8614C494.369 42.5483 494.519 43.2352 494.819 43.9222C495.42 45.5965 496.472 46.4337 497.975 46.4337C499.864 46.4337 501.023 44.9096 501.453 41.8614C501.495 41.5179 501.517 40.5305 501.517 38.899V36.645H504.093V38.899V39.6718C504.093 42.9776 503.191 45.4892 501.388 47.2065C500.229 48.3657 498.726 48.9453 496.88 48.9453C495.42 48.9453 494.154 48.6877 493.081 48.1725C492.007 47.6573 491.192 46.9919 490.633 46.1761C490.075 45.3604 489.667 44.6091 489.41 43.9222C489.152 43.2352 489.002 42.5483 488.959 41.8614C488.916 41.5608 488.895 38.3838 488.895 32.3303V23.5075H483.807V21.1248H484.387Z" fill="white"/>
<path d="M512.143 52.5514C513.087 52.5514 513.839 52.8519 514.397 53.4529C514.955 54.054 515.255 54.8268 515.298 55.7713C515.298 56.5441 515.105 57.1666 514.719 57.6389C514.332 58.1112 513.946 58.4332 513.56 58.6049C513.259 58.7337 513.388 58.8625 513.946 58.9913C514.247 59.0772 514.547 59.1201 514.848 59.1201C515.706 59.1201 516.501 58.9269 517.23 58.5405C517.96 58.1541 518.54 57.7033 518.969 57.1881C519.398 56.6729 519.871 55.986 520.386 55.1273C520.901 54.2687 521.245 53.6032 521.416 53.131C521.588 52.6587 521.846 51.9718 522.189 51.0702L523.284 48.301L518.647 36.5159C517.789 34.3693 516.823 31.9221 515.749 29.1744C514.719 26.5555 514.096 25.0313 513.882 24.602C513.667 24.1727 513.323 23.8936 512.851 23.7648C512.808 23.7219 512.765 23.7004 512.722 23.7004C512.207 23.5716 511.263 23.5072 509.889 23.5072H508.923V20.5448H509.374L510.662 20.6092C511.477 20.6092 512.379 20.6307 513.366 20.6736C514.354 20.7166 515.084 20.738 515.556 20.738C515.857 20.738 516.286 20.738 516.844 20.738C517.402 20.738 518.025 20.7166 518.712 20.6736C519.398 20.6307 520.021 20.6092 520.579 20.6092C521.137 20.6092 521.652 20.6092 522.125 20.6092L522.704 20.5448H523.22V23.5072H522.64C520.536 23.5072 519.527 23.9151 519.613 24.7308L526.117 41.0883C526.117 41.0453 527.105 38.5767 529.08 33.6823L531.913 26.3408V25.7612C531.913 25.1172 531.699 24.6235 531.269 24.28C530.84 23.9365 530.454 23.7219 530.11 23.636C529.767 23.5502 529.466 23.5072 529.209 23.5072H529.015V20.5448H529.402H529.853C530.153 20.5448 530.518 20.5448 530.947 20.5448C531.377 20.5448 531.828 20.5663 532.3 20.6092C532.772 20.6522 533.266 20.6736 533.781 20.6736C534.296 20.6736 534.661 20.6736 534.876 20.6736C537.237 20.6736 538.976 20.6307 540.092 20.5448H540.414V23.5072H539.706C537.302 23.7219 535.692 24.5805 534.876 26.0832C534.79 26.1691 533.845 28.5304 532.042 33.1671C530.239 37.8039 528.329 42.6553 526.311 47.7214C524.293 52.7875 522.962 55.7928 522.318 56.7373C520.3 59.8714 517.853 61.4385 514.976 61.4385C513.087 61.4385 511.606 60.8589 510.533 59.6997C509.46 58.5405 508.923 57.231 508.923 55.7713C508.923 54.6121 509.266 53.7964 509.953 53.3241C510.64 52.8519 511.37 52.5943 512.143 52.5514Z" fill="white"/>
<path d="M547.756 32.1997C547.756 29.2373 547.971 26.4252 548.4 23.7634C548.829 21.1015 549.323 18.8046 549.881 16.8726C550.439 14.9407 551.233 13.0516 552.264 11.2055C553.294 9.35938 554.11 7.92113 554.711 6.89074C555.312 5.86035 556.214 4.74409 557.416 3.54197C558.618 2.33985 559.326 1.60999 559.541 1.35239C559.756 1.09479 560.292 0.643993 561.151 0H561.988H562.246C562.847 0 563.147 0.193199 563.147 0.579594C563.147 0.708393 562.782 1.15919 562.053 1.93198C561.323 2.70478 560.443 3.8425 559.412 5.34515C558.382 6.84781 557.33 8.69392 556.257 10.8835C555.183 13.0731 554.282 16.0355 553.552 19.7706C552.822 23.5058 552.457 27.6488 552.457 32.1997C552.457 36.7506 552.822 40.8722 553.552 44.5644C554.282 48.2566 555.162 51.2405 556.192 53.5159C557.223 55.7914 558.274 57.6375 559.348 59.0543C560.421 60.471 561.323 61.6088 562.053 62.4674C562.782 63.3261 563.147 63.7769 563.147 63.8198C563.147 64.2062 562.825 64.3994 562.181 64.3994H561.988H561.151L559.348 62.8538C555.312 59.2045 552.371 54.6536 550.525 49.2012C548.679 43.7487 547.756 38.0815 547.756 32.1997Z" fill="white"/>
<path d="M586.589 46.7534C589.122 46.7534 591.44 45.6372 593.544 43.4047C595.648 41.1722 596.721 38.5747 596.764 35.6123C596.764 32.9076 595.648 31.04 593.415 30.0096C588.864 28.8504 585.945 28.0562 584.657 27.6268C583.369 27.1975 582.467 26.7682 581.952 26.3388C579.376 24.5357 578.088 21.9382 578.088 18.5465C578.088 15.9276 578.775 13.5448 580.149 11.3982C581.523 9.25152 582.918 7.64154 584.335 6.56821C585.58 5.49489 587.083 4.63623 588.843 3.99224C590.603 3.34824 591.977 3.00478 592.964 2.96185H593.673H594.124C598.245 2.96185 601.229 4.3357 603.075 7.08341C603.118 7.08341 603.397 6.80434 603.912 6.24622C604.427 5.68809 604.986 5.06556 605.587 4.37863C606.188 3.69171 606.617 3.21944 606.875 2.96185C606.918 2.96185 607.003 2.96185 607.132 2.96185C607.261 2.96185 607.368 2.94038 607.454 2.89745C608.012 2.89745 608.291 3.04771 608.291 3.34824C608.291 3.64877 607.69 6.24622 606.488 11.1406C605.286 16.0349 604.599 18.568 604.427 18.7397C604.256 18.9114 603.912 18.9758 603.397 18.9329C602.538 18.9329 602.109 18.7397 602.109 18.3533C602.109 18.0957 602.131 17.881 602.173 17.7093C602.173 17.5805 602.195 17.1726 602.238 16.4857C602.281 15.7988 602.324 15.2407 602.367 14.8113C602.367 13.3516 602.173 12.0851 601.787 11.0118C601.401 9.93845 601.014 9.14419 600.628 8.62899C600.241 8.1138 599.705 7.57714 599.018 7.01901C597.472 6.11742 595.712 5.66662 593.737 5.66662C591.29 5.66662 589.014 6.65408 586.911 8.62899C584.807 10.6039 583.734 12.8794 583.691 15.4553C583.691 16.7433 584.013 17.8596 584.657 18.8041C585.301 19.7486 586.181 20.4141 587.297 20.8005C587.469 20.8863 588.972 21.2942 591.805 22.0241C594.639 22.7539 596.077 23.1403 596.12 23.1833C597.58 23.6555 598.996 24.6859 600.37 26.2744C601.744 27.863 602.431 30.0096 602.431 32.7144C602.431 33.8306 602.259 35.0328 601.916 36.3207C601.701 37.2653 601.315 38.3171 600.757 39.4763C600.199 40.6355 599.426 41.902 598.438 43.2759C597.451 44.6497 596.034 45.9377 594.188 47.1398C592.342 48.342 590.324 49.1577 588.134 49.587C587.619 49.6729 586.889 49.7158 585.945 49.7158C581.694 49.7158 578.389 48.5352 576.027 46.1739L575.383 45.4655L573.58 47.4618C572.593 48.621 571.992 49.2865 571.777 49.4582C571.562 49.63 571.283 49.7158 570.94 49.7158C570.382 49.7158 570.103 49.5441 570.103 49.2006C570.103 49.0718 571.348 44.0272 573.838 34.0668C573.924 33.8092 574.353 33.6804 575.126 33.6804H575.963C576.22 33.938 576.349 34.1741 576.349 34.3888C576.349 34.4746 576.328 34.6678 576.285 34.9684C576.242 35.2689 576.156 35.7197 576.027 36.3207C575.898 36.9218 575.856 37.6302 575.898 38.4459C575.984 40.1203 576.371 41.5371 577.058 42.6963C577.745 43.8555 578.668 44.7141 579.827 45.2723C580.986 45.8304 582.102 46.2168 583.176 46.4315C584.249 46.6461 585.387 46.7534 586.589 46.7534Z" fill="white"/>
<path d="M615.929 31.6424L615.337 31.8701C614.912 32.0218 614.305 32.1736 613.516 32.3254C612.726 32.4771 611.846 32.5834 610.875 32.6441H610.01V30.5497H610.875C612.301 30.489 613.622 30.2613 614.836 29.8667C616.05 29.4721 616.9 29.1079 617.386 28.774C617.871 28.4401 618.296 28.1062 618.661 27.7723C618.721 27.6813 618.903 27.6357 619.207 27.6357C619.48 27.6357 619.738 27.7268 619.981 27.9089V41.5225L620.026 55.1816C620.239 55.3941 620.421 55.5307 620.573 55.5914C620.725 55.6521 621.089 55.7128 621.666 55.7735C622.242 55.8342 623.183 55.8646 624.488 55.8646H625.672V57.959H625.171C624.534 57.8679 622.121 57.8224 617.932 57.8224C613.804 57.8224 611.421 57.8679 610.784 57.959H610.237V55.8646H611.421C612.089 55.8646 612.666 55.8646 613.151 55.8646C613.637 55.8646 614.016 55.8494 614.29 55.8191C614.563 55.7887 614.806 55.7432 615.018 55.6825C615.231 55.6218 615.352 55.5914 615.382 55.5914C615.413 55.5914 615.504 55.5155 615.656 55.3638C615.807 55.212 615.898 55.1513 615.929 55.1816V31.6424Z" fill="white"/>
<path d="M636.079 0.0643997L636.337 0C636.552 0 636.766 0 636.981 0H637.754L639.557 1.54559C643.593 5.19489 646.533 9.74578 648.38 15.1983C650.226 20.6507 651.149 26.3179 651.149 32.1997C651.149 35.1191 650.934 37.9313 650.505 40.636C650.075 43.3408 649.582 45.6377 649.024 47.5268C648.465 49.4158 647.671 51.3049 646.641 53.1939C645.61 55.083 644.795 56.5212 644.194 57.5087C643.593 58.4961 642.712 59.5909 641.553 60.793C640.394 61.9952 639.707 62.7036 639.492 62.9182C639.278 63.1329 638.784 63.5408 638.011 64.1418C637.883 64.2706 637.797 64.3565 637.754 64.3994H636.981C636.637 64.3994 636.401 64.3994 636.273 64.3994C636.144 64.3994 636.036 64.335 635.951 64.2062C635.865 64.0774 635.8 63.8842 635.757 63.6266C635.8 63.5837 636.036 63.3046 636.466 62.7894C643.12 55.8772 646.448 45.6807 646.448 32.1997C646.448 18.7188 643.12 8.52219 636.466 1.60999C636.036 1.09479 635.8 0.815727 635.757 0.772793C635.757 0.429329 635.865 0.193199 636.079 0.0643997Z" fill="white"/>
<path d="M675.183 32.1985C675.183 26.0162 677.329 20.9072 681.623 16.8715C685.916 12.8358 690.81 10.7965 696.306 10.7535C702.574 10.7535 707.769 12.8573 711.89 17.0647C716.012 21.2721 718.073 26.3167 718.073 32.1985C718.073 38.2092 715.99 43.2752 711.826 47.3968C707.661 51.5184 702.617 53.6006 696.692 53.6436C690.638 53.6436 685.551 51.5613 681.429 47.3968C677.308 43.2323 675.226 38.1662 675.183 32.1985ZM695.018 13.3939C692.613 13.5227 690.188 14.2311 687.741 15.5191C685.293 16.8071 683.082 18.7605 681.107 21.3794C679.132 23.9984 678.016 27.0037 677.759 30.3954V30.9106H695.34V13.3939H695.018ZM715.432 30.3954C715.175 27.8194 714.509 25.501 713.436 23.4402C712.363 21.3794 711.117 19.748 709.701 18.5459C708.284 17.3438 706.781 16.3348 705.193 15.5191C703.604 14.7034 702.23 14.1452 701.071 13.8447C699.912 13.5442 698.925 13.3939 698.109 13.3939H697.916V30.9106H715.432V30.3954ZM677.759 34.0017C678.102 37.0929 679.025 39.8191 680.528 42.1805C682.03 44.5418 683.748 46.3235 685.68 47.5256C687.612 48.7277 689.393 49.6079 691.025 50.166C692.656 50.7241 694.03 51.0032 695.146 51.0032H695.34V33.4865H677.759V34.0017ZM715.432 34.0017V33.4865H697.916V51.0032H698.109C698.839 51.0032 699.783 50.8744 700.942 50.6168C702.102 50.3592 703.497 49.8011 705.128 48.9424C706.76 48.0837 708.241 47.0748 709.572 45.9156C710.903 44.7564 712.169 43.125 713.371 41.0213C714.574 38.9176 715.261 36.5777 715.432 34.0017Z" fill="white"/>
<path d="M744.368 8.24532C744.067 7.94479 743.831 7.75159 743.659 7.66572C743.487 7.57986 743.144 7.51546 742.629 7.47253C742.114 7.42959 741.19 7.36519 739.86 7.27933H737.734V4.31695H749.777C750.765 4.31695 752.095 4.31695 753.77 4.31695C755.444 4.31695 756.625 4.29549 757.312 4.25255C761.09 4.25255 764.095 4.53162 766.328 5.08974C768.56 5.64787 770.621 6.82853 772.51 8.63171C774.957 10.9072 776.181 13.6334 776.181 16.8104C776.181 19.7299 775.086 22.2415 772.896 24.3452C770.707 26.4489 768.088 27.8442 765.04 28.5311C764.095 28.7458 761.455 28.8746 757.119 28.9175H751.065V36.6455C751.065 41.7545 751.129 44.3949 751.258 44.5666C751.602 45.0389 753.04 45.2965 755.573 45.3394H757.698V48.3018H756.99C756.088 48.173 752.997 48.1086 747.716 48.1086C741.92 48.1086 738.829 48.173 738.443 48.3018H737.734V45.3394H739.86C741.663 45.2965 742.758 45.2321 743.144 45.1462C743.53 45.0603 743.938 44.8027 744.368 44.3734V8.24532ZM768.646 16.8748C768.646 15.7586 768.625 14.8999 768.582 14.2989C768.539 13.6978 768.41 12.925 768.195 11.9805C767.981 11.036 767.616 10.3276 767.101 9.8553C766.585 9.38304 765.877 8.88931 764.975 8.37411C764.074 7.85892 762.936 7.53692 761.562 7.40813C761.047 7.32226 759.115 7.27933 755.766 7.27933H754.414C752.31 7.27933 751.194 7.47253 751.065 7.85892C750.936 8.03065 750.872 11.1433 750.872 17.1968V26.2772H755.444H757.827C760.017 26.2772 761.82 26.1269 763.237 25.8264C764.653 25.5258 765.898 24.8174 766.972 23.7012C768.088 22.4561 768.646 20.1807 768.646 16.8748Z" fill="white"/>
<path d="M788.674 28.6586C788.674 28.6586 788.202 28.6586 787.257 28.6586C786.313 28.6586 785.519 28.3366 784.875 27.6926C784.231 27.0486 783.909 26.2114 783.909 25.181C783.909 23.6784 784.638 22.3474 786.098 21.1882C787.558 20.0291 790.155 19.4495 793.891 19.4495C797.025 19.4495 799.558 20.1364 801.49 21.5102C803.422 22.8841 804.71 24.5155 805.354 26.4046C805.568 27.0057 805.676 27.6711 805.676 28.401C805.676 29.1308 805.697 31.5995 805.74 35.8069V40.3149C805.74 42.3756 805.847 43.7924 806.062 44.5652C806.277 45.338 806.727 45.7244 807.414 45.7244C808.058 45.7244 808.488 45.381 808.702 44.694C808.917 44.0071 809.024 42.8694 809.024 41.2809V38.9625H811.6V41.4741C811.557 43.1914 811.493 44.2003 811.407 44.5008C811.021 45.7888 810.269 46.7977 809.153 47.5276C808.037 48.2575 806.856 48.6439 805.611 48.6868C804.366 48.7297 803.357 48.3433 802.584 47.5276C801.812 46.7119 801.296 45.8103 801.039 44.8228V44.5652L800.91 44.7584C800.824 44.8872 800.717 45.016 800.588 45.1448C800.459 45.2736 800.288 45.4668 800.073 45.7244C799.858 45.982 799.601 46.2181 799.3 46.4328C799 46.6475 798.678 46.9051 798.334 47.2056C797.991 47.5061 797.604 47.7423 797.175 47.914C796.746 48.0857 796.273 48.2575 795.758 48.4292C795.243 48.6009 794.685 48.7297 794.084 48.8156C793.483 48.9015 792.817 48.9659 792.087 49.0088C789.511 49.0088 787.193 48.3433 785.132 47.0124C783.071 45.6815 782.041 43.8139 782.041 41.4097C782.041 40.5081 782.191 39.6494 782.492 38.8337C782.792 38.018 783.372 37.1378 784.231 36.1933C785.089 35.2488 786.12 34.4545 787.322 33.8105C788.524 33.1665 790.198 32.5655 792.345 32.0073C794.492 31.4492 796.853 31.1272 799.429 31.0414H800.33V29.6246C800.33 28.1648 800.202 27.0915 799.944 26.4046C799 23.3564 796.917 21.8322 793.697 21.8322C792.925 21.8322 792.195 21.8537 791.508 21.8966C790.821 21.9396 790.284 22.0254 789.898 22.1542C789.511 22.283 789.34 22.3474 789.383 22.3474C790.327 22.9914 790.799 23.936 790.799 25.181C790.799 26.2543 790.456 27.0915 789.769 27.6926L788.674 28.6586ZM787.966 41.4741C787.966 42.805 788.481 43.9856 789.511 45.016C790.542 46.0464 791.808 46.5831 793.311 46.626C794.942 46.626 796.381 46.1323 797.626 45.1448C798.871 44.1574 799.708 42.8694 800.137 41.2809C800.223 40.9803 800.288 39.5635 800.33 37.0305C800.33 34.5404 800.309 33.2953 800.266 33.2953C799.923 33.2953 799.472 33.3168 798.914 33.3597C798.356 33.4027 797.39 33.5959 796.016 33.9393C794.642 34.2828 793.397 34.7121 792.281 35.2273C791.164 35.7425 790.177 36.5368 789.318 37.6101C788.459 38.6834 788.009 39.9714 787.966 41.4741Z" fill="white"/>
<path d="M814.37 45.3394H815.271C816.946 45.3394 817.955 45.0389 818.298 44.4378V43.9226C818.298 43.5362 818.298 43.0425 818.298 42.4414C818.298 41.8404 818.32 41.1749 818.363 40.445C818.405 39.7152 818.405 38.878 818.363 37.9335C818.32 36.9889 818.32 36.0873 818.363 35.2287C818.363 33.8978 818.363 32.481 818.363 30.9783C818.363 29.4757 818.363 28.2091 818.363 27.1788L818.298 25.6976C818.169 24.8818 817.869 24.3452 817.397 24.0876C816.924 23.83 815.958 23.6368 814.499 23.508H813.339V22.0268C813.339 21.0393 813.382 20.5456 813.468 20.5456L814.112 20.4812C814.541 20.4383 815.143 20.3953 815.915 20.3524C816.688 20.3095 817.461 20.2665 818.234 20.2236C818.921 20.1807 819.672 20.1377 820.488 20.0948C821.303 20.0519 821.926 19.9875 822.355 19.9016C822.785 19.8158 823.021 19.7943 823.064 19.8372H823.257V24.2808C824.931 21.3613 827.013 19.9016 829.504 19.9016H829.89C831.822 19.9016 833.239 20.3739 834.14 21.3184C835.042 22.2629 835.493 23.2504 835.493 24.2808C835.493 25.1824 835.214 25.9552 834.656 26.5992C834.097 27.2431 833.282 27.5651 832.208 27.5651C831.135 27.5651 830.341 27.2217 829.826 26.5348C829.31 25.8478 829.031 25.118 828.988 24.3452C828.988 23.9588 829.031 23.6153 829.117 23.3148C829.203 23.0143 829.31 22.7567 829.439 22.542C829.568 22.3273 829.632 22.22 829.632 22.22C829.547 22.1341 829.053 22.22 828.151 22.4776C827.464 22.8211 826.949 23.1431 826.606 23.4436C824.588 25.3756 823.579 29.2181 823.579 34.9711V38.3842C823.579 38.9424 823.579 39.522 823.579 40.123C823.579 40.7241 823.579 41.2822 823.579 41.7974C823.579 42.3126 823.6 42.7419 823.643 43.0854C823.686 43.4289 823.686 43.7509 823.643 44.0514V44.3734C823.686 44.4593 823.751 44.5451 823.836 44.631C823.922 44.7169 824.03 44.7813 824.158 44.8242C824.287 44.8671 824.395 44.9315 824.48 45.0174C824.566 45.1033 824.717 45.1462 824.931 45.1462C825.146 45.1462 825.296 45.1677 825.382 45.2106C825.468 45.2535 825.661 45.275 825.962 45.275C826.262 45.275 826.455 45.275 826.541 45.275C826.627 45.275 826.842 45.2965 827.185 45.3394C827.529 45.3823 827.743 45.3823 827.829 45.3394H829.826V48.3018H829.246C828.473 48.173 825.747 48.1086 821.067 48.1086C816.645 48.1086 814.241 48.173 813.855 48.3018H813.339V45.3394H814.37Z" fill="white"/>
<path d="M841.739 9.08252C841.739 7.88039 842.126 6.93587 842.899 6.24894C843.671 5.56201 844.616 5.21855 845.732 5.21855C846.72 5.30442 847.578 5.66935 848.308 6.31334C849.038 6.95733 849.403 7.88039 849.403 9.08252C849.403 10.3705 849.038 11.3365 848.308 11.9805C847.578 12.6245 846.677 12.9465 845.603 12.9465C844.53 12.9465 843.628 12.6245 842.899 11.9805C842.169 11.3365 841.782 10.3705 841.739 9.08252ZM853.202 48.3018C852.558 48.173 850.326 48.1086 846.505 48.1086C846.033 48.1086 845.238 48.1086 844.122 48.1086C843.006 48.1086 841.933 48.1515 840.902 48.2374L839.485 48.3018H838.97V45.3394H840.001C841.203 45.3394 842.255 45.275 843.156 45.1462C843.543 44.9745 843.779 44.7383 843.865 44.4378C843.95 44.1373 843.993 43.2357 843.993 41.733V35.0999V29.4327C843.993 27.2002 843.95 25.7834 843.865 25.1824C843.779 24.5813 843.478 24.1734 842.963 23.9588C842.362 23.6582 841.353 23.508 839.936 23.508H839.228V22.0268C839.228 21.0393 839.271 20.5456 839.357 20.5456L840.001 20.4812C840.43 20.4383 841.031 20.3953 841.804 20.3524C842.577 20.3095 843.349 20.2665 844.122 20.2236C844.852 20.1807 845.625 20.1377 846.441 20.0948C847.256 20.0519 847.879 19.9875 848.308 19.9016C848.737 19.8158 848.974 19.7943 849.017 19.8372H849.21V44.309C849.424 44.7383 849.682 44.9959 849.983 45.0818C850.283 45.1677 851.034 45.2535 852.236 45.3394H853.718V48.3018H853.202Z" fill="white"/>
<path d="M856.938 21.1248C859.213 20.953 860.973 19.7509 862.218 17.5184C863.463 15.2859 864.15 12.667 864.279 9.66167V8.69567H866.855V20.5452H875.549V23.5075H866.855V32.7811C866.898 38.1477 866.919 41.1744 866.919 41.8614C866.919 42.5483 867.07 43.2352 867.37 43.9222C867.971 45.5965 869.023 46.4337 870.526 46.4337C872.415 46.4337 873.574 44.9096 874.003 41.8614C874.046 41.5179 874.068 40.5305 874.068 38.899V36.645H876.644V38.899V39.6718C876.644 42.9776 875.742 45.4892 873.939 47.2065C872.78 48.3657 871.277 48.9453 869.431 48.9453C867.971 48.9453 866.705 48.6877 865.631 48.1725C864.558 47.6573 863.742 46.9919 863.184 46.1761C862.626 45.3604 862.218 44.6091 861.961 43.9222C861.703 43.2352 861.553 42.5483 861.51 41.8614C861.467 41.5608 861.445 38.3838 861.445 32.3303V23.5075H856.358V21.1248H856.938Z" fill="white"/>
<path d="M884.694 52.5514C885.638 52.5514 886.389 52.8519 886.948 53.4529C887.506 54.054 887.806 54.8268 887.849 55.7713C887.849 56.5441 887.656 57.1666 887.27 57.6389C886.883 58.1112 886.497 58.4332 886.11 58.6049C885.81 58.7337 885.939 58.8625 886.497 58.9913C886.797 59.0772 887.098 59.1201 887.398 59.1201C888.257 59.1201 889.051 58.9269 889.781 58.5405C890.511 58.1541 891.091 57.7033 891.52 57.1881C891.949 56.6729 892.422 55.986 892.937 55.1273C893.452 54.2687 893.795 53.6032 893.967 53.131C894.139 52.6587 894.396 51.9718 894.74 51.0702L895.835 48.301L891.198 36.5159C890.339 34.3693 889.373 31.9221 888.3 29.1744C887.27 26.5555 886.647 25.0313 886.432 24.602C886.218 24.1727 885.874 23.8936 885.402 23.7648C885.359 23.7219 885.316 23.7004 885.273 23.7004C884.758 23.5716 883.813 23.5072 882.44 23.5072H881.474V20.5448H881.924L883.212 20.6092C884.028 20.6092 884.93 20.6307 885.917 20.6736C886.905 20.7166 887.635 20.738 888.107 20.738C888.407 20.738 888.837 20.738 889.395 20.738C889.953 20.738 890.575 20.7166 891.262 20.6736C891.949 20.6307 892.572 20.6092 893.13 20.6092C893.688 20.6092 894.203 20.6092 894.676 20.6092L895.255 20.5448H895.77V23.5072H895.191C893.087 23.5072 892.078 23.9151 892.164 24.7308L898.668 41.0883C898.668 41.0453 899.656 38.5767 901.631 33.6823L904.464 26.3408V25.7612C904.464 25.1172 904.25 24.6235 903.82 24.28C903.391 23.9365 903.005 23.7219 902.661 23.636C902.318 23.5502 902.017 23.5072 901.759 23.5072H901.566V20.5448H901.953H902.403C902.704 20.5448 903.069 20.5448 903.498 20.5448C903.928 20.5448 904.378 20.5663 904.851 20.6092C905.323 20.6522 905.817 20.6736 906.332 20.6736C906.847 20.6736 907.212 20.6736 907.427 20.6736C909.788 20.6736 911.527 20.6307 912.643 20.5448H912.965V23.5072H912.257C909.852 23.7219 908.242 24.5805 907.427 26.0832C907.341 26.1691 906.396 28.5304 904.593 33.1671C902.79 37.8039 900.879 42.6553 898.861 47.7214C896.844 52.7875 895.513 55.7928 894.869 56.7373C892.851 59.8714 890.404 61.4385 887.527 61.4385C885.638 61.4385 884.157 60.8589 883.084 59.6997C882.01 58.5405 881.474 57.231 881.474 55.7713C881.474 54.6121 881.817 53.7964 882.504 53.3241C883.191 52.8519 883.921 52.5943 884.694 52.5514Z" fill="white"/>
<path d="M920.307 32.1997C920.307 29.2373 920.521 26.4252 920.951 23.7634C921.38 21.1015 921.874 18.8046 922.432 16.8726C922.99 14.9407 923.784 13.0516 924.815 11.2055C925.845 9.35938 926.661 7.92113 927.262 6.89074C927.863 5.86035 928.764 4.74409 929.967 3.54197C931.169 2.33985 931.877 1.60999 932.092 1.35239C932.306 1.09479 932.843 0.643993 933.702 0H934.539H934.797C935.398 0 935.698 0.193199 935.698 0.579594C935.698 0.708393 935.333 1.15919 934.603 1.93198C933.873 2.70478 932.993 3.8425 931.963 5.34515C930.933 6.84781 929.881 8.69392 928.807 10.8835C927.734 13.0731 926.832 16.0355 926.103 19.7706C925.373 23.5058 925.008 27.6488 925.008 32.1997C925.008 36.7506 925.373 40.8722 926.103 44.5644C926.832 48.2566 927.713 51.2405 928.743 53.5159C929.773 55.7914 930.825 57.6375 931.899 59.0543C932.972 60.471 933.873 61.6088 934.603 62.4674C935.333 63.3261 935.698 63.7769 935.698 63.8198C935.698 64.2062 935.376 64.3994 934.732 64.3994H934.539H933.702L931.899 62.8538C927.863 59.2045 924.922 54.6536 923.076 49.2012C921.23 43.7487 920.307 38.0815 920.307 32.1997Z" fill="white"/>
<path d="M959.14 46.7534C961.673 46.7534 963.991 45.6372 966.095 43.4047C968.198 41.1722 969.272 38.5747 969.315 35.6123C969.315 32.9076 968.198 31.04 965.966 30.0096C961.415 28.8504 958.496 28.0562 957.208 27.6268C955.92 27.1975 955.018 26.7682 954.503 26.3388C951.927 24.5357 950.639 21.9382 950.639 18.5465C950.639 15.9276 951.326 13.5448 952.7 11.3982C954.073 9.25152 955.469 7.64154 956.886 6.56821C958.131 5.49489 959.633 4.63623 961.394 3.99224C963.154 3.34824 964.528 3.00478 965.515 2.96185H966.224H966.674C970.796 2.96185 973.78 4.3357 975.626 7.08341C975.669 7.08341 975.948 6.80434 976.463 6.24622C976.978 5.68809 977.536 5.06556 978.137 4.37863C978.738 3.69171 979.168 3.21944 979.425 2.96185C979.468 2.96185 979.554 2.96185 979.683 2.96185C979.812 2.96185 979.919 2.94038 980.005 2.89745C980.563 2.89745 980.842 3.04771 980.842 3.34824C980.842 3.64877 980.241 6.24622 979.039 11.1406C977.837 16.0349 977.15 18.568 976.978 18.7397C976.806 18.9114 976.463 18.9758 975.948 18.9329C975.089 18.9329 974.66 18.7397 974.66 18.3533C974.66 18.0957 974.681 17.881 974.724 17.7093C974.724 17.5805 974.746 17.1726 974.789 16.4857C974.832 15.7988 974.874 15.2407 974.917 14.8113C974.917 13.3516 974.724 12.0851 974.338 11.0118C973.951 9.93845 973.565 9.14419 973.179 8.62899C972.792 8.1138 972.256 7.57714 971.569 7.01901C970.023 6.11742 968.263 5.66662 966.288 5.66662C963.841 5.66662 961.565 6.65408 959.462 8.62899C957.358 10.6039 956.285 12.8794 956.242 15.4553C956.242 16.7433 956.564 17.8596 957.208 18.8041C957.852 19.7486 958.732 20.4141 959.848 20.8005C960.02 20.8863 961.522 21.2942 964.356 22.0241C967.189 22.7539 968.628 23.1403 968.671 23.1833C970.13 23.6555 971.547 24.6859 972.921 26.2744C974.295 27.863 974.982 30.0096 974.982 32.7144C974.982 33.8306 974.81 35.0328 974.467 36.3207C974.252 37.2653 973.866 38.3171 973.307 39.4763C972.749 40.6355 971.977 41.902 970.989 43.2759C970.002 44.6497 968.585 45.9377 966.739 47.1398C964.893 48.342 962.875 49.1577 960.685 49.587C960.17 49.6729 959.44 49.7158 958.496 49.7158C954.245 49.7158 950.939 48.5352 948.578 46.1739L947.934 45.4655L946.131 47.4618C945.143 48.621 944.542 49.2865 944.328 49.4582C944.113 49.63 943.834 49.7158 943.491 49.7158C942.932 49.7158 942.653 49.5441 942.653 49.2006C942.653 49.0718 943.898 44.0272 946.388 34.0668C946.474 33.8092 946.904 33.6804 947.676 33.6804H948.514C948.771 33.938 948.9 34.1741 948.9 34.3888C948.9 34.4746 948.879 34.6678 948.836 34.9684C948.793 35.2689 948.707 35.7197 948.578 36.3207C948.449 36.9218 948.406 37.6302 948.449 38.4459C948.535 40.1203 948.922 41.5371 949.608 42.6963C950.295 43.8555 951.218 44.7141 952.378 45.2723C953.537 45.8304 954.653 46.2168 955.726 46.4315C956.8 46.6461 957.937 46.7534 959.14 46.7534Z" fill="white"/>
<path d="M983.744 38.4264C982.925 38.4264 982.272 38.1533 981.787 37.6069C981.301 37.0605 981.058 36.3928 981.058 35.6036C981.058 33.4485 981.862 31.5817 983.471 30.0033C985.08 28.4249 987.083 27.6357 989.481 27.6357C992.243 27.6357 994.55 28.4856 996.402 30.1854C998.253 31.8853 999.194 34.0859 999.225 36.7874C999.225 38.0926 998.921 39.3371 998.314 40.5208C997.707 41.7046 996.979 42.7367 996.129 43.6169C995.279 44.4972 994.065 45.6202 992.486 46.9862C991.394 47.9271 989.876 49.3234 987.933 51.175L985.247 53.7247L988.707 53.7702C993.473 53.7702 996.007 53.6943 996.311 53.5425C996.523 53.4818 996.888 52.1311 997.404 49.4903V49.3537H999.225V49.4903C999.194 49.5814 998.997 50.9625 998.633 53.6336C998.269 56.3047 998.041 57.701 997.95 57.8224V57.959H981.058V57.0939V56.5475C981.058 56.3351 981.149 56.1074 981.331 55.8646C981.513 55.6218 981.969 55.0906 982.697 54.271C983.577 53.2997 984.336 52.4498 984.974 51.7213C985.247 51.4178 985.763 50.8562 986.522 50.0367C987.281 49.2171 987.797 48.6556 988.07 48.3521C988.343 48.0485 988.783 47.5477 989.39 46.8496C989.997 46.1514 990.422 45.6354 990.665 45.3015C990.908 44.9676 991.257 44.5123 991.712 43.9356C992.168 43.3589 992.486 42.8733 992.668 42.4787C992.85 42.0841 993.078 41.6439 993.351 41.1583C993.624 40.6726 993.822 40.187 993.943 39.7013C994.065 39.2156 994.171 38.7603 994.262 38.3354C994.353 37.9104 994.399 37.4096 994.399 36.8329C994.399 34.9206 993.882 33.2663 992.85 31.8701C991.818 30.4738 990.346 29.7757 988.434 29.7757C987.432 29.7757 986.552 30.0337 985.793 30.5497C985.034 31.0657 984.503 31.5665 984.2 32.0522C983.896 32.5379 983.744 32.8262 983.744 32.9173C983.744 32.9476 983.82 32.9628 983.972 32.9628C984.518 32.9628 985.08 33.1753 985.657 33.6002C986.233 34.0252 986.522 34.7233 986.522 35.6946C986.522 36.4535 986.279 37.0909 985.793 37.6069C985.308 38.1229 984.625 38.3961 983.744 38.4264Z" fill="white"/>
<path d="M1008.63 0.0643997L1008.89 0C1009.1 0 1009.32 0 1009.53 0H1010.3L1012.11 1.54559C1016.14 5.19489 1019.08 9.74578 1020.93 15.1983C1022.78 20.6507 1023.7 26.3179 1023.7 32.1997C1023.7 35.1191 1023.48 37.9313 1023.06 40.636C1022.63 43.3408 1022.13 45.6377 1021.57 47.5268C1021.02 49.4158 1020.22 51.3049 1019.19 53.1939C1018.16 55.083 1017.35 56.5212 1016.74 57.5087C1016.14 58.4961 1015.26 59.5909 1014.1 60.793C1012.94 61.9952 1012.26 62.7036 1012.04 62.9182C1011.83 63.1329 1011.33 63.5408 1010.56 64.1418C1010.43 64.2706 1010.35 64.3565 1010.3 64.3994H1009.53C1009.19 64.3994 1008.95 64.3994 1008.82 64.3994C1008.69 64.3994 1008.59 64.335 1008.5 64.2062C1008.41 64.0774 1008.35 63.8842 1008.31 63.6266C1008.35 63.5837 1008.59 63.3046 1009.02 62.7894C1015.67 55.8772 1019 45.6807 1019 32.1997C1019 18.7188 1015.67 8.52219 1009.02 1.60999C1008.59 1.09479 1008.35 0.815727 1008.31 0.772793C1008.31 0.429329 1008.41 0.193199 1008.63 0.0643997Z" fill="white"/>
</svg>
