<svg width="143" height="83" viewBox="0 0 143 83" fill="none" xmlns="http://www.w3.org/2000/svg">
<path d="M1.40278 61.8071C0.467593 61.8071 0 61.5596 0 61.0645C0 60.9545 0.0825164 60.5694 0.247549 59.9093C0.522604 58.864 0.797658 58.2864 1.07271 58.1764C1.23775 58.1214 1.65033 58.0939 2.31046 58.0939H2.80556C6.10621 58.0939 8.19663 57.9014 9.0768 57.5163C9.13181 57.5163 9.18682 57.4888 9.24184 57.4338C9.51689 57.3237 9.81945 56.6911 10.1495 55.5359C10.4796 54.3807 11.8273 48.9896 14.1928 39.3627C14.8529 36.8872 15.348 34.9343 15.6781 33.504C19.5289 18.1009 21.4543 10.3444 21.4543 10.2344C21.3442 10.0143 21.2892 9.87681 21.2892 9.8218C20.7391 9.49174 18.7862 9.32671 15.4306 9.32671H13.7802C13.2851 8.99664 13.1751 8.309 13.4502 7.2638C13.6702 6.43863 13.8352 5.94353 13.9453 5.7785C14.0553 5.61347 14.4404 5.53095 15.1005 5.53095H15.4306C19.3914 5.64097 23.4071 5.69598 27.478 5.69598C34.1893 5.69598 37.71 5.64097 38.0401 5.53095H38.8652C39.2503 5.91603 39.4428 6.21859 39.4428 6.43863C39.4428 6.65868 39.3603 7.12627 39.1953 7.84141C39.0303 8.55655 38.8377 8.99664 38.6177 9.16167C38.4526 9.27169 37.82 9.32671 36.7198 9.32671C35.0145 9.32671 33.2541 9.40922 31.4387 9.57425C30.6686 9.73929 30.146 10.0418 29.8709 10.4819C29.4859 11.2521 28.0831 16.5056 25.6626 26.2426C25.0575 28.8281 24.4524 31.3311 23.8472 33.7516C19.9965 48.9346 18.0711 56.6911 18.0711 57.0212C18.0711 57.4063 18.3461 57.6538 18.8963 57.7638C19.4464 57.8739 20.8766 57.9839 23.1871 58.0939H25.8276C26.1577 58.534 26.3227 58.7815 26.3227 58.8365C26.3227 58.8916 26.2402 59.3867 26.0752 60.3218C25.8551 61.037 25.5801 61.5596 25.25 61.8896H23.9298C21.8943 61.7796 18.1261 61.7246 12.625 61.7246C10.6446 61.7246 8.82925 61.7246 7.17893 61.7246C5.5286 61.7246 4.20834 61.7246 3.21814 61.7246C2.22794 61.7246 1.62282 61.7521 1.40278 61.8071Z" fill="white"/>
<path d="M47.1997 41.2584C47.1997 37.4626 47.4748 33.8594 48.0249 30.4488C48.575 27.0381 49.2076 24.095 49.9227 21.6195C50.6379 19.144 51.6556 16.7235 52.9759 14.3581C54.2961 11.9926 55.3413 10.1497 56.1115 8.82945C56.8816 7.50919 58.0369 6.07891 59.5772 4.5386C61.1175 2.9983 62.0252 2.06311 62.3002 1.73304C62.5753 1.40298 63.2629 0.825364 64.3631 0.000199556H65.4358H65.7659C66.536 0.000199556 66.9211 0.247749 66.9211 0.742847C66.9211 0.90788 66.4535 1.48549 65.5183 2.47569C64.5832 3.46589 63.4554 4.92368 62.1352 6.84906C60.8149 8.77444 59.4671 11.1399 58.0919 13.9455C56.7166 16.751 55.5614 20.5468 54.6262 25.3327C53.691 30.1187 53.2234 35.4272 53.2234 41.2584C53.2234 47.0896 53.691 52.3706 54.6262 57.1015C55.5614 61.8325 56.6891 65.6558 58.0094 68.5713C59.3296 71.4869 60.6774 73.8524 62.0527 75.6677C63.4279 77.4831 64.5832 78.9409 65.5183 80.0411C66.4535 81.1413 66.9211 81.7189 66.9211 81.774C66.9211 82.2691 66.5085 82.5166 65.6834 82.5166H65.4358H64.3631L62.0527 80.5362C56.8816 75.8603 53.1134 70.0291 50.7479 63.0427C48.3824 56.0563 47.1997 48.7949 47.1997 41.2584Z" fill="white"/>
<path d="M75.8325 38.04C76.2175 35.7295 77.7028 33.0615 80.2884 30.0359C82.8739 27.0103 86.0645 25.47 89.8603 25.415C91.7856 25.415 93.546 25.9101 95.1413 26.9003C96.7366 27.8905 97.9194 29.1282 98.6895 30.6135C101 27.1478 103.778 25.415 107.024 25.415C109.059 25.415 110.819 26.0201 112.305 27.2304C113.79 28.4406 114.56 30.0634 114.615 32.0988C114.615 33.6941 114.23 34.9869 113.46 35.9771C112.69 36.9673 111.947 37.5724 111.232 37.7925C110.517 38.0125 109.884 38.1225 109.334 38.1225C108.289 38.1225 107.436 37.82 106.776 37.2148C106.116 36.6097 105.786 35.8121 105.786 34.8219C105.786 32.2914 107.161 30.5585 109.912 29.6233C109.307 28.9082 108.206 28.5506 106.611 28.5506C105.896 28.5506 105.373 28.6056 105.043 28.7157C102.953 29.5958 101.413 31.4112 100.422 34.1617C97.1217 46.3191 95.4714 53.4156 95.4714 55.451C95.4714 56.9913 95.9115 58.0915 96.7916 58.7516C97.6718 59.4118 98.6345 59.7418 99.6797 59.7418C101.715 59.7418 103.723 58.8341 105.703 57.0188C107.684 55.2034 109.032 52.9755 109.747 50.3349C109.912 49.7848 110.077 49.4823 110.242 49.4273C110.407 49.3723 110.847 49.3172 111.562 49.2622H111.892C112.717 49.2622 113.13 49.4823 113.13 49.9224C113.13 49.9774 113.075 50.2799 112.965 50.83C112.085 53.9657 110.379 56.7437 107.849 59.1642C105.318 61.5847 102.375 62.7949 99.0196 62.7949C95.1688 62.7949 92.2532 61.0621 90.2728 57.5964C88.0174 61.0071 85.4319 62.7124 82.5163 62.7124H82.0212C79.3257 62.7124 77.4003 61.9973 76.245 60.567C75.0898 59.1367 74.4847 57.6239 74.4297 56.0286C74.4297 54.2682 74.9523 52.8379 75.9975 51.7377C77.0427 50.6375 78.2805 50.0874 79.7107 50.0874C82.0762 50.0874 83.2589 51.2426 83.2589 53.5531C83.2589 54.6533 82.9289 55.616 82.2687 56.4412C81.6086 57.2663 80.976 57.8164 80.3709 58.0915C79.7657 58.3665 79.4082 58.5041 79.2982 58.5041L79.0506 58.5866C79.0506 58.6416 79.2156 58.7516 79.5457 58.9167C79.8758 59.0817 80.3159 59.2742 80.866 59.4943C81.4161 59.7143 81.9387 59.7968 82.4338 59.7418C84.4142 59.7418 86.1195 58.5041 87.5498 56.0286C88.0449 55.1484 88.6775 53.278 89.4477 50.4175C90.2178 47.5569 90.988 44.5863 91.7581 41.5057C92.5283 38.4251 92.9684 36.6097 93.0784 36.0596C93.3534 34.5743 93.491 33.5016 93.491 32.8415C93.491 31.3012 93.0784 30.2009 92.2532 29.5408C91.4281 28.8807 90.4929 28.5506 89.4477 28.5506C87.2472 28.5506 85.1843 29.4308 83.2589 31.1911C81.3336 32.9515 79.9858 35.2069 79.2156 37.9575C79.1056 38.4526 78.9681 38.7276 78.8031 38.7827C78.638 38.8377 78.1979 38.8927 77.4828 38.9477H76.3276C75.9975 38.6176 75.8325 38.3151 75.8325 38.04Z" fill="white"/>
<path d="M123.691 0.082716L124.021 0.000199556C124.296 0.000199556 124.571 0.000199556 124.846 0.000199556H125.836L128.147 1.98059C133.318 6.65652 137.086 12.4877 139.452 19.4741C141.817 26.4605 143 33.7219 143 41.2584C143 44.9991 142.725 48.6024 142.175 52.068C141.624 55.5337 140.992 58.4768 140.277 60.8973C139.562 63.3178 138.544 65.7383 137.224 68.1587C135.903 70.5792 134.858 72.4221 134.088 73.6873C133.318 74.9526 132.19 76.3554 130.705 77.8957C129.22 79.436 128.339 80.3437 128.064 80.6187C127.789 80.8938 127.157 81.4164 126.166 82.1865C126.001 82.3516 125.891 82.4616 125.836 82.5166H124.846C124.406 82.5166 124.103 82.5166 123.938 82.5166C123.773 82.5166 123.636 82.4341 123.526 82.2691C123.416 82.104 123.333 81.8565 123.278 81.5264C123.333 81.4714 123.636 81.1138 124.186 80.4537C132.713 71.5969 136.976 58.5318 136.976 41.2584C136.976 23.985 132.713 10.9199 124.186 2.06311C123.636 1.40298 123.333 1.04541 123.278 0.990396C123.278 0.550309 123.416 0.247749 123.691 0.082716Z" fill="white"/>
</svg>
