<svg width="63" height="73" viewBox="0 0 63 73" fill="none" xmlns="http://www.w3.org/2000/svg">
<path d="M1.44882 58.1228C0.482941 58.1228 0 57.8671 0 57.3558C0 57.2421 0.0852249 56.8444 0.255675 56.1626C0.539758 55.0831 0.823841 54.4865 1.10792 54.3729C1.27837 54.3161 1.7045 54.2877 2.3863 54.2877H2.89765C6.30664 54.2877 8.46567 54.0888 9.37474 53.6911C9.43156 53.6911 9.48837 53.6627 9.54519 53.6059C9.82927 53.4922 10.1418 52.8388 10.4827 51.6457C10.8236 50.4525 12.2156 44.8845 14.6587 34.9416C15.3405 32.3849 15.8518 30.3679 16.1927 28.8906C20.1699 12.982 22.1585 4.97085 22.1585 4.85721C22.0448 4.62995 21.988 4.48791 21.988 4.43109C21.4199 4.09019 19.4029 3.91974 15.9371 3.91974H14.2326C13.7212 3.57884 13.6076 2.86863 13.8917 1.78912C14.1189 0.936867 14.2894 0.425518 14.403 0.255068C14.5166 0.0846181 14.9144 -0.00060679 15.5962 -0.00060679H15.9371C20.0279 0.113026 24.1755 0.169843 28.3799 0.169843C35.3115 0.169843 38.9478 0.113026 39.2887 -0.00060679H40.1409C40.5386 0.397109 40.7375 0.709601 40.7375 0.936867C40.7375 1.16413 40.6523 1.64707 40.4818 2.38569C40.3114 3.12431 40.1125 3.57884 39.8853 3.74929C39.7148 3.86292 39.0614 3.91974 37.9251 3.91974C36.1638 3.91974 34.3456 4.00496 32.4707 4.17541C31.6753 4.34586 31.1355 4.65836 30.8514 5.11289C30.4537 5.90832 29.0049 11.3343 26.5049 21.3908C25.88 24.0612 25.255 26.6464 24.63 29.1463C20.6528 44.8277 18.6643 52.8388 18.6643 53.1797C18.6643 53.5775 18.9483 53.8331 19.5165 53.9468C20.0847 54.0604 21.5619 54.174 23.9482 54.2877H26.6754C27.0163 54.7422 27.1867 54.9979 27.1867 55.0547C27.1867 55.1115 27.1015 55.6229 26.9311 56.5887C26.7038 57.3274 26.4197 57.8671 26.0788 58.208H24.7152C22.613 58.0944 18.7211 58.0376 13.0394 58.0376C10.994 58.0376 9.11906 58.0376 7.41457 58.0376C5.71007 58.0376 4.34647 58.0376 3.32377 58.0376C2.30107 58.0376 1.67609 58.066 1.44882 58.1228Z" fill="white"/>
<path d="M41.0678 35.7442C43.3173 32.4905 46.3902 30.8636 50.2866 30.8636C52.2148 30.8636 54.1429 31.3858 56.071 32.4302C57.9992 33.4746 59.5658 35.3224 60.7708 37.9736C62.2571 41.3076 63.0002 45.8869 63.0002 51.7115C63.0002 57.9377 62.1366 62.6978 60.4093 65.9917C59.6059 67.6788 58.5013 69.0245 57.0953 70.0287C55.6894 71.0329 54.4643 71.6556 53.4199 71.8966C52.3754 72.1376 51.3511 72.2782 50.3469 72.3184C49.3025 72.3184 48.2581 72.1979 47.2137 71.9568C46.1693 71.7158 44.9441 71.0731 43.5382 70.0287C42.1323 68.9843 41.0276 67.6386 40.2242 65.9917C38.4969 62.6978 37.6333 57.9377 37.6333 51.7115C37.6333 44.722 38.7781 39.3996 41.0678 35.7442ZM54.6249 35.0211C53.4199 33.7357 51.9938 33.093 50.3469 33.093C48.6598 33.093 47.2137 33.7357 46.0086 35.0211C45.0044 36.0655 44.3416 37.5116 44.0202 39.3594C43.6989 41.2072 43.5382 45.0635 43.5382 50.9282C43.5382 57.2749 43.6989 61.4526 44.0202 63.461C44.3416 65.4695 45.0646 67.0562 46.1894 68.2211C47.3141 69.4262 48.7 70.0287 50.3469 70.0287C51.9537 70.0287 53.3194 69.4262 54.4442 68.2211C55.6091 67.016 56.3321 65.3289 56.6133 63.1597C56.8945 60.9906 57.0552 56.9134 57.0953 50.9282C57.0953 45.1036 56.9347 41.2675 56.6133 39.4197C56.292 37.5719 55.6292 36.1057 54.6249 35.0211Z" fill="white"/>
</svg>
