<svg width="54" height="74" viewBox="0 0 54 74" fill="none" xmlns="http://www.w3.org/2000/svg">
<path d="M12.403 2.18876C12.403 1.35495 12.9936 0.625362 14.1748 1.87755e-06H16.1551C22.4087 0.208455 26.3693 1.94557 28.037 5.21133C28.4539 6.2536 30.4342 11.7429 33.9779 21.6791C37.5216 31.6154 41.0305 41.3085 44.5048 50.7584C47.979 60.2082 49.7161 65.0721 49.7161 65.3501C50.2025 66.7398 50.6541 67.8863 51.071 68.7896C51.4879 69.6929 51.8006 70.353 52.0091 70.7699C52.2175 71.1868 52.3912 71.4995 52.5302 71.7079C52.6692 71.9164 52.8081 72.0553 52.9471 72.1248C53.0861 72.1943 53.1208 72.3333 53.0513 72.5417C52.9819 72.7502 52.7734 73.0629 52.426 73.4798H45.3386C43.6015 72.507 42.4897 71.4995 42.0033 70.4572C41.5169 69.4149 39.7451 64.7595 36.6878 56.4908L31.9976 43.4625L30.5384 45.0259C29.6351 46.1376 28.0022 48.0485 25.6397 50.7584C23.2773 53.4682 21.297 55.7612 19.6988 57.6373C17.9617 59.6524 15.8077 62.1538 13.2368 65.1416C9.69307 69.3107 7.50431 71.7426 6.6705 72.4375C5.83669 73.1323 4.86391 73.5145 3.75216 73.584C1.25072 73.584 0 72.4722 0 70.2487C0 69.0675 0.486391 67.9557 1.45917 66.9135C2.43195 65.8712 7.22638 61.181 15.8424 52.8429C17.927 50.8278 20.2547 48.5696 22.8256 46.0682C25.3965 43.5667 27.3074 41.6906 28.5581 40.4399L30.3299 38.7723C30.3299 38.7028 28.5928 33.8389 25.1186 24.1806C21.6444 14.5222 19.7683 9.31091 19.4904 8.54658C18.1007 5.41979 16.3288 3.85639 14.1748 3.85639C12.9936 3.85639 12.403 3.30051 12.403 2.18876Z" fill="white"/>
</svg>
