<svg width="58" height="84" viewBox="0 0 58 84" fill="none" xmlns="http://www.w3.org/2000/svg">
<path d="M39.4037 1.30044C39.4825 1.30044 42.3198 1.10341 47.9157 0.709332C53.5115 0.315258 56.3883 0.078813 56.5459 -1.90735e-06C57.4917 -1.90735e-06 57.9646 0.315258 57.9646 0.945777C57.9646 1.49748 55.0878 13.3985 49.3344 36.6489C43.5809 59.8993 40.6253 71.7609 40.4677 72.2338C40.31 72.7067 40.2706 73.2978 40.3495 74.0072C40.3495 77.3174 41.4529 78.9725 43.6597 78.9725C44.369 78.8937 45.1572 78.539 46.0241 77.9085C47.6792 76.3322 49.2949 72.5491 50.8712 66.5592C51.3441 64.9829 51.7382 64.1553 52.0535 64.0765C52.2111 63.9977 52.6052 63.9583 53.2357 63.9583H53.7086H54.1815C55.3637 63.9583 55.9548 64.2735 55.9548 64.9041C55.9548 65.2981 55.8366 65.9286 55.6001 66.7956C54.5755 70.7364 53.3933 73.9284 52.0535 76.3716C50.7136 78.8149 49.6102 80.3912 48.7432 81.1005C47.8763 81.8098 46.7729 82.4404 45.433 82.9921C44.8025 83.1497 43.8567 83.2285 42.5957 83.2285C39.916 83.2285 37.6697 82.6374 35.857 81.4552C34.0443 80.273 32.862 79.0513 32.3103 77.7903L31.601 76.017C31.5222 75.9381 31.3646 75.9775 31.1281 76.1352C30.9705 76.2928 30.8129 76.4504 30.6552 76.6081C26.0051 81.0217 21.2763 83.2285 16.4685 83.2285C12.1337 83.2285 8.31121 81.6522 5.00098 78.4996C1.69076 75.347 0.0356445 70.3423 0.0356445 63.4854C0.0356445 59.7023 0.823793 55.8403 2.40009 51.8996C3.97639 47.9589 5.86795 44.5698 8.07476 41.7325C11.7791 37.24 15.4834 34.1268 19.1877 32.3929C22.892 30.659 26.2416 29.792 29.2366 29.792C33.6502 29.792 36.9604 31.4471 39.1672 34.7574C39.5613 35.2303 39.7583 35.3879 39.7583 35.2303C39.8372 34.915 40.9012 30.6196 42.9503 22.344C44.9995 14.0685 46.1029 9.69423 46.2606 9.22134C46.2606 8.19675 45.9847 7.56623 45.433 7.32978C44.8813 7.09334 43.3444 6.8963 40.8223 6.73867H38.3397C37.8668 6.26578 37.6303 5.95052 37.6303 5.79289C37.6303 5.63526 37.7092 4.88652 37.8668 3.54667C38.2609 2.04919 38.7732 1.30044 39.4037 1.30044ZM37.7486 43.5058C35.9358 37.2794 32.9803 34.1663 28.8819 34.1663C26.1234 34.1663 23.4831 35.3879 20.961 37.8311C18.4389 40.2744 16.4685 43.4664 15.0499 47.4072C12.7642 53.6335 11.1485 60.0963 10.2028 66.7956C10.2028 67.0321 10.2028 67.4655 10.2028 68.0961C10.2028 68.7266 10.1634 69.1995 10.0845 69.5147C10.0845 73.0614 10.7939 75.5047 12.2125 76.8445C13.6312 78.1844 15.3257 78.8937 17.2961 78.9725C21.5521 78.9725 25.9263 76.1352 30.4188 70.4605L31.3646 69.1601L37.7486 43.5058Z" fill="white"/>
</svg>
