<svg width="55" height="93" viewBox="0 0 55 93" fill="none" xmlns="http://www.w3.org/2000/svg">
<path d="M0 65.6842C0 56.9254 1.67447 47.6944 5.02342 37.991C8.37237 28.2877 12.9235 19.9153 18.6768 12.8739C24.4301 5.83254 30.3981 1.79663 36.5808 0.766184C36.6667 0.766184 37.0101 0.766184 37.6112 0.766184C38.2123 0.766184 38.7276 0.723249 39.1569 0.637378C43.7939 0.98086 47.4005 3.08469 49.9766 6.94885C53.3255 12.1011 55 19.0136 55 27.6866C55 37.5617 53.0679 47.6085 49.2037 57.8271C45.3396 68.0457 40.402 76.418 34.3911 82.9442C28.3802 89.4703 22.6269 92.7334 17.1311 92.7334H16.2295C13.1382 92.7334 10.4762 91.8747 8.24356 90.1573C6.01093 88.4399 4.33646 86.1643 3.22014 83.3306C2.10383 80.4969 1.28806 77.6202 0.772834 74.7006C0.257611 71.781 0 68.7756 0 65.6842ZM44.8244 18.5414C44.8244 9.78258 42.5488 5.40319 37.9977 5.40319C34.9063 5.40319 31.9009 7.33527 28.9813 11.1994C26.0617 15.0636 23.6573 19.443 21.7682 24.3376C19.879 29.2322 18.4192 33.5257 17.3888 37.2182C16.3583 40.9106 15.8002 43.0574 15.7143 43.6585C19.9219 43.7443 24.0867 43.7873 28.2084 43.7873L40.7026 43.6585C40.7884 43.5726 41.1319 42.1557 41.733 39.4079C42.3341 36.66 43.0211 33.2252 43.7939 29.1034C44.5667 24.9816 44.9102 21.461 44.8244 18.5414ZM10.0468 74.443C10.0468 83.5453 12.3224 88.0964 16.8735 88.0964C18.1616 88.0964 19.5355 87.667 20.9953 86.8083C22.4551 85.9496 24.2155 84.3181 26.2763 81.9137C28.3372 79.5094 30.3981 75.774 32.459 70.7076C34.5199 65.6413 36.5808 59.3727 38.6417 51.902L39.2857 49.7123H14.1686C14.1686 49.9699 13.7822 51.6015 13.0094 54.6069C12.2365 57.6124 11.5496 60.9613 10.9485 64.6538C10.3474 68.3462 10.0468 71.6093 10.0468 74.443Z" fill="white"/>
</svg>
