<svg width="1020" height="209" viewBox="0 0 1020 209" fill="none" xmlns="http://www.w3.org/2000/svg">
<path d="M1.47805 125.983C0.492684 125.983 0 125.723 0 125.201C0 125.085 0.0869442 124.679 0.260833 123.984C0.550646 122.882 0.84046 122.274 1.13027 122.158C1.30416 122.1 1.73888 122.071 2.43444 122.071H2.9561C6.43387 122.071 8.63645 121.868 9.56386 121.462C9.62182 121.462 9.67978 121.433 9.73775 121.375C10.0276 121.259 10.3464 120.593 10.6941 119.376C11.0419 118.158 12.462 112.478 14.9544 102.335C15.65 99.7262 16.1716 97.6686 16.5194 96.1615C20.5768 79.9319 22.6055 71.7592 22.6055 71.6433C22.4896 71.4114 22.4316 71.2665 22.4316 71.2085C21.852 70.8608 19.7943 70.6869 16.2586 70.6869H14.5197C13.998 70.3391 13.8821 69.6146 14.1719 68.5133C14.4038 67.6438 14.5776 67.1222 14.6936 66.9483C14.8095 66.7744 15.2152 66.6874 15.9108 66.6874H16.2586C20.4319 66.8034 24.6632 66.8613 28.9524 66.8613C36.0239 66.8613 39.7335 66.8034 40.0813 66.6874H40.9507C41.3564 67.0932 41.5593 67.412 41.5593 67.6438C41.5593 67.8757 41.4724 68.3684 41.2985 69.1219C41.1246 69.8754 40.9217 70.3391 40.6899 70.513C40.516 70.6289 39.8494 70.6869 38.6902 70.6869C36.8933 70.6869 35.0385 70.7738 33.1257 70.9477C32.3143 71.1216 31.7636 71.4404 31.4738 71.9041C31.0681 72.7156 29.59 78.251 27.0396 88.5104C26.402 91.2347 25.7645 93.872 25.1269 96.4223C21.0695 112.42 19.0408 120.593 19.0408 120.941C19.0408 121.346 19.3306 121.607 19.9102 121.723C20.4898 121.839 21.9969 121.955 24.4313 122.071H27.2135C27.5613 122.535 27.7352 122.795 27.7352 122.853C27.7352 122.911 27.6482 123.433 27.4744 124.418C27.2425 125.172 26.9527 125.723 26.6049 126.07H25.2138C23.0692 125.954 19.0987 125.896 13.3025 125.896C11.2158 125.896 9.30303 125.896 7.56414 125.896C5.82526 125.896 4.43415 125.896 3.39082 125.896C2.34749 125.896 1.7099 125.925 1.47805 125.983Z" fill="white"/>
<path d="M49.7324 104.333C49.7324 100.333 50.0222 96.5366 50.6019 92.9429C51.1815 89.3492 51.8481 86.2482 52.6016 83.6399C53.3551 81.0316 54.4274 78.4812 55.8185 75.9888C57.2096 73.4964 58.3109 71.5546 59.1224 70.1635C59.9339 68.7724 61.1511 67.2654 62.774 65.6424C64.397 64.0195 65.3534 63.0341 65.6432 62.6863C65.933 62.3386 66.6576 61.7299 67.8168 60.8605H68.9471H69.2949C70.1063 60.8605 70.5121 61.1213 70.5121 61.643C70.5121 61.8169 70.0194 62.4255 69.034 63.4688C68.0487 64.5122 66.8604 66.0482 65.4693 68.0769C64.0782 70.1056 62.6581 72.598 61.2091 75.5541C59.76 78.5102 58.5428 82.5096 57.5574 87.5524C56.572 92.5951 56.0793 98.1885 56.0793 104.333C56.0793 110.477 56.572 116.041 57.5574 121.026C58.5428 126.011 59.731 130.039 61.1221 133.111C62.5132 136.183 63.9333 138.676 65.3824 140.588C66.8314 142.501 68.0487 144.037 69.034 145.196C70.0194 146.356 70.5121 146.964 70.5121 147.022C70.5121 147.544 70.0774 147.805 69.2079 147.805H68.9471H67.8168L65.3824 145.718C59.9339 140.791 55.9634 134.647 53.471 127.286C50.9786 119.925 49.7324 112.273 49.7324 104.333Z" fill="white"/>
<path d="M79.9019 100.942C80.3076 98.5077 81.8726 95.6965 84.5969 92.5086C87.3211 89.3206 90.683 87.6976 94.6824 87.6397C96.7111 87.6397 98.5659 88.1613 100.247 89.2047C101.928 90.248 103.174 91.5522 103.985 93.1172C106.42 89.4655 109.347 87.6397 112.767 87.6397C114.911 87.6397 116.766 88.2773 118.331 89.5524C119.896 90.8276 120.708 92.5375 120.766 94.6822C120.766 96.3631 120.36 97.7252 119.548 98.7685C118.737 99.8119 117.954 100.449 117.201 100.681C116.447 100.913 115.781 101.029 115.201 101.029C114.1 101.029 113.201 100.71 112.506 100.073C111.81 99.4351 111.463 98.5946 111.463 97.5513C111.463 94.885 112.912 93.0592 115.81 92.0738C115.172 91.3203 114.013 90.9436 112.332 90.9436C111.579 90.9436 111.028 91.0015 110.68 91.1174C108.478 92.0448 106.855 93.9576 105.811 96.8558C102.333 109.666 100.595 117.143 100.595 119.287C100.595 120.91 101.058 122.07 101.986 122.765C102.913 123.461 103.927 123.808 105.029 123.808C107.173 123.808 109.289 122.852 111.376 120.939C113.462 119.027 114.882 116.679 115.636 113.897C115.81 113.317 115.984 112.998 116.158 112.94C116.331 112.882 116.795 112.825 117.549 112.767H117.896C118.766 112.767 119.201 112.998 119.201 113.462C119.201 113.52 119.143 113.839 119.027 114.418C118.099 117.722 116.303 120.649 113.636 123.2C110.97 125.75 107.869 127.025 104.333 127.025C100.276 127.025 97.2038 125.2 95.1171 121.548C92.7406 125.142 90.0164 126.938 86.9444 126.938H86.4227C83.5825 126.938 81.5538 126.185 80.3366 124.678C79.1194 123.171 78.4818 121.577 78.4238 119.896C78.4238 118.041 78.9745 116.534 80.0758 115.375C81.1771 114.216 82.4812 113.636 83.9883 113.636C86.4807 113.636 87.7269 114.853 87.7269 117.288C87.7269 118.447 87.3791 119.461 86.6835 120.331C85.988 121.2 85.3214 121.78 84.6838 122.07C84.0462 122.359 83.6695 122.504 83.5535 122.504L83.2927 122.591C83.2927 122.649 83.4666 122.765 83.8144 122.939C84.1621 123.113 84.6258 123.316 85.2055 123.548C85.7851 123.779 86.3357 123.866 86.8574 123.808C88.9441 123.808 90.7409 122.504 92.248 119.896C92.7696 118.969 93.4362 116.998 94.2477 113.984C95.0591 110.97 95.8706 107.84 96.6821 104.594C97.4936 101.348 97.9573 99.4351 98.0732 98.8555C98.363 97.2905 98.5079 96.1602 98.5079 95.4647C98.5079 93.8417 98.0732 92.6824 97.2038 91.9869C96.3343 91.2913 95.349 90.9436 94.2477 90.9436C91.9292 90.9436 89.7556 91.871 87.7269 93.7258C85.6982 95.5806 84.2781 97.9571 83.4666 100.855C83.3507 101.377 83.2058 101.667 83.0319 101.725C82.858 101.783 82.3943 101.841 81.6408 101.899H80.4235C80.0758 101.551 79.9019 101.232 79.9019 100.942Z" fill="white"/>
<path d="M130.33 60.9475L130.678 60.8605C130.967 60.8605 131.257 60.8605 131.547 60.8605H132.59L135.025 62.9472C140.473 67.874 144.444 74.0181 146.936 81.3793C149.428 88.7406 150.675 96.3917 150.675 104.333C150.675 108.274 150.385 112.071 149.805 115.722C149.226 119.374 148.559 122.475 147.806 125.025C147.052 127.576 145.98 130.126 144.589 132.676C143.197 135.227 142.096 137.169 141.285 138.502C140.473 139.835 139.285 141.313 137.72 142.936C136.155 144.559 135.228 145.515 134.938 145.805C134.648 146.095 133.981 146.645 132.938 147.457C132.764 147.631 132.648 147.747 132.59 147.805H131.547C131.083 147.805 130.764 147.805 130.591 147.805C130.417 147.805 130.272 147.718 130.156 147.544C130.04 147.37 129.953 147.109 129.895 146.761C129.953 146.703 130.272 146.327 130.851 145.631C139.836 136.299 144.328 122.533 144.328 104.333C144.328 86.1323 139.836 72.3661 130.851 63.0341C130.272 62.3386 129.953 61.9618 129.895 61.9038C129.895 61.4401 130.04 61.1213 130.33 60.9475Z" fill="white"/>
<path d="M187.956 95.8988C187.956 95.1453 188.362 94.5657 189.173 94.1599H244.557C245.426 94.6236 245.861 95.2033 245.861 95.8988C245.861 96.5364 245.455 97.0871 244.644 97.5508L216.995 97.6377H189.347C188.42 97.3479 187.956 96.7683 187.956 95.8988ZM187.956 112.766C187.956 111.897 188.42 111.317 189.347 111.027H244.644C245.455 111.607 245.861 112.186 245.861 112.766C245.861 113.52 245.426 114.099 244.557 114.505H189.173C188.362 114.099 187.956 113.52 187.956 112.766Z" fill="white"/>
<path d="M278.622 125.983C277.636 125.983 277.144 125.723 277.144 125.201C277.144 125.085 277.23 124.679 277.404 123.984C277.694 122.882 277.984 122.274 278.274 122.158C278.448 122.1 278.882 122.071 279.578 122.071H280.1C283.577 122.071 285.78 121.868 286.707 121.462C286.765 121.462 286.823 121.433 286.881 121.375C287.171 121.259 287.49 120.593 287.838 119.376C288.185 118.158 289.606 112.478 292.098 102.335C292.794 99.7262 293.315 97.6686 293.663 96.1615C297.72 79.9319 299.749 71.7592 299.749 71.6433C299.633 71.4114 299.575 71.2665 299.575 71.2085C298.996 70.8608 296.938 70.6869 293.402 70.6869H291.663C291.142 70.3391 291.026 69.6146 291.315 68.5133C291.547 67.6438 291.721 67.1222 291.837 66.9483C291.953 66.7744 292.359 66.6874 293.054 66.6874H293.402C297.575 66.8034 301.807 66.8613 306.096 66.8613C313.167 66.8613 316.877 66.8034 317.225 66.6874H318.094C318.5 67.0932 318.703 67.412 318.703 67.6438C318.703 67.8757 318.616 68.3684 318.442 69.1219C318.268 69.8754 318.065 70.3391 317.833 70.513C317.66 70.6289 316.993 70.6869 315.834 70.6869C314.037 70.6869 312.182 70.7738 310.269 70.9477C309.458 71.1216 308.907 71.4404 308.617 71.9041C308.212 72.7156 306.734 78.251 304.183 88.5104C303.546 91.2347 302.908 93.872 302.27 96.4223C298.213 112.42 296.184 120.593 296.184 120.941C296.184 121.346 296.474 121.607 297.054 121.723C297.633 121.839 299.14 121.955 301.575 122.071H304.357C304.705 122.535 304.879 122.795 304.879 122.853C304.879 122.911 304.792 123.433 304.618 124.418C304.386 125.172 304.096 125.723 303.748 126.07H302.357C300.213 125.954 296.242 125.896 290.446 125.896C288.359 125.896 286.447 125.896 284.708 125.896C282.969 125.896 281.578 125.896 280.534 125.896C279.491 125.896 278.853 125.925 278.622 125.983Z" fill="white"/>
<path d="M319.039 103.152C321.334 99.8325 324.469 98.1728 328.444 98.1728C330.411 98.1728 332.378 98.7056 334.345 99.771C336.312 100.837 337.911 102.722 339.14 105.426C340.656 108.828 341.414 113.499 341.414 119.441C341.414 125.793 340.533 130.649 338.771 134.01C337.952 135.731 336.825 137.104 335.39 138.128C333.956 139.153 332.706 139.788 331.641 140.034C330.575 140.279 329.53 140.423 328.506 140.464C327.44 140.464 326.375 140.341 325.309 140.095C324.244 139.849 322.994 139.193 321.56 138.128C320.125 137.063 318.998 135.69 318.179 134.01C316.417 130.649 315.536 125.793 315.536 119.441C315.536 112.311 316.704 106.881 319.039 103.152ZM332.87 102.414C331.641 101.103 330.186 100.447 328.506 100.447C326.785 100.447 325.309 101.103 324.08 102.414C323.055 103.48 322.379 104.955 322.051 106.84C321.724 108.725 321.56 112.659 321.56 118.642C321.56 125.117 321.724 129.379 322.051 131.428C322.379 133.477 323.117 135.096 324.264 136.284C325.412 137.513 326.826 138.128 328.506 138.128C330.145 138.128 331.538 137.513 332.686 136.284C333.874 135.055 334.612 133.333 334.899 131.12C335.185 128.908 335.349 124.748 335.39 118.642C335.39 112.7 335.226 108.787 334.899 106.902C334.571 105.016 333.895 103.521 332.87 102.414Z" fill="white"/>
<path d="M394.883 99.5521C394.883 99.5521 394.274 99.5521 393.057 99.5521C391.84 99.5521 390.796 99.1173 389.927 98.2479C389.057 97.3785 388.594 96.2772 388.536 94.944C388.536 93.6109 388.97 92.5096 389.84 91.6401C390.13 91.3503 390.275 91.1764 390.275 91.1185C390.275 91.0605 389.985 91.0026 389.405 90.9446C387.898 90.7127 386.478 90.5968 385.145 90.5968C382.305 90.5968 379.986 91.5242 378.189 93.379C375.465 96.1033 374.103 100.653 374.103 107.029C374.103 111.782 375.001 115.521 376.798 118.245C379.175 121.781 382.363 123.549 386.362 123.549C388.739 123.549 390.651 122.795 392.1 121.288C393.55 119.781 394.593 117.984 395.23 115.898C395.346 115.434 395.491 115.144 395.665 115.028C395.839 114.912 396.303 114.854 397.056 114.854H398.273C398.621 115.202 398.795 115.463 398.795 115.637C398.795 115.869 398.679 116.332 398.447 117.028C398.216 117.723 397.752 118.68 397.056 119.897C396.361 121.114 395.52 122.216 394.535 123.201C393.55 124.186 392.158 125.085 390.362 125.896C388.565 126.708 386.565 127.084 384.362 127.026C379.378 127.026 375.03 125.172 371.321 121.462C367.611 117.752 365.727 113.086 365.669 107.464C365.669 101.436 367.553 96.538 371.321 92.7704C375.088 89.0028 379.465 87.1191 384.449 87.1191C389.434 87.1191 392.912 87.9016 394.883 89.4665C396.853 91.0315 397.839 92.8863 397.839 95.031C397.839 96.3641 397.346 97.4364 396.361 98.2479L394.883 99.5521Z" fill="white"/>
<path d="M403.751 107.464C403.751 101.957 405.635 97.2045 409.402 93.2051C413.17 89.2057 417.72 87.177 423.053 87.119C428.269 87.119 432.761 89.0898 436.529 93.0312C440.297 96.9727 442.209 101.755 442.267 107.377C442.267 112.883 440.412 117.521 436.703 121.288C432.993 125.056 428.443 126.939 423.053 126.939C417.43 126.939 412.822 124.998 409.228 121.114C405.635 117.231 403.809 112.681 403.751 107.464ZM423.053 123.462C430.124 123.462 433.66 118.738 433.66 109.29V106.508V104.334C433.66 103.059 433.631 101.957 433.573 101.03C433.515 100.103 433.312 99.0014 432.964 97.7262C432.616 96.451 432.153 95.4077 431.573 94.5962C430.993 93.7847 430.095 92.9733 428.878 92.1618C427.661 91.3503 426.241 90.7707 424.618 90.4229C424.328 90.3649 423.864 90.336 423.226 90.336C421.488 90.336 419.836 90.6837 418.271 91.3793C415.778 92.6545 414.155 94.4223 413.402 96.6829C412.648 98.9434 412.272 101.61 412.272 104.682V106.421C412.272 111.985 412.822 115.898 413.923 118.158C415.778 121.694 418.821 123.462 423.053 123.462Z" fill="white"/>
<path d="M470.437 98.5956C470.437 96.2771 469.655 94.2774 468.09 92.5965C466.525 90.9156 464.264 90.0751 461.308 90.0751C459.221 90.0751 457.424 90.4519 455.917 91.2054C454.179 92.3067 453.309 93.8137 453.309 95.7265C453.251 96.0163 453.251 96.393 453.309 96.8567C453.367 97.3204 453.831 98.016 454.7 98.9434C455.57 99.8708 456.816 100.595 458.439 101.117C459.482 101.407 460.757 101.668 462.264 101.899C463.771 102.131 465.047 102.392 466.09 102.682C467.133 102.972 468.061 103.349 468.872 103.812C469.857 104.276 470.814 104.856 471.741 105.551C472.669 106.247 473.596 107.435 474.523 109.116C475.451 110.797 475.944 112.594 476.002 114.506C476.002 118.1 474.9 121.056 472.698 123.375C470.495 125.693 466.93 126.881 462.004 126.939H461.308C458.294 126.939 455.512 125.896 452.961 123.809L452.266 124.418L451.483 125.201C451.135 125.548 450.788 125.867 450.44 126.157L449.484 127.026H448.788H448.44C448.266 127.026 448.005 126.852 447.658 126.505V119.636V114.593C447.658 113.376 447.716 112.652 447.832 112.42C447.948 112.188 448.237 112.043 448.701 111.985H449.484C450.179 111.985 450.643 112.101 450.875 112.333C451.107 112.565 451.251 112.912 451.309 113.376C451.367 113.84 451.57 114.622 451.918 115.724C452.266 116.825 452.816 118.042 453.57 119.375C455.599 122.331 458.41 123.809 462.004 123.809C467.626 123.809 470.437 121.549 470.437 117.028C470.437 115.347 469.915 113.985 468.872 112.941C467.713 111.55 465.307 110.507 461.656 109.811C458.004 109.116 455.599 108.449 454.439 107.812C452.353 106.826 450.701 105.493 449.484 103.812C448.266 102.131 447.658 100.335 447.658 98.4217C447.658 96.1612 448.15 94.2484 449.136 92.6834C450.121 91.1184 451.367 89.9592 452.874 89.2057C454.381 88.4521 455.83 87.9305 457.222 87.6407C458.613 87.3508 459.888 87.2059 461.047 87.2059H462.004C464.322 87.2059 466.351 87.6407 468.09 88.5101L469.394 89.2057L470.176 88.597C470.756 88.0754 471.393 87.5827 472.089 87.119H472.785H473.132C473.306 87.119 473.567 87.2929 473.915 87.6407V99.1173L473.393 99.639H470.959C470.611 99.2912 470.437 98.9434 470.437 98.5956Z" fill="white"/>
<path d="M485.745 63.7907C484.639 63.7907 483.758 63.4219 483.102 62.6842C482.446 61.9466 482.119 61.0451 482.119 59.9796C482.119 57.07 483.205 54.5498 485.377 52.4188C487.548 50.2879 490.253 49.2224 493.491 49.2224C497.22 49.2224 500.334 50.3699 502.834 52.6647C505.334 54.9596 506.604 57.9306 506.645 61.5778C506.645 63.3399 506.235 65.0201 505.416 66.6183C504.596 68.2165 503.612 69.6098 502.465 70.7982C501.318 71.9866 499.678 73.5029 497.548 75.347C496.072 76.6173 494.023 78.5024 491.401 81.0022L487.774 84.4445L492.446 84.5059C498.879 84.5059 502.301 84.4035 502.711 84.1986C502.998 84.1166 503.49 82.293 504.186 78.7278V78.5434H506.645V78.7278C506.604 78.8507 506.338 80.7153 505.846 84.3215C505.354 87.9277 505.047 89.8128 504.924 89.9767V90.1611H482.119V88.9932V88.2556C482.119 87.9687 482.242 87.6614 482.487 87.3335C482.733 87.0057 483.348 86.2886 484.332 85.1821C485.52 83.8707 486.544 82.7233 487.405 81.7398C487.774 81.33 488.471 80.5719 489.495 79.4654C490.519 78.359 491.216 77.6009 491.585 77.1911C491.954 76.7813 492.548 76.1051 493.368 75.1626C494.187 74.22 494.761 73.5234 495.089 73.0726C495.417 72.6218 495.888 72.0071 496.503 71.2285C497.117 70.4499 497.548 69.7942 497.793 69.2615C498.039 68.7288 498.347 68.1345 498.715 67.4789C499.084 66.8232 499.351 66.1675 499.515 65.5118C499.678 64.8562 499.822 64.2415 499.945 63.6678C500.068 63.094 500.129 62.4179 500.129 61.6393C500.129 59.0575 499.433 56.8242 498.039 54.9391C496.646 53.054 494.658 52.1115 492.077 52.1115C490.724 52.1115 489.536 52.4598 488.511 53.1565C487.487 53.8531 486.77 54.5293 486.36 55.185C485.95 55.8406 485.745 56.2299 485.745 56.3529C485.745 56.3939 485.848 56.4144 486.053 56.4144C486.79 56.4144 487.548 56.7012 488.327 57.2749C489.106 57.8486 489.495 58.7912 489.495 60.1025C489.495 61.127 489.167 61.9876 488.511 62.6842C487.856 63.3809 486.934 63.7497 485.745 63.7907Z" fill="white"/>
<path d="M575.075 207.797C575.075 207.97 574.901 208.231 574.553 208.579H571.858C571.742 208.463 570.93 207.681 569.423 206.232C567.916 204.783 566.612 203.536 565.511 202.493C564.41 201.45 562.845 199.682 560.816 197.189C558.787 194.697 556.99 192.35 555.425 190.147C553.86 187.944 552.035 185.017 549.948 181.366C547.861 177.714 546.064 174.091 544.557 170.498C543.05 166.904 541.456 162.586 539.775 157.543C538.094 152.5 536.79 147.399 535.863 142.241C534.936 137.082 534.095 131.199 533.342 124.591C532.588 117.983 532.24 111.202 532.298 104.246C532.298 63.0345 542.847 30.8652 563.946 7.73804C565.279 6.28897 566.525 5.01378 567.684 3.91249C568.844 2.8112 569.8 1.88379 570.554 1.13028C571.307 0.376755 571.742 0 571.858 0H574.553C574.901 0.347778 575.075 0.608612 575.075 0.782501C575.075 1.07231 574.495 1.82584 573.336 3.04305C572.177 4.26027 570.67 5.97017 568.815 8.17276C566.96 10.3753 564.873 13.1286 562.555 16.4324C560.236 19.7363 557.889 23.8807 555.512 28.8655C553.136 33.8503 550.933 39.3857 548.905 45.4718C546.876 51.5579 545.137 58.8612 543.688 67.3817C542.239 75.9023 541.311 85.0604 540.906 94.8561C540.79 97.0587 540.732 100.218 540.732 104.333C540.732 126.881 543.456 146.588 548.905 163.455C554.353 180.322 562.758 194.639 574.118 206.405C574.756 207.101 575.075 207.565 575.075 207.797Z" fill="white"/>
<path d="M606.723 29.9959C605.158 29.9959 603.912 29.4742 602.985 28.4309C602.057 27.3875 601.594 26.1124 601.594 24.6053C601.594 20.49 603.13 16.9253 606.202 13.9112C609.274 10.8971 613.099 9.39011 617.678 9.39011C622.953 9.39011 627.358 11.0131 630.894 14.259C634.43 17.5049 636.227 21.7072 636.284 26.8659C636.284 29.3583 635.705 31.7348 634.546 33.9953C633.386 36.2559 631.995 38.2266 630.372 39.9075C628.749 41.5884 626.431 43.7331 623.417 46.3414C621.33 48.1382 618.432 50.8045 614.722 54.3402L609.593 59.2091L616.2 59.2961C625.301 59.2961 630.14 59.1512 630.72 58.8613C631.126 58.7454 631.821 56.1661 632.807 51.1233V50.8625H636.284V51.1233C636.227 51.2972 635.85 53.9345 635.154 59.0352C634.459 64.136 634.024 66.8022 633.85 67.0341V67.2949H601.594V65.643V64.5997C601.594 64.1939 601.768 63.7592 602.115 63.2955C602.463 62.8318 603.333 61.8174 604.724 60.2524C606.405 58.3976 607.854 56.7747 609.071 55.3836C609.593 54.8039 610.578 53.7316 612.027 52.1666C613.476 50.6016 614.461 49.5293 614.983 48.9497C615.505 48.3701 616.345 47.4137 617.505 46.0805C618.664 44.7474 619.475 43.762 619.939 43.1244C620.403 42.4869 621.069 41.6174 621.939 40.5161C622.808 39.4148 623.417 38.4874 623.765 37.7339C624.112 36.9804 624.547 36.1399 625.069 35.2125C625.59 34.2851 625.967 33.3577 626.199 32.4303C626.431 31.5029 626.634 30.6335 626.808 29.822C626.981 29.0105 627.068 28.0541 627.068 26.9528C627.068 23.3012 626.083 20.1422 624.112 17.4759C622.142 14.8096 619.33 13.4765 615.679 13.4765C613.766 13.4765 612.085 13.9692 610.636 14.9545C609.187 15.9399 608.173 16.8963 607.593 17.8237C607.013 18.7511 606.723 19.3017 606.723 19.4756C606.723 19.5336 606.868 19.5626 607.158 19.5626C608.202 19.5626 609.274 19.9683 610.375 20.7798C611.476 21.5913 612.027 22.9244 612.027 24.7792C612.027 26.2283 611.563 27.4455 610.636 28.4309C609.709 29.4162 608.404 29.9379 606.723 29.9959Z" fill="white"/>
<path d="M652.195 68.252C650.224 68.252 649.239 67.2956 649.239 65.3828V64.4264L650.369 61.992C654.716 52.8339 657.875 44.9219 659.846 38.2562L660.541 36.1695H657.759C655.557 36.1695 653.992 36.2565 653.064 36.4304C652.137 36.6043 651.007 37.1549 649.673 38.0823C649.036 38.4881 648.398 39.0097 647.761 39.6473C647.123 40.2849 646.572 40.8935 646.109 41.4731C645.645 42.0528 645.384 42.4005 645.326 42.5165C645.21 42.5744 644.776 42.6034 644.022 42.6034C642.921 42.6034 642.37 42.3136 642.37 41.734C642.37 41.3862 642.921 40.3719 644.022 38.6909C645.123 37.01 646.717 35.2132 648.804 33.3004C650.891 31.3876 652.948 30.2863 654.977 29.9965C655.383 29.8806 661.904 29.8226 674.539 29.8226C683.814 29.8226 688.566 29.8516 688.798 29.9096C689.958 30.3153 690.537 31.1268 690.537 32.344C690.537 34.1409 689.61 35.3581 687.755 35.9957C687.407 36.1116 685.407 36.1695 681.756 36.1695H676.191L675.931 37.6476C675.235 41.8209 674.887 45.2697 674.887 47.994C674.887 51.008 675.148 53.7033 675.67 56.0798C676.191 58.4562 676.742 60.3111 677.322 61.6442C677.901 62.9773 678.191 63.7888 678.191 64.0786C678.191 65.064 677.785 65.9914 676.974 66.8608C676.162 67.7303 675.119 68.165 673.844 68.165C673.206 68.165 672.685 68.0781 672.279 67.9042C671.873 67.7303 671.409 67.0347 670.888 65.8175C670.366 64.6003 669.902 62.8614 669.497 60.6009C669.439 60.0792 669.41 58.804 669.41 56.7753C669.41 53.9351 669.671 50.8921 670.192 47.6462C670.714 44.4003 671.236 41.734 671.757 39.6473C672.279 37.5607 672.569 36.4014 672.627 36.1695H664.106L664.019 36.5173C664.019 36.6912 663.469 38.9807 662.367 43.3859C661.266 47.7911 660.02 52.4571 658.629 57.3839C657.238 62.3108 656.339 65.122 655.933 65.8175C655.296 67.4405 654.05 68.252 652.195 68.252Z" fill="white"/>
<path d="M632.849 127.2C632.849 126.505 633.342 125.896 634.327 125.374H635.979C641.196 125.548 644.5 126.997 645.891 129.721C646.239 130.591 647.891 135.17 650.847 143.459C653.803 151.747 656.73 159.833 659.628 167.716C662.526 175.599 663.975 179.656 663.975 179.888C664.381 181.048 664.758 182.004 665.106 182.757C665.453 183.511 665.714 184.062 665.888 184.409C666.062 184.757 666.207 185.018 666.323 185.192C666.439 185.366 666.555 185.482 666.671 185.54C666.787 185.598 666.815 185.714 666.758 185.887C666.7 186.061 666.526 186.322 666.236 186.67H660.324C658.875 185.858 657.947 185.018 657.541 184.149C657.136 183.279 655.658 179.396 653.107 172.498L649.195 161.63L647.978 162.934C647.224 163.862 645.862 165.456 643.891 167.716C641.92 169.977 640.269 171.889 638.935 173.454C637.486 175.135 635.689 177.222 633.545 179.714C630.589 183.192 628.763 185.221 628.067 185.8C627.372 186.38 626.56 186.699 625.633 186.757C623.546 186.757 622.503 185.829 622.503 183.975C622.503 182.989 622.909 182.062 623.72 181.192C624.532 180.323 628.531 176.41 635.718 169.455C637.457 167.774 639.399 165.89 641.544 163.804C643.688 161.717 645.282 160.152 646.326 159.109L647.804 157.717C647.804 157.66 646.355 153.602 643.456 145.545C640.558 137.488 638.993 133.141 638.761 132.504C637.602 129.895 636.124 128.591 634.327 128.591C633.342 128.591 632.849 128.127 632.849 127.2Z" fill="white"/>
<path d="M698.97 106.942H588.551V101.726H698.97V106.942Z" fill="white"/>
<path d="M741.225 66.6852C741.283 66.6852 743.37 66.5403 747.485 66.2505C751.601 65.9607 753.716 65.7868 753.832 65.7288C754.528 65.7288 754.876 65.9607 754.876 66.4244C754.876 66.8301 752.76 75.5825 748.529 92.6815C744.297 109.781 742.124 118.504 742.008 118.852C741.892 119.199 741.863 119.634 741.921 120.156C741.921 122.59 742.732 123.808 744.355 123.808C744.877 123.75 745.457 123.489 746.094 123.025C747.311 121.866 748.5 119.084 749.659 114.678C750.007 113.519 750.297 112.911 750.528 112.853C750.644 112.795 750.934 112.766 751.398 112.766H751.746H752.093C752.963 112.766 753.398 112.997 753.398 113.461C753.398 113.751 753.311 114.215 753.137 114.852C752.383 117.75 751.514 120.098 750.528 121.895C749.543 123.692 748.732 124.851 748.094 125.373C747.456 125.894 746.645 126.358 745.66 126.764C745.196 126.88 744.5 126.938 743.573 126.938C741.602 126.938 739.95 126.503 738.617 125.633C737.284 124.764 736.414 123.865 736.009 122.938L735.487 121.634C735.429 121.576 735.313 121.605 735.139 121.721C735.023 121.837 734.907 121.953 734.791 122.069C731.372 125.315 727.894 126.938 724.358 126.938C721.17 126.938 718.359 125.778 715.925 123.46C713.49 121.141 712.273 117.461 712.273 112.418C712.273 109.636 712.853 106.795 714.012 103.897C715.171 100.999 716.562 98.5068 718.185 96.4201C720.909 93.1162 723.634 90.8267 726.358 89.5515C729.082 88.2763 731.546 87.6387 733.748 87.6387C736.994 87.6387 739.429 88.856 741.051 91.2904C741.341 91.6382 741.486 91.7541 741.486 91.6382C741.544 91.4063 742.327 88.2473 743.834 82.1613C745.341 76.0752 746.152 72.8582 746.268 72.5104C746.268 71.7569 746.065 71.2932 745.66 71.1193C745.254 70.9455 744.124 70.8005 742.269 70.6846H740.443C740.095 70.3368 739.921 70.105 739.921 69.9891C739.921 69.8731 739.979 69.3225 740.095 68.3371C740.385 67.2358 740.762 66.6852 741.225 66.6852ZM740.008 97.7243C738.675 93.1452 736.501 90.8557 733.487 90.8557C731.459 90.8557 729.517 91.7541 727.662 93.5509C725.807 95.3478 724.358 97.6953 723.315 100.593C721.634 105.172 720.446 109.925 719.75 114.852C719.75 115.026 719.75 115.345 719.75 115.809C719.75 116.272 719.721 116.62 719.663 116.852C719.663 119.46 720.185 121.257 721.228 122.243C722.272 123.228 723.518 123.75 724.967 123.808C728.097 123.808 731.314 121.721 734.618 117.548L735.313 116.591L740.008 97.7243Z" fill="white"/>
<path d="M794.756 98.5946C794.756 96.2761 793.973 94.2764 792.408 92.5955C790.843 90.9146 788.583 90.0741 785.627 90.0741C783.54 90.0741 781.743 90.4509 780.236 91.2044C778.497 92.3057 777.628 93.8127 777.628 95.7255C777.57 96.0153 777.57 96.3921 777.628 96.8558C777.686 97.3195 778.15 98.015 779.019 98.9424C779.888 99.8698 781.135 100.594 782.758 101.116C783.801 101.406 785.076 101.667 786.583 101.899C788.09 102.13 789.365 102.391 790.409 102.681C791.452 102.971 792.379 103.348 793.191 103.811C794.176 104.275 795.133 104.855 796.06 105.55C796.988 106.246 797.915 107.434 798.842 109.115C799.77 110.796 800.262 112.593 800.32 114.505C800.32 118.099 799.219 121.055 797.016 123.374C794.814 125.692 791.249 126.88 786.322 126.938H785.627C782.613 126.938 779.831 125.895 777.28 123.808L776.585 124.417L775.802 125.2C775.454 125.547 775.107 125.866 774.759 126.156L773.802 127.025H773.107H772.759C772.585 127.025 772.324 126.852 771.977 126.504V119.635V114.592C771.977 113.375 772.035 112.651 772.15 112.419C772.266 112.187 772.556 112.042 773.02 111.984H773.802C774.498 111.984 774.962 112.1 775.193 112.332C775.425 112.564 775.57 112.911 775.628 113.375C775.686 113.839 775.889 114.621 776.237 115.723C776.585 116.824 777.135 118.041 777.889 119.374C779.917 122.33 782.729 123.808 786.322 123.808C791.945 123.808 794.756 121.548 794.756 117.027C794.756 115.346 794.234 113.984 793.191 112.94C792.032 111.549 789.626 110.506 785.975 109.81C782.323 109.115 779.917 108.448 778.758 107.811C776.672 106.825 775.02 105.492 773.802 103.811C772.585 102.13 771.977 100.334 771.977 98.4208C771.977 96.1602 772.469 94.2474 773.455 92.6824C774.44 91.1174 775.686 89.9582 777.193 89.2047C778.7 88.4512 780.149 87.9295 781.54 87.6397C782.932 87.3499 784.207 87.205 785.366 87.205H786.322C788.641 87.205 790.67 87.6397 792.408 88.5091L793.713 89.2047L794.495 88.5961C795.075 88.0744 795.712 87.5817 796.408 87.118H797.103H797.451C797.625 87.118 797.886 87.2919 798.234 87.6397V99.1163L797.712 99.638H795.278C794.93 99.2902 794.756 98.9424 794.756 98.5946Z" fill="white"/>
<path d="M809.363 73.1203C809.363 71.4974 809.884 70.2222 810.928 69.2948C811.971 68.3674 813.246 67.9037 814.753 67.9037C816.086 68.0196 817.246 68.5123 818.231 69.3817C819.216 70.2512 819.709 71.4974 819.709 73.1203C819.709 74.8592 819.216 76.1634 818.231 77.0328C817.246 77.9023 816.028 78.337 814.579 78.337C813.13 78.337 811.913 77.9023 810.928 77.0328C809.942 76.1634 809.421 74.8592 809.363 73.1203ZM824.839 126.069C823.969 125.895 820.955 125.809 815.796 125.809C815.159 125.809 814.087 125.809 812.58 125.809C811.073 125.809 809.623 125.866 808.232 125.982L806.32 126.069H805.624V122.07H807.015C808.638 122.07 810.058 121.983 811.275 121.809C811.797 121.577 812.116 121.258 812.232 120.853C812.348 120.447 812.406 119.23 812.406 117.201V108.246V100.595C812.406 97.5806 812.348 95.6679 812.232 94.8564C812.116 94.0449 811.71 93.4943 811.015 93.2044C810.203 92.7987 808.841 92.5958 806.928 92.5958H805.972V90.5961C805.972 89.263 806.03 88.5964 806.146 88.5964L807.015 88.5095C807.595 88.4515 808.406 88.3935 809.45 88.3356C810.493 88.2776 811.536 88.2196 812.58 88.1617C813.565 88.1037 814.608 88.0457 815.71 87.9878C816.811 87.9298 817.651 87.8429 818.231 87.727C818.811 87.611 819.129 87.582 819.187 87.64H819.448V120.679C819.738 121.258 820.086 121.606 820.491 121.722C820.897 121.838 821.912 121.954 823.535 122.07H825.534V126.069H824.839Z" fill="white"/>
<path d="M831.099 122.07H832.316C834.576 122.07 835.939 121.664 836.402 120.853V120.157C836.402 119.635 836.402 118.969 836.402 118.157C836.402 117.346 836.402 116.448 836.402 115.462C836.402 114.477 836.431 113.347 836.489 112.071C836.547 110.796 836.547 109.579 836.489 108.42C836.489 106.623 836.489 104.71 836.489 102.681C836.489 100.653 836.46 98.9428 836.402 97.5516V95.5519C836.228 94.4506 835.823 93.7261 835.185 93.3783C834.547 93.0306 833.243 92.7697 831.273 92.5958H829.708V90.5961C829.708 89.263 829.765 88.5964 829.881 88.5964L830.751 88.5095C831.33 88.4515 832.142 88.3935 833.185 88.3356C834.229 88.2776 835.301 88.2196 836.402 88.1617C837.388 88.1037 838.431 88.0458 839.532 87.9878C840.634 87.9298 841.474 87.8429 842.054 87.727C842.633 87.611 842.952 87.5821 843.01 87.64H843.271V91.1178C843.271 93.3204 843.3 94.4217 843.358 94.4217C843.416 94.4217 843.561 94.2768 843.792 93.9869C844.024 93.6971 844.372 93.2624 844.836 92.6828C845.3 92.1031 845.85 91.5815 846.488 91.1178C847.125 90.6541 847.966 90.1034 849.009 89.4658C850.052 88.8283 851.154 88.3645 852.313 88.0747C853.472 87.7849 854.95 87.64 856.747 87.64C863.355 87.8719 867.036 91.1468 867.789 97.4647C867.847 97.8704 867.876 101.899 867.876 109.55V117.027C867.876 119.23 867.934 120.534 868.05 120.94C868.166 121.345 868.485 121.635 869.006 121.809C870.224 121.983 871.644 122.07 873.267 122.07H874.658V126.069H873.962L871.875 125.982C870.542 125.924 869.093 125.895 867.528 125.895C865.963 125.895 864.862 125.866 864.224 125.809C858.254 125.809 855.008 125.895 854.487 126.069H853.791V122.07H855.182C858.718 122.07 860.486 121.606 860.486 120.679C860.544 120.563 860.573 116.563 860.573 108.681C860.515 100.856 860.457 96.7112 860.399 96.2475C860.051 94.6245 859.471 93.4073 858.66 92.5958C857.848 91.7844 857.153 91.2917 856.573 91.1178C855.994 90.9439 855.24 90.8859 854.313 90.9439C851.704 90.9439 849.415 91.9293 847.444 93.9C845.879 95.465 844.894 97.059 844.488 98.6819C844.082 100.305 843.85 102.71 843.792 105.898V111.463V116.679C843.792 118.418 843.821 119.578 843.879 120.157C843.937 120.737 844.024 121.114 844.14 121.287C844.256 121.461 844.517 121.635 844.923 121.809C846.14 121.983 847.56 122.07 849.183 122.07H850.574V126.069H849.879L847.879 125.982C846.488 125.924 845.01 125.895 843.445 125.895C841.88 125.895 840.778 125.866 840.141 125.809C834.171 125.809 830.925 125.895 830.403 126.069H829.708V122.07H831.099Z" fill="white"/>
<path d="M893.403 108.679C893.403 102.767 894.534 96.536 896.794 89.9862C899.055 83.4364 902.127 77.7851 906.01 73.0321C909.894 68.2792 913.922 65.5549 918.095 64.8594C918.153 64.8594 918.385 64.8594 918.791 64.8594C919.197 64.8594 919.545 64.8304 919.834 64.7724C922.964 65.0043 925.399 66.4244 927.138 69.0327C929.398 72.5104 930.528 77.1764 930.528 83.0307C930.528 89.6964 929.224 96.4781 926.616 103.376C924.008 110.273 920.675 115.925 916.617 120.33C912.56 124.735 908.677 126.938 904.967 126.938H904.358C902.272 126.938 900.475 126.358 898.968 125.199C897.461 124.039 896.33 122.503 895.577 120.591C894.823 118.678 894.273 116.736 893.925 114.765C893.577 112.795 893.403 110.766 893.403 108.679ZM923.66 76.8577C923.66 70.9454 922.124 67.9893 919.052 67.9893C916.965 67.9893 914.936 69.2935 912.966 71.9018C910.995 74.5102 909.372 77.4663 908.097 80.7701C906.822 84.074 905.836 86.9722 905.141 89.4646C904.445 91.957 904.068 93.406 904.011 93.8118C906.851 93.8697 909.662 93.8987 912.444 93.8987L920.878 93.8118C920.936 93.7538 921.167 92.7974 921.573 90.9426C921.979 89.0878 922.443 86.7693 922.964 83.9871C923.486 81.2049 923.718 78.8284 923.66 76.8577ZM900.185 114.591C900.185 120.735 901.721 123.808 904.793 123.808C905.662 123.808 906.59 123.518 907.575 122.938C908.561 122.358 909.749 121.257 911.14 119.634C912.531 118.011 913.922 115.49 915.313 112.07C916.704 108.65 918.095 104.419 919.487 99.3762L919.921 97.8981H902.967C902.967 98.072 902.706 99.1733 902.185 101.202C901.663 103.231 901.199 105.491 900.794 107.984C900.388 110.476 900.185 112.679 900.185 114.591Z" fill="white"/>
<path d="M934.093 1.04333C934.093 0.579636 934.18 0.28981 934.354 0.173889C934.528 0.0579681 934.905 0 935.484 0H936.006H937.31C937.426 0.115921 938.238 0.898422 939.745 2.34749C941.252 3.79657 942.556 5.04277 943.657 6.08609C944.758 7.12943 946.323 8.89729 948.352 11.3897C950.381 13.8821 952.178 16.2296 953.743 18.4322C955.308 20.6348 957.133 23.5619 959.22 27.2135C961.307 30.8652 963.104 34.4589 964.611 37.9946C966.118 41.5303 967.712 45.8486 969.393 50.9493C971.074 56.05 972.378 61.1507 973.305 66.2515C974.232 71.3522 975.073 77.2354 975.826 83.9011C976.58 90.5669 976.928 97.3485 976.87 104.246C976.87 111.028 976.667 116.766 976.261 121.461C973.537 154.616 963.191 181.076 945.222 200.841C943.889 202.29 942.643 203.565 941.484 204.667C940.324 205.768 939.368 206.695 938.614 207.449C937.861 208.202 937.426 208.579 937.31 208.579H936.006C935.253 208.579 934.76 208.521 934.528 208.405C934.296 208.289 934.151 207.999 934.093 207.536C937.223 204.406 940.295 200.812 943.309 196.755C960.003 174.555 968.349 143.719 968.349 104.246C968.349 92.5376 967.596 81.6116 966.089 71.4681C964.582 61.3246 962.727 52.8041 960.524 45.9065C958.322 39.009 955.626 32.5171 952.438 26.431C949.251 20.3449 946.352 15.621 943.744 12.2591C941.136 8.89729 938.267 5.53545 935.137 2.1736C935.021 2.05768 934.905 1.94176 934.789 1.82584C934.673 1.7099 934.586 1.59398 934.528 1.47806C934.47 1.36212 934.383 1.27518 934.267 1.21722L934.093 1.04333Z" fill="white"/>
</svg>
