<svg width="131" height="109" viewBox="0 0 131 109" fill="none" xmlns="http://www.w3.org/2000/svg">
<path d="M2.06398 88.6465H1.80598C0.601994 88.6465 0 88.1735 0 87.2275C0 86.8835 0.128999 86.1955 0.386996 85.1635C0.730993 83.9595 1.03199 83.2715 1.28999 83.0995C1.54798 82.9275 2.36498 82.7985 3.74096 82.7125C11.1369 82.4545 16.9418 80.2186 21.1558 76.0046C22.0158 75.1446 27.0037 69.7267 36.1196 59.7508C45.2356 49.7749 49.7505 44.7009 49.6645 44.5289C40.2906 20.6212 35.3886 8.45229 34.9587 8.02229C34.1847 7.0763 31.4757 6.5603 26.8317 6.4743H23.2198C22.7038 5.95831 22.4458 5.61431 22.4458 5.44231C22.4458 5.27032 22.5318 4.45332 22.7038 2.99134C23.0478 1.87335 23.4778 1.05636 23.9938 0.540367H25.7997C28.7237 0.712364 33.9267 0.798363 41.4086 0.798363C44.2466 0.798363 46.8695 0.798363 49.2775 0.798363C51.6855 0.798363 53.6205 0.755363 55.0825 0.669365C56.5444 0.583366 57.4044 0.583366 57.6624 0.669365C59.1244 0.669365 59.8554 1.14236 59.8554 2.08835C59.8554 2.17435 59.7694 2.73335 59.5974 3.76534C59.2534 5.05532 58.9524 5.82932 58.6944 6.08731C58.4364 6.34531 57.7484 6.4743 56.6304 6.4743C53.9645 6.7323 51.6425 7.46329 49.6645 8.66728L59.5974 33.693L66.4343 26.0821C75.4643 16.3642 79.9792 10.9893 79.9792 9.95727C79.9792 8.40929 78.9472 7.3343 76.8832 6.7323C76.4532 6.7323 75.8942 6.6463 75.2063 6.4743C73.9163 6.4743 73.2713 6.00131 73.2713 5.05532C73.2713 4.88332 73.3573 4.19533 73.5293 2.99134C73.8733 1.87335 74.3033 1.05636 74.8193 0.540367H76.3672C76.4532 0.540367 77.5282 0.540367 79.5922 0.540367C81.6562 0.540367 83.9782 0.626366 86.5581 0.798363C89.1381 0.97036 90.9011 1.01336 91.8471 0.927361C99.587 0.927361 103.844 0.798363 104.618 0.540367H105.65C106.252 1.14236 106.553 1.61536 106.553 1.95935C106.381 4.10933 105.865 5.61431 105.005 6.4743H102.941C100.017 6.5603 97.394 6.9473 95.0721 7.63529C92.7501 8.32329 90.9871 9.05428 89.7831 9.82827C88.5791 10.6023 87.5471 11.3763 86.6871 12.1502L85.2682 13.3112C85.2682 13.2252 81.1832 17.6972 73.0133 26.7271L61.7904 39.111C61.7904 39.197 63.1234 42.6369 65.7894 49.4309C68.4553 56.2248 71.2503 63.1907 74.1743 70.3287C77.0982 77.4666 78.6892 81.1646 78.9472 81.4226C79.8072 82.1965 82.4302 82.6265 86.8161 82.7125C89.8261 82.7125 91.3311 83.0995 91.3311 83.8735C91.3311 84.0455 91.2451 84.6475 91.0731 85.6795C90.7291 87.0555 90.4281 87.8725 90.1701 88.1305C89.9121 88.3885 89.3101 88.5175 88.3641 88.5175C88.1061 88.5175 86.6871 88.5175 84.1072 88.5175C81.5272 88.5175 77.7002 88.4745 72.6263 88.3885C67.3803 88.3885 63.3814 88.3885 60.6294 88.3885C57.8774 88.3885 56.3724 88.4315 56.1144 88.5175C54.6525 88.5175 53.9215 88.1305 53.9215 87.3565C53.9215 87.2705 54.0075 86.6255 54.1795 85.4215C54.3515 84.5615 54.5235 83.9595 54.6955 83.6155C54.8675 83.2715 55.0825 83.0565 55.3405 82.9705C55.5984 82.8845 55.9854 82.7985 56.5014 82.7125C57.0174 82.6265 57.7054 82.5835 58.5654 82.5835C59.4254 82.5835 60.5434 82.2825 61.9194 81.6806C63.3814 80.9926 64.1124 80.5626 64.1124 80.3906C64.0264 80.3906 62.0054 75.3596 58.0494 65.2977L51.9865 50.0759C35.8186 67.6197 27.5197 76.8646 27.0897 77.8106C26.7457 78.4986 26.5737 79.0146 26.5737 79.3586C26.5737 80.9926 27.8207 82.0676 30.3147 82.5835C30.4007 82.5835 30.6587 82.5835 31.0887 82.5835C31.5187 82.5835 31.7767 82.6265 31.8627 82.7125C32.1207 82.7125 32.2927 82.7125 32.3787 82.7125C32.4647 82.7125 32.5937 82.7555 32.7657 82.8415C32.9377 82.9275 33.0667 83.0565 33.1527 83.2285C33.2387 83.4005 33.2817 83.7015 33.2817 84.1315C33.2817 84.9055 33.1957 85.5935 33.0237 86.1955C32.7657 87.3135 32.5077 87.9585 32.2497 88.1305C31.9917 88.3025 31.3467 88.4315 30.3147 88.5175C30.0567 88.5175 29.2827 88.5175 27.9927 88.5175C26.7027 88.5175 24.8968 88.4745 22.5748 88.3885C20.2528 88.3025 17.7158 88.3025 14.9639 88.3885C8.25592 88.3885 3.95596 88.4745 2.06398 88.6465Z" fill="white"/>
<path d="M120.238 53.2755C120.238 51.8163 120.816 50.5395 121.971 49.445C123.126 48.3506 124.464 47.773 125.984 47.7122C127.078 47.7122 127.99 48.077 128.72 48.8066C129.449 49.5362 129.845 50.4483 129.905 51.5427C129.905 52.9411 129.297 54.2179 128.081 55.3732C126.865 56.5284 125.528 57.1364 124.069 57.1972C123.156 57.1972 122.305 56.8932 121.515 56.2852C120.724 55.6772 120.299 54.674 120.238 53.2755ZM105.372 81.8218C105.372 81.3354 105.646 80.3929 106.193 78.9945C106.74 77.5961 107.47 76.0456 108.382 74.3432C109.294 72.6408 110.631 71.0903 112.395 69.6919C114.158 68.2935 115.982 67.6246 117.867 67.6855C120.238 67.6855 122.214 68.3847 123.795 69.7831C125.376 71.1815 126.197 73.0664 126.257 75.4376C126.257 76.4713 125.832 78.1737 124.981 80.5449C124.129 82.9162 122.913 86.1083 121.332 90.1212C119.752 94.1341 118.475 97.5693 117.502 100.427C117.198 101.765 117.046 102.737 117.046 103.345C117.046 104.866 117.563 105.626 118.596 105.626C119.144 105.626 119.721 105.534 120.329 105.352C120.937 105.17 121.636 104.744 122.427 104.075C123.217 103.406 124.038 102.342 124.889 100.883C125.741 99.4238 126.501 97.6301 127.169 95.5021C127.352 94.7725 127.504 94.3469 127.625 94.2253C127.747 94.1037 128.264 94.0429 129.176 94.0429C130.392 94.0429 131 94.3469 131 94.9549C131 95.4413 130.726 96.3837 130.179 97.7821C129.632 99.1806 128.872 100.731 127.899 102.433C126.926 104.136 125.558 105.656 123.795 106.994C122.032 108.331 120.147 109 118.14 109C116.195 109 114.401 108.362 112.759 107.085C111.118 105.808 110.267 103.862 110.206 101.248C110.206 100.214 110.358 99.2414 110.662 98.3294C110.966 97.4173 112.273 93.9517 114.583 87.9323C116.894 81.7914 118.232 78.1129 118.596 76.8969C118.961 75.6808 119.174 74.4952 119.235 73.34C119.235 71.8807 118.718 71.1511 117.684 71.1511H117.502C115.678 71.1511 114.006 72.1544 112.486 74.1608C110.966 76.1672 109.811 78.7209 109.02 81.8218C108.959 81.8826 108.899 81.9738 108.838 82.0954C108.777 82.217 108.747 82.3082 108.747 82.369C108.747 82.4298 108.686 82.4906 108.564 82.5514C108.443 82.6122 108.351 82.6426 108.291 82.6426C108.23 82.6426 108.108 82.6426 107.926 82.6426C107.743 82.6426 107.5 82.6426 107.196 82.6426H105.919C105.554 82.2778 105.372 82.0042 105.372 81.8218Z" fill="white"/>
</svg>
