<svg width="107" height="108" viewBox="0 0 107 108" fill="none" xmlns="http://www.w3.org/2000/svg">
<path d="M0 86.1344C0 84.8584 0.255213 83.7099 0.76564 82.689C0.76564 82.604 12.0376 69.8858 34.5814 44.5346C57.1253 19.1834 68.4823 6.38024 68.6524 6.12502L67.3763 5.86981C66.4406 5.86981 63.2929 5.86981 57.9334 5.86981H56.4022H53.3396C50.4472 5.86981 48.0652 5.95488 46.1936 6.12502C44.3221 6.29517 41.9826 6.76306 39.1753 7.5287C36.3679 8.29434 34.071 9.40026 32.2845 10.8465C30.498 12.2927 28.5839 14.4195 26.5422 17.2268C24.5005 20.0342 22.8841 23.3945 21.6931 27.3077C21.6081 27.563 21.523 27.8182 21.4379 28.0734C21.3529 28.3286 21.2678 28.5413 21.1827 28.7114C21.0976 28.8815 21.0551 29.0942 21.0551 29.3494C21.0551 29.6047 21.0126 29.7323 20.9275 29.7323L20.7999 29.9875C20.5447 30.4128 19.7365 30.6255 18.3754 30.6255C16.9292 30.6255 16.0784 30.2002 15.8232 29.3494L19.9066 15.5679C21.0976 11.7397 22.2461 7.91152 23.352 4.08332C24.0326 1.70132 24.543 0.425262 24.8833 0.255119C25.1385 0.0849762 35.0918 -9.91821e-05 54.7433 -9.91821e-05H84.2204C84.6458 0.425262 84.8585 0.765541 84.8585 1.02076C84.8585 1.1909 84.6032 2.29682 84.0928 4.33853C39.1753 54.9559 16.6739 80.3496 16.5889 80.5197L16.206 80.9025H27.563C35.6448 80.8175 40.026 80.7324 40.7065 80.6473C47.0869 79.8817 52.3187 77.7974 56.4022 74.3946C60.4856 70.9918 63.8459 64.739 66.4831 55.6364C67.1637 53.5096 67.6315 52.2336 67.8868 51.8082C68.142 51.3829 68.6949 51.1702 69.5456 51.1702H70.0561C71.8426 51.1702 72.7358 51.6381 72.7358 52.5739C65.8451 75.2028 62.1445 86.6448 61.634 86.9001C61.3788 87.0702 51.1277 87.1553 30.8808 87.1553H8.42204C2.80735 87.1553 0 86.815 0 86.1344Z" fill="white"/>
<path d="M96.354 52.1659C96.354 50.7224 96.9253 49.4594 98.0681 48.3768C99.2109 47.2941 100.534 46.7228 102.038 46.6626C103.12 46.6626 104.022 47.0235 104.744 47.7452C105.466 48.467 105.857 49.3691 105.917 50.4518C105.917 51.8351 105.316 53.0982 104.113 54.2409C102.91 55.3837 101.587 55.9851 100.143 56.0453C99.2409 56.0453 98.3989 55.7445 97.617 55.1431C96.8351 54.5416 96.4141 53.5492 96.354 52.1659ZM81.6484 80.4041C81.6484 79.923 81.9191 78.9907 82.4604 77.6074C83.0017 76.224 83.7234 74.6903 84.6256 73.0062C85.5278 71.3222 86.851 69.7885 88.5952 68.4051C90.3394 67.0218 92.1438 66.3602 94.0083 66.4203C96.354 66.4203 98.3087 67.112 99.8725 68.4953C101.436 69.8787 102.248 71.7432 102.308 74.0889C102.308 75.1113 101.887 76.7954 101.045 79.1411C100.203 81.4867 99.0004 84.6444 97.4366 88.614C95.8728 92.5835 94.6097 95.9817 93.6474 98.8086C93.3467 100.132 93.1963 101.094 93.1963 101.696C93.1963 103.199 93.7076 103.951 94.73 103.951C95.2713 103.951 95.8427 103.861 96.4442 103.68C97.0456 103.5 97.7373 103.079 98.5192 102.417C99.3011 101.756 100.113 100.703 100.955 99.2597C101.797 97.8162 102.549 96.0419 103.211 93.9368C103.391 93.2151 103.541 92.794 103.662 92.6738C103.782 92.5535 104.293 92.4933 105.195 92.4933C106.398 92.4933 107 92.794 107 93.3955C107 93.8767 106.729 94.8089 106.188 96.1923C105.646 97.5756 104.895 99.1093 103.932 100.793C102.97 102.477 101.617 103.981 99.8725 105.304C98.1282 106.627 96.2637 107.289 94.2789 107.289C92.3543 107.289 90.58 106.658 88.9561 105.394C87.3322 104.131 86.4901 102.207 86.43 99.6205C86.43 98.5981 86.5804 97.6357 86.8811 96.7336C87.1818 95.8314 88.4749 92.4031 90.7604 86.4487C93.046 80.374 94.3692 76.7353 94.73 75.5324C95.0909 74.3294 95.3014 73.1566 95.3616 72.0139C95.3616 70.5704 94.8503 69.8486 93.8279 69.8486H93.6474C91.8431 69.8486 90.1891 70.841 88.6854 72.8258C87.1818 74.8106 86.039 77.3367 85.2572 80.4041C85.197 80.4643 85.1369 80.5545 85.0767 80.6748C85.0166 80.7951 84.9865 80.8853 84.9865 80.9454C84.9865 81.0056 84.9264 81.0657 84.8061 81.1259C84.6858 81.186 84.5956 81.2161 84.5354 81.2161C84.4753 81.2161 84.355 81.2161 84.1745 81.2161C83.9941 81.2161 83.7535 81.2161 83.4528 81.2161H82.1897C81.8289 80.8552 81.6484 80.5846 81.6484 80.4041Z" fill="white"/>
</svg>
