<svg width="121" height="120" viewBox="0 0 121 120" fill="none" xmlns="http://www.w3.org/2000/svg">
<path d="M35.6406 95.7755C41.1167 95.7755 46.1286 93.3623 50.6765 88.536C55.2244 83.7097 57.5448 78.0944 57.6376 71.6902C57.6376 65.8429 55.2244 61.8055 50.3981 59.578C40.5598 57.072 34.2484 55.3549 31.464 54.4268C28.6796 53.4987 26.7305 52.5705 25.6167 51.6424C20.0479 47.7442 17.2634 42.1289 17.2634 34.7966C17.2634 29.1349 18.7485 23.9837 21.7185 19.343C24.6886 14.7023 27.705 11.2218 30.7679 8.90144C33.4595 6.58109 36.708 4.7248 40.5134 3.33259C44.3188 1.94038 47.2888 1.19786 49.4235 1.10505H50.955H51.9295C60.8397 1.10505 67.2903 4.0751 71.2813 10.0152C71.3741 10.0152 71.9774 9.41192 73.0912 8.20533C74.2049 6.99875 75.4115 5.65295 76.7109 4.16792C78.0103 2.68289 78.9385 1.66193 79.4953 1.10505C79.5882 1.10505 79.7738 1.10505 80.0522 1.10505C80.3307 1.10505 80.5627 1.05864 80.7483 0.965828C81.9549 0.965828 82.5582 1.29068 82.5582 1.94038C82.5582 2.59007 81.2588 8.20533 78.66 18.7861C76.0612 29.367 74.5762 34.843 74.2049 35.2143C73.8337 35.5855 73.0912 35.7247 71.9774 35.6319C70.1211 35.6319 69.193 35.2143 69.193 34.3789C69.193 33.822 69.2394 33.358 69.3322 32.9867C69.3322 32.7083 69.3786 31.8265 69.4714 30.3415C69.5642 28.8565 69.657 27.6499 69.7499 26.7218C69.7499 23.5661 69.3322 20.8281 68.4969 18.5077C67.6615 16.1874 66.8262 14.4703 65.9909 13.3565C65.1556 12.2428 63.9954 11.0826 62.5103 9.87599C59.169 7.92689 55.3637 6.95234 51.0942 6.95234C45.8038 6.95234 40.8846 9.08707 36.3368 13.3565C31.7889 17.626 29.4685 22.5451 29.3757 28.114C29.3757 30.8984 30.0718 33.3116 31.464 35.3535C32.8562 37.3954 34.7589 38.834 37.1721 39.6693C37.5433 39.855 40.7918 40.7367 46.9176 42.3145C53.0433 43.8924 56.1526 44.7277 56.2454 44.8205C59.4011 45.8415 62.4639 48.069 65.434 51.5031C68.404 54.9373 69.8891 59.578 69.8891 65.4253C69.8891 67.8384 69.5178 70.4372 68.7753 73.2217C68.3112 75.2636 67.4759 77.5375 66.2693 80.0435C65.0627 82.5495 63.3921 85.2875 61.2574 88.2576C59.1226 91.2276 56.0598 94.012 52.0688 96.6108C48.0777 99.2096 43.7155 100.973 38.982 101.901C37.8682 102.087 36.2903 102.18 34.2484 102.18C25.0598 102.18 17.9131 99.6273 12.8084 94.5225L11.4161 92.9911L7.51795 97.3069C5.38322 99.8129 4.08382 101.252 3.61975 101.623C3.15568 101.994 2.55239 102.18 1.80988 102.18C0.603292 102.18 0 101.808 0 101.066C0 100.787 2.69161 89.8818 8.07483 68.3489C8.26046 67.792 9.1886 67.5136 10.8593 67.5136H12.6691C13.226 68.0705 13.5045 68.581 13.5045 69.045C13.5045 69.2307 13.4581 69.6483 13.3652 70.298C13.2724 70.9477 13.0868 71.9223 12.8084 73.2217C12.5299 74.5211 12.4371 76.0525 12.5299 77.816C12.7155 81.4357 13.5509 84.4986 15.0359 87.0046C16.5209 89.5106 18.5164 91.3668 21.0224 92.5734C23.5284 93.78 25.9416 94.6153 28.2619 95.0794C30.5823 95.5435 33.0418 95.7755 35.6406 95.7755Z" fill="white"/>
<path d="M99.0688 63.1078L97.7892 63.5999C96.8705 63.928 95.5581 64.2561 93.852 64.5842C92.1459 64.9123 90.2429 65.142 88.1431 65.2732H86.2729V60.7455H88.1431C91.2272 60.6142 94.0817 60.1221 96.7065 59.269C99.3313 58.416 101.169 57.6285 102.219 56.9067C103.268 56.1849 104.187 55.4631 104.975 54.7413C105.106 54.5444 105.499 54.446 106.156 54.446C106.746 54.446 107.304 54.6429 107.829 55.0366V84.467L107.927 113.996C108.387 114.455 108.78 114.75 109.109 114.882C109.437 115.013 110.224 115.144 111.471 115.275C112.718 115.407 114.752 115.472 117.574 115.472H120.133V120H119.05C117.672 119.803 112.455 119.705 103.4 119.705C94.4754 119.705 89.3243 119.803 87.9462 120H86.7651V115.472H89.3243C90.7679 115.472 92.0147 115.472 93.0646 115.472C94.1145 115.472 94.9347 115.439 95.5253 115.374C96.1159 115.308 96.6409 115.21 97.1002 115.079C97.5595 114.947 97.822 114.882 97.8876 114.882C97.9532 114.882 98.1501 114.718 98.4782 114.39C98.8063 114.061 99.0032 113.93 99.0688 113.996V63.1078Z" fill="white"/>
</svg>
