<svg width="123" height="120" viewBox="0 0 123 120" fill="none" xmlns="http://www.w3.org/2000/svg">
<path d="M35.6406 95.7755C41.1167 95.7755 46.1286 93.3623 50.6765 88.536C55.2244 83.7097 57.5448 78.0944 57.6376 71.6902C57.6376 65.8429 55.2244 61.8055 50.3981 59.578C40.5598 57.072 34.2484 55.3549 31.464 54.4268C28.6796 53.4987 26.7305 52.5705 25.6167 51.6424C20.0479 47.7442 17.2634 42.1289 17.2634 34.7966C17.2634 29.1349 18.7485 23.9837 21.7185 19.343C24.6886 14.7023 27.705 11.2218 30.7679 8.90144C33.4595 6.58109 36.708 4.7248 40.5134 3.33259C44.3188 1.94038 47.2888 1.19786 49.4235 1.10505H50.955H51.9295C60.8397 1.10505 67.2903 4.0751 71.2813 10.0152C71.3741 10.0152 71.9774 9.41192 73.0912 8.20533C74.2049 6.99875 75.4115 5.65295 76.7109 4.16792C78.0103 2.68289 78.9385 1.66193 79.4953 1.10505C79.5882 1.10505 79.7738 1.10505 80.0522 1.10505C80.3307 1.10505 80.5627 1.05864 80.7483 0.965828C81.9549 0.965828 82.5582 1.29068 82.5582 1.94038C82.5582 2.59007 81.2588 8.20533 78.66 18.7861C76.0612 29.367 74.5762 34.843 74.2049 35.2143C73.8337 35.5855 73.0912 35.7247 71.9774 35.6319C70.1211 35.6319 69.193 35.2143 69.193 34.3789C69.193 33.822 69.2394 33.358 69.3322 32.9867C69.3322 32.7083 69.3786 31.8265 69.4714 30.3415C69.5642 28.8565 69.657 27.6499 69.7499 26.7218C69.7499 23.5661 69.3322 20.8281 68.4969 18.5077C67.6615 16.1874 66.8262 14.4703 65.9909 13.3565C65.1556 12.2428 63.9954 11.0826 62.5103 9.87599C59.169 7.92689 55.3637 6.95234 51.0942 6.95234C45.8038 6.95234 40.8846 9.08707 36.3368 13.3565C31.7889 17.626 29.4685 22.5451 29.3757 28.114C29.3757 30.8984 30.0718 33.3116 31.464 35.3535C32.8562 37.3954 34.7589 38.834 37.1721 39.6693C37.5433 39.855 40.7918 40.7367 46.9176 42.3145C53.0433 43.8924 56.1526 44.7277 56.2454 44.8205C59.4011 45.8415 62.4639 48.069 65.434 51.5031C68.404 54.9373 69.8891 59.578 69.8891 65.4253C69.8891 67.8384 69.5178 70.4372 68.7753 73.2217C68.3112 75.2636 67.4759 77.5375 66.2693 80.0435C65.0627 82.5495 63.3921 85.2875 61.2574 88.2576C59.1226 91.2276 56.0598 94.012 52.0688 96.6108C48.0777 99.2096 43.7155 100.973 38.982 101.901C37.8682 102.087 36.2903 102.18 34.2484 102.18C25.0598 102.18 17.9131 99.6273 12.8084 94.5225L11.4161 92.9911L7.51795 97.3069C5.38322 99.8129 4.08382 101.252 3.61975 101.623C3.15568 101.994 2.55239 102.18 1.80988 102.18C0.603292 102.18 0 101.808 0 101.066C0 100.787 2.69161 89.8818 8.07483 68.3489C8.26046 67.792 9.1886 67.5136 10.8593 67.5136H12.6691C13.226 68.0705 13.5045 68.581 13.5045 69.045C13.5045 69.2307 13.4581 69.6483 13.3652 70.298C13.2724 70.9477 13.0868 71.9223 12.8084 73.2217C12.5299 74.5211 12.4371 76.0525 12.5299 77.816C12.7155 81.4357 13.5509 84.4986 15.0359 87.0046C16.5209 89.5106 18.5164 91.3668 21.0224 92.5734C23.5284 93.78 25.9416 94.6153 28.2619 95.0794C30.5823 95.5435 33.0418 95.7755 35.6406 95.7755Z" fill="white"/>
<path d="M88.8318 77.7738C87.06 77.7738 85.6492 77.1832 84.5993 76.002C83.5494 74.8209 83.0244 73.3773 83.0244 71.6711C83.0244 67.0122 84.7633 62.9765 88.2412 59.5643C91.719 56.1521 96.0499 54.446 101.234 54.446C107.205 54.446 112.192 56.2833 116.195 59.958C120.198 63.6327 122.232 68.3902 122.298 74.2303C122.298 77.052 121.642 79.7424 120.329 82.3015C119.017 84.8607 117.442 87.0918 115.605 88.9947C113.767 90.8977 111.142 93.3256 107.73 96.2785C105.368 98.3127 102.087 101.331 97.8873 105.334L92.0799 110.846L99.5606 110.944C109.863 110.944 115.342 110.78 115.998 110.452C116.458 110.321 117.245 107.401 118.361 101.692V101.397H122.298V101.692C122.232 101.889 121.806 104.875 121.018 110.649C120.231 116.424 119.739 119.442 119.542 119.705V120H83.0244V118.13V116.949C83.0244 116.489 83.2213 115.997 83.615 115.472C84.0087 114.947 84.993 113.799 86.5679 112.027C88.4708 109.927 90.1113 108.09 91.4893 106.515C92.0799 105.859 93.1955 104.645 94.8359 102.873C96.4764 101.102 97.592 99.8876 98.1825 99.2314C98.7731 98.5752 99.7246 97.4925 101.037 95.9832C102.349 94.474 103.268 93.3584 103.793 92.6366C104.318 91.9148 105.073 90.9305 106.057 89.6837C107.041 88.437 107.73 87.387 108.124 86.534C108.518 85.6809 109.01 84.7295 109.6 83.6795C110.191 82.6296 110.617 81.5797 110.88 80.5298C111.142 79.4799 111.372 78.4956 111.569 77.5769C111.766 76.6582 111.864 75.5755 111.864 74.3287C111.864 70.1947 110.749 66.6184 108.518 63.5999C106.287 60.5814 103.104 59.0722 98.97 59.0722C96.8045 59.0722 94.9016 59.6299 93.2611 60.7455C91.6206 61.861 90.4722 62.9437 89.816 63.9937C89.1598 65.0436 88.8318 65.667 88.8318 65.8638C88.8318 65.9294 88.9958 65.9622 89.3239 65.9622C90.5051 65.9622 91.719 66.4216 92.9658 67.3403C94.2126 68.2589 94.8359 69.7682 94.8359 71.868C94.8359 73.5085 94.311 74.8865 93.2611 76.002C92.2112 77.1176 90.7347 77.7082 88.8318 77.7738Z" fill="white"/>
</svg>
