<svg width="376" height="193" viewBox="0 0 376 193" fill="none" xmlns="http://www.w3.org/2000/svg">
<path d="M1.61387 74.3477H1.45248C0.806934 74.3477 0.322774 74.0004 0 73.3058V37.1367L0.0806934 0.967743C0.61865 0.322754 1.12971 0.000259399 1.61387 0.000259399C2.31321 0.000259399 2.85117 0.372368 3.22774 1.11659V73.3058C2.79737 74.0004 2.31321 74.3477 1.77526 74.3477H1.61387Z" fill="white"/>
<path d="M20.5771 12.2801C23.5896 8.26128 27.705 6.25189 32.9232 6.25189C35.5054 6.25189 38.0875 6.89688 40.6697 8.18686C43.2519 9.47684 45.3499 11.7591 46.9638 15.0337C48.9543 19.1517 49.9495 24.8077 49.9495 32.0018C49.9495 39.6921 48.7929 45.5714 46.4797 49.6398C45.4037 51.7236 43.9244 53.3857 42.0415 54.6261C40.1587 55.8664 38.5179 56.6355 37.1192 56.9331C35.7205 57.2308 34.3487 57.4045 33.0039 57.4541C31.6052 57.4541 30.2065 57.3053 28.8078 57.0076C27.4091 56.7099 25.7683 55.9161 23.8855 54.6261C22.0026 53.3361 20.5233 51.674 19.4474 49.6398C17.1341 45.5714 15.9775 39.6921 15.9775 32.0018C15.9775 23.3689 17.5107 16.795 20.5771 12.2801ZM38.7331 11.387C37.1192 9.79933 35.2095 9.0055 33.0039 9.0055C30.7444 9.0055 28.8078 9.79933 27.1939 11.387C25.849 12.677 24.9614 14.4631 24.531 16.7454C24.1007 19.0276 23.8855 23.7906 23.8855 31.0344C23.8855 38.8735 24.1007 44.0334 24.531 46.5141C24.9614 48.9948 25.9297 50.9546 27.436 52.3934C28.9423 53.8819 30.7982 54.6261 33.0039 54.6261C35.1557 54.6261 36.9847 53.8819 38.491 52.3934C40.0511 50.905 41.0194 48.8212 41.396 46.142C41.7725 43.4628 41.9877 38.4269 42.0415 31.0344C42.0415 23.8402 41.8263 19.1021 41.396 16.8198C40.9656 14.5375 40.078 12.7266 38.7331 11.387Z" fill="white"/>
<path d="M57.6152 1.33966C57.669 0.992355 57.8304 0.694672 58.0994 0.446594C58.3684 0.198524 58.7449 0.0496826 59.2291 6.86646e-05C59.7671 6.86646e-05 60.2243 0.248138 60.6009 0.744286C60.7623 1.09158 63.2907 7.19418 68.1861 19.0521C73.0815 30.9099 75.5561 36.9629 75.6099 37.211C75.6637 37.459 73.216 43.512 68.2668 55.3699C63.3176 67.2278 60.7623 73.3304 60.6009 73.6777C60.2243 74.1738 59.7671 74.4219 59.2291 74.4219C58.7987 74.4219 58.4491 74.2978 58.1801 74.0498C57.9111 73.8017 57.7228 73.4792 57.6152 73.0823C57.6152 72.8342 60.036 66.806 64.8776 54.9978C69.773 43.2391 72.2207 37.3102 72.2207 37.211C72.2207 37.1117 69.773 31.1828 64.8776 19.4242C60.036 7.6159 57.6152 1.58773 57.6152 1.33966Z" fill="white"/>
<path d="M111.502 38.1782C111.502 38.1782 111.502 37.8557 111.502 37.2107C111.502 36.5657 111.879 36.0695 112.632 35.7222H174.362C168.122 31.4058 164.275 25.8737 162.823 19.1262C162.823 19.0766 162.823 19.0021 162.823 18.9029C162.823 18.8037 162.796 18.7293 162.742 18.6796C162.742 18.0843 163.2 17.7866 164.114 17.7866H164.356C164.84 17.7866 165.163 17.8114 165.324 17.861C165.486 17.9106 165.647 18.0098 165.809 18.1587C165.97 18.3075 166.051 18.5308 166.051 18.8285C166.051 19.1262 166.131 19.5231 166.293 20.0192C166.454 20.5154 166.669 21.1356 166.938 21.8798C168.122 25.2039 170.085 28.1808 172.829 30.8104C175.573 33.44 178.773 35.3005 182.431 36.392C182.916 36.5409 183.158 36.8138 183.158 37.2107C183.158 37.5084 183.023 37.7316 182.754 37.8805C182.485 38.0293 181.84 38.2774 180.818 38.6247C179.795 38.972 178.773 39.4433 177.751 40.0387C175.546 41.3287 173.636 42.8171 172.022 44.504C170.408 46.1909 169.198 47.853 168.391 49.4903C167.584 51.1276 167.019 52.3679 166.696 53.2114C166.373 54.0548 166.158 54.8238 166.051 55.5184C165.943 56.0146 165.809 56.3123 165.647 56.4115C165.486 56.5107 165.055 56.5852 164.356 56.6348C163.28 56.6348 162.742 56.3619 162.742 55.8161C162.742 55.4688 162.877 54.8486 163.146 53.9556C164.867 47.7041 168.606 42.6187 174.362 38.6991H112.632C111.879 38.3518 111.502 37.8557 111.502 37.2107V38.1782Z" fill="white"/>
<path d="M221.31 74.3477H221.148C220.503 74.3477 220.019 74.0004 219.696 73.3058V37.1367L219.776 0.967743C220.314 0.322754 220.826 0.000259399 221.31 0.000259399C222.009 0.000259399 222.547 0.372368 222.924 1.11659V73.3058C222.493 74.0004 222.009 74.3477 221.471 74.3477H221.31Z" fill="white"/>
<path d="M240.273 12.2801C243.285 8.26128 247.401 6.25189 252.619 6.25189C255.201 6.25189 257.783 6.89688 260.366 8.18686C262.948 9.47684 265.046 11.7591 266.66 15.0337C268.65 19.1517 269.645 24.8077 269.645 32.0018C269.645 39.6921 268.489 45.5714 266.175 49.6398C265.1 51.7236 263.62 53.3857 261.737 54.6261C259.854 55.8664 258.214 56.6355 256.815 56.9331C255.416 57.2308 254.045 57.4045 252.7 57.4541C251.301 57.4541 249.902 57.3053 248.504 57.0076C247.105 56.7099 245.464 55.9161 243.581 54.6261C241.698 53.3361 240.219 51.674 239.143 49.6398C236.83 45.5714 235.673 39.6921 235.673 32.0018C235.673 23.3689 237.207 16.795 240.273 12.2801ZM258.429 11.387C256.815 9.79933 254.905 9.0055 252.7 9.0055C250.44 9.0055 248.504 9.79933 246.89 11.387C245.545 12.677 244.657 14.4631 244.227 16.7454C243.796 19.0276 243.581 23.7906 243.581 31.0344C243.581 38.8735 243.796 44.0334 244.227 46.5141C244.657 48.9948 245.626 50.9546 247.132 52.3934C248.638 53.8819 250.494 54.6261 252.7 54.6261C254.851 54.6261 256.681 53.8819 258.187 52.3934C259.747 50.905 260.715 48.8212 261.092 46.142C261.468 43.4628 261.684 38.4269 261.737 31.0344C261.737 23.8402 261.522 19.1021 261.092 16.8198C260.661 14.5375 259.774 12.7266 258.429 11.387Z" fill="white"/>
<path d="M280.62 12.2801C283.632 8.26128 287.747 6.25189 292.966 6.25189C295.548 6.25189 298.13 6.89688 300.712 8.18686C303.294 9.47684 305.392 11.7591 307.006 15.0337C308.997 19.1517 309.992 24.8077 309.992 32.0018C309.992 39.6921 308.835 45.5714 306.522 49.6398C305.446 51.7236 303.967 53.3857 302.084 54.6261C300.201 55.8664 298.56 56.6355 297.162 56.9331C295.763 57.2308 294.391 57.4045 293.046 57.4541C291.648 57.4541 290.249 57.3053 288.85 57.0076C287.452 56.7099 285.811 55.9161 283.928 54.6261C282.045 53.3361 280.566 51.674 279.49 49.6398C277.177 45.5714 276.02 39.6921 276.02 32.0018C276.02 23.3689 277.553 16.795 280.62 12.2801ZM298.776 11.387C297.162 9.79933 295.252 9.0055 293.046 9.0055C290.787 9.0055 288.85 9.79933 287.236 11.387C285.892 12.677 285.004 14.4631 284.574 16.7454C284.143 19.0276 283.928 23.7906 283.928 31.0344C283.928 38.8735 284.143 44.0334 284.574 46.5141C285.004 48.9948 285.972 50.9546 287.478 52.3934C288.985 53.8819 290.841 54.6261 293.046 54.6261C295.198 54.6261 297.027 53.8819 298.533 52.3934C300.094 50.905 301.062 48.8212 301.438 46.142C301.815 43.4628 302.03 38.4269 302.084 31.0344C302.084 23.8402 301.869 19.1021 301.438 16.8198C301.008 14.5375 300.12 12.7266 298.776 11.387Z" fill="white"/>
<path d="M320.966 12.2801C323.979 8.26128 328.094 6.25189 333.312 6.25189C335.895 6.25189 338.477 6.89688 341.059 8.18686C343.641 9.47684 345.739 11.7591 347.353 15.0337C349.343 19.1517 350.339 24.8077 350.339 32.0018C350.339 39.6921 349.182 45.5714 346.869 49.6398C345.793 51.7236 344.314 53.3857 342.431 54.6261C340.548 55.8664 338.907 56.6355 337.508 56.9331C336.11 57.2308 334.738 57.4045 333.393 57.4541C331.994 57.4541 330.596 57.3053 329.197 57.0076C327.798 56.7099 326.158 55.9161 324.275 54.6261C322.392 53.3361 320.912 51.674 319.837 49.6398C317.523 45.5714 316.367 39.6921 316.367 32.0018C316.367 23.3689 317.9 16.795 320.966 12.2801ZM339.122 11.387C337.508 9.79933 335.599 9.0055 333.393 9.0055C331.134 9.0055 329.197 9.79933 327.583 11.387C326.238 12.677 325.351 14.4631 324.92 16.7454C324.49 19.0276 324.275 23.7906 324.275 31.0344C324.275 38.8735 324.49 44.0334 324.92 46.5141C325.351 48.9948 326.319 50.9546 327.825 52.3934C329.331 53.8819 331.187 54.6261 333.393 54.6261C335.545 54.6261 337.374 53.8819 338.88 52.3934C340.44 50.905 341.409 48.8212 341.785 46.142C342.162 43.4628 342.377 38.4269 342.431 31.0344C342.431 23.8402 342.215 19.1021 341.785 16.8198C341.355 14.5375 340.467 12.7266 339.122 11.387Z" fill="white"/>
<path d="M358.005 1.33966C358.059 0.992355 358.22 0.694672 358.489 0.446594C358.758 0.198524 359.135 0.0496826 359.619 6.86646e-05C360.157 6.86646e-05 360.614 0.248138 360.991 0.744286C361.152 1.09158 363.68 7.19418 368.576 19.0521C373.471 30.9099 375.946 36.9629 376 37.211C376.053 37.459 373.606 43.512 368.656 55.3699C363.707 67.2278 361.152 73.3304 360.991 73.6777C360.614 74.1738 360.157 74.4219 359.619 74.4219C359.188 74.4219 358.839 74.2978 358.57 74.0498C358.301 73.8017 358.112 73.4792 358.005 73.0823C358.005 72.8342 360.426 66.806 365.267 54.9978C370.163 43.2391 372.61 37.3102 372.61 37.211C372.61 37.1117 370.163 31.1828 365.267 19.4242C360.426 7.6159 358.005 1.58773 358.005 1.33966Z" fill="white"/>
<path d="M1.61387 192.347H1.45248C0.806934 192.347 0.322774 191.999 0 191.305V155.136L0.0806934 118.967C0.61865 118.322 1.12971 117.999 1.61387 117.999C2.31321 117.999 2.85117 118.371 3.22774 119.116V191.305C2.79737 191.999 2.31321 192.347 1.77526 192.347H1.61387Z" fill="white"/>
<path d="M30.018 130.801L28.969 131.173C28.2158 131.421 27.1399 131.669 25.7412 131.917C24.3425 132.165 22.7825 132.339 21.061 132.438H19.5278V129.014H21.061C23.5894 128.915 25.9295 128.543 28.0813 127.898C30.2332 127.253 31.7394 126.658 32.6002 126.112C33.4609 125.566 34.214 125.021 34.8596 124.475C34.9672 124.326 35.29 124.251 35.8279 124.251C36.3121 124.251 36.7693 124.4 37.1997 124.698V146.95L37.2804 169.277C37.657 169.624 37.9797 169.847 38.2487 169.946C38.5177 170.046 39.1632 170.145 40.1854 170.244C41.2075 170.343 42.8751 170.393 45.1883 170.393H47.2864V173.816H46.3987C45.269 173.668 40.9923 173.593 33.5685 173.593C26.2523 173.593 22.0293 173.668 20.8996 173.816H19.9313V170.393H22.0293C23.2128 170.393 24.2349 170.393 25.0957 170.393C25.9564 170.393 26.6289 170.368 27.113 170.319C27.5972 170.269 28.0275 170.195 28.4041 170.095C28.7807 169.996 28.9959 169.946 29.0497 169.946C29.1035 169.946 29.2648 169.822 29.5338 169.574C29.8028 169.326 29.9642 169.227 30.018 169.277V130.801Z" fill="white"/>
<path d="M57.6152 119.34C57.669 118.992 57.8304 118.695 58.0994 118.447C58.3684 118.199 58.7449 118.05 59.2291 118C59.7671 118 60.2243 118.248 60.6009 118.744C60.7623 119.092 63.2907 125.194 68.1861 137.052C73.0815 148.91 75.5561 154.963 75.6099 155.211C75.6637 155.459 73.216 161.512 68.2668 173.37C63.3176 185.228 60.7623 191.33 60.6009 191.678C60.2243 192.174 59.7671 192.422 59.2291 192.422C58.7987 192.422 58.4491 192.298 58.1801 192.05C57.9111 191.802 57.7228 191.479 57.6152 191.082C57.6152 190.834 60.036 184.806 64.8776 172.998C69.773 161.239 72.2207 155.31 72.2207 155.211C72.2207 155.112 69.773 149.183 64.8776 137.424C60.036 125.616 57.6152 119.588 57.6152 119.34Z" fill="white"/>
<path d="M111.502 156.178C111.502 156.178 111.502 155.856 111.502 155.211C111.502 154.566 111.879 154.07 112.632 153.722H174.362C168.122 149.406 164.275 143.874 162.823 137.126C162.823 137.077 162.823 137.002 162.823 136.903C162.823 136.804 162.796 136.729 162.742 136.68C162.742 136.084 163.2 135.787 164.114 135.787H164.356C164.84 135.787 165.163 135.811 165.324 135.861C165.486 135.911 165.647 136.01 165.809 136.159C165.97 136.308 166.051 136.531 166.051 136.828C166.051 137.126 166.131 137.523 166.293 138.019C166.454 138.515 166.669 139.136 166.938 139.88C168.122 143.204 170.085 146.181 172.829 148.81C175.573 151.44 178.773 153.301 182.431 154.392C182.916 154.541 183.158 154.814 183.158 155.211C183.158 155.508 183.023 155.732 182.754 155.88C182.485 156.029 181.84 156.277 180.818 156.625C179.795 156.972 178.773 157.443 177.751 158.039C175.546 159.329 173.636 160.817 172.022 162.504C170.408 164.191 169.198 165.853 168.391 167.49C167.584 169.128 167.019 170.368 166.696 171.211C166.373 172.055 166.158 172.824 166.051 173.518C165.943 174.015 165.809 174.312 165.647 174.412C165.486 174.511 165.055 174.585 164.356 174.635C163.28 174.635 162.742 174.362 162.742 173.816C162.742 173.469 162.877 172.849 163.146 171.956C164.867 165.704 168.606 160.619 174.362 156.699H112.632C111.879 156.352 111.502 155.856 111.502 155.211V156.178Z" fill="white"/>
<path d="M221.31 192.347H221.149C220.503 192.347 220.019 191.999 219.696 191.305V155.136L219.777 118.967C220.315 118.322 220.826 117.999 221.31 117.999C222.01 117.999 222.547 118.371 222.924 119.116V191.305C222.494 191.999 222.01 192.347 221.472 192.347H221.31Z" fill="white"/>
<path d="M249.714 130.801L248.665 131.173C247.912 131.421 246.836 131.669 245.438 131.917C244.039 132.165 242.479 132.339 240.757 132.438H239.224V129.014H240.757C243.286 128.915 245.626 128.543 247.778 127.898C249.929 127.253 251.436 126.658 252.296 126.112C253.157 125.566 253.91 125.021 254.556 124.475C254.663 124.326 254.986 124.251 255.524 124.251C256.008 124.251 256.466 124.4 256.896 124.698V146.95L256.977 169.277C257.353 169.624 257.676 169.847 257.945 169.946C258.214 170.046 258.86 170.145 259.882 170.244C260.904 170.343 262.571 170.393 264.885 170.393H266.983V173.816H266.095C264.965 173.668 260.689 173.593 253.265 173.593C245.949 173.593 241.726 173.668 240.596 173.816H239.628V170.393H241.726C242.909 170.393 243.931 170.393 244.792 170.393C245.653 170.393 246.325 170.368 246.809 170.319C247.293 170.269 247.724 170.195 248.1 170.095C248.477 169.996 248.692 169.946 248.746 169.946C248.8 169.946 248.961 169.822 249.23 169.574C249.499 169.326 249.66 169.227 249.714 169.277V130.801Z" fill="white"/>
<path d="M290.061 130.801L289.012 131.173C288.259 131.421 287.183 131.669 285.784 131.917C284.386 132.165 282.825 132.339 281.104 132.438H279.571V129.014H281.104C283.632 128.915 285.972 128.543 288.124 127.898C290.276 127.253 291.782 126.658 292.643 126.112C293.504 125.566 294.257 125.021 294.903 124.475C295.01 124.326 295.333 124.251 295.871 124.251C296.355 124.251 296.812 124.4 297.243 124.698V146.95L297.323 169.277C297.7 169.624 298.023 169.847 298.292 169.946C298.561 170.046 299.206 170.145 300.228 170.244C301.25 170.343 302.918 170.393 305.231 170.393H307.329V173.816H306.442C305.312 173.668 301.035 173.593 293.611 173.593C286.295 173.593 282.072 173.668 280.943 173.816H279.974V170.393H282.072C283.256 170.393 284.278 170.393 285.139 170.393C285.999 170.393 286.672 170.368 287.156 170.319C287.64 170.269 288.071 170.195 288.447 170.095C288.824 169.996 289.039 169.946 289.093 169.946C289.146 169.946 289.308 169.822 289.577 169.574C289.846 169.326 290.007 169.227 290.061 169.277V130.801Z" fill="white"/>
<path d="M330.407 130.801L329.358 131.173C328.605 131.421 327.529 131.669 326.13 131.917C324.732 132.165 323.172 132.339 321.45 132.438H319.917V129.014H321.45C323.979 128.915 326.319 128.543 328.47 127.898C330.622 127.253 332.129 126.658 332.989 126.112C333.85 125.566 334.603 125.021 335.249 124.475C335.356 124.326 335.679 124.251 336.217 124.251C336.701 124.251 337.158 124.4 337.589 124.698V146.95L337.67 169.277C338.046 169.624 338.369 169.847 338.638 169.946C338.907 170.046 339.552 170.145 340.575 170.244C341.597 170.343 343.264 170.393 345.578 170.393H347.676V173.816H346.788C345.658 173.668 341.381 173.593 333.958 173.593C326.641 173.593 322.418 173.668 321.289 173.816H320.32V170.393H322.418C323.602 170.393 324.624 170.393 325.485 170.393C326.346 170.393 327.018 170.368 327.502 170.319C327.986 170.269 328.417 170.195 328.793 170.095C329.17 169.996 329.385 169.946 329.439 169.946C329.493 169.946 329.654 169.822 329.923 169.574C330.192 169.326 330.353 169.227 330.407 169.277V130.801Z" fill="white"/>
<path d="M358.004 119.34C358.058 118.992 358.22 118.695 358.489 118.447C358.758 118.199 359.134 118.05 359.618 118C360.156 118 360.613 118.248 360.99 118.744C361.151 119.092 363.68 125.194 368.575 137.052C373.471 148.91 375.945 154.963 375.999 155.211C376.053 155.459 373.605 161.512 368.656 173.37C363.707 185.228 361.151 191.33 360.99 191.678C360.613 192.174 360.156 192.422 359.618 192.422C359.188 192.422 358.838 192.298 358.569 192.05C358.3 191.802 358.112 191.479 358.004 191.082C358.004 190.834 360.425 184.806 365.267 172.998C370.162 161.239 372.61 155.31 372.61 155.211C372.61 155.112 370.162 149.183 365.267 137.424C360.425 125.616 358.004 119.588 358.004 119.34Z" fill="white"/>
</svg>
