<svg width="445" height="188" viewBox="0 0 445 188" fill="none" xmlns="http://www.w3.org/2000/svg">
<path d="M60.3725 172.91C63.6563 172.91 66.6618 171.463 69.3891 168.568C72.1163 165.674 73.5077 162.307 73.5634 158.466C73.5634 154.96 72.1163 152.539 69.2221 151.203C63.3224 149.7 59.5377 148.671 57.8679 148.114C56.1982 147.558 55.0294 147.001 54.3615 146.444C51.022 144.107 49.3523 140.74 49.3523 136.343C49.3523 132.947 50.2428 129.858 52.0239 127.076C53.8049 124.293 55.6138 122.206 57.4505 120.814C59.0646 119.423 61.0126 118.309 63.2946 117.475C65.5765 116.64 67.3576 116.195 68.6377 116.139H69.556H70.1404C75.4836 116.139 79.3518 117.92 81.7451 121.482C81.8007 121.482 82.1625 121.12 82.8304 120.397C83.4983 119.673 84.2218 118.866 85.001 117.976C85.7802 117.085 86.3368 116.473 86.6708 116.139C86.7264 116.139 86.8377 116.139 87.0047 116.139C87.1717 116.139 87.3108 116.111 87.4221 116.055C88.1457 116.055 88.5075 116.25 88.5075 116.64C88.5075 117.029 87.7282 120.397 86.1698 126.742C84.6114 133.087 83.7209 136.37 83.4983 136.593C83.2756 136.816 82.8304 136.899 82.1625 136.843C81.0493 136.843 80.4928 136.593 80.4928 136.092C80.4928 135.758 80.5206 135.48 80.5762 135.257C80.5762 135.09 80.6041 134.562 80.6597 133.671C80.7154 132.78 80.771 132.057 80.8267 131.5C80.8267 129.608 80.5762 127.966 80.0753 126.575C79.5744 125.183 79.0735 124.154 78.5726 123.486C78.0716 122.818 77.3759 122.122 76.4854 121.398C74.4817 120.23 72.1998 119.645 69.6395 119.645C66.467 119.645 63.5172 120.925 60.79 123.486C58.0627 126.046 56.6713 128.996 56.6156 132.335C56.6156 134.005 57.0331 135.452 57.8679 136.677C58.7028 137.901 59.8438 138.764 61.2909 139.265C61.5135 139.376 63.4615 139.905 67.1349 140.851C70.8083 141.797 72.6729 142.298 72.7285 142.354C74.6209 142.966 76.4576 144.302 78.2386 146.361C80.0197 148.42 80.9102 151.203 80.9102 154.71C80.9102 156.157 80.6876 157.715 80.2423 159.385C79.964 160.609 79.4631 161.973 78.7395 163.476C78.016 164.978 77.0142 166.62 75.734 168.401C74.4539 170.182 72.6172 171.852 70.2239 173.411C67.8306 174.969 65.2147 176.026 62.3762 176.583C61.7083 176.694 60.7621 176.75 59.5377 176.75C54.0276 176.75 49.7419 175.219 46.6808 172.158L45.8459 171.24L43.5083 173.828C42.2281 175.331 41.4489 176.193 41.1706 176.416C40.8924 176.639 40.5306 176.75 40.0853 176.75C39.3618 176.75 39 176.527 39 176.082C39 175.915 40.6141 169.375 43.8422 156.463C43.9535 156.129 44.5101 155.962 45.5119 155.962H46.5973C46.9312 156.296 47.0982 156.602 47.0982 156.88C47.0982 156.992 47.0704 157.242 47.0147 157.632C46.959 158.021 46.8477 158.606 46.6808 159.385C46.5138 160.164 46.4581 161.082 46.5138 162.14C46.6251 164.311 47.126 166.147 48.0165 167.65C48.9071 169.153 50.1037 170.266 51.6065 170.989C53.1092 171.713 54.5563 172.214 55.9477 172.492C57.3392 172.77 58.8141 172.91 60.3725 172.91Z" fill="white"/>
<path d="M92.2696 162.115C91.2071 162.115 90.3611 161.761 89.7315 161.052C89.1019 160.344 88.7871 159.478 88.7871 158.455C88.7871 155.661 89.8299 153.241 91.9154 151.195C94.001 149.149 96.5981 148.126 99.7067 148.126C103.288 148.126 106.278 149.228 108.678 151.431C111.079 153.635 112.299 156.488 112.338 159.99C112.338 161.682 111.945 163.295 111.158 164.83C110.371 166.365 109.426 167.703 108.324 168.844C107.223 169.985 105.649 171.441 103.602 173.212C102.186 174.431 100.218 176.241 97.6999 178.642L94.2174 181.947L98.7033 182.006C104.881 182.006 108.167 181.908 108.56 181.711C108.836 181.632 109.308 179.881 109.977 176.458V176.281H112.338V176.458C112.299 176.576 112.043 178.366 111.571 181.829C111.099 185.292 110.803 187.102 110.685 187.259V187.437H88.7871V186.315V185.607C88.7871 185.331 88.9052 185.036 89.1413 184.721C89.3774 184.407 89.9676 183.718 90.912 182.656C92.0532 181.396 93.0369 180.295 93.8633 179.35C94.2174 178.957 94.8863 178.229 95.8701 177.166C96.8538 176.104 97.5228 175.376 97.8769 174.982C98.2311 174.589 98.8017 173.939 99.5887 173.034C100.376 172.129 100.927 171.46 101.241 171.028C101.556 170.595 102.009 170.005 102.599 169.257C103.189 168.509 103.602 167.88 103.838 167.368C104.075 166.857 104.37 166.286 104.724 165.656C105.078 165.027 105.334 164.397 105.491 163.768C105.649 163.138 105.786 162.548 105.904 161.997C106.022 161.446 106.081 160.797 106.081 160.049C106.081 157.57 105.412 155.425 104.075 153.615C102.737 151.805 100.828 150.9 98.3491 150.9C97.0506 150.9 95.9094 151.235 94.9257 151.904C93.942 152.572 93.2533 153.222 92.8598 153.851C92.4663 154.481 92.2696 154.855 92.2696 154.973C92.2696 155.012 92.368 155.032 92.5647 155.032C93.273 155.032 94.001 155.307 94.7486 155.858C95.4963 156.409 95.8701 157.314 95.8701 158.573C95.8701 159.557 95.5553 160.383 94.9257 161.052C94.2961 161.721 93.4107 162.075 92.2696 162.115Z" fill="white"/>
<path d="M147.39 145.943C147.39 145.22 147.78 144.663 148.559 144.274H201.74C202.575 144.719 202.992 145.276 202.992 145.943C202.992 146.556 202.602 147.084 201.823 147.53L175.275 147.613H148.726C147.835 147.335 147.39 146.778 147.39 145.943ZM147.39 162.14C147.39 161.305 147.835 160.748 148.726 160.47H201.823C202.602 161.027 202.992 161.583 202.992 162.14C202.992 162.863 202.575 163.42 201.74 163.81H148.559C147.78 163.42 147.39 162.863 147.39 162.14Z" fill="white"/>
<path d="M235.703 174.245C235.703 173.41 235.87 172.659 236.204 171.991C236.204 171.935 243.578 163.615 258.327 147.029C273.077 130.443 280.507 122.066 280.618 121.899L279.783 121.732C279.171 121.732 277.112 121.732 273.605 121.732H272.604H270.6C268.708 121.732 267.149 121.788 265.925 121.899C264.7 122.011 263.17 122.317 261.333 122.818C259.496 123.318 257.994 124.042 256.825 124.988C255.656 125.934 254.404 127.326 253.068 129.163C251.732 130.999 250.675 133.198 249.895 135.758C249.84 135.925 249.784 136.092 249.728 136.259C249.673 136.426 249.617 136.565 249.561 136.676C249.506 136.788 249.478 136.927 249.478 137.094C249.478 137.261 249.45 137.344 249.394 137.344L249.311 137.511C249.144 137.789 248.615 137.929 247.725 137.929C246.779 137.929 246.222 137.65 246.055 137.094L248.727 128.077C249.506 125.573 250.257 123.068 250.981 120.563C251.426 119.005 251.76 118.17 251.982 118.059C252.149 117.948 258.661 117.892 271.518 117.892H290.804C291.082 118.17 291.221 118.393 291.221 118.56C291.221 118.671 291.054 119.395 290.72 120.73C261.333 153.847 246.612 170.46 246.556 170.572L246.305 170.822H253.736C259.023 170.767 261.89 170.711 262.335 170.655C266.509 170.154 269.932 168.791 272.604 166.564C275.275 164.338 277.474 160.247 279.199 154.292C279.644 152.901 279.95 152.066 280.117 151.787C280.284 151.509 280.646 151.37 281.203 151.37H281.537C282.705 151.37 283.29 151.676 283.29 152.288C278.782 167.093 276.361 174.579 276.027 174.746C275.86 174.857 269.153 174.913 255.906 174.913H241.213C237.539 174.913 235.703 174.69 235.703 174.245Z" fill="white"/>
<path d="M300.454 153.32L299.686 153.615C299.135 153.812 298.348 154.009 297.325 154.206C296.302 154.402 295.161 154.54 293.902 154.619H292.78V151.904H293.902C295.751 151.825 297.463 151.53 299.037 151.018C300.611 150.507 301.713 150.034 302.342 149.602C302.972 149.169 303.523 148.736 303.995 148.303C304.074 148.185 304.31 148.126 304.703 148.126C305.057 148.126 305.392 148.244 305.707 148.48V166.129L305.766 183.836C306.041 184.111 306.277 184.289 306.474 184.367C306.671 184.446 307.143 184.525 307.891 184.603C308.638 184.682 309.858 184.721 311.55 184.721H313.085V187.437H312.436C311.609 187.318 308.481 187.259 303.051 187.259C297.699 187.259 294.61 187.318 293.784 187.437H293.075V184.721H294.61C295.476 184.721 296.223 184.721 296.853 184.721C297.483 184.721 297.974 184.702 298.329 184.662C298.683 184.623 298.998 184.564 299.273 184.485C299.548 184.407 299.706 184.367 299.745 184.367C299.785 184.367 299.903 184.269 300.099 184.072C300.296 183.875 300.414 183.797 300.454 183.836V153.32Z" fill="white"/>
<path d="M326.419 174.245C326.419 173.41 326.586 172.659 326.92 171.991C326.92 171.935 334.294 163.615 349.044 147.029C363.793 130.443 371.223 122.066 371.335 121.899L370.5 121.732C369.888 121.732 367.828 121.732 364.322 121.732H363.32H361.316C359.424 121.732 357.865 121.788 356.641 121.899C355.417 122.011 353.886 122.317 352.049 122.818C350.213 123.318 348.71 124.042 347.541 124.988C346.372 125.934 345.12 127.326 343.784 129.163C342.448 130.999 341.391 133.198 340.612 135.758C340.556 135.925 340.5 136.092 340.445 136.259C340.389 136.426 340.333 136.565 340.278 136.676C340.222 136.788 340.194 136.927 340.194 137.094C340.194 137.261 340.166 137.344 340.111 137.344L340.027 137.511C339.86 137.789 339.332 137.929 338.441 137.929C337.495 137.929 336.938 137.65 336.771 137.094L339.443 128.077C340.222 125.573 340.973 123.068 341.697 120.563C342.142 119.005 342.476 118.17 342.699 118.059C342.866 117.948 349.378 117.892 362.235 117.892H381.52C381.798 118.17 381.937 118.393 381.937 118.56C381.937 118.671 381.77 119.395 381.436 120.73C352.049 153.847 337.328 170.46 337.272 170.572L337.022 170.822H344.452C349.739 170.767 352.606 170.711 353.051 170.655C357.225 170.154 360.648 168.791 363.32 166.564C365.992 164.338 368.19 160.247 369.915 154.292C370.361 152.901 370.667 152.066 370.834 151.787C371.001 151.509 371.362 151.37 371.919 151.37H372.253C373.422 151.37 374.006 151.676 374.006 152.288C369.498 167.093 367.077 174.579 366.743 174.746C366.576 174.857 359.869 174.913 346.623 174.913H331.929C328.256 174.913 326.419 174.69 326.419 174.245Z" fill="white"/>
<path d="M385.032 162.115C383.969 162.115 383.123 161.761 382.494 161.052C381.864 160.344 381.549 159.478 381.549 158.455C381.549 155.661 382.592 153.241 384.678 151.195C386.763 149.149 389.36 148.126 392.469 148.126C396.05 148.126 399.04 149.228 401.441 151.431C403.841 153.635 405.061 156.488 405.1 159.99C405.1 161.682 404.707 163.295 403.92 164.83C403.133 166.365 402.188 167.703 401.087 168.844C399.985 169.985 398.411 171.441 396.365 173.212C394.948 174.431 392.98 176.241 390.462 178.642L386.98 181.947L391.465 182.006C397.643 182.006 400.929 181.908 401.323 181.711C401.598 181.632 402.07 179.881 402.739 176.458V176.281H405.1V176.458C405.061 176.576 404.805 178.366 404.333 181.829C403.861 185.292 403.566 187.102 403.448 187.259V187.437H381.549V186.315V185.607C381.549 185.331 381.667 185.036 381.903 184.721C382.14 184.407 382.73 183.718 383.674 182.656C384.815 181.396 385.799 180.295 386.625 179.35C386.98 178.957 387.649 178.229 388.632 177.166C389.616 176.104 390.285 175.376 390.639 174.982C390.993 174.589 391.564 173.939 392.351 173.034C393.138 172.129 393.689 171.46 394.004 171.028C394.318 170.595 394.771 170.005 395.361 169.257C395.951 168.509 396.365 167.88 396.601 167.368C396.837 166.857 397.132 166.286 397.486 165.656C397.84 165.027 398.096 164.397 398.253 163.768C398.411 163.138 398.548 162.548 398.667 161.997C398.785 161.446 398.844 160.797 398.844 160.049C398.844 157.57 398.175 155.425 396.837 153.615C395.499 151.805 393.59 150.9 391.111 150.9C389.813 150.9 388.672 151.235 387.688 151.904C386.704 152.572 386.016 153.222 385.622 153.851C385.229 154.481 385.032 154.855 385.032 154.973C385.032 155.012 385.13 155.032 385.327 155.032C386.035 155.032 386.763 155.307 387.511 155.858C388.258 156.409 388.632 157.314 388.632 158.573C388.632 159.557 388.318 160.383 387.688 161.052C387.058 161.721 386.173 162.075 385.032 162.115Z" fill="white"/>
<path d="M19.2429 51.1888C22.1995 51.1888 24.9056 49.8859 27.3611 47.28C29.8165 44.6742 31.0693 41.6425 31.1195 38.1847C31.1195 35.0277 29.8165 32.8478 27.2107 31.6451C21.8989 30.2921 18.4913 29.3651 16.9879 28.8639C15.4846 28.3628 14.4322 27.8617 13.8309 27.3606C10.8242 25.2559 9.3208 22.2241 9.3208 18.2653C9.3208 15.2085 10.1226 12.4273 11.7262 9.92166C13.3298 7.41607 14.9584 5.53688 16.6121 4.28408C18.0653 3.03128 19.8192 2.02905 21.8738 1.27737C23.9284 0.525692 25.532 0.124798 26.6846 0.0746841H27.5114H28.0376C32.8483 0.0746841 36.3311 1.67826 38.4859 4.88542C38.536 4.88542 38.8617 4.5597 39.4631 3.90824C40.0644 3.25679 40.7159 2.53017 41.4174 1.72837C42.119 0.926586 42.6201 0.375355 42.9208 0.0746841C42.9709 0.0746841 43.0711 0.0746841 43.2215 0.0746841C43.3718 0.0746841 43.4971 0.0496292 43.5973 -0.000484467C44.2488 -0.000484467 44.5745 0.174908 44.5745 0.525692C44.5745 0.876476 43.8729 3.90824 42.4698 9.62099C41.0667 15.3337 40.2649 18.2903 40.0644 18.4908C39.864 18.6912 39.4631 18.7664 38.8617 18.7163C37.8595 18.7163 37.3584 18.4908 37.3584 18.0398C37.3584 17.7391 37.3834 17.4886 37.4335 17.2881C37.4335 17.1378 37.4586 16.6617 37.5087 15.8599C37.5588 15.0581 37.6089 14.4067 37.659 13.9056C37.659 12.2018 37.4335 10.7235 36.9825 9.47066C36.5315 8.21786 36.0805 7.29079 35.6295 6.68945C35.1785 6.08811 34.5521 5.46171 33.7503 4.81025C31.9463 3.7579 29.8917 3.23173 27.5866 3.23173C24.7302 3.23173 22.0743 4.3843 19.6188 6.68945C17.1633 8.99459 15.9105 11.6505 15.8604 14.6572C15.8604 16.1606 16.2362 17.4635 16.9879 18.566C17.7396 19.6684 18.7669 20.4451 20.0698 20.8962C20.2702 20.9964 22.0242 21.4724 25.3315 22.3243C28.6389 23.1762 30.3177 23.6273 30.3678 23.6774C32.0716 24.2286 33.7253 25.4313 35.3288 27.2854C36.9324 29.1396 37.7342 31.6451 37.7342 34.8022C37.7342 36.1051 37.5338 37.5082 37.1329 39.0116C36.8823 40.114 36.4313 41.3418 35.7799 42.6948C35.1284 44.0478 34.2264 45.5261 33.0738 47.1297C31.9212 48.7333 30.2676 50.2366 28.1127 51.6398C25.9579 53.0429 23.6027 53.995 21.047 54.4961C20.4456 54.5964 19.5937 54.6465 18.4913 54.6465C13.5302 54.6465 9.67159 53.2684 6.91543 50.5123L6.16376 49.6854L4.05906 52.0156C2.90649 53.3686 2.20492 54.1454 1.95436 54.3458C1.7038 54.5463 1.37808 54.6465 0.977181 54.6465C0.325727 54.6465 0 54.446 0 54.0451C0 53.8948 1.45324 48.0067 4.35973 36.3807C4.45995 36.08 4.96107 35.9297 5.86309 35.9297H6.84027C7.14094 36.2304 7.29127 36.506 7.29127 36.7566C7.29127 36.8568 7.26622 37.0823 7.21611 37.4331C7.16599 37.7838 7.06577 38.31 6.91543 39.0116C6.7651 39.7132 6.71499 40.54 6.7651 41.4921C6.86532 43.4465 7.31633 45.1002 8.11812 46.4532C8.91991 47.8062 9.99731 48.8085 11.3503 49.4599C12.7034 50.1114 14.0063 50.5624 15.2591 50.8129C16.5119 51.0635 17.8398 51.1888 19.2429 51.1888Z" fill="white"/>
<path d="M53.4883 33.5506L52.7974 33.8163C52.3014 33.9934 51.5928 34.1706 50.6716 34.3477C49.7505 34.5249 48.723 34.6489 47.5893 34.7197H46.5796V32.2751H47.5893C49.2545 32.2043 50.7956 31.9386 52.2128 31.478C53.63 31.0174 54.622 30.5922 55.1889 30.2025C55.7557 29.8128 56.2517 29.4231 56.6769 29.0334C56.7477 28.9271 56.9603 28.8739 57.3146 28.8739C57.6335 28.8739 57.9346 28.9802 58.218 29.1928V45.0827L58.2712 61.0258C58.5192 61.2738 58.7318 61.4333 58.9089 61.5041C59.0861 61.575 59.5112 61.6458 60.1844 61.7167C60.8575 61.7875 61.9558 61.823 63.4793 61.823H64.861V64.2676H64.2764C63.5324 64.1613 60.7158 64.1081 55.8266 64.1081C51.0082 64.1081 48.227 64.1613 47.483 64.2676H46.8453V61.823H48.227C49.0065 61.823 49.6796 61.823 50.2465 61.823C50.8134 61.823 51.2562 61.8053 51.5751 61.7698C51.8939 61.7344 52.1774 61.6813 52.4254 61.6104C52.6734 61.5395 52.8151 61.5041 52.8505 61.5041C52.886 61.5041 52.9923 61.4155 53.1694 61.2384C53.3465 61.0612 53.4528 60.9904 53.4883 61.0258V33.5506Z" fill="white"/>
<path d="M97.5903 26.9092C97.5903 26.2578 97.9411 25.7566 98.6427 25.4059H146.525C147.276 25.8068 147.652 26.3079 147.652 26.9092C147.652 27.4604 147.301 27.9365 146.6 28.3374L122.696 28.4126H98.793C97.9912 28.162 97.5903 27.6609 97.5903 26.9092ZM97.5903 41.4918C97.5903 40.7401 97.9912 40.239 98.793 39.9884H146.6C147.301 40.4895 147.652 40.9906 147.652 41.4918C147.652 42.1432 147.276 42.6443 146.525 42.9951H98.6427C97.9411 42.6443 97.5903 42.1432 97.5903 41.4918Z" fill="white"/>
<path d="M175.9 52.9932H175.75C175.049 52.9932 174.698 52.7175 174.698 52.1663C174.698 51.9659 174.773 51.565 174.923 50.9636C175.124 50.2621 175.299 49.8612 175.449 49.761C175.6 49.6607 176.076 49.5856 176.878 49.5354C181.187 49.3851 184.57 48.0822 187.025 45.6267C187.526 45.1256 190.433 41.9686 195.745 36.1556C201.057 30.3426 203.687 27.386 203.637 27.2858C198.175 13.3547 195.319 6.26387 195.068 6.01331C194.617 5.46208 193.039 5.16141 190.333 5.1113H188.228C187.927 4.81062 187.777 4.61018 187.777 4.50995C187.777 4.40973 187.827 3.93367 187.927 3.08177C188.128 2.43031 188.378 1.95425 188.679 1.65358H189.731C191.435 1.7538 194.467 1.80391 198.827 1.80391C200.48 1.80391 202.009 1.80391 203.412 1.80391C204.815 1.80391 205.942 1.77886 206.794 1.72875C207.646 1.67863 208.147 1.67863 208.298 1.72875C209.15 1.72875 209.576 2.00436 209.576 2.55559C209.576 2.60571 209.525 2.93143 209.425 3.53277C209.225 4.28445 209.049 4.73546 208.899 4.88579C208.749 5.03613 208.348 5.1113 207.696 5.1113C206.143 5.26163 204.79 5.68758 203.637 6.38915L209.425 20.9717L213.409 16.5368C218.671 10.8742 221.302 7.74217 221.302 7.14083C221.302 6.23881 220.7 5.61242 219.498 5.26163C219.247 5.26163 218.921 5.21152 218.521 5.1113C217.769 5.1113 217.393 4.83568 217.393 4.28445C217.393 4.18423 217.443 3.78333 217.543 3.08177C217.744 2.43031 217.994 1.95425 218.295 1.65358H219.197C219.247 1.65358 219.874 1.65358 221.076 1.65358C222.279 1.65358 223.632 1.70369 225.135 1.80391C226.639 1.90414 227.666 1.9292 228.217 1.87908C232.727 1.87908 235.208 1.80391 235.659 1.65358H236.26C236.611 2.00436 236.786 2.27998 236.786 2.48042C236.686 3.73322 236.385 4.61018 235.884 5.1113H234.682C232.978 5.16141 231.449 5.38691 230.096 5.78781C228.743 6.1887 227.716 6.61465 227.015 7.06566C226.313 7.51667 225.712 7.96767 225.21 8.41868L224.384 9.09519C224.384 9.04507 222.003 11.6509 217.243 16.9126L210.703 24.1287C210.703 24.1789 211.48 26.1833 213.033 30.1422C214.587 34.101 216.215 38.1601 217.919 42.3193C219.623 46.4786 220.55 48.6334 220.7 48.7838C221.202 49.2348 222.73 49.4853 225.286 49.5354C227.04 49.5354 227.917 49.761 227.917 50.212C227.917 50.3122 227.866 50.663 227.766 51.2643C227.566 52.0661 227.39 52.5422 227.24 52.6925C227.09 52.8428 226.739 52.918 226.188 52.918C226.037 52.918 225.21 52.918 223.707 52.918C222.204 52.918 219.974 52.8929 217.017 52.8428C213.96 52.8428 211.63 52.8428 210.027 52.8428C208.423 52.8428 207.546 52.8679 207.396 52.918C206.544 52.918 206.118 52.6925 206.118 52.2415C206.118 52.1914 206.168 51.8155 206.268 51.114C206.368 50.6129 206.469 50.2621 206.569 50.0616C206.669 49.8612 206.794 49.7359 206.945 49.6858C207.095 49.6357 207.321 49.5856 207.621 49.5354C207.922 49.4853 208.323 49.4603 208.824 49.4603C209.325 49.4603 209.976 49.2849 210.778 48.9341C211.63 48.5332 212.056 48.2827 212.056 48.1824C212.006 48.1824 210.828 45.2509 208.523 39.3878L204.99 30.518C195.569 40.7408 190.734 46.1278 190.483 46.6791C190.283 47.08 190.182 47.3806 190.182 47.5811C190.182 48.5332 190.909 49.1596 192.362 49.4603C192.412 49.4603 192.563 49.4603 192.813 49.4603C193.064 49.4603 193.214 49.4853 193.264 49.5354C193.415 49.5354 193.515 49.5354 193.565 49.5354C193.615 49.5354 193.69 49.5605 193.79 49.6106C193.891 49.6607 193.966 49.7359 194.016 49.8361C194.066 49.9363 194.091 50.1117 194.091 50.3623C194.091 50.8133 194.041 51.2142 193.941 51.565C193.79 52.2164 193.64 52.5923 193.49 52.6925C193.339 52.7927 192.964 52.8679 192.362 52.918C192.212 52.918 191.761 52.918 191.009 52.918C190.257 52.918 189.205 52.8929 187.852 52.8428C186.499 52.7927 185.021 52.7927 183.417 52.8428C179.508 52.8428 177.003 52.8929 175.9 52.9932Z" fill="white"/>
<path d="M246.301 33.5506L245.61 33.8163C245.114 33.9934 244.406 34.1706 243.485 34.3477C242.563 34.5249 241.536 34.6489 240.402 34.7197H239.393V32.2751H240.402C242.067 32.2043 243.609 31.9386 245.026 31.478C246.443 31.0174 247.435 30.5922 248.002 30.2025C248.569 29.8128 249.065 29.4231 249.49 29.0334C249.561 28.9271 249.773 28.8739 250.128 28.8739C250.446 28.8739 250.748 28.9802 251.031 29.1928V45.0827L251.084 61.0258C251.332 61.2738 251.545 61.4333 251.722 61.5041C251.899 61.575 252.324 61.6458 252.997 61.7167C253.67 61.7875 254.769 61.823 256.292 61.823H257.674V64.2676H257.089C256.345 64.1613 253.529 64.1081 248.64 64.1081C243.821 64.1081 241.04 64.1613 240.296 64.2676H239.658V61.823H241.04C241.819 61.823 242.493 61.823 243.059 61.823C243.626 61.823 244.069 61.8053 244.388 61.7698C244.707 61.7344 244.99 61.6813 245.238 61.6104C245.486 61.5395 245.628 61.5041 245.664 61.5041C245.699 61.5041 245.805 61.4155 245.982 61.2384C246.16 61.0612 246.266 60.9904 246.301 61.0258V33.5506Z" fill="white"/>
<path d="M268.477 52.9932H268.326C267.625 52.9932 267.274 52.7175 267.274 52.1663C267.274 51.9659 267.349 51.565 267.499 50.9636C267.7 50.2621 267.875 49.8612 268.026 49.761C268.176 49.6607 268.652 49.5856 269.454 49.5354C273.763 49.3851 277.146 48.0822 279.601 45.6267C280.103 45.1256 283.009 41.9686 288.321 36.1556C293.633 30.3426 296.264 27.386 296.214 27.2858C290.751 13.3547 287.895 6.26387 287.644 6.01331C287.193 5.46208 285.615 5.16141 282.909 5.1113H280.804C280.503 4.81062 280.353 4.61018 280.353 4.50995C280.353 4.40973 280.403 3.93367 280.503 3.08177C280.704 2.43031 280.954 1.95425 281.255 1.65358H282.307C284.011 1.7538 287.043 1.80391 291.403 1.80391C293.056 1.80391 294.585 1.80391 295.988 1.80391C297.391 1.80391 298.519 1.77886 299.371 1.72875C300.222 1.67863 300.724 1.67863 300.874 1.72875C301.726 1.72875 302.152 2.00436 302.152 2.55559C302.152 2.60571 302.102 2.93143 302.001 3.53277C301.801 4.28445 301.626 4.73546 301.475 4.88579C301.325 5.03613 300.924 5.1113 300.273 5.1113C298.719 5.26163 297.366 5.68758 296.214 6.38915L302.001 20.9717L305.985 16.5368C311.247 10.8742 313.878 7.74217 313.878 7.14083C313.878 6.23881 313.277 5.61242 312.074 5.26163C311.823 5.26163 311.498 5.21152 311.097 5.1113C310.345 5.1113 309.969 4.83568 309.969 4.28445C309.969 4.18423 310.019 3.78333 310.12 3.08177C310.32 2.43031 310.571 1.95425 310.871 1.65358H311.773C311.823 1.65358 312.45 1.65358 313.652 1.65358C314.855 1.65358 316.208 1.70369 317.711 1.80391C319.215 1.90414 320.242 1.9292 320.793 1.87908C325.303 1.87908 327.784 1.80391 328.235 1.65358H328.836C329.187 2.00436 329.363 2.27998 329.363 2.48042C329.262 3.73322 328.962 4.61018 328.46 5.1113H327.258C325.554 5.16141 324.026 5.38691 322.673 5.78781C321.32 6.1887 320.292 6.61465 319.591 7.06566C318.889 7.51667 318.288 7.96767 317.787 8.41868L316.96 9.09519C316.96 9.04507 314.58 11.6509 309.819 16.9126L303.279 24.1287C303.279 24.1789 304.056 26.1833 305.609 30.1422C307.163 34.101 308.792 38.1601 310.495 42.3193C312.199 46.4786 313.126 48.6334 313.277 48.7838C313.778 49.2348 315.306 49.4853 317.862 49.5354C319.616 49.5354 320.493 49.761 320.493 50.212C320.493 50.3122 320.443 50.663 320.342 51.2643C320.142 52.0661 319.967 52.5422 319.816 52.6925C319.666 52.8428 319.315 52.918 318.764 52.918C318.614 52.918 317.787 52.918 316.283 52.918C314.78 52.918 312.55 52.8929 309.593 52.8428C306.537 52.8428 304.206 52.8428 302.603 52.8428C300.999 52.8428 300.122 52.8679 299.972 52.918C299.12 52.918 298.694 52.6925 298.694 52.2415C298.694 52.1914 298.744 51.8155 298.844 51.114C298.945 50.6129 299.045 50.2621 299.145 50.0616C299.245 49.8612 299.371 49.7359 299.521 49.6858C299.671 49.6357 299.897 49.5856 300.197 49.5354C300.498 49.4853 300.899 49.4603 301.4 49.4603C301.901 49.4603 302.553 49.2849 303.354 48.9341C304.206 48.5332 304.632 48.2827 304.632 48.1824C304.582 48.1824 303.405 45.2509 301.099 39.3878L297.567 30.518C288.146 40.7408 283.31 46.1278 283.059 46.6791C282.859 47.08 282.758 47.3806 282.758 47.5811C282.758 48.5332 283.485 49.1596 284.938 49.4603C284.988 49.4603 285.139 49.4603 285.389 49.4603C285.64 49.4603 285.79 49.4853 285.84 49.5354C285.991 49.5354 286.091 49.5354 286.141 49.5354C286.191 49.5354 286.266 49.5605 286.367 49.6106C286.467 49.6607 286.542 49.7359 286.592 49.8361C286.642 49.9363 286.667 50.1117 286.667 50.3623C286.667 50.8133 286.617 51.2142 286.517 51.565C286.367 52.2164 286.216 52.5923 286.066 52.6925C285.916 52.7927 285.54 52.8679 284.938 52.918C284.788 52.918 284.337 52.918 283.585 52.918C282.834 52.918 281.781 52.8929 280.428 52.8428C279.075 52.7927 277.597 52.7927 275.993 52.8428C272.085 52.8428 269.579 52.8929 268.477 52.9932Z" fill="white"/>
<path d="M333.351 41.469C332.395 41.469 331.633 41.1501 331.066 40.5124C330.499 39.8747 330.216 39.0952 330.216 38.1741C330.216 35.6586 331.155 33.4797 333.032 31.6374C334.91 29.7951 337.248 28.8739 340.047 28.8739C343.271 28.8739 345.964 29.866 348.125 31.85C350.286 33.834 351.385 36.4026 351.42 39.5558C351.42 41.0793 351.066 42.5318 350.357 43.9136C349.649 45.2953 348.798 46.4999 347.806 47.5273C346.814 48.5548 345.397 49.8657 343.555 51.46C342.279 52.5583 340.508 54.188 338.241 56.3492L335.105 59.3252L339.144 59.3784C344.706 59.3784 347.665 59.2898 348.019 59.1126C348.267 59.0418 348.692 57.4652 349.294 54.3829V54.2234H351.42V54.3829C351.385 54.4892 351.154 56.1012 350.729 59.2189C350.304 62.3367 350.038 63.9664 349.932 64.1081V64.2676H330.216V63.2578V62.6201C330.216 62.3721 330.322 62.1064 330.535 61.823C330.747 61.5395 331.279 60.9195 332.129 59.9629C333.156 58.8292 334.042 57.8372 334.786 56.9869C335.105 56.6326 335.707 55.9772 336.593 55.0206C337.479 54.064 338.081 53.4086 338.4 53.0543C338.719 52.7 339.233 52.1154 339.941 51.3005C340.65 50.4857 341.146 49.8834 341.429 49.4937C341.713 49.1039 342.12 48.5725 342.651 47.8993C343.183 47.2262 343.555 46.6593 343.767 46.1988C343.98 45.7382 344.246 45.2245 344.565 44.6576C344.883 44.0907 345.114 43.5239 345.255 42.957C345.397 42.3901 345.521 41.8587 345.627 41.3627C345.734 40.8667 345.787 40.2821 345.787 39.6089C345.787 37.3769 345.185 35.446 343.98 33.8163C342.775 32.1866 341.057 31.3717 338.825 31.3717C337.656 31.3717 336.628 31.6728 335.743 32.2751C334.857 32.8774 334.237 33.462 333.883 34.0289C333.528 34.5957 333.351 34.9323 333.351 35.0386C333.351 35.074 333.44 35.0917 333.617 35.0917C334.255 35.0917 334.91 35.3397 335.583 35.8357C336.256 36.3318 336.593 37.1466 336.593 38.2804C336.593 39.1661 336.31 39.9101 335.743 40.5124C335.176 41.1147 334.379 41.4335 333.351 41.469Z" fill="white"/>
<path d="M361.045 52.9932H360.895C360.194 52.9932 359.843 52.7175 359.843 52.1663C359.843 51.9659 359.918 51.565 360.068 50.9636C360.269 50.2621 360.444 49.8612 360.594 49.761C360.745 49.6607 361.221 49.5856 362.023 49.5354C366.332 49.3851 369.715 48.0822 372.17 45.6267C372.671 45.1256 375.578 41.9686 380.89 36.1556C386.202 30.3426 388.832 27.386 388.782 27.2858C383.32 13.3547 380.464 6.26387 380.213 6.01331C379.762 5.46208 378.184 5.16141 375.478 5.1113H373.373C373.072 4.81062 372.922 4.61018 372.922 4.50995C372.922 4.40973 372.972 3.93367 373.072 3.08177C373.273 2.43031 373.523 1.95425 373.824 1.65358H374.876C376.58 1.7538 379.612 1.80391 383.972 1.80391C385.625 1.80391 387.154 1.80391 388.557 1.80391C389.96 1.80391 391.088 1.77886 391.939 1.72875C392.791 1.67863 393.292 1.67863 393.443 1.72875C394.295 1.72875 394.721 2.00436 394.721 2.55559C394.721 2.60571 394.671 2.93143 394.57 3.53277C394.37 4.28445 394.194 4.73546 394.044 4.88579C393.894 5.03613 393.493 5.1113 392.841 5.1113C391.288 5.26163 389.935 5.68758 388.782 6.38915L394.57 20.9717L398.554 16.5368C403.816 10.8742 406.447 7.74217 406.447 7.14083C406.447 6.23881 405.845 5.61242 404.643 5.26163C404.392 5.26163 404.066 5.21152 403.666 5.1113C402.914 5.1113 402.538 4.83568 402.538 4.28445C402.538 4.18423 402.588 3.78333 402.688 3.08177C402.889 2.43031 403.139 1.95425 403.44 1.65358H404.342C404.392 1.65358 405.019 1.65358 406.221 1.65358C407.424 1.65358 408.777 1.70369 410.28 1.80391C411.784 1.90414 412.811 1.9292 413.362 1.87908C417.872 1.87908 420.353 1.80391 420.804 1.65358H421.405C421.756 2.00436 421.931 2.27998 421.931 2.48042C421.831 3.73322 421.53 4.61018 421.029 5.1113H419.827C418.123 5.16141 416.594 5.38691 415.241 5.78781C413.888 6.1887 412.861 6.61465 412.16 7.06566C411.458 7.51667 410.857 7.96767 410.356 8.41868L409.529 9.09519C409.529 9.04507 407.148 11.6509 402.388 16.9126L395.848 24.1287C395.848 24.1789 396.625 26.1833 398.178 30.1422C399.732 34.101 401.36 38.1601 403.064 42.3193C404.768 46.4786 405.695 48.6334 405.845 48.7838C406.347 49.2348 407.875 49.4853 410.431 49.5354C412.185 49.5354 413.062 49.761 413.062 50.212C413.062 50.3122 413.011 50.663 412.911 51.2643C412.711 52.0661 412.535 52.5422 412.385 52.6925C412.235 52.8428 411.884 52.918 411.333 52.918C411.182 52.918 410.356 52.918 408.852 52.918C407.349 52.918 405.119 52.8929 402.162 52.8428C399.105 52.8428 396.775 52.8428 395.172 52.8428C393.568 52.8428 392.691 52.8679 392.541 52.918C391.689 52.918 391.263 52.6925 391.263 52.2415C391.263 52.1914 391.313 51.8155 391.413 51.114C391.513 50.6129 391.614 50.2621 391.714 50.0616C391.814 49.8612 391.939 49.7359 392.09 49.6858C392.24 49.6357 392.466 49.5856 392.766 49.5354C393.067 49.4853 393.468 49.4603 393.969 49.4603C394.47 49.4603 395.122 49.2849 395.923 48.9341C396.775 48.5332 397.201 48.2827 397.201 48.1824C397.151 48.1824 395.973 45.2509 393.668 39.3878L390.135 30.518C380.714 40.7408 375.879 46.1278 375.628 46.6791C375.428 47.08 375.327 47.3806 375.327 47.5811C375.327 48.5332 376.054 49.1596 377.507 49.4603C377.557 49.4603 377.708 49.4603 377.958 49.4603C378.209 49.4603 378.359 49.4853 378.409 49.5354C378.56 49.5354 378.66 49.5354 378.71 49.5354C378.76 49.5354 378.835 49.5605 378.935 49.6106C379.036 49.6607 379.111 49.7359 379.161 49.8361C379.211 49.9363 379.236 50.1117 379.236 50.3623C379.236 50.8133 379.186 51.2142 379.086 51.565C378.935 52.2164 378.785 52.5923 378.635 52.6925C378.484 52.7927 378.109 52.8679 377.507 52.918C377.357 52.918 376.906 52.918 376.154 52.918C375.403 52.918 374.35 52.8929 372.997 52.8428C371.644 52.7927 370.166 52.7927 368.562 52.8428C364.654 52.8428 362.148 52.8929 361.045 52.9932Z" fill="white"/>
<path d="M426.877 39.6619C425.92 39.6619 425.176 39.3607 424.645 38.7584C424.113 38.1561 423.83 37.3767 423.794 36.4201C423.794 34.4715 424.645 32.7355 426.345 31.212C428.046 29.6886 430.101 28.9269 432.51 28.9269C433.75 28.9269 434.529 28.9446 434.848 28.98C437.47 29.4052 439.472 30.344 440.853 31.7966C442.235 33.2492 442.944 34.8258 442.979 36.5264C442.979 38.3687 442.377 40.1579 441.172 41.8939C439.968 43.6299 438.302 44.8877 436.177 45.6671L436.017 45.7734C436.017 45.8088 436.177 45.862 436.496 45.9328C436.814 46.0037 437.328 46.1631 438.037 46.4111C438.745 46.6591 439.418 47.0311 440.056 47.5271C442.961 49.4049 444.414 51.8849 444.414 54.9672C444.414 57.7661 443.316 60.2107 441.119 62.3011C438.922 64.3914 436.141 65.4365 432.776 65.4365C429.941 65.4365 427.497 64.6748 425.442 63.1513C423.387 61.6279 422.359 59.697 422.359 57.3587C422.359 56.3667 422.678 55.5695 423.316 54.9672C423.954 54.3649 424.751 54.0461 425.707 54.0106C426.699 54.0106 427.514 54.3295 428.152 54.9672C428.79 55.605 429.109 56.4021 429.109 57.3587C429.109 57.7484 429.055 58.1027 428.949 58.4216C428.843 58.7404 428.719 59.0239 428.577 59.2719C428.435 59.5199 428.241 59.7324 427.993 59.9096C427.745 60.0867 427.532 60.2284 427.355 60.3347C427.178 60.441 427.001 60.5119 426.823 60.5473C426.646 60.5827 426.505 60.6359 426.398 60.7067L426.186 60.7599C427.993 62.3542 430.189 63.1513 432.776 63.1513C434.724 63.1513 436.194 62.2125 437.186 60.3347C437.789 59.1656 438.09 57.3764 438.09 54.9672V53.9044C438.09 50.5386 436.956 48.2889 434.689 47.1551C434.157 46.9425 433.077 46.8185 431.447 46.7831L429.215 46.73L429.055 46.6237C428.985 46.5174 428.949 46.234 428.949 45.7734C428.949 45.1357 429.091 44.8168 429.374 44.8168C430.366 44.8168 431.394 44.7282 432.457 44.5511C433.661 44.3739 434.76 43.6299 435.752 42.3191C436.744 41.0082 437.24 39.0241 437.24 36.367V35.9418C437.24 33.9224 436.62 32.5229 435.38 31.7435C434.6 31.2475 433.768 30.9995 432.882 30.9995C431.748 30.9995 430.703 31.1943 429.746 31.584C428.79 31.9738 428.117 32.3812 427.727 32.8063C427.337 33.2315 427.142 33.4441 427.142 33.4441H427.302C427.408 33.4795 427.55 33.5149 427.727 33.5504C427.904 33.5858 428.081 33.6744 428.258 33.8161C428.435 33.9578 428.648 34.0818 428.896 34.1881C429.144 34.2944 429.321 34.4892 429.427 34.7727C429.534 35.0561 429.675 35.3218 429.853 35.5698C430.03 35.8178 430.083 36.1721 430.012 36.6327C430.012 37.4121 429.764 38.103 429.268 38.7053C428.772 39.3076 427.975 39.6264 426.877 39.6619Z" fill="white"/>
</svg>
